<?xml version="1.0" encoding="utf-8" standalone="yes"?>
<!DOCTYPE svg PUBLIC "-//W3C//DTD SVG 1.1//EN" "http://www.w3.org/Graphics/SVG/1.1/DTD/svg11.dtd">
<svg width="1043" height="588" viewBox="0 0 1043 588" style="fill:none;stroke:none;fill-rule:evenodd;clip-rule:evenodd;stroke-linecap:round;stroke-linejoin:round;stroke-miterlimit:1.5;" version="1.1" xmlns="http://www.w3.org/2000/svg" xmlns:xlink="http://www.w3.org/1999/xlink"><style class="text-font-style fontImports" data-font-family="Roboto">@import url('https://fonts.googleapis.com/css2?family=Roboto:wght@400;700&amp;display=block');</style><g id="items" style="isolation: isolate"><g id="blend" style="mix-blend-mode: normal"><g id="g-root-0.cu_sy_8x4wq5199voct-fill" data-item-order="1999755699" transform="translate(441.67242431640625, 452.42236328125)"><g id="0.cu_sy_8x4wq5199voct-fill" stroke="none" fill="#666666"><g><path d="M 54.721153 98.927498C 57.375984 105.145218 65.294708 109.649185 74.669815 109.649185C 84.044823 109.649185 91.963364 105.145218 94.618195 98.927498C 88.77774 100.489494 81.951385 101.399414 74.669815 101.399414C 67.388145 101.399414 60.561649 100.489494 54.721153 98.927498ZM 35.606976 84.945587C 37.048195 94.150719 53.977871 101.399742 74.669762 101.399742C 95.361702 101.399742 112.306587 94.135651 113.732597 84.945587C 104.554642 87.553909 90.476845 89.222092 74.669762 89.222092C 58.862545 89.222092 44.76973 87.553909 35.606976 84.945587ZM 17.387743 10.000026C 12.685053 15.444282 9.999993 20.206041 9.999993 22.677959C 9.999993 24.421942 11.334989 26.090164 13.762072 27.652119C 16.947876 29.684168 18.009594 33.794033 16.128555 37.069645C 14.975683 39.071465 14.3689 40.739502 14.3689 41.877029C 14.3689 43.636036 15.82528 45.319416 18.464762 46.866211C 21.741581 48.777061 23.031 52.932316 21.149961 56.2383C 20.11838 58.042927 19.572197 59.559353 19.572197 60.590652C 19.572197 62.182884 20.876776 63.699444 23.243399 65.109787C 26.474642 67.020638 27.399906 71.206123 25.670483 74.527313C 24.972685 75.876915 24.593601 76.999184 24.593601 77.802925C 24.593601 84.111664 47.014782 89.222275 74.654602 89.222275C 102.294426 89.222275 124.715607 84.111664 124.715607 77.802925C 124.715607 76.999184 124.35141 75.876915 123.638405 74.527313C 121.908974 71.206123 122.849731 67.020638 126.065811 65.109787C 128.432251 63.714607 129.736877 62.182884 129.736877 60.590652C 129.736877 59.559353 129.190826 58.057999 128.159241 56.2383C 126.278206 52.947384 127.56749 48.792221 130.844116 46.866211C 133.498947 45.319416 134.94017 43.636036 134.94017 41.877029C 134.94017 40.739502 134.333344 39.071465 133.180374 37.069645C 131.299332 33.794033 132.361282 29.669006 135.546951 27.652119C 137.98938 26.105326 139.309219 24.421942 139.309219 22.677959C 139.309219 20.206041 136.624023 15.444282 131.921326 10.000026C 121.120346 14.701185 99.533371 17.916153 74.639397 17.916153C 49.745419 17.916153 28.188858 14.701185 17.387743 10.000026Z"></path></g></g></g><g id="g-root-7.cu_sy_4hbelp199vp52-fill" data-item-order="1999755703" transform="translate(413.3954772949219, 369.07470703125)"><g id="7.cu_sy_4hbelp199vp52-fill" stroke="none" fill="#ba5de5"><g><path d="M 38.079651 80.684212C 37.245403 54.448708 27.126875 29.593306 10.000004 10.030361L 194.497421 9.999992C 177.67424 29.426483 168.177109 54.388062 167.510132 80.365776C 167.449356 82.746681 166.949493 85.082146 165.902695 87.205215C 164.810333 89.419434 163.186203 91.936745 161.093369 92.92247C 150.641205 97.866257 128.401901 101.278465 102.794922 101.278465C 77.187881 101.278465 55.039562 97.881462 44.572369 92.952835C 43.191933 92.300758 41.99353 91.102676 41.037712 89.78331C 39.111279 87.159775 38.185875 83.944809 38.079651 80.684212Z"></path></g></g></g><g id="g-root-7.line_sy_1unexf1199vmkv-fill" data-item-order="1999755708" transform="translate(250.4168701171875, 419.892822265625)"></g><g id="g-root-6.cu_sy_1q7lfal199vnd4-fill" data-item-order="1999755711" transform="translate(506.2205810546875, 273.82373046875)"><g id="6.cu_sy_1q7lfal199vnd4-fill" stroke="none" fill="#de58a9"><g><path d="M 165.659622 9.999987C 157.331161 43.120514 138.748001 72.191826 113.459587 93.589767L 113.490005 93.62014C 109.227135 97.229401 105.313301 101.141884 101.71804 105.297142L 10.015209 105.312347L 10.000002 10.015194L 165.659622 9.999987Z"></path></g></g></g><g id="g-root-6.line_sy_1lrrx65199vo5d-fill" data-item-order="1999755716" transform="translate(651.5114135742188, 346.966796875)"></g><g id="g-root-5.cu_sy_1cw4wx9199voy2-fill" data-item-order="1999755719" transform="translate(349.4385681152344, 273.793212890625)"><g id="5.cu_sy_1cw4wx9199voy2-fill" stroke="none" fill="#e55753"><g><path d="M 61.881401 93.362312C 36.759865 71.979576 18.282934 43.014351 10.00001 10.015206L 166.782364 9.999998L 166.797562 105.28199L 73.956818 105.28199C 70.255341 101.05088 66.21994 97.062584 61.881401 93.362312Z"></path></g></g></g><g id="g-root-5.line_sy_1cw4wx9199voy3-fill" data-item-order="1999755724" transform="translate(250.4168701171875, 346.966796875)"></g><g id="g-root-4.cu_sy_18gxvvx199vmkk-fill" data-item-order="1999755727" transform="translate(506.1903076171875, 178.556640625)"><g id="4.cu_sy_18gxvvx199vmkk-fill" stroke="none" fill="#de8431"><g><path d="M 170.513779 65.943886C 170.513779 79.51667 168.81514 92.679871 165.659561 105.266808L 9.99999 105.281975L 10.015197 10.000009L 160.516922 10.000009C 166.979858 27.424683 170.513779 46.274765 170.513779 65.943886Z"></path></g></g></g><g id="g-root-4.line_sy_zlavn1199vnd9-fill" data-item-order="1999755732" transform="translate(687.9745483398438, 219.345703125)"></g><g id="g-root-3.cu_sy_zlavn1199vnda-fill" data-item-order="1999755735" transform="translate(344.61334228515625, 178.510986328125)"><g id="3.cu_sy_zlavn1199vnda-fill" stroke="none" fill="#e0cb15"><g><path d="M 10.031444 62.744049C 10.395504 44.25787 13.930115 26.51474 20.089184 10.015171L 171.638062 9.999987L 171.622864 105.297119L 14.855704 105.28196C 11.442432 91.694107 9.743237 77.439011 10.031444 62.744049Z"></path></g></g></g><g id="g-root-3.line_sy_v5hdil199vo5j-fill" data-item-order="1999755740" transform="translate(250.41693115234375, 219.345703125)"></g><g id="g-root-2.cu_sy_hunc8d199vmko-fill" data-item-order="1999755743" transform="translate(506.23583984375, 73.4931640625)"><g id="2.cu_sy_hunc8d199vmko-fill" stroke="none" fill="#92bd39"><g><path d="M 10.015183 9.999996C 79.038658 10.242626 137.837616 53.872448 160.516769 115.048325L 9.999975 115.063515L 10.015183 9.999996Z"></path></g></g></g><g id="g-root-2.line_sy_hunc8d199vmkp-fill" data-item-order="1999755748" transform="translate(615.0482788085938, 73.4931640625)"></g><g id="g-root-1.cu_sy_detu3x199vncy-fill" data-item-order="1999755751" transform="translate(354.70263671875, 73.4931640625)"><g id="1.cu_sy_detu3x199vncy-fill" stroke="none" fill="#3cc583"><g><path d="M 158.666107 9.999995L 161.518127 9.999995L 161.53334 115.048302L 10.000007 115.048302C 32.618561 54.524517 90.780266 10.940283 158.666107 9.999995Z"></path></g></g></g><g id="g-root-1.line_sy_4j6tv1199vo5n-fill" data-item-order="1999755756" transform="translate(250.41690063476562, 73.4931640625)"></g><g id="g-root-2_1um68q5199n9xp-fill" data-item-order="1999998704" transform="translate(569.700927734375, 210.46142578125)"><g id="2_1um68q5199n9xp-fill" stroke="none" fill="#484848"><g><path d="M 13.0045 11.5C 13.0045 10.671573 12.332927 10 11.5045 10C 10.676073 10 10.0045 10.671573 10.0045 11.5L 10.0045 19.360001L 10.0045 19.402L 10.0045 27.442001L 10.0045 27.456999L 10.0045 40.213001C 10.004211 40.229996 10.004211 40.247002 10.0045 40.264L 10.0045 44.5C 10.0045 45.328426 10.676073 46 11.5045 46L 44.495499 46C 45.323925 46 45.995499 45.328426 45.995499 44.5C 45.995499 43.671574 45.323925 43 44.495499 43L 13.0045 43L 13.0045 41.081501L 23.521 34.697502L 26.3785 36.817001C 26.5315 36.931 26.706999 37.014999 26.891499 37.064499L 39.358002 40.328499C 39.994568 40.495224 40.66547 40.227592 41.012497 39.668499L 45.411999 32.596001C 45.828995 31.893993 45.607895 30.987396 44.914528 30.556183C 44.221161 30.124973 43.310246 30.32756 42.864998 31.012001L 39.049 37.146999L 27.934 34.2355L 24.499001 31.688499C 24.009228 31.324827 23.347994 31.293991 22.8265 31.6105L 13.0045 37.57L 13.0045 28.025501L 16.2355 24.445L 20.545 27.401501C 21.023619 27.729898 21.648745 27.752682 22.150002 27.460001L 26.263 25.0555L 30.6355 31.921001C 30.895931 32.330414 31.338318 32.588562 31.822882 32.613876C 32.307449 32.639194 32.774326 32.428547 33.076 32.0485L 39.746498 23.653L 43.373501 25.8055C 44.084465 26.210642 44.988953 25.971205 45.406345 25.267363C 45.823742 24.56352 45.600006 23.655024 44.9035 23.2255L 41.630501 21.282999L 45.313 16.648001C 45.823032 15.999056 45.712952 15.059983 45.066666 14.546587C 44.42038 14.033191 43.480747 14.138391 42.964001 14.782L 39.026501 19.738001L 35.015499 17.359001C 34.546806 17.08045 33.963875 17.078152 33.493 17.353001L 27.2425 21.01L 23.3575 14.911C 23.106146 14.516171 22.684898 14.2613 22.218515 14.22187C 21.752131 14.182441 21.294071 14.362973 20.98 14.71L 15.769 20.485001L 13.0045 18.594999L 13.0045 11.5ZM 18.264999 22.199501L 21.459999 24.390999L 24.650501 22.525002L 21.886 18.184L 18.264999 22.199501ZM 13.741 22.735001L 13.006 22.231001L 13.006 23.548L 13.741 22.735001ZM 28.856501 23.542L 32.036499 28.536999L 37.144001 22.109501L 34.245998 20.390499L 28.856501 23.540501Z"></path></g></g></g><g id="g-root-bala_dcc0x9199j0uk-fill" data-item-order="1999998704" transform="translate(405.6168212890625, 210.46142578125)"><g id="bala_dcc0x9199j0uk-fill" stroke="none" fill="#484848"><g><path d="M 46 17.200001C 46 18.16 45.359501 18.800501 44.399502 18.800501L 38.800003 18.800501C 37.84 18.800501 37.199501 18.16 37.199501 17.200001L 37.199501 11.6005C 37.199501 10.6405 37.84 10 38.800003 10L 44.399502 10C 45.359501 10 46 10.6405 46 11.6005L 46 17.200001ZM 46 30.800499C 46 31.7605 45.359501 32.399498 44.399502 32.399498L 38.800003 32.399498C 37.84 32.399498 37.199501 31.7605 37.199501 30.800499L 37.199501 25.199501C 37.199501 24.2395 37.84 23.6005 38.800003 23.6005L 44.399502 23.6005C 45.359501 23.6005 46 24.2395 46 25.199501L 46 30.800499ZM 44.399502 46C 45.359501 46 46 45.359501 46 44.399502L 46 38.800003C 46 37.84 45.359501 37.199501 44.399502 37.199501L 38.800003 37.199501C 37.84 37.199501 37.199501 37.84 37.199501 38.800003L 37.199501 44.399502C 37.199501 45.359501 37.84 46 38.800003 46L 44.399502 46ZM 20.5 31.825001C 20.5 32.724998 19.9 33.325001 19 33.325001L 11.5 33.325001C 10.6 33.325001 10 32.724998 10 31.825001L 10 24.325001C 10 23.424999 10.6 22.825001 11.5 22.825001L 19 22.825001C 19.9 22.825001 20.5 23.424999 20.5 24.325001L 20.5 31.825001ZM 28.105 12.2275C 27.505013 12.143435 26.913364 12.428556 26.605284 12.950225C 26.297203 13.471892 26.333189 14.127674 26.696499 14.6125L 27.8335 16.125999L 21.2635 21.290501C 21.407499 21.3955 21.547001 21.515499 21.678999 21.646C 22.3195 22.286499 22.6525 23.102499 22.732 23.933498C 22.792 23.897501 22.851999 23.857 22.911999 23.812L 29.636499 18.5245L 30.747999 20.002001C 31.112291 20.487507 31.733274 20.705616 32.321152 20.554541C 32.909031 20.403465 33.347919 19.912989 33.432999 19.312L 34.100498 14.5915C 34.216351 13.771391 33.645576 13.012596 32.8255 12.8965L 28.106501 12.2275ZM 22.75 29.575001L 28.265499 29.575001L 28.265499 31.375C 28.265629 31.981594 28.631092 32.5284 29.191519 32.760517C 29.751945 32.992634 30.397007 32.864361 30.826 32.435501L 34.113998 29.146C 34.40094 28.865223 34.563076 28.480959 34.564003 28.0795L 34.563999 28.042C 34.556671 27.666697 34.408337 27.307905 34.148499 27.036999L 30.848499 23.587C 30.424688 23.144747 29.774549 23.004616 29.206184 23.233017C 28.637821 23.46142 28.265434 24.012461 28.265499 24.625L 28.265499 26.575001L 22.75 26.575001L 22.75 29.575001ZM 21.678999 34.504002C 21.547001 34.634499 21.409 34.753002 21.2635 34.859501L 27.8335 40.024002L 26.696499 41.535999C 26.331831 42.021023 26.295317 42.677986 26.603992 43.200439C 26.912666 43.722885 27.505714 44.007889 28.106501 43.922501L 32.8255 43.255001C 33.645576 43.138905 34.216351 42.380108 34.100498 41.560001L 33.432999 36.8395C 33.348408 36.238266 32.90971 35.747322 32.321735 35.595894C 31.733765 35.444466 31.112494 35.662422 30.747999 36.147999L 29.638 37.6255L 22.9105 32.3395C 22.853445 32.2948 22.793295 32.254196 22.730501 32.218002C 22.658531 33.079628 22.2864 33.888657 21.679001 34.504002Z"></path></g></g></g><g id="g-root-netw_2r0z1199vn62-fill" data-item-order="1999998704" transform="translate(487.65887451171875, 392.777099609375)"><g id="netw_2r0z1199vn62-fill" stroke="none" fill="#484848"><g><path d="M 42.235001 10C 40.169792 10.008261 38.499985 11.684776 38.5 13.75C 38.502605 14.157673 38.568386 14.562479 38.695 14.950001C 38.744186 15.081663 38.708588 15.230002 38.605 15.325L 35.185001 18.715C 34.754257 19.142214 34.623264 19.786827 34.853096 20.348278C 35.082932 20.909729 35.628334 21.277456 36.235001 21.280001C 36.633705 21.282305 37.016922 21.12578 37.300003 20.844999L 40.75 17.5C 40.844997 17.396414 40.993336 17.360813 41.125 17.41C 41.484879 17.519272 41.858902 17.574871 42.235001 17.575001C 44.306068 17.575001 45.985001 15.896068 45.985001 13.825C 45.985001 11.753932 44.306068 10.075 42.235001 10.075ZM 42.25 38.5C 41.842327 38.502605 41.437523 38.568386 41.050003 38.695C 40.918335 38.744186 40.769997 38.708588 40.675003 38.605L 37.989998 35.904999C 37.40596 35.316818 36.455681 35.313457 35.8675 35.897499C 35.279316 36.481541 35.275959 37.431816 35.860001 38.02L 38.574997 40.75C 38.67767 40.851784 38.712685 41.003521 38.665001 41.139999C 38.555725 41.499878 38.50013 41.873901 38.5 42.25C 38.5 44.321068 40.178932 46 42.25 46C 44.321068 46 46 44.321068 46 42.25C 46 40.178932 44.321068 38.5 42.25 38.5ZM 20.815001 18.715L 17.41 15.325C 17.306416 15.230002 17.270813 15.081663 17.32 14.95C 17.441526 14.561676 17.502245 14.156889 17.5 13.75C 17.499989 12.231904 16.584698 10.863579 15.181577 10.284039C 13.778456 9.704501 12.164344 10.028094 11.093041 11.103699C 10.021739 12.179304 9.704618 13.7947 10.289776 15.195487C 10.874933 16.596275 12.246917 17.506073 13.765 17.5C 14.1411 17.49987 14.515124 17.444273 14.875 17.334999C 15.026587 17.304314 15.181464 17.369839 15.265 17.5L 18.700001 20.844999C 18.983078 21.12578 19.366295 21.282305 19.764999 21.280001C 20.165869 21.278336 20.549393 21.116283 20.83 20.83C 21.407455 20.240828 21.400755 19.295923 20.815001 18.715ZM 13.75 46C 15.821068 46 17.5 44.321068 17.5 42.25C 17.49987 41.873901 17.444273 41.499878 17.334999 41.139999C 17.301792 40.99234 17.368698 40.840279 17.5 40.764999L 20.215 38.02C 20.79904 37.431816 20.795683 36.481541 20.2075 35.897499C 19.619316 35.313457 18.669041 35.316818 18.084999 35.904999L 15.4 38.605C 15.305002 38.708588 15.156663 38.744186 15.025 38.695C 14.613576 38.560493 14.182819 38.494614 13.75 38.5C 11.678932 38.5 10 40.178932 10 42.25C 10 44.321068 11.678932 46 13.75 46ZM 42.235001 23.5C 40.828049 23.507357 39.540634 24.292507 38.889999 25.539999C 38.834145 25.671619 38.702888 25.755146 38.560001 25.75L 37 25.75C 36.171574 25.75 35.5 26.421572 35.5 27.25C 35.5 28.078428 36.171574 28.75 37 28.75L 38.5 28.75C 38.642887 28.744854 38.774143 28.828381 38.829998 28.960001C 39.667007 30.59285 41.562637 31.380232 43.310192 30.820921C 45.057747 30.26161 46.143929 28.519888 45.877312 26.704485C 45.610687 24.88908 44.069576 23.533218 42.235001 23.5ZM 17.5 25.75C 17.358248 25.751076 17.229061 25.668865 17.17 25.539999C 16.509434 24.273319 15.193496 23.484915 13.765 23.5C 11.922432 23.503725 10.35556 24.845509 10.0684 26.665565C 9.78124 28.485622 10.858884 30.244644 12.610799 30.815489C 14.362714 31.386333 16.269783 30.59985 17.110001 28.960001C 17.176456 28.808842 17.337223 28.722275 17.5 28.749998L 19 28.75C 19.828426 28.75 20.5 28.078428 20.5 27.25C 20.5 26.421572 19.828426 25.75 19 25.75ZM 23.710001 20.68C 23.709999 23.049301 25.630699 24.969999 28 24.969999C 30.369301 24.969999 32.290001 23.049301 32.290001 20.68C 32.290001 18.310698 30.369301 16.389999 28 16.389999C 25.630699 16.389999 23.709999 18.310698 23.709999 20.68ZM 22.255001 34.389999L 33.744999 34.389999C 34.288532 34.394203 34.801689 34.139751 35.127342 33.704559C 35.452999 33.269367 35.552361 32.705273 35.395 32.185001C 34.410122 28.924475 31.406023 26.693741 28 26.693741C 24.593975 26.693741 21.589878 28.924475 20.605 32.185001C 20.447639 32.705273 20.547001 33.269367 20.872656 33.704559C 21.198311 34.139751 21.711468 34.394203 22.255001 34.389999Z"></path></g></g></g><g id="g-root-mail_1cuw1wt199sv0t-fill" data-item-order="1999998704" transform="translate(432.96417236328125, 301.619140625)"><g id="mail_1cuw1wt199sv0t-fill" stroke="none" fill="#484848"><g><path d="M 45.610001 26.59C 45.380737 26.44599 45.089264 26.44599 44.860001 26.59L 41.334999 28.795C 41.218975 28.861988 41.076027 28.861988 40.959999 28.795C 40.836971 28.731625 40.761166 28.603336 40.764999 28.465L 40.764999 13C 40.764999 11.343145 39.421852 10 37.764999 10L 18.25 10C 16.593145 10 15.25 11.343145 15.25 13L 15.25 28.494999C 15.253832 28.633335 15.178025 28.761623 15.055 28.824999C 14.938974 28.891987 14.796025 28.891987 14.68 28.825001L 11.14 26.619999C 10.907949 26.486025 10.622051 26.486025 10.39 26.619999C 10.16019 26.748833 10.012844 26.986853 10 27.25L 10 43C 10 44.656857 11.343145 46 13 46L 43 46C 44.656857 46 46 44.656857 46 43L 46 27.25C 45.997566 26.976036 45.848808 26.724289 45.610001 26.59ZM 18.25 30.849998L 18.25 14.5C 18.25 13.671573 18.921574 13 19.75 13L 36.25 13C 37.078426 13 37.75 13.671573 37.75 14.5L 37.75 30.849998C 37.748165 30.97897 37.68018 31.097942 37.57 31.164999L 34.57 33.040001C 34.475574 33.110821 34.420002 33.221966 34.420002 33.34C 34.420002 33.458035 34.475574 33.56918 34.57 33.639999L 40.795002 39.16C 41.259121 39.574165 41.299522 40.286194 40.885231 40.750202C 40.470936 41.214211 39.758892 41.254417 39.294998 40.84L 32.98 35.215C 32.907822 35.15667 32.817802 35.124901 32.725002 35.125L 23.32 35.125C 23.2272 35.124901 23.13718 35.15667 23.065001 35.215L 16.75 40.84C 16.283422 41.246529 15.577722 41.206585 15.16 40.75C 14.960811 40.527348 14.858362 40.234608 14.875245 39.936337C 14.892128 39.638062 15.026958 39.358757 15.25 39.16L 21.475 33.639999C 21.569427 33.56918 21.625 33.458035 21.625 33.34C 21.625 33.221966 21.569427 33.110821 21.475 33.040001L 18.475 31.164999C 18.347414 31.109819 18.26082 30.988586 18.25 30.849998ZM 10 10M 25.525002 23.83L 28.99 25.210001C 29.404152 25.288761 29.676065 25.688313 29.597374 26.102476C 29.518684 26.516642 29.119179 26.788622 28.705 26.710001L 25.299999 26.710001C 24.471573 26.710001 23.799999 27.381573 23.799999 28.210001C 23.799999 29.038427 24.471573 29.710001 25.299999 29.710001L 25.93 29.710001C 26.139666 29.709843 26.311935 29.875488 26.32 30.084999L 26.32 30.309999C 26.32 31.138428 26.991573 31.809999 27.82 31.809999C 28.648426 31.809999 29.32 31.138428 29.32 30.309999L 29.32 29.965C 29.314857 29.788488 29.433556 29.632305 29.605 29.59C 31.192225 29.210634 32.349384 27.844717 32.462727 26.216726C 32.576069 24.588736 31.619345 23.075645 30.1 22.480001L 26.635 21.1C 26.220848 21.02124 25.948935 20.621689 26.027626 20.207523C 26.106316 19.793358 26.505821 19.521378 26.92 19.6L 30.325001 19.6C 31.153427 19.6 31.825001 18.928427 31.825001 18.1C 31.825001 17.271572 31.153427 16.6 30.325001 16.6L 29.68 16.6C 29.478775 16.591944 29.319839 16.426388 29.32 16.225L 29.32 16C 29.32 15.171573 28.648426 14.5 27.82 14.5C 26.991573 14.5 26.32 15.171573 26.32 16L 26.32 16.344999C 26.317942 16.524048 26.194229 16.67869 26.019999 16.719999C 24.432777 17.099367 23.275616 18.465284 23.162275 20.093275C 23.048933 21.721266 24.005657 23.234354 25.525002 23.83Z"></path></g></g></g><g id="g-root-1_1uqjh65199zx1m-fill" data-item-order="1999998704" transform="translate(542.3535766601562, 301.619140625)"><g id="1_1uqjh65199zx1m-fill" stroke="none" fill="#484848"><g><path d="M 42.775002 37.704998L 39.025002 34C 38.585773 33.561321 37.874229 33.561321 37.435001 34L 33.685001 37.75C 33.36367 38.071732 33.267612 38.555264 33.44157 38.975388C 33.615528 39.395508 34.025288 39.669601 34.48 39.670002L 36.579998 39.670002C 36.050522 41.636417 34.266449 43.002155 32.23 43L 29.23 43C 28.401573 43 27.73 43.671574 27.73 44.5C 27.73 45.328426 28.401573 46 29.23 46L 32.23 46C 35.935749 45.997459 39.084137 43.288822 39.639999 39.625L 41.98 39.625C 42.434715 39.624603 42.844475 39.35051 43.018433 38.930386C 43.19239 38.510265 43.096329 38.026733 42.775002 37.705002ZM 25.525002 14.5L 21.775 10.705C 21.441401 10.367382 20.933521 10.271781 20.5 10.465C 20.097761 10.650415 19.84425 11.057214 19.855 11.5L 19.855 13.765C 15.859999 13.964997 12.724997 17.264999 12.73 21.264999L 12.73 24.264999C 12.73 25.093426 13.401573 25.764999 14.23 25.764999C 15.058427 25.764999 15.73 25.093426 15.73 24.264999L 15.73 21.264999C 15.721842 18.919092 17.517237 16.96048 19.855 16.764999L 19.855 19C 19.84425 19.442787 20.097761 19.849585 20.5 20.035C 20.637197 20.094818 20.78533 20.125465 20.934999 20.125C 21.231997 20.118538 21.515732 20.000759 21.73 19.795L 25.525002 16C 25.906967 15.572949 25.906967 14.927051 25.525002 14.5ZM 36.715 23.5C 40.442924 23.5 43.465 20.477922 43.465 16.75C 43.465 13.022079 40.442924 10 36.715 10C 32.987076 10 29.965 13.022079 29.965 16.75C 29.965 20.477922 32.987076 23.5 36.715 23.5ZM 36.715 20.5C 34.643932 20.5 32.965 18.821068 32.965 16.75C 32.963257 16.39946 33.013817 16.050623 33.114998 15.715C 33.23687 15.34536 33.621246 15.130369 34 15.22L 34.119999 15.22C 35.565689 15.952751 37.164215 16.333109 38.784996 16.33C 39.164669 16.352406 39.54533 16.352406 39.924999 16.33C 40.048389 16.321781 40.169968 16.36305 40.262856 16.444679C 40.355747 16.52631 40.412296 16.641579 40.420002 16.764999C 40.411957 18.812775 38.762646 20.475443 36.715 20.5ZM 27.789999 29.905001C 27.604807 30.273741 27.752266 30.722818 28.119999 30.91C 28.22513 30.969707 28.344101 31.000744 28.465 31L 44.965 31C 45.379211 31 45.715 30.664213 45.715 30.25C 45.715744 30.129101 45.684708 30.010128 45.625 29.905001C 43.83292 26.657259 40.416862 24.640612 36.7075 24.640612C 32.998138 24.640612 29.582081 26.657259 27.789999 29.904999ZM 12.265 34.75C 12.265 37.235283 14.279718 39.25 16.764999 39.25C 19.250282 39.25 21.264999 37.235283 21.264999 34.75C 21.264999 32.264721 19.250282 30.250002 16.764999 30.250002C 14.279718 30.250002 12.265 32.264721 12.265 34.75M 23.184999 44.965C 22.080788 42.400894 19.556757 40.739723 16.764999 40.739723C 13.973243 40.739723 11.449211 42.400894 10.345 44.965C 10.250209 45.195728 10.276333 45.458485 10.414699 45.666035C 10.553063 45.873581 10.785562 45.998756 11.035 46L 22.494999 46C 22.744438 45.998756 22.976936 45.873581 23.115301 45.666035C 23.253668 45.458485 23.279791 45.195728 23.184999 44.965Z"></path></g></g></g><g id="g-root-mana_141r4bx199n8y4-fill" data-item-order="1999998704" transform="translate(542.3535766601562, 119.3037109375)"><g id="mana_141r4bx199n8y4-fill" stroke="none" fill="#484848"><g><path d="M 22.809999 32.68L 33.189999 32.68L 33.189999 46L 22.809999 46ZM 10 10M 18.205 21.205L 22.809999 28.405001L 33.189999 28.405001L 37.795002 21.205L 18.205 21.205ZM 40.810001 16.690001L 45.970001 10L 10.015 10L 15.190001 16.690001L 40.810001 16.690001Z"></path></g></g></g><g id="g-root-dist_1ltncfh199vn5x-fill" data-item-order="1999998704" transform="translate(434.48345947265625, 119.3037109375)"><g id="dist_1ltncfh199vn5x-fill" stroke="none" fill="#484848"><g><path d="M 20.275 30.25C 20.273972 25.982872 23.732872 22.523138 28 22.523138C 32.267128 22.523138 35.726028 25.982872 35.724998 30.25ZM 33.625 15.49C 33.587875 12.35537 31.026445 9.839038 27.891651 9.8576C 24.756855 9.876163 22.225399 12.422649 22.225399 15.5575C 22.225399 18.69235 24.756855 21.238838 27.891651 21.257401C 31.026445 21.275963 33.587875 18.759632 33.625 15.625ZM 28 19C 26.141899 18.991741 24.639982 17.48312 24.639999 15.625C 24.633148 15.016111 24.799625 14.417834 25.120001 13.900001C 26.664106 15.649376 28.876793 16.663071 31.210001 16.690001C 30.746517 18.069019 29.454823 18.998556 28 19ZM 45.670002 33.205002L 41.920002 29.5C 41.604134 29.183811 41.131058 29.084583 40.714767 29.247196C 40.29847 29.409813 40.017914 29.803431 40 30.25L 40 32.875L 16 32.875L 16 30.25C 15.982089 29.803431 15.701531 29.409813 15.285236 29.247196C 14.86894 29.084583 14.395864 29.183811 14.08 29.5L 10.33 33.25C 9.89132 33.689228 9.89132 34.400776 10.33 34.840004L 14.08 38.5C 14.395864 38.816189 14.86894 38.915421 15.285236 38.752804C 15.701531 38.590187 15.982089 38.196571 16 37.75L 16 35.125L 26.875 35.125L 26.875 40L 24.25 40C 23.796427 39.996929 23.386616 40.270134 23.215 40.690002C 23.038092 41.110725 23.132904 41.596642 23.455 41.920002L 27.205 45.670002C 27.644228 46.108681 28.355774 46.108681 28.795002 45.670002L 32.544998 41.920002C 32.867096 41.596642 32.96191 41.110725 32.785 40.690002C 32.613384 40.270134 32.203575 39.996929 31.750002 40L 29.125 40L 29.125 35.125L 40 35.125L 40 37.75C 40.000401 38.204712 40.27449 38.614475 40.694618 38.788429C 41.114738 38.962387 41.59827 38.866333 41.920002 38.545002L 45.670002 34.795002C 46.108681 34.355774 46.108681 33.644226 45.670002 33.205002Z"></path></g></g></g><g id="g-root-tx_storagea_dkgdd9199n94y-fill" data-item-order="2000000000" transform="translate(112.18533325195312, 195.345703125)"><g id="tx_storagea_dkgdd9199n94y-fill" stroke="none" fill="#46432d"><g><text style="font: 20px Roboto, sans-serif; white-space: pre;" font-size="20px" font-family="Roboto, sans-serif"><tspan x="21.1" y="33.47" dominant-baseline="ideographic">Storage and </tspan><tspan x="40.25" y="57.47" dominant-baseline="ideographic">Balancing</tspan></text></g></g></g><g id="g-root-tx_billinga_1lz9vot199n8xx-fill" data-item-order="2000000000" transform="translate(136.18533325195312, 341.1982421875)"><g id="tx_billinga_1lz9vot199n8xx-fill" stroke="none" fill="#543a3a"><g><text style="font: 20px Roboto, sans-serif; white-space: pre;" font-size="20px" font-family="Roboto, sans-serif"><tspan x="11.63" y="33.47" dominant-baseline="ideographic">Billing and </tspan><tspan x="24.08" y="57.47" dominant-baseline="ideographic">Invoicing</tspan></text></g></g></g><g id="g-root-tx_regulato_v4v5wt199omir-fill" data-item-order="2000000000" transform="translate(779.1323852539062, 329.1982421875)"><g id="tx_regulato_v4v5wt199omir-fill" stroke="none" fill="#573e4d"><g><text style="font: 20px Roboto, sans-serif; white-space: pre;" font-size="20px" font-family="Roboto, sans-serif"><tspan x="12" y="33.47" dominant-baseline="ideographic">Regulatory </tspan><tspan x="12" y="57.47" dominant-baseline="ideographic">Compliance and </tspan><tspan x="12" y="81.47" dominant-baseline="ideographic">Reporting</tspan></text></g></g></g><g id="g-root-tx_demandfo_1hd7mp9199olji-fill" data-item-order="2000000000" transform="translate(779.1323852539062, 171.345703125)"><g id="tx_demandfo_1hd7mp9199olji-fill" stroke="none" fill="#4c4034"><g><text style="font: 20px Roboto, sans-serif; white-space: pre;" font-size="20px" font-family="Roboto, sans-serif"><tspan x="12" y="33.47" dominant-baseline="ideographic">Demand </tspan><tspan x="12" y="57.47" dominant-baseline="ideographic">Forecasting and </tspan><tspan x="12" y="81.47" dominant-baseline="ideographic">Supply </tspan><tspan x="12" y="105.47" dominant-baseline="ideographic">Optimization</tspan></text></g></g></g><g id="g-root-tx_thirdpar_1q6z7ot199olqg-fill" data-item-order="2000000000" transform="translate(124.18533325195312, 487.05078125)"><g id="tx_thirdpar_1q6z7ot199olqg-fill" stroke="none" fill="#4f3d58"><g><text style="font: 20px Roboto, sans-serif; white-space: pre;" font-size="20px" font-family="Roboto, sans-serif"><tspan x="19.4" y="33.47" dominant-baseline="ideographic">Third-party </tspan><tspan x="20" y="57.47" dominant-baseline="ideographic">Integration</tspan></text></g></g></g><g id="g-root-tx_ldcmanag_1d2dx9p199n7kf-fill" data-item-order="2000000000" transform="translate(64.18533325195312, 61.4931640625)"><g id="tx_ldcmanag_1d2dx9p199n7kf-fill" stroke="none" fill="#374840"><g><text style="font: 20px Roboto, sans-serif; white-space: pre;" font-size="20px" font-family="Roboto, sans-serif"><tspan x="16.28" y="33.47" dominant-baseline="ideographic">LDC Management</tspan></text></g></g></g><g id="g-root-tx_pipeline_qs617x199onpm-fill" data-item-order="2000000000" transform="translate(779.1323852539062, 37.4931640625)"><g id="tx_pipeline_qs617x199onpm-fill" stroke="none" fill="#424736"><g><text style="font: 20px Roboto, sans-serif; white-space: pre;" font-size="20px" font-family="Roboto, sans-serif"><tspan x="12" y="33.47" dominant-baseline="ideographic">Pipeline </tspan><tspan x="12" y="57.47" dominant-baseline="ideographic">Scheduling and </tspan><tspan x="12" y="81.47" dominant-baseline="ideographic">Nominations</tspan></text></g></g></g><g id="g-root-0.cu_sy_8x4wq5199voct-stroke" data-item-order="1999755699" transform="translate(441.67242431640625, 452.42236328125)"><g id="0.cu_sy_8x4wq5199voct-stroke" fill="none" stroke-linecap="round" stroke-linejoin="round" stroke-miterlimit="4" stroke="#ffffff" stroke-width="2"><g><path d="M 54.721153 98.927498C 57.375984 105.145218 65.294708 109.649185 74.669815 109.649185C 84.044823 109.649185 91.963364 105.145218 94.618195 98.927498C 88.77774 100.489494 81.951385 101.399414 74.669815 101.399414C 67.388145 101.399414 60.561649 100.489494 54.721153 98.927498ZM 35.606976 84.945587C 37.048195 94.150719 53.977871 101.399742 74.669762 101.399742C 95.361702 101.399742 112.306587 94.135651 113.732597 84.945587C 104.554642 87.553909 90.476845 89.222092 74.669762 89.222092C 58.862545 89.222092 44.76973 87.553909 35.606976 84.945587ZM 17.387743 10.000026C 12.685053 15.444282 9.999993 20.206041 9.999993 22.677959C 9.999993 24.421942 11.334989 26.090164 13.762072 27.652119C 16.947876 29.684168 18.009594 33.794033 16.128555 37.069645C 14.975683 39.071465 14.36904 40.739502 14.36904 41.877029C 14.36904 43.636036 15.82528 45.319416 18.464762 46.866211C 21.741581 48.777061 23.031 52.932316 21.149961 56.2383C 20.11838 58.042927 19.572197 59.559353 19.572197 60.590652C 19.572197 62.182884 20.876776 63.699444 23.243399 65.109787C 26.474642 67.020638 27.399906 71.206123 25.670483 74.527313C 24.972685 75.877052 24.593601 76.999184 24.593601 77.802925C 24.593601 84.111664 47.014782 89.222275 74.654602 89.222275C 102.294426 89.222275 124.715607 84.111664 124.715607 77.802925C 124.715607 76.999184 124.35141 75.877052 123.638405 74.527313C 121.908974 71.206123 122.849731 67.020638 126.065811 65.109787C 128.432251 63.714607 129.736877 62.182884 129.736877 60.590652C 129.736877 59.559353 129.190826 58.057999 128.159241 56.2383C 126.278206 52.947384 127.56749 48.792221 130.844116 46.866211C 133.498947 45.319416 134.94017 43.636036 134.94017 41.877029C 134.94017 40.739502 134.333344 39.071465 133.180374 37.069645C 131.299332 33.794033 132.361282 29.669006 135.546951 27.652119C 137.98938 26.105326 139.309219 24.421942 139.309219 22.677959C 139.309219 20.206041 136.624161 15.444282 131.921326 10.000026C 121.120346 14.701185 99.533371 17.916153 74.639397 17.916153C 49.745419 17.916153 28.188858 14.701185 17.387743 10.000026ZM 19.572197 60.590469C 19.572197 67.536079 44.238754 73.162361 74.669815 73.162361C 105.100868 73.162361 129.767151 67.536079 129.767151 60.590469M 14.3689 41.892284C 14.3689 49.489975 41.371525 55.646957 74.66967 55.646957C 107.967957 55.646957 134.970581 49.489975 134.970581 41.892284M 9.999993 22.677774C 9.999993 30.821369 38.959602 37.433334 74.669815 37.433334C 110.379974 37.433334 139.339584 30.821369 139.339584 22.677774"></path></g></g></g><g id="g-root-7.cu_sy_4hbelp199vp52-stroke" data-item-order="1999755703" transform="translate(413.3954772949219, 369.07470703125)"><g id="7.cu_sy_4hbelp199vp52-stroke" fill="none" stroke-linecap="round" stroke-linejoin="round" stroke-miterlimit="4" stroke="#ffffff" stroke-width="2"><g><path d="M 10.000004 10.030361C 27.126875 29.593306 37.245403 54.448708 38.079651 80.684212C 38.185875 83.944809 39.111279 87.159775 41.037712 89.78331C 41.99353 91.102676 43.191933 92.300758 44.572369 92.952835C 55.039562 97.881462 77.187881 101.278465 102.794922 101.278465C 128.401901 101.278465 150.641205 97.866257 161.093369 92.92247C 163.186813 91.936745 164.810059 89.419434 165.902237 87.205215C 166.949066 85.082146 167.449493 82.746681 167.510132 80.365776C 168.177704 54.388062 177.67424 29.426483 194.497696 9.999992L 10.000004 10.030361Z"></path></g></g></g><g id="g-root-7.line_sy_1unexf1199vmkv-stroke" data-item-order="1999755708" transform="translate(250.4168701171875, 419.892822265625)"><g id="7.line_sy_1unexf1199vmkv-stroke" fill="none" stroke-linecap="round" stroke-linejoin="round" stroke-miterlimit="4" stroke="#484848" stroke-width="2"><g><path d="M 9.997681 101.160156L 82.927681 101.160156L 172.667681 11.410156"></path><path d="M 172.997681 20.210156L 172.997681 11.110156L 163.797681 11.110156" stroke-dasharray="none"></path></g></g></g><g id="g-root-6.cu_sy_1q7lfal199vnd4-stroke" data-item-order="1999755711" transform="translate(506.2205810546875, 273.82373046875)"><g id="6.cu_sy_1q7lfal199vnd4-stroke" fill="none" stroke-linecap="round" stroke-linejoin="round" stroke-miterlimit="4" stroke="#ffffff" stroke-width="2"><g><path d="M 113.459587 93.589767C 138.748001 72.191826 157.331161 43.120514 165.659485 9.999987L 10.000002 10.015194L 10.015209 105.312347L 101.71804 105.297142C 105.313301 101.141884 109.227135 97.229401 113.490005 93.62014L 113.459587 93.589767Z"></path></g></g></g><g id="g-root-6.line_sy_1lrrx65199vo5d-stroke" data-item-order="1999755716" transform="translate(651.5114135742188, 346.966796875)"><g id="6.line_sy_1lrrx65199vo5d-stroke" fill="none" stroke-linecap="round" stroke-linejoin="round" stroke-miterlimit="4" stroke="#484848" stroke-width="2"><g><path d="M 119.393208 28.236504L 28.233208 28.236504L 11.413208 11.416504"></path><path d="M 20.213208 11.016504L 11.013208 11.016504L 11.013208 20.216504" stroke-dasharray="none"></path></g></g></g><g id="g-root-5.cu_sy_1cw4wx9199voy2-stroke" data-item-order="1999755719" transform="translate(349.4385681152344, 273.793212890625)"><g id="5.cu_sy_1cw4wx9199voy2-stroke" fill="none" stroke-linecap="round" stroke-linejoin="round" stroke-miterlimit="4" stroke="#ffffff" stroke-width="2"><g><path d="M 166.797241 105.28199L 166.782028 9.999998L 10.00001 10.015206C 18.282749 43.014351 36.759865 71.979576 61.881401 93.362312C 66.21994 97.062584 70.255341 101.051018 73.956818 105.28199L 166.797241 105.28199Z"></path></g></g></g><g id="g-root-5.line_sy_1cw4wx9199voy3-stroke" data-item-order="1999755724" transform="translate(250.4168701171875, 346.966796875)"><g id="5.line_sy_1cw4wx9199voy3-stroke" fill="none" stroke-linecap="round" stroke-linejoin="round" stroke-miterlimit="4" stroke="#484848" stroke-width="2"><g><path d="M 9.997681 28.23626L 101.157681 28.23626L 117.977681 11.41626"></path><path d="M 118.297681 20.21626L 118.297681 11.01626L 109.097681 11.01626" stroke-dasharray="none"></path></g></g></g><g id="g-root-4.cu_sy_18gxvvx199vmkk-stroke" data-item-order="1999755727" transform="translate(506.1903076171875, 178.556640625)"><g id="4.cu_sy_18gxvvx199vmkk-stroke" fill="none" stroke-linecap="round" stroke-linejoin="round" stroke-miterlimit="4" stroke="#ffffff" stroke-width="2"><g><path d="M 10.015197 10.000009L 160.516922 10.000009C 166.979401 27.424683 170.514053 46.274765 170.514053 65.943886C 170.514053 79.51667 168.815048 92.679871 165.659561 105.266808L 9.99999 105.281975L 10.015197 10.000009Z"></path></g></g></g><g id="g-root-4.line_sy_zlavn1199vnd9-stroke" data-item-order="1999755732" transform="translate(687.9745483398438, 219.345703125)"><g id="4.line_sy_zlavn1199vnd9-stroke" fill="none" stroke-linecap="round" stroke-linejoin="round" stroke-miterlimit="4" stroke="#484848" stroke-width="2"><g><path d="M 82.930061 9.997314L 12.000061 9.997314"></path><path d="M 18.000061 3.497314L 11.500061 9.997314L 18.000061 16.497314" stroke-dasharray="none"></path></g></g></g><g id="g-root-3.cu_sy_zlavn1199vnda-stroke" data-item-order="1999755735" transform="translate(344.61334228515625, 178.510986328125)"><g id="3.cu_sy_zlavn1199vnda-stroke" fill="none" stroke-linecap="round" stroke-linejoin="round" stroke-miterlimit="4" stroke="#ffffff" stroke-width="2"><g><path d="M 171.622528 105.297119L 171.637604 9.999987L 20.089184 10.015171C 13.930115 26.51474 10.395504 44.25787 10.031444 62.744049C 9.743237 77.439011 11.442432 91.694107 14.855704 105.28196L 171.622528 105.297119Z"></path></g></g></g><g id="g-root-3.line_sy_v5hdil199vo5j-stroke" data-item-order="1999755740" transform="translate(250.41693115234375, 219.345703125)"><g id="3.line_sy_v5hdil199vo5j-stroke" fill="none" stroke-linecap="round" stroke-linejoin="round" stroke-miterlimit="4" stroke="#484848" stroke-width="2"><g><path d="M 9.99765 9.997314L 80.92765 9.997314"></path><path d="M 74.89765 16.497314L 81.39765 9.997314L 74.89765 3.497314" stroke-dasharray="none"></path></g></g></g><g id="g-root-2.cu_sy_hunc8d199vmko-stroke" data-item-order="1999755743" transform="translate(506.23583984375, 73.4931640625)"><g id="2.cu_sy_hunc8d199vmko-stroke" fill="none" stroke-linecap="round" stroke-linejoin="round" stroke-miterlimit="4" stroke="#ffffff" stroke-width="2"><g><path d="M 9.999975 115.063515L 10.015183 9.999996C 79.038658 10.242626 137.837616 53.872448 160.516769 115.048325L 9.999975 115.063515Z"></path></g></g></g><g id="g-root-2.line_sy_hunc8d199vmkp-stroke" data-item-order="1999755748" transform="translate(615.0482788085938, 73.4931640625)"><g id="2.line_sy_hunc8d199vmkp-stroke" fill="none" stroke-linecap="round" stroke-linejoin="round" stroke-miterlimit="4" stroke="#484848" stroke-width="2"><g><path d="M 155.856321 10L 28.236321 10L 11.416321 26.82"></path><path d="M 11.016321 18L 11.016321 27.2L 20.216321 27.2" stroke-dasharray="none"></path></g></g></g><g id="g-root-1.cu_sy_detu3x199vncy-stroke" data-item-order="1999755751" transform="translate(354.70263671875, 73.4931640625)"><g id="1.cu_sy_detu3x199vncy-stroke" fill="none" stroke-linecap="round" stroke-linejoin="round" stroke-miterlimit="4" stroke="#ffffff" stroke-width="2"><g><path d="M 161.53334 115.048302L 161.518127 9.999995C 160.562363 9.999995 159.62175 9.999995 158.666107 9.999995C 90.780266 10.940283 32.618561 54.524517 10.000007 115.048302L 161.53334 115.048302Z"></path></g></g></g><g id="g-root-1.line_sy_4j6tv1199vo5n-stroke" data-item-order="1999755756" transform="translate(250.41690063476562, 73.4931640625)"><g id="1.line_sy_4j6tv1199vo5n-stroke" fill="none" stroke-linecap="round" stroke-linejoin="round" stroke-miterlimit="4" stroke="#484848" stroke-width="2"><g><path d="M 9.99765 10L 137.61765 10L 154.43765 26.82"></path><path d="M 145.59765 27.2L 154.79765 27.2L 154.79765 18" stroke-dasharray="none"></path></g></g></g><g id="g-root-2_1um68q5199n9xp-stroke" data-item-order="1999998704" transform="translate(569.700927734375, 210.46142578125)"></g><g id="g-root-bala_dcc0x9199j0uk-stroke" data-item-order="1999998704" transform="translate(405.6168212890625, 210.46142578125)"></g><g id="g-root-netw_2r0z1199vn62-stroke" data-item-order="1999998704" transform="translate(487.65887451171875, 392.777099609375)"></g><g id="g-root-mail_1cuw1wt199sv0t-stroke" data-item-order="1999998704" transform="translate(432.96417236328125, 301.619140625)"></g><g id="g-root-1_1uqjh65199zx1m-stroke" data-item-order="1999998704" transform="translate(542.3535766601562, 301.619140625)"></g><g id="g-root-mana_141r4bx199n8y4-stroke" data-item-order="1999998704" transform="translate(542.3535766601562, 119.3037109375)"></g><g id="g-root-dist_1ltncfh199vn5x-stroke" data-item-order="1999998704" transform="translate(434.48345947265625, 119.3037109375)"></g><g id="g-root-tx_storagea_dkgdd9199n94y-stroke" data-item-order="2000000000" transform="translate(112.18533325195312, 195.345703125)"></g><g id="g-root-tx_billinga_1lz9vot199n8xx-stroke" data-item-order="2000000000" transform="translate(136.18533325195312, 341.1982421875)"></g><g id="g-root-tx_regulato_v4v5wt199omir-stroke" data-item-order="2000000000" transform="translate(779.1323852539062, 329.1982421875)"></g><g id="g-root-tx_demandfo_1hd7mp9199olji-stroke" data-item-order="2000000000" transform="translate(779.1323852539062, 171.345703125)"></g><g id="g-root-tx_thirdpar_1q6z7ot199olqg-stroke" data-item-order="2000000000" transform="translate(124.18533325195312, 487.05078125)"></g><g id="g-root-tx_ldcmanag_1d2dx9p199n7kf-stroke" data-item-order="2000000000" transform="translate(64.18533325195312, 61.4931640625)"></g><g id="g-root-tx_pipeline_qs617x199onpm-stroke" data-item-order="2000000000" transform="translate(779.1323852539062, 37.4931640625)"></g></g></g></svg>