<?xml version="1.0" encoding="utf-8" standalone="yes"?>
<!DOCTYPE svg PUBLIC "-//W3C//DTD SVG 1.1//EN" "http://www.w3.org/Graphics/SVG/1.1/DTD/svg11.dtd">
<svg width="877" height="459" viewBox="0 0 877 459" style="fill:none;stroke:none;fill-rule:evenodd;clip-rule:evenodd;stroke-linecap:round;stroke-linejoin:round;stroke-miterlimit:1.5;" version="1.1" xmlns="http://www.w3.org/2000/svg" xmlns:xlink="http://www.w3.org/1999/xlink"><style class="text-font-style fontImports" data-font-family="Roboto">@import url('https://fonts.googleapis.com/css2?family=Roboto:wght@400;700&amp;display=block');</style><g id="items" style="isolation: isolate"><g id="blend" style="mix-blend-mode: normal"><g id="g-root-1.cu_sy_1ha3ozj1brb4sr-fill" data-item-order="-120523" transform="translate(277.45147705078125, 15)"><g id="1.cu_sy_1ha3ozj1brb4sr-fill" stroke="none" fill="#1eabda"><g><path d="M 10 10L 37.9072 82L 270.467 82L 298.374 10L 10 10ZM 298.373997 10L 270.466797 82L 284.114397 122.101L 315.297097 59.725L 298.373997 10ZM 270.467227 82L 37.907227 82L 58.220627 94L 265.816227 94L 275.379227 122.101L 284.115227 122.101L 270.467227 82Z"></path></g></g></g><g id="g-root-2.cu_sy_13yn6m71brb6do-fill" data-item-order="-120519" transform="translate(310.00909423828125, 99.001953125)"><g id="2.cu_sy_13yn6m71brb6do-fill" stroke="none" fill="#3cc583"><g><path d="M 10 10L 37.9072 82L 205.35 82L 233.258 10L 10 10ZM 233.257786 10L 205.350586 82L 215.177686 110.871L 246.359586 48.497L 233.257786 10ZM 205.350227 82L 37.907227 82L 58.210127 94L 200.699227 94L 206.441227 110.8714L 215.177227 110.8714L 205.350227 82Z"></path></g></g></g><g id="g-root-3.cu_sy_zjg5kv1brb405-fill" data-item-order="-120515" transform="translate(342.56768798828125, 183.001953125)"><g id="3.cu_sy_zjg5kv1brb405-fill" stroke="none" fill="#92bd39"><g><path d="M 10 10L 37.9072 82L 140.234 82L 168.141 10L 10 10ZM 168.141575 10L 140.234375 82L 146.239175 99.6442L 177.421875 37.2683L 168.141575 10ZM 140.233227 82L 37.907227 82L 58.208027 94L 135.582227 94L 137.503127 99.6442L 146.238227 99.6442L 140.233227 82Z"></path></g></g></g><g id="g-root-4.cu_sy_qnt5bz1brb4su-fill" data-item-order="-120511" transform="translate(375.12628173828125, 267.001953125)"><g id="4.cu_sy_qnt5bz1brb4su-fill" stroke="none" fill="#e0cb15"><g><path d="M 10 10L 56.512 130L 103.024 10L 10 10ZM 103.023719 10L 56.511719 130L 108.482819 26.0403L 103.023719 10Z"></path></g></g></g><g id="g-root--1.line_sy_m7zn7j1brb5l3-fill" data-item-order="-120462" transform="translate(272.33331298828125, 51.501953125)"></g><g id="g-root--1.line_1_sy_hs65331brb6dc-fill" data-item-order="-120458" transform="translate(272.33331298828125, 219.501953125)"></g><g id="g-root--1.line_2_sy_hs65331brb6dd-fill" data-item-order="-120454" transform="translate(452.33331298828125, 304.001953125)"></g><g id="g-root--1.line_3_sy_hs65331brb6de-fill" data-item-order="-120450" transform="translate(500.33331298828125, 135.501953125)"></g><g id="g-root-tx_automate_qssy0v1brb4zx-fill" data-item-order="0" transform="translate(68.33331298828125, 39.001953125)"><g id="tx_automate_qssy0v1brb4zx-fill" stroke="none" fill="#1eabda"><g><text style="font: bold 20px Roboto, sans-serif; white-space: pre;" font-weight="bold" font-size="20px" font-family="Roboto, sans-serif"><tspan x="13.05" y="33.47" dominant-baseline="ideographic">Automate Processes</tspan></text></g></g></g><g id="g-root-tx_implemen_1upxiyn1brb6kp-fill" data-item-order="0" transform="translate(80.33331298828125, 75.001953125)"><g id="tx_implemen_1upxiyn1brb6kp-fill" stroke="none" fill="#32444a"><g><text style="font: 15px Roboto, sans-serif; white-space: pre;" font-size="15px" font-family="Roboto, sans-serif"><tspan x="13.72" y="27.07" dominant-baseline="ideographic">Implement automation for </tspan><tspan x="124.57" y="45.07" dominant-baseline="ideographic">efficiency</tspan></text></g></g></g><g id="g-root-tx_enhancee_1cz9zjz1brb5s3-fill" data-item-order="0" transform="translate(608.3333129882812, 123.001953125)"><g id="tx_enhancee_1cz9zjz1brb5s3-fill" stroke="none" fill="#3cc583"><g><text style="font: bold 20px Roboto, sans-serif; white-space: pre;" font-weight="bold" font-size="20px" font-family="Roboto, sans-serif"><tspan x="12" y="33.47" dominant-baseline="ideographic">Enhance Efficiency</tspan></text></g></g></g><g id="g-root-tx_improveo_mb40n31brb6rr-fill" data-item-order="0" transform="translate(608.3333129882812, 159.001953125)"><g id="tx_improveo_mb40n31brb6rr-fill" stroke="none" fill="#374840"><g><text style="font: 15px Roboto, sans-serif; white-space: pre;" font-size="15px" font-family="Roboto, sans-serif"><tspan x="12" y="27.07" dominant-baseline="ideographic">Improve operational </tspan><tspan x="12" y="45.07" dominant-baseline="ideographic">workflows</tspan></text></g></g></g><g id="g-root-tx_improvea_mczfwf1brb5s6-fill" data-item-order="0" transform="translate(92.33331298828125, 207.001953125)"><g id="tx_improvea_mczfwf1brb5s6-fill" stroke="none" fill="#92bd39"><g><text style="font: bold 20px Roboto, sans-serif; white-space: pre;" font-weight="bold" font-size="20px" font-family="Roboto, sans-serif"><tspan x="13.97" y="33.47" dominant-baseline="ideographic">Improve Accuracy</tspan></text></g></g></g><g id="g-root-tx_ensureda_1hf3hof1brb4zu-fill" data-item-order="0" transform="translate(80.33331298828125, 243.001953125)"><g id="tx_ensureda_1hf3hof1brb4zu-fill" stroke="none" fill="#424736"><g><text style="font: 15px Roboto, sans-serif; white-space: pre;" font-size="15px" font-family="Roboto, sans-serif"><tspan x="15.5" y="27.07" dominant-baseline="ideographic">Ensure data precision and </tspan><tspan x="128.28" y="45.07" dominant-baseline="ideographic">reliability</tspan></text></g></g></g><g id="g-root-tx_ensureco_143mzb31brb6ks-fill" data-item-order="0" transform="translate(608.3333129882812, 291.001953125)"><g id="tx_ensureco_143mzb31brb6ks-fill" stroke="none" fill="#e0cb15"><g><text style="font: bold 20px Roboto, sans-serif; white-space: pre;" font-weight="bold" font-size="20px" font-family="Roboto, sans-serif"><tspan x="12" y="33.47" dominant-baseline="ideographic">Ensure Compliance</tspan></text></g></g></g><g id="g-root-tx_meetregu_909zcv1brb56w-fill" data-item-order="0" transform="translate(608.3333129882812, 327.001953125)"><g id="tx_meetregu_909zcv1brb56w-fill" stroke="none" fill="#46432d"><g><text style="font: 15px Roboto, sans-serif; white-space: pre;" font-size="15px" font-family="Roboto, sans-serif"><tspan x="12" y="27.07" dominant-baseline="ideographic">Meet regulatory </tspan><tspan x="12" y="45.07" dominant-baseline="ideographic">requirements</tspan></text></g></g></g><g id="g-root-tx_optimizi_1q8v2nz1brb56s-fill" data-item-order="0" transform="translate(278.33331298828125, 411.001953125)"><g id="tx_optimizi_1q8v2nz1brb56s-fill" stroke="none" fill="#484848"><g><text style="font: bold 20px Roboto, sans-serif; white-space: pre;" font-weight="bold" font-size="20px" font-family="Roboto, sans-serif"><tspan x="14.05" y="33.47" dominant-baseline="ideographic">Optimizing natural gas operations</tspan></text></g></g></g><g id="g-root-1.cu_sy_1ha3ozj1brb4sr-stroke" data-item-order="-120523" transform="translate(277.45147705078125, 15)"><g id="1.cu_sy_1ha3ozj1brb4sr-stroke" fill="none" stroke-linecap="round" stroke-linejoin="round" stroke-miterlimit="4" stroke="#ffffff" stroke-width="2"><g><path d="M 10 10L 37.9072 82L 270.4672 82L 298.3744 10L 10 10ZM 298.373997 10L 270.466797 82L 284.114397 122.101L 315.297097 59.725L 298.373997 10ZM 270.467227 82L 37.907227 82L 58.220627 94L 265.815827 94L 275.379527 122.101L 284.114727 122.101L 270.467227 82Z"></path></g></g></g><g id="g-root-2.cu_sy_13yn6m71brb6do-stroke" data-item-order="-120519" transform="translate(310.00909423828125, 99.001953125)"><g id="2.cu_sy_13yn6m71brb6do-stroke" fill="none" stroke-linecap="round" stroke-linejoin="round" stroke-miterlimit="4" stroke="#ffffff" stroke-width="2"><g><path d="M 10 10L 37.9072 82L 205.3504 82L 233.2576 10L 10 10ZM 233.257786 10L 205.350586 82L 215.177686 110.8714L 246.359586 48.497L 233.257786 10ZM 205.350427 82L 37.907227 82L 58.210127 94L 200.699627 94L 206.441527 110.8714L 215.177527 110.8714L 205.350427 82Z"></path></g></g></g><g id="g-root-3.cu_sy_zjg5kv1brb405-stroke" data-item-order="-120515" transform="translate(342.56768798828125, 183.001953125)"><g id="3.cu_sy_zjg5kv1brb405-stroke" fill="none" stroke-linecap="round" stroke-linejoin="round" stroke-miterlimit="4" stroke="#ffffff" stroke-width="2"><g><path d="M 10 10L 37.9072 82L 140.2336 82L 168.1408 10L 10 10ZM 168.141575 10L 140.234375 82L 146.239175 99.6442L 177.421875 37.2683L 168.141575 10ZM 140.233627 82L 37.907227 82L 58.208027 94L 135.582227 94L 137.503127 99.6442L 146.238427 99.6442L 140.233627 82Z"></path></g></g></g><g id="g-root-4.cu_sy_qnt5bz1brb4su-stroke" data-item-order="-120511" transform="translate(375.12628173828125, 267.001953125)"><g id="4.cu_sy_qnt5bz1brb4su-stroke" fill="none" stroke-linecap="round" stroke-linejoin="round" stroke-miterlimit="4" stroke="#ffffff" stroke-width="2"><g><path d="M 10 10L 56.512 130L 103.024 10L 10 10ZM 103.023719 10L 56.511719 130L 108.482819 26.0403L 103.023719 10Z"></path></g></g></g><g id="g-root--1.line_sy_m7zn7j1brb5l3-stroke" data-item-order="-120462" transform="translate(272.33331298828125, 51.501953125)"><g id="-1.line_sy_m7zn7j1brb5l3-stroke" fill="none" stroke-linecap="round" stroke-linejoin="round" stroke-miterlimit="4" stroke="#484848" stroke-width="2"><g><path d="M 10 10L 44.01 10"></path><path d="M 38 16.5L 44.5 10L 38 3.5" stroke-dasharray="none"></path></g></g></g><g id="g-root--1.line_1_sy_hs65331brb6dc-stroke" data-item-order="-120458" transform="translate(272.33331298828125, 219.501953125)"><g id="-1.line_1_sy_hs65331brb6dc-stroke" fill="none" stroke-linecap="round" stroke-linejoin="round" stroke-miterlimit="4" stroke="#484848" stroke-width="2"><g><path d="M 10 10L 110.01 10"></path><path d="M 104 16.5L 110.5 10L 104 3.5" stroke-dasharray="none"></path></g></g></g><g id="g-root--1.line_2_sy_hs65331brb6dd-stroke" data-item-order="-120454" transform="translate(452.33331298828125, 304.001953125)"><g id="-1.line_2_sy_hs65331brb6dd-stroke" fill="none" stroke-linecap="round" stroke-linejoin="round" stroke-miterlimit="4" stroke="#484848" stroke-width="2"><g><path d="M 154 10L 12 10"></path><path d="M 18 3.5L 11.5 10L 18 16.5" stroke-dasharray="none"></path></g></g></g><g id="g-root--1.line_3_sy_hs65331brb6de-stroke" data-item-order="-120450" transform="translate(500.33331298828125, 135.501953125)"><g id="-1.line_3_sy_hs65331brb6de-stroke" fill="none" stroke-linecap="round" stroke-linejoin="round" stroke-miterlimit="4" stroke="#484848" stroke-width="2"><g><path d="M 106 10L 12 10"></path><path d="M 18 3.5L 11.5 10L 18 16.5" stroke-dasharray="none"></path></g></g></g><g id="g-root-tx_automate_qssy0v1brb4zx-stroke" data-item-order="0" transform="translate(68.33331298828125, 39.001953125)"></g><g id="g-root-tx_implemen_1upxiyn1brb6kp-stroke" data-item-order="0" transform="translate(80.33331298828125, 75.001953125)"></g><g id="g-root-tx_enhancee_1cz9zjz1brb5s3-stroke" data-item-order="0" transform="translate(608.3333129882812, 123.001953125)"></g><g id="g-root-tx_improveo_mb40n31brb6rr-stroke" data-item-order="0" transform="translate(608.3333129882812, 159.001953125)"></g><g id="g-root-tx_improvea_mczfwf1brb5s6-stroke" data-item-order="0" transform="translate(92.33331298828125, 207.001953125)"></g><g id="g-root-tx_ensureda_1hf3hof1brb4zu-stroke" data-item-order="0" transform="translate(80.33331298828125, 243.001953125)"></g><g id="g-root-tx_ensureco_143mzb31brb6ks-stroke" data-item-order="0" transform="translate(608.3333129882812, 291.001953125)"></g><g id="g-root-tx_meetregu_909zcv1brb56w-stroke" data-item-order="0" transform="translate(608.3333129882812, 327.001953125)"></g><g id="g-root-tx_optimizi_1q8v2nz1brb56s-stroke" data-item-order="0" transform="translate(278.33331298828125, 411.001953125)"></g></g></g></svg>