<svg id="Layer_1" enable-background="new 0 0 512 512" viewBox="0 0 512 512" xmlns="http://www.w3.org/2000/svg"><g><g><path d="m118.488 54.179h275.024v180.954h-275.024z" fill="#d46b5c"/><path d="m161.616 427.519c27.727 0 50.204-22.477 50.204-50.204v-39.265c0-12.2 9.89-22.09 22.09-22.09 12.2 0 22.09 9.89 22.09 22.09v43.346c0 49.872-40.43 90.302-90.302 90.302v30.302h-155.698v-9.559c0-35.856 29.067-64.923 64.923-64.923h86.693z" fill="#67ccd1"/><path d="m256 338.05c0-12.2-9.89-22.09-22.09-22.09-12.2 0-22.09 9.89-22.09 22.09v22.09h44.18z" fill="#fde0be"/><path d="m56.095 366.295v18.817c0 22.97 18.272 42.116 41.24 42.414 23.337.303 42.349-18.524 42.349-41.791v-19.44l-41.794-20z" fill="#fde0be"/><path d="m139.684 366.295v-16.493c0-21.042-17.058-38.1-38.1-38.1h-7.389c-21.042 0-38.1 17.058-38.1 38.1v16.493h13.137c6.318 0 12.549-1.471 18.2-4.296l10.457-5.229 10.457 5.229c5.651 2.825 11.882 4.296 18.2 4.296z" fill="#fdcb50"/><path d="m350.384 427.519c-27.727 0-50.204-22.477-50.204-50.204v-39.265c0-12.2-9.89-22.09-22.09-22.09-12.2 0-22.09 9.89-22.09 22.09v43.346c0 49.872 40.43 90.302 90.302 90.302v30.302h155.698v-9.559c0-35.856-29.067-64.923-64.923-64.923h-86.693z" fill="#fd6050"/><path d="m300.18 338.05c0-12.2-9.89-22.09-22.09-22.09-12.2 0-22.09 9.89-22.09 22.09v22.09h44.18z" fill="#fdbeb9"/><path d="m455.905 366.295v18.817c0 22.97-18.272 42.116-41.24 42.414-23.337.303-42.349-18.524-42.349-41.791v-46.736z" fill="#fdbeb9"/><path d="m362.275 336.172v-24.47h55.53c21.042 0 38.1 17.058 38.1 38.1v16.493h-63.507c-16.637 0-30.123-13.487-30.123-30.123z" fill="#d46b5c"/><path d="m172.861 123.404c0-24.716 5.427-48.162 15.141-69.224h-69.514v180.954h97.789c-26.961-29.442-43.416-68.663-43.416-111.73z" fill="#b55348"/><path d="m325.812 190.954-42.321-32.28v10.19h-54.982v44.18h54.982v10.19z" fill="#67ccd1"/><path d="m186.188 235.133 42.321-32.28v10.191h54.982v44.179h-54.982v10.19z" fill="#fd6050"/></g><g><path d="m453.257 419.298c7.865-9.206 12.647-21.169 12.647-34.187v-35.309c0-26.522-21.577-48.1-48.1-48.1h-55.53c-2.652 0-5.196 1.054-7.071 2.929s-2.929 4.419-2.929 7.071l.001 24.47c.001 10.152 3.799 19.43 10.04 26.504v23.057c0 11.677 3.84 22.736 10.906 31.784h-22.838c-22.169 0-40.204-18.036-40.204-40.204v-39.263c0-17.694-14.396-32.09-32.09-32.09-8.554 0-16.331 3.371-22.09 8.847-5.758-5.475-13.535-8.847-22.09-8.847-17.694 0-32.09 14.396-32.09 32.09v39.264c0 22.168-18.035 40.204-40.204 40.204h-22.838c7.066-9.048 10.906-20.108 10.906-31.784v-35.932c0-26.522-21.578-48.1-48.101-48.1h-7.389c-26.522 0-48.1 21.578-48.1 48.1v35.309c0 13.017 4.782 24.98 12.647 34.187-33.555 7.419-58.74 37.386-58.74 73.143v9.559c0 5.523 4.478 10 10 10h155.698c5.522 0 10-4.477 10-10v-20.796c35.393-3.521 65.427-25.519 80.302-56.18 14.874 30.661 44.909 52.659 80.302 56.18v20.796c0 5.523 4.478 10 10 10h155.698c5.522 0 10-4.477 10-10v-9.559c0-35.757-25.185-65.724-58.743-73.143zm-35.452-97.596c15.494 0 28.1 12.605 28.1 28.1v6.492h-53.507c-11.096 0-20.122-9.027-20.122-20.122l-.001-14.47zm-26.03 86.661c-6.101-6.022-9.46-14.058-9.46-22.629v-10.724c3.223.837 6.601 1.285 10.082 1.285h53.507v8.817c0 17.581-13.964 32.073-31.168 32.407h-.722c-8.375-.056-16.264-3.258-22.239-9.156zm-294.511 9.156c-17.204-.335-31.168-14.827-31.168-32.407v-8.817h3.137c7.831 0 15.671-1.851 22.672-5.352l5.985-2.993 5.985 2.993c7.002 3.501 14.842 5.352 22.672 5.352h3.138v9.44c0 8.571-3.359 16.607-9.46 22.629-5.937 5.86-13.76 9.09-22.079 9.155zm-31.168-67.717c0-15.495 12.605-28.1 28.1-28.1h7.389c15.495 0 28.101 12.605 28.101 28.1v6.492h-3.138c-4.741 0-9.488-1.121-13.729-3.241l-10.457-5.229c-1.407-.704-2.939-1.056-4.472-1.056s-3.064.352-4.472 1.056l-10.458 5.229c-4.239 2.12-8.986 3.24-13.728 3.24h-3.137v-6.491zm99.602 111.896c-5.522 0-10 4.477-10 10v20.302h-135.696c.239-30.081 24.784-54.481 54.921-54.481h86.693c33.196 0 60.204-27.007 60.204-60.204v-39.265c0-6.667 5.424-12.09 12.09-12.09s12.09 5.424 12.09 12.09v43.346c0 44.279-36.023 80.302-80.302 80.302zm190.604 30.302v-20.302c0-5.523-4.478-10-10-10-44.278 0-80.302-36.023-80.302-80.302v-43.346c0-6.667 5.424-12.09 12.09-12.09s12.09 5.423 12.09 12.09v39.264c0 33.197 27.008 60.204 60.204 60.204h86.693c30.137 0 54.682 24.4 54.921 54.481h-135.696z" fill="#052a75"/><path d="m289.445 0h-66.891c-4.613 0-8.628 3.156-9.718 7.639l-10.733 44.179 19.435 4.722 8.878-36.54h51.168l8.878 36.54 19.435-4.722-10.734-44.179c-1.09-4.483-5.104-7.639-9.718-7.639z" fill="#fdcb50"/><path d="m393.512 44.179h-275.024c-5.522 0-10 4.477-10 10v180.954c0 5.523 4.478 10 10 10h64.322l39.634 30.231c1.776 1.355 3.913 2.049 6.065 2.049 1.511 0 3.029-.342 4.435-1.038 3.408-1.687 5.564-5.16 5.564-8.962v-.19h44.982c5.522 0 10-4.477 10-10v-12.09h100.021c5.522 0 10-4.477 10-10v-180.954c.001-5.523-4.477-10-9.999-10zm-10 20v44.041h-255.024v-44.041zm-110.021 183.044h-44.982c-2.556 0-4.888.959-6.656 2.537l-19.175-14.626 19.175-14.626c1.769 1.578 4.101 2.537 6.656 2.537h44.982zm16.656-41.643c-.024-.022-.05-.034-.074-.052-1.76-1.542-4.058-2.485-6.582-2.485h-44.982v-24.18h44.982c2.556 0 4.888-.959 6.656-2.537l19.175 14.626zm7.343 19.553 34.386-26.229c2.48-1.892 3.936-4.832 3.936-7.951s-1.455-6.06-3.936-7.951l-42.32-32.28c-3.023-2.306-7.093-2.697-10.5-1.011-3.408 1.687-5.564 5.16-5.564 8.962v.19h-44.982c-5.522 0-10 4.477-10 10v29.04l-35.699 27.229h-54.322v-96.912h255.023v96.914h-86.022z" fill="#052a75"/><g fill="#fdcb50"><path d="m336.142 91.692c-5.522 0-10 4.477-10 10v33.056c0 5.523 4.478 10 10 10s10-4.477 10-10v-33.056c0-5.523-4.478-10-10-10z"/><path d="m174.714 91.692c-5.522 0-10 4.477-10 10v33.056c0 5.523 4.478 10 10 10s10-4.477 10-10v-33.056c0-5.523-4.478-10-10-10z"/></g></g></g><g/><g/><g/><g/><g/><g/><g/><g/><g/><g/><g/><g/><g/><g/><g/></svg>