<?xml version="1.0" encoding="utf-8" standalone="yes"?>
<!DOCTYPE svg PUBLIC "-//W3C//DTD SVG 1.1//EN" "http://www.w3.org/Graphics/SVG/1.1/DTD/svg11.dtd">
<svg width="1050" height="676" viewBox="0 0 1050 676" style="fill:none;stroke:none;fill-rule:evenodd;clip-rule:evenodd;stroke-linecap:round;stroke-linejoin:round;stroke-miterlimit:1.5;" version="1.1" xmlns="http://www.w3.org/2000/svg" xmlns:xlink="http://www.w3.org/1999/xlink"><style class="text-font-style fontImports" data-font-family="Shantell Sans">@import url('https://fonts.googleapis.com/css2?family=Shantell+Sans:wght@300..800&amp;display=block');</style><g id="items" style="isolation: isolate"><g id="blend" style="mix-blend-mode: normal"><g id="g-root--1.cu_sy_zs63in1c1vugw-fill" data-item-order="2999876454" transform="translate(484.66668701171875, 88)"><g id="-1.cu_sy_zs63in1c1vugw-fill" stroke="none" fill="#ffffff"><g><path d="M 65.766602 478C 80.754802 478 106.000002 373.235 106.000002 244C 106.000002 114.765 80.754802 10 65.766602 10C 80.775202 10.0122 92.941702 115.084 92.941702 244C 92.941702 372.916 80.775202 477.988 65.766602 478ZM 65.765897 478C 80.774597 477.988 92.941097 372.916 92.941097 244C 92.941097 115.084 80.774597 10.0122 65.765897 10L 51.957397 10C 66.060697 18.3945 77.199297 120.263 77.199297 244C 77.199297 367.737 65.382597 469.605 51.279297 478L 65.765897 478ZM 77.2 244C 77.2 367.737 65.3833 469.605 51.28 478L 50.0615 478C 35.0734 478 10 373.235 10 244C 10 114.765 35.0734 10 50.0615 10C 50.6991 10 51.9581 10 51.9581 10C 66.0614 18.3945 77.2 120.263 77.2 244Z"></path></g></g></g><g id="g-root-6.line_sy_qn624v1c1apl5-fill" data-item-order="2999876461" transform="translate(400.66668701171875, 364)"></g><g id="g-root-5.line_sy_m7ck0f1c1aqde-fill" data-item-order="2999876467" transform="translate(400.66668701171875, 350)"></g><g id="g-root-4.line_sy_8vw1n31c1aryb-fill" data-item-order="2999876473" transform="translate(400.66668701171875, 332)"></g><g id="g-root-3.line_sy_8vw1n31c1aryc-fill" data-item-order="2999876479" transform="translate(400.77606201171875, 280)"></g><g id="g-root-2.line_sy_vihb1c1apl9-fill" data-item-order="2999876485" transform="translate(400.66668701171875, 196)"></g><g id="g-root-1.line_sy_1um62bz1c1aq6e-fill" data-item-order="2999876491" transform="translate(400.66668701171875, 112)"></g><g id="g-root-tx_billinga_1upx6bz1c1j7r7-fill" data-item-order="3000000000" transform="translate(220.66668701171875, 172)"><g id="tx_billinga_1upx6bz1c1j7r7-fill" stroke="none" fill="#484848"><g><text style="font: 20px &quot;Shantell Sans&quot;, cursive; white-space: pre;" font-size="20px" font-family="'Shantell Sans', cursive"><tspan x="12.9" y="34.53" dominant-baseline="ideographic">Billing and </tspan><tspan x="26.52" y="58.53" dominant-baseline="ideographic">Invoicing</tspan></text></g></g></g><g id="g-root-mail_m7cqbz1c1udxm-fill" data-item-order="3000000000" transform="translate(340.66668701171875, 172)"></g><g id="g-root-tx_contract_909mq71c1j6dd-fill" data-item-order="3000000000" transform="translate(196.66668701171875, 256)"><g id="tx_contract_909mq71c1j6dd-fill" stroke="none" fill="#484848"><g><text style="font: 20px &quot;Shantell Sans&quot;, cursive; white-space: pre;" font-size="20px" font-family="'Shantell Sans', cursive"><tspan x="12.67" y="34.53" dominant-baseline="ideographic">Contract and </tspan><tspan x="75.37" y="58.53" dominant-baseline="ideographic">Pricing</tspan></text></g></g></g><g id="g-root-give_959c9b1c1kjd7-fill" data-item-order="3000000000" transform="translate(340.66668701171875, 256)"></g><g id="g-root-grap_1lqj2331c1aqz3-fill" data-item-order="3000000000" transform="translate(664.6666870117188, 298)"></g><g id="g-root-tx_enhanced_v3matr1c1j5z5-fill" data-item-order="3000000000" transform="translate(724.6666870117188, 286)"><g id="tx_enhanced_v3matr1c1j5z5-fill" stroke="none" fill="#484848"><g><text style="font: 20px &quot;Shantell Sans&quot;, cursive; white-space: pre;" font-size="20px" font-family="'Shantell Sans', cursive"><tspan x="12" y="34.53" dominant-baseline="ideographic">Enhanced </tspan><tspan x="12" y="58.53" dominant-baseline="ideographic">Operational </tspan><tspan x="12" y="82.53" dominant-baseline="ideographic">Efficiency</tspan></text></g></g></g><g id="g-root-tx_supplyan_qqx64v1c1j75z-fill" data-item-order="3000000000" transform="translate(208.66668701171875, 340)"><g id="tx_supplyan_qqx64v1c1j75z-fill" stroke="none" fill="#484848"><g><text style="font: 20px &quot;Shantell Sans&quot;, cursive; white-space: pre;" font-size="20px" font-family="'Shantell Sans', cursive"><tspan x="22.13" y="34.53" dominant-baseline="ideographic">Supply and </tspan><tspan x="49.45" y="58.53" dominant-baseline="ideographic">Demand</tspan></text></g></g></g><g id="g-root-scal_6hykv1c1kjra-fill" data-item-order="3000000000" transform="translate(340.66668701171875, 340)"></g><g id="g-root-tx_streamli_v8m3in1c1j5e7-fill" data-item-order="3000000000" transform="translate(382.66668701171875, 586)"><g id="tx_streamli_v8m3in1c1j5e7-fill" stroke="none" fill="#484848"><g><text style="font: bold 25px &quot;Shantell Sans&quot;, cursive; white-space: pre;" font-weight="bold" font-size="25px" font-family="'Shantell Sans', cursive"><tspan x="15.98" y="43.93" dominant-baseline="ideographic">nGenue's key features</tspan></text></g></g></g><g id="g-root-serv_dcyrf31c1dki3-fill" data-item-order="3000000000" transform="translate(340.66668701171875, 88)"></g><g id="g-root-tx_regulato_18i76mn1c1j4st-fill" data-item-order="3000000000" transform="translate(208.66668701171875, 424)"><g id="tx_regulato_18i76mn1c1j4st-fill" stroke="none" fill="#484848"><g><text style="font: 20px &quot;Shantell Sans&quot;, cursive; white-space: pre;" font-size="20px" font-family="'Shantell Sans', cursive"><tspan x="21.27" y="34.53" dominant-baseline="ideographic">Regulatory </tspan><tspan x="18.83" y="58.53" dominant-baseline="ideographic">Compliance</tspan></text></g></g></g><g id="g-root-edit_94jz1c1vuof-fill" data-item-order="3000000000" transform="translate(340.66668701171875, 424)"></g><g id="g-root-tx_realtime_1uoo85r1c1j5kz-fill" data-item-order="3000000000" transform="translate(172.66668701171875, 508)"><g id="tx_realtime_1uoo85r1c1j5kz-fill" stroke="none" fill="#484848"><g><text style="font: 20px &quot;Shantell Sans&quot;, cursive; white-space: pre;" font-size="20px" font-family="'Shantell Sans', cursive"><tspan x="19.02" y="34.53" dominant-baseline="ideographic">Real-time Data </tspan><tspan x="74.82" y="58.53" dominant-baseline="ideographic">Analytics</tspan></text></g></g></g><g id="g-root-line_4g2mof1c1ge8d-fill" data-item-order="3000000000" transform="translate(340.66668701171875, 508)"></g><g id="g-root-tx_customer_18jg4sv1c1j6z1-fill" data-item-order="3000000000" transform="translate(196.66668701171875, 88)"><g id="tx_customer_18jg4sv1c1j6z1-fill" stroke="none" fill="#484848"><g><text style="font: 20px &quot;Shantell Sans&quot;, cursive; white-space: pre;" font-size="20px" font-family="'Shantell Sans', cursive"><tspan x="49.72" y="34.53" dominant-baseline="ideographic">Customer </tspan><tspan x="11.67" y="58.53" dominant-baseline="ideographic">Management</tspan></text></g></g></g><g id="g-root--1.cu_sy_zs63in1c1vugw-stroke" data-item-order="2999876454" transform="translate(484.66668701171875, 88)"><g id="-1.cu_sy_zs63in1c1vugw-stroke" fill="none" stroke-linecap="round" stroke-linejoin="round" stroke-miterlimit="4" stroke="#484848" stroke-width="4"><g><path d="M 65.8 478C 71.2 477.7 76.3 463.9 84.3 440.9C 90.9 421.9 93.6 395.4 98.5 365C 104.2 329.9 105.7 288.3 106 244C 106.2 216.9 106 190.9 103 166.8C 100 142.9 99.1 120.6 95.4 101C 92.3 84.2 89.3 69.2 86.7 56.4C 83.7 41.4 80.1 29.4 75.7 21.9C 71.4 14.6 68.8 9.8 65.8 10C 68 10.7 69 13.5 72.6 17.5C 76.1 21.4 76.3 29.4 78.7 38.2C 81.2 47.4 81.5 59.3 84.2 72.4C 87.2 86.6 87.4 103.4 88.9 121.5C 90.4 139.8 91.1 159.9 91.9 181.1C 92.8 201.1 93.6 222.2 92.9 244C 91.6 285 90.8 323.5 89.6 357.1C 88.3 390.7 82.7 418.9 80.6 440C 78.2 464.3 71.2 477.2 65.8 478M 65.8 478C 70.4 477.9 74.4 468.1 78.5 450.8C 83.3 430.3 86.9 399.2 89.3 361.4C 91.4 326.8 91.9 286.7 92.9 244C 94 198.4 91.3 155.7 88.8 119.6C 86.5 87.6 83.5 60.7 79.4 41.7C 75.1 21.6 70.7 10 65.8 10C 61.2 10 56.6 9.9 52 10C 55.2 11.2 56 18.4 60.4 27.2C 64.5 35.3 65.9 47.5 67.1 61.7C 68.3 74.8 69.3 89.9 72 106.4C 75 124.3 76.7 144.5 75.7 165.9C 74.4 190.3 75.7 216.7 77.2 244C 79.5 286.6 74.4 326.7 73.4 361.3C 72.3 396.1 69.3 425.7 63.4 445.8C 58.1 463.6 55.5 475.3 51.3 478C 56.1 477.9 60.9 478.3 65.8 478M 77.2 244C 76.3 264.1 76 283.7 76.3 302.4C 76.6 320.4 73.6 337.6 73.9 353.7C 74.1 370.8 72 386.6 69.9 400.8C 67.8 415.6 65.9 428.7 64.5 439.9C 63.2 449.8 61.5 458.1 58.8 464.1C 55.6 471.4 54.3 477.6 51.3 478C 50.9 478.1 50.5 478.1 50.1 478C 47.2 477.3 43.6 474 40.2 466.3C 37.1 459.1 32.8 449.2 30.4 436.3C 27.5 421.3 23.8 403.1 19.8 382.4C 15.7 361.4 13.2 337.5 12.3 311.7C 11.5 290.3 9.5 267.5 10 244C 10.7 212.7 10.5 182.7 13.9 155.5C 17.4 127.5 20 102.1 24 80.7C 28.5 56.8 33.2 37.6 38.6 25.6C 43 15.7 46.7 10.8 50.1 10C 50.7 9.8 52 10 52 10C 54.3 10.8 56 14.8 58.2 20.2C 60.7 26.3 61.3 35.6 64.7 46.3C 67.5 55.5 67.5 66.9 69.4 79.2C 71.5 93.3 70.8 109.4 73.5 126.5C 76.2 142.5 74.9 160.2 76.1 178.5C 77.5 199.2 76.9 221.3 77.2 244"></path><path d="M 65.766602 478C 80.754802 478 106.000002 373.2347 106.000002 244C 106.000002 114.7654 80.754802 10 65.766602 10C 80.775202 10.0122 92.941702 115.0836 92.941702 244C 92.941702 372.9165 80.775202 477.9878 65.766602 478ZM 65.765897 478C 80.774597 477.9878 92.941097 372.9165 92.941097 244C 92.941097 115.0836 80.774597 10.0122 65.765897 10L 51.957397 10C 66.060697 18.3945 77.199297 120.2626 77.199297 244C 77.199297 367.7375 65.382597 469.6055 51.279297 478L 65.765897 478ZM 77.2 244C 77.2 367.7375 65.3833 469.6055 51.28 478L 50.0615 478C 35.0734 478 10 373.2347 10 244C 10 114.7654 35.0734 10 50.0615 10C 50.6991 10 51.9581 10 51.9581 10C 66.0614 18.3945 77.2 120.2626 77.2 244Z"></path></g></g></g><g id="g-root-6.line_sy_qn624v1c1apl5-stroke" data-item-order="2999876461" transform="translate(400.66668701171875, 364)"><g id="6.line_sy_qn624v1c1apl5-stroke" fill="none" stroke-linecap="round" stroke-linejoin="round" stroke-miterlimit="4" stroke="#484848" stroke-width="2"><g><path d="M 272.7 11.52002C 261.8 25.32002 249.2 37.72002 238.4 51.52002C 226.4 66.82002 213.3 81.22002 200.5 95.82002C 189 108.82002 177.5 121.82002 166.6 135.32002C 154.8 149.92002 141.6 163.32002 130 178.02002C 109.8 176.72002 89.6 178.52002 69.3 178.02002C 49.6 177.52002 29.8 177.92002 10 178.02002"></path><path d="M 272.7 11.52002L 130 178.00002L 10 178.00002"></path><path d="M 273.7 20.32002C 272.7 17.42002 273.8 14.12002 273 11.12002C 270 11.82002 266.9 11.82002 263.9 11.82002" stroke-dasharray="none"></path><path d="M 273.7 20.32002L 273 11.12002L 263.9 11.82002" stroke-dasharray="none"></path></g></g></g><g id="g-root-5.line_sy_m7ck0f1c1aqde-stroke" data-item-order="2999876467" transform="translate(400.66668701171875, 350)"><g id="5.line_sy_m7ck0f1c1aqde-stroke" fill="none" stroke-linecap="round" stroke-linejoin="round" stroke-miterlimit="4" stroke="#484848" stroke-width="2"><g><path d="M 257.4 11.209961C 244.8 22.609961 229.8 31.109961 216.7 42.109961C 201.9 54.609961 185.3 64.909961 170.3 77.309961C 157.3 88.109961 143.3 97.609961 130 108.009961C 117.3 109.509961 104.4 109.209961 91.7 108.009961C 78.7 106.709961 65.6 108.109961 52.5 108.009961C 38.4 107.809961 24.1 109.309961 10 108.009961"></path><path d="M 257.41 11.209961L 130 107.999961L 10 107.999961"></path><path d="M 256.6 20.009961C 256 17.009961 257.7 14.009961 257.8 10.909961C 254.7 10.809961 251.8 9.709961 248.7 9.709961" stroke-dasharray="none"></path><path d="M 256.6 20.009961L 257.8 10.909961L 248.7 9.709961" stroke-dasharray="none"></path></g></g></g><g id="g-root-4.line_sy_8vw1n31c1aryb-stroke" data-item-order="2999876473" transform="translate(400.66668701171875, 332)"><g id="4.line_sy_8vw1n31c1aryb-stroke" fill="none" stroke-linecap="round" stroke-linejoin="round" stroke-miterlimit="4" stroke="#484848" stroke-width="2"><g><path d="M 250.1 10.51001C 229.1 15.41001 208.7 22.11001 187.7 26.91001C 168.3 31.21001 149.1 36.31001 130 42.01001C 116.3 41.81001 102.6 41.71001 88.9 42.01001C 76.8 42.21001 64.7 40.81001 52.7 42.01001C 38.6 43.41001 24.2 43.51001 10 42.01001"></path><path d="M 250.07 10.51001L 130 42.00001L 10 42.00001"></path><path d="M 245.9 18.31001C 247.6 15.81001 248.5 12.71001 250.5 10.41001C 247.8 9.01001 245.3 7.21001 242.6 5.71001" stroke-dasharray="none"></path><path d="M 245.9 18.31001L 250.5 10.41001L 242.6 5.71001" stroke-dasharray="none"></path></g></g></g><g id="g-root-3.line_sy_8vw1n31c1aryc-stroke" data-item-order="2999876479" transform="translate(400.77606201171875, 280)"><g id="3.line_sy_8vw1n31c1aryc-stroke" fill="none" stroke-linecap="round" stroke-linejoin="round" stroke-miterlimit="4" stroke="#484848" stroke-width="2"><g><path d="M 250.00061 41.5C 228.90061 37.1 208.00061 31.4 187.40061 25.1C 168.40061 19.3 148.80061 16 129.90061 10C 111.00061 10.2 92.00061 11.2 73.20061 10C 52.10061 8.6 31.00061 10.3 10.00061 10"></path><path d="M 249.96061 41.49L 129.89061 10L 10.00061 10"></path><path d="M 242.50061 46.3C 244.60061 44 247.50061 42.6 250.40061 41.6C 249.10061 38.8 246.40061 36.7 245.80061 33.7" stroke-dasharray="none"></path><path d="M 242.50061 46.3L 250.40061 41.6L 245.80061 33.7" stroke-dasharray="none"></path></g></g></g><g id="g-root-2.line_sy_vihb1c1apl9-stroke" data-item-order="2999876485" transform="translate(400.66668701171875, 196)"><g id="2.line_sy_vihb1c1apl9-stroke" fill="none" stroke-linecap="round" stroke-linejoin="round" stroke-miterlimit="4" stroke="#484848" stroke-width="2"><g><path d="M 257.4 106.8C 236 90.4 214.3 74.3 192.9 57.8C 172.1 41.7 150.7 26.3 130 10C 116.1 8 101.8 11.8 87.8 10C 74.6 8.3 61 8 47.7 10C 35.3 11.8 22.6 9.9 10 10"></path><path d="M 257.41 106.79L 130 10L 10 10"></path><path d="M 248.7 108.3C 251.7 107.9 254.7 107.3 257.8 107.1C 258.6 104.1 256.6 101.1 256.6 98" stroke-dasharray="none"></path><path d="M 248.7 108.3L 257.8 107.1L 256.6 98" stroke-dasharray="none"></path></g></g></g><g id="g-root-1.line_sy_1um62bz1c1aq6e-stroke" data-item-order="2999876491" transform="translate(400.66668701171875, 112)"><g id="1.line_sy_1um62bz1c1aq6e-stroke" fill="none" stroke-linecap="round" stroke-linejoin="round" stroke-miterlimit="4" stroke="#484848" stroke-width="2"><g><path d="M 272.7 176.5C 260.1 163 248.5 148.6 236.7 134.5C 225.9 121.6 215.7 108.1 203.9 96.2C 191.6 83.9 180.8 70.4 170.1 56.8C 157.4 40.6 142.6 26.2 130 10C 117.6 8.3 105 9.4 92.5 10C 79.9 10.6 67 11.7 54.5 10C 39.8 8 24.8 9.7 10 10"></path><path d="M 272.7 176.48L 130 10L 10 10"></path><path d="M 263.9 176.2C 266.9 176.3 270 176.5 273 176.9C 273.4 173.9 273.8 170.8 273.7 167.7" stroke-dasharray="none"></path><path d="M 263.9 176.2L 273 176.9L 273.7 167.7" stroke-dasharray="none"></path></g></g></g><g id="g-root-tx_billinga_1upx6bz1c1j7r7-stroke" data-item-order="3000000000" transform="translate(220.66668701171875, 172)"></g><g id="g-root-mail_m7cqbz1c1udxm-stroke" data-item-order="3000000000" transform="translate(340.66668701171875, 172)"><g id="mail_m7cqbz1c1udxm-stroke" fill="none" stroke-linecap="round" stroke-linejoin="round" stroke-miterlimit="4" stroke="#484848" stroke-width="2"><g><path d="M 49 27.6C 51.599998 29.6 54.599998 31 57 33C 55 39.799999 56.599998 47 57 54C 57 55.599998 55.599998 56.799999 54 57C 40.799999 59 27.200001 59 14 57C 12.4 56.799999 11.2 55.599998 11 54C 10.6 47 10.2 40 11 33C 13 30.6 17 30 19 27.6M 17 51C 20.4 48.200001 23.6 45.599998 27 43C 31.6 42.799999 36.400002 44 41 43C 44.599998 45.200001 48.799999 47.400002 51 51M 57 33C 52.599998 35 49 38.400002 45 41M 11 33C 14.4 36.400002 19.6 37.599998 23 41M 49 38.400002C 48 30 48.799999 21.4 49 13C 49 11.8 48 11 47 11C 38.400002 11.2 29.6 11.8 21 11C 19.799999 11 18.6 12 19 13C 22 20.799999 18.4 29.799999 19 38.400002M 24 19C 27 19.4 30 18.799999 33 19M 24 23C 27 22.4 30 22.6 33 23M 24 27C 25.6 27.200001 27.4 27 29 27M 41 27C 41 27.6 41 28.4 41 29M 41 17C 41.200001 17.6 41 18.4 41 19M 37 27C 39 26.799999 41.200001 26.4 43 27C 44 27.4 44.599998 26 45 25C 45.400002 24 44 23.4 43 23C 41.799999 22.6 40.400002 23 39 23C 37.799999 23 37.200001 22 37 21C 36.799999 20 38 18.799999 39 19C 41 19.4 43 19.200001 45 19"></path><path d="M 49 27.5L 57 33L 57 54C 57 55.656857 55.656857 57 54 57L 14 57C 12.343145 57 11 55.656857 11 54L 11 33L 19 27.5M 17.007999 51L 27.007999 43L 41.007999 43L 51.007999 51M 57.007999 33L 45.007999 41M 11.008 33L 23.007999 41M 49 38.332001L 49 13C 49 11.895431 48.104568 11 47 11L 21 11C 19.895432 11 19 11.895431 19 13L 19 38.332001M 24.007999 19L 33.007999 19M 24.007999 23L 33.007999 23M 24.007999 27L 29.007999 27M 41.007999 27L 41.007999 29M 41.007999 17L 41.007999 19M 37 27L 43 27C 44.104568 27 45 26.10457 45 25C 45 23.895432 44.104568 23 43 23L 39 23C 37.895432 23 37 22.104568 37 21C 37 19.895432 37.895432 19 39 19L 45 19"></path></g></g></g><g id="g-root-tx_contract_909mq71c1j6dd-stroke" data-item-order="3000000000" transform="translate(196.66668701171875, 256)"></g><g id="g-root-give_959c9b1c1kjd7-stroke" data-item-order="3000000000" transform="translate(340.66668701171875, 256)"><g id="give_959c9b1c1kjd7-stroke" fill="none" stroke-linecap="round" stroke-linejoin="round" stroke-miterlimit="4" stroke="#484848" stroke-width="2"><g><path d="M 57 54C 56.400002 52.799999 55.799999 51.400002 55 50.200001C 54.200001 47.200001 54.799999 44 55 41C 55.599998 37.400002 50.799999 34.400002 47 31M 50 45C 48.200001 43.400002 46.799999 41.400002 45 39.799999C 44.200001 39.200001 43.400002 39.200001 42.599998 39C 41.599998 39 41.200001 40.200001 40.799999 40.799999C 40.200001 41.599998 40.799999 42.599998 41.400002 43.200001C 43.400002 45.200001 44.799999 47.599998 47 49C 47 50 47 51 47 52C 47.799999 53.599998 48 55.599998 49 57M 11 14C 12 15 12.4 16.6 13 17.799999C 12 20.799999 13 24 13 27C 12.6 30.6 17.6 33.400002 21 37M 18 23C 20.200001 24.200001 21.200001 26.6 23 28.200001C 23.799999 28.799999 24.6 29.200001 25.4 29C 26.4 28.6 26.799999 28 27.200001 27.200001C 27.6 26.4 27.4 25.200001 26.6 24.799999C 24.6 23.200001 22.799999 21 21 19C 20.799999 18 21 17 21 16C 21.200001 14.2 20.200001 12.4 19 11M 21 26.200001C 23.4 33.400002 21.4 41.400002 21 49C 21 50.200001 22 50.799999 23 51C 29.200001 52.400002 35.799999 49.799999 42 51M 47 41.799999C 49.200001 34.599998 47 26.6 47 19C 47 17.799999 46 17.200001 45 17C 38.400002 16 31.6 17.6 25 17"></path><path d="M 57 54L 55 50.132L 55 41C 55.084 37.444 50.838001 34.274002 47 31M 50.037998 45L 44.936001 39.785999C 44.316936 39.141663 43.400085 38.878433 42.533497 39.096237C 41.666908 39.314037 40.983467 39.979477 40.742607 40.839943C 40.501755 41.700409 40.740417 42.623959 41.368004 43.260002L 47 49L 47 52C 47.306267 53.789154 47.987881 55.493187 49 57M 11 14L 13 17.868L 13 27C 12.916 30.556 17.162001 33.725998 21 37M 17.962 23L 23.063999 28.214001C 23.683064 28.858339 24.599916 29.121571 25.466503 28.903767C 26.333092 28.685965 27.016537 28.020525 27.257393 27.160059C 27.498249 26.299595 27.259584 25.376043 26.632 24.740002L 21 19L 21 16C 20.693735 14.210846 20.012121 12.506812 19 11M 21 26.104L 21 49C 21 50.104568 21.895432 51 23 51L 42 51M 47 41.896L 47 19C 47 17.895432 46.104568 17 45 17L 25 17"></path></g></g></g><g id="g-root-grap_1lqj2331c1aqz3-stroke" data-item-order="3000000000" transform="translate(664.6666870117188, 298)"><g id="grap_1lqj2331c1aqz3-stroke" fill="none" stroke-linecap="round" stroke-linejoin="round" stroke-miterlimit="4" stroke="#484848" stroke-width="2"><g><path d="M 11 40.599998C 16.200001 42.200001 22 41.400002 27.4 40.599998M 43 28.4C 42.599998 23.200001 42.799999 17.799999 43 12.4C 43 12 42.599998 11.4 42 11.4C 40.799999 11.8 39.400002 11.2 38 11.4C 37.400002 11.6 37 12 37 12.4C 36.599998 17.799999 36.799999 23.200001 37 28.4M 31 28.4C 31 25.799999 31.200001 23.200001 31 20.4C 31 20 30.6 19.4 30 19.4C 28.6 19.6 27.200001 19.799999 26 19.4C 25.4 19.4 24.799999 20 25 20.4C 26.200001 27 27 34.200001 25 40.400002M 19 40.599998C 19 36.599998 18 32.400002 19 28.6C 19.200001 28 18.6 27.4 18 27.6C 16.799999 27.799999 15.4 27.799999 14 27.6C 13.4 27.4 13.2 28 13 28.6C 11.6 32.200001 12.6 36.599998 13 40.599998M 33 34.599998C 39.799999 32 47.799999 32.799999 55 34.599998C 55 34.599998 57.400002 34.599998 57 36.599998C 55.599998 42.400002 56.400002 48.599998 57 54.599998C 57 54.599998 57 56.599998 55 56.599998C 47.599998 56.400002 40.200001 55.799999 33 56.599998C 33 56.599998 31.200001 56.599998 31 54.599998C 30.4 48.599998 30.6 42.599998 31 36.599998C 31 36.599998 31 34.200001 33 34.599998M 31 40C 39.599998 38.200001 48.400002 41.400002 57 40M 31 45.599998C 39.400002 47.799999 48.599998 43 57 45.599998M 31 50.799999C 39.599998 52.400002 48.599998 52.599998 57 50.799999M 43 40C 41.599998 45.200001 40.799999 51.400002 43 56.599998M 49.599998 40C 50.400002 45.400002 51 51.200001 49.599998 56.599998"></path><path d="M 11 40.501999L 27.436001 40.501999M 43.014 28.497999L 43.014 12.498C 43.014 11.945715 42.566284 11.498 42.014 11.498L 38.014 11.498C 37.461716 11.498 37.014 11.945715 37.014 12.498L 37.014 28.497999M 31 28.497999L 31 20.498001C 31 19.945715 30.552284 19.498001 30 19.498001L 26 19.498001C 25.447716 19.498001 25 19.945715 25 20.498001L 25 40.498001M 19 40.501999L 19 28.502001C 19 27.949715 18.552284 27.502001 18 27.502001L 14 27.502001C 13.447716 27.502001 13 27.949715 13 28.502001L 13 40.501999M 32.987999 34.5L 55 34.5C 55 34.5 57 34.5 57 36.5L 57 54.510002C 57 54.510002 57 56.510002 55 56.510002L 32.987999 56.510002C 32.987999 56.510002 30.988001 56.510002 30.988001 54.510002L 30.988001 36.5C 30.988001 36.5 30.988001 34.5 32.987999 34.5M 30.988001 39.933998L 57 39.933998M 30.988001 45.504002L 57 45.504002M 30.988001 50.776001L 57 50.776001M 43.014 39.936001L 43.014 56.509998M 49.674 39.936001L 49.674 56.509998"></path></g></g></g><g id="g-root-tx_enhanced_v3matr1c1j5z5-stroke" data-item-order="3000000000" transform="translate(724.6666870117188, 286)"></g><g id="g-root-tx_supplyan_qqx64v1c1j75z-stroke" data-item-order="3000000000" transform="translate(208.66668701171875, 340)"></g><g id="g-root-scal_6hykv1c1kjra-stroke" data-item-order="3000000000" transform="translate(340.66668701171875, 340)"><g id="scal_6hykv1c1kjra-stroke" fill="none" stroke-linecap="round" stroke-linejoin="round" stroke-miterlimit="4" stroke="#484848" stroke-width="2"><g><path d="M 42 33C 42.599998 36.200001 42.799999 39.799999 42 43C 46 43.200001 50.200001 44.200001 54 43C 53 39.799999 55.200001 36 54 33M 10 10M 39 36C 41.799999 34 43.799999 30.6 46.599998 28.6C 47.599998 28 48.799999 27.799999 49.400002 28.6C 51.799999 31.200001 54.400002 33.599998 57 36M 34 19C 32.799999 31.6 33.799999 44.400002 34 57M 28.200001 57C 32 57.400002 36 56.799999 39.799999 57M 37 16C 36.599998 17.200001 36.400002 18.799999 35.200001 18.799999C 34 18.799999 32.599998 19.200001 31.799999 18.200001C 31.200001 17.200001 30.4 15.8 31.200001 14.8C 32 14 32.799999 12.8 34 13C 35.599998 13.2 37.400002 14.4 37 16M 54 28.4C 52.799999 22.6 48.799999 17.6 48 11.8C 46.599998 17.6 43.599998 22.799999 42 28.4M 36.799999 14.4C 41.799999 14.2 47 13.4 51.599998 11M 14 34.599998C 16.6 29.4 18.200001 23.799999 20 18.200001C 21.4 23.4 23 28.799999 25.6 33.599998M 11 41.599998C 9.6 46.599998 15.4 49.599998 20.6 51C 25.6 52.400002 28.799999 46.599998 30 41.599998C 31.200001 36.400002 25.799999 31.799999 20.6 32C 15.2 32.200001 12.2 36.400002 11 41.599998M 22.799999 36.799999C 21.799999 37 20.6 37.200001 19.6 36.799999C 18.799999 36.599998 18 37.599998 17.799999 38.400002C 17.4 39.400002 18 40.599998 18.799999 40.799999C 20 41.200001 21 42 22.200001 42C 23 42.599998 23.4 43.400002 23.200001 44.400002C 23.200001 45.400002 22.200001 45.799999 21.4 46C 20.200001 46 19.200001 46.400002 18.200001 46M 20.6 36.799999C 20.6 36.400002 20.6 36 20.6 35.599998M 20.6 47.400002C 20.6 47 20.4 46.599998 20.6 46.200001M 31 15.6C 26.6 18 20.6 16.4 16.4 19M 51.599998 11C 46.400002 10.4 41.599998 14.8 36.599998 14.4"></path><path d="M 42 33.040001L 42 43L 54 43L 54 33M 10 10M 39 36L 46.68 28.559999C 47.435013 27.896708 48.564987 27.896708 49.32 28.559999L 57 36M 34 19L 34 57M 28.16 57L 39.779999 57M 36.98 16C 36.988102 17.207085 36.267208 18.299824 35.154324 18.76738C 34.041443 19.234936 32.756424 18.98494 31.899998 18.134262C 31.043571 17.283583 30.784927 16.000278 31.244978 14.884272C 31.70503 13.768264 32.792889 13.040028 34 13.04C 35.638031 13.039963 36.969009 14.362007 36.980003 16ZM 54 28.4L 48 11.82L 42 28.4M 36.720001 14.38L 51.540001 11M 13.940001 34.620003L 20 18.18L 25.66 33.52M 11 41.5C 11 46.746704 15.253295 51 20.5 51C 25.746704 51 30 46.746704 30 41.5C 30 36.253296 25.746704 32 20.5 32C 15.253295 32 11 36.253296 11 41.5M 22.880001 36.760002L 19.66 36.760002C 18.714813 36.834705 17.934156 37.52792 17.748213 38.457642C 17.562267 39.38736 18.016254 40.327507 18.860001 40.759998L 22.139999 42.080002C 22.983744 42.512489 23.437731 43.452633 23.251785 44.382355C 23.065842 45.312077 22.285183 46.005291 21.34 46.079998L 18.119999 46.080002M 20.5 36.760002L 20.5 35.559998M 20.5 47.439999L 20.5 46.259998M 31.040001 15.68L 16.459999 19M 51.540001 11L 36.5 14.42"></path></g></g></g><g id="g-root-tx_streamli_v8m3in1c1j5e7-stroke" data-item-order="3000000000" transform="translate(382.66668701171875, 586)"></g><g id="g-root-serv_dcyrf31c1dki3-stroke" data-item-order="3000000000" transform="translate(340.66668701171875, 88)"><g id="serv_dcyrf31c1dki3-stroke" fill="none" stroke-linecap="round" stroke-linejoin="round" stroke-miterlimit="4" stroke="#484848" stroke-width="2"><g><path d="M 39.799999 16.200001C 39.799999 19 42.400002 22.200001 45 21.200001C 47.599998 20.200001 50.200001 19 50.200001 16.200001C 50 13.2 47.799999 10.6 45 11C 42.200001 11.4 39 13.4 39.799999 16.200001M 53.200001 57C 51.599998 56.400002 50.400002 55.599998 50.200001 54C 49.200001 49.599998 50.599998 45 50.200001 40.599998C 49.599998 38 48 35.799999 47.799999 33.200001C 44 35.200001 40.200001 38.400002 35.799999 38C 34.200001 38.599998 33.200001 36.599998 32.799999 35C 32.200001 33.400002 34.200001 31.799999 35.799999 32C 40.200001 31.799999 43.200001 28.200001 46.400002 25.200001C 47.400002 24.4 48.400002 24.200001 49.400002 23.799999C 50.599998 23.6 52 24.799999 52 26C 52 30.6 56 34.599998 56.200001 39.200001C 56.200001 39.599998 56.200001 39.799999 56.200001 40.200001C 55.200001 44.599998 57 49.400002 56.200001 54C 56 55.599998 54.799999 57 53.200001 57M 29.200001 57C 23.4 56 17.200001 59 11.8 57C 12.8 45.799999 11.6 34.599998 11.8 23.200001C 13.8 23.6 15.8 23.6 17.6 23.200001C 19.6 30.200001 21.799999 36.799999 24 43.799999C 27 43.400002 30.200001 42.799999 33.200001 43.799999C 31.4 48 29 52.400002 29.200001 57"></path><path d="M 39.879997 16.112C 39.879753 18.935455 42.168545 21.224445 44.992001 21.224445C 47.815453 21.224445 50.104248 18.935455 50.104 16.112C 50.104248 13.288546 47.815453 10.999554 44.992001 10.999554C 42.168545 10.999554 39.879753 13.288546 39.879997 16.112M 53.169998 57C 51.476372 57 50.103104 55.627628 50.102001 53.933998L 50.102001 40.599998L 47.799999 33.110001C 44.489311 36.096504 40.252541 37.854057 35.799999 38.087997C 34.106979 38.093666 32.729809 36.726013 32.723732 35.032997C 32.717659 33.339981 34.084984 31.962479 35.778 31.955999C 40.229652 31.588133 44.222992 29.074663 46.480003 25.220001C 47.116604 24.202778 48.28783 23.65008 49.477741 23.805378C 50.667652 23.960678 51.657795 24.795464 52.012001 25.941999L 56.099998 39.23C 56.189964 39.522911 56.235798 39.827587 56.236 40.134003L 56.236 53.933998C 56.234898 55.626846 54.862846 56.998898 53.169998 57ZM 29.142 57L 11.764 57L 11.764 23.265999L 17.691999 23.265999L 24.029999 43.712002L 33.23 43.712002L 29.142 57Z"></path></g></g></g><g id="g-root-tx_regulato_18i76mn1c1j4st-stroke" data-item-order="3000000000" transform="translate(208.66668701171875, 424)"></g><g id="g-root-edit_94jz1c1vuof-stroke" data-item-order="3000000000" transform="translate(340.66668701171875, 424)"><g id="edit_94jz1c1vuof-stroke" fill="none" stroke-linecap="round" stroke-linejoin="round" stroke-miterlimit="4" stroke="#484848" stroke-width="2"><g><path d="M 47 37C 49 42 48.799999 48 47 53C 46.200001 55 45.200001 57.599998 43 57C 34 54.400002 24 54.400002 15 57C 12.8 57.599998 10.8 55.200001 11 53C 11.6 40.400002 14.6 27.200001 11 15C 10.4 12.8 12.8 11.4 15 11C 24.200001 9.4 33.799999 12 43 11C 45.200001 10.8 47.200001 12.8 47 15C 47 15.6 47 16.4 47 17M 43 41C 41.799999 44 43.400002 47.799999 43 51C 42.799999 52 42 52.799999 41 53C 33.200001 54.400002 25 53 17 53C 15.8 53 14.8 52 15 51C 17.799999 40 16.200001 28.200001 15 17C 14.8 16 16 15 17 15C 18.4 15 19.6 14.6 21 15M 37 15C 38.200001 14.6 39.799999 14.6 41 15C 42 15.2 43.200001 16 43 17C 42.799999 18.4 43.400002 19.799999 43 21M 31.4 46.400002C 29.799999 45.200001 28.200001 44 27.200001 42.200001C 36 34.599998 43.599998 25.799999 51.799999 17.4C 53 16.200001 55.200001 16.200001 56.200001 17.4C 57.200001 18.799999 57 20.4 56.200001 21.799999C 49.599998 31.4 37.799999 36.599998 31.4 46.400002M 49.799999 19.6C 51.400002 20.799999 52.799999 22.4 54 23.799999M 27.200001 42.200001C 27 44.599998 24.799999 46.599998 24.6 49C 26.6 47.599998 29.4 47.799999 31.4 46.400002C 29.6 45.599998 28.6 43.400002 27.200001 42.200001M 19 33C 19.4 33.400002 19.6 34 19.799999 34.400002C 19.799999 34.799999 20.200001 35 20.4 35C 20.799999 35 21 34.799999 21.200001 34.799999C 22.799999 33.799999 24 32.400002 25 31M 29 33C 29.6 33 30.4 33 31 33M 21 11C 26.200001 11.6 31.799999 11.8 37 11C 37 12.4 37.200001 13.6 37 15C 36.799999 16 36 16.799999 35 17C 31.200001 18 27 17.6 23 17C 22 16.799999 21 16 21 15C 21 13.6 20.6 12.2 21 11M 19 25C 19.200001 25.6 19.4 26 19.799999 26.4C 20 26.799999 20.200001 26.799999 20.4 27C 20.799999 27.200001 21 27 21.200001 26.799999C 22.4 25.4 24 24.4 25 23M 29 25C 31.6 25.200001 34.400002 25.6 37 25"></path><path d="M 47 37L 47 53C 47 55.209141 45.209141 57 43 57L 15 57C 12.790861 57 11 55.209141 11 53L 11 15C 11 12.790861 12.790861 11 15 11L 43 11C 45.209141 11 47 12.790861 47 15L 47 17M 43 41L 43 51C 43 52.104568 42.104568 53 41 53L 17 53C 15.895431 53 15 52.104568 15 51L 15 17C 15 15.895431 15.895431 15 17 15L 21 15M 37 15L 41 15C 42.104568 15 43 15.895431 43 17L 43 21M 31.372 46.464001L 27.129999 42.222L 51.877998 17.472C 53.04987 16.299606 54.950336 16.299393 56.122471 17.471527C 57.294605 18.64366 57.294392 20.544128 56.121998 21.716ZM 49.757999 19.594L 54 23.836M 27.129999 42.222L 24.594 49L 31.372 46.464001L 27.129999 42.222ZM 19 33L 19.732 34.464001C 19.870932 34.743011 20.135715 34.938057 20.443375 34.98801C 20.751034 35.037964 21.063927 34.936722 21.284 34.716L 25 31M 29 33L 31 33M 21 11L 37 11L 37 11L 37 15C 37 16.104568 36.104568 17 35 17L 23 17C 21.895432 17 21 16.104568 21 15L 21 11L 21 11ZM 19 25L 19.732 26.464001C 19.870932 26.743011 20.135715 26.938055 20.443375 26.98801C 20.751034 27.037966 21.063927 26.93672 21.284 26.716L 25 23M 29 25L 37 25"></path></g></g></g><g id="g-root-tx_realtime_1uoo85r1c1j5kz-stroke" data-item-order="3000000000" transform="translate(172.66668701171875, 508)"></g><g id="g-root-line_4g2mof1c1ge8d-stroke" data-item-order="3000000000" transform="translate(340.66668701171875, 508)"><g id="line_4g2mof1c1ge8d-stroke" fill="none" stroke-linecap="round" stroke-linejoin="round" stroke-miterlimit="4" stroke="#484848" stroke-width="2"><g><path d="M 11 34C 11.4 46.799999 21.4 56.799999 34 57C 46.799999 57.200001 60.599998 46.200001 57 34C 53.400002 21.799999 46.400002 14.2 34 11C 21.799999 7.8 8 21.6 11 34M 47 45C 38.599998 43.200001 29.6 45.799999 21 45C 22 38.400002 20.200001 31.6 21 25M 21 35C 23 34.400002 24.4 32.599998 26.4 32C 27.4 31.6 28.6 31.6 29 32.599998C 30 34.599998 32 36.200001 32.799999 38.200001C 33 38.799999 33.599998 39.200001 34 39C 34.400002 38.799999 34.799999 38.599998 35 38.200001C 36.599998 35.599998 39 33 39.599998 29.799999C 39.599998 29.200001 40.400002 29 41 28.799999C 42.799999 28.200001 45 28.200001 47 28"></path><path d="M 11.008 34C 11.008 46.702549 21.30545 57 34.008003 57C 46.710548 57 57.007999 46.702549 57.007999 34C 57.007999 21.297451 46.710548 11 34.008003 11C 21.30545 11 11.008 21.297451 11.008 34ZM 47.007999 45L 21.007999 45L 21.007999 25M 21 35L 26.378 31.926001C 27.291264 31.403624 28.453098 31.678127 29.035999 32.554001L 32.860001 38.290001C 33.044575 38.730682 33.483971 39.00988 33.961323 38.989807C 34.438675 38.96973 34.853073 38.654621 35 38.199997L 39.528 29.879999C 39.830055 29.326275 40.375626 28.947491 41 28.858L 47 28"></path></g></g></g><g id="g-root-tx_customer_18jg4sv1c1j6z1-stroke" data-item-order="3000000000" transform="translate(196.66668701171875, 88)"></g></g></g></svg>