<svg width="120" height="120" viewBox="0 0 120 120" fill="none" xmlns="http://www.w3.org/2000/svg">
<g clip-path="url(#clip0_897_5117)">
<path d="M88.6614 109.011C86.9564 109.866 84.8251 110.294 82.907 110.294C80.5625 110.507 78.4313 110.08 76.7262 111.79C75.8737 112.859 75.6606 114.141 75.8737 115.424C76.3 116.492 76.9393 117.561 78.005 117.775H78.8575C79.0706 117.775 79.4969 117.989 79.4969 118.202C79.4969 118.416 79.4969 118.844 79.2838 119.057C79.0706 119.271 78.8575 119.485 78.4312 119.485C75.4475 120.554 72.0374 120.554 68.8405 119.485C62.2335 116.706 54.774 115.637 47.5276 116.065C41.7732 116.492 33.0349 116.92 30.4774 110.721C29.4117 108.156 28.3461 103.881 24.936 103.24C23.6573 103.026 21.3128 102.813 21.0997 104.523C21.0997 104.95 21.526 105.805 21.3128 106.233C20.8866 107.301 19.6078 106.233 19.1816 105.805C15.5584 102.599 13.214 98.1101 12.7877 93.4077C12.5746 89.3465 10.017 88.7052 7.03324 86.5678C5.9676 85.9265 5.32821 84.8578 4.90195 83.789C4.90195 83.3615 5.11508 82.9341 5.54134 82.9341H5.9676C6.39385 83.1478 6.82011 82.934 6.82011 82.5066V82.0791C5.9676 78.2316 3.83631 75.2391 2.55754 71.6054C1.06564 67.758 0.852514 63.6968 1.4919 59.6356C2.55754 56.0018 4.04944 52.5819 5.54134 49.1619C6.60698 47.0244 7.03324 44.4595 6.82011 42.1083C6.60698 40.8258 5.54134 37.8333 4.04944 38.4745C2.9838 38.902 2.77067 41.0395 1.70503 41.0395C0.426257 41.2533 0.213128 39.757 0 38.6883C0 34.4133 1.91816 30.5659 5.54134 28.2147C7.45949 27.1459 9.37765 26.2909 11.2958 25.4359C13.4271 24.5809 15.3452 23.2985 17.2634 21.8022C18.7553 20.9472 20.2472 19.8785 21.526 18.596C22.8047 17.0998 23.0179 14.9623 21.9522 13.4661C21.526 13.2523 21.3128 12.8248 21.3128 12.3973C21.3128 12.1836 21.3128 11.7561 21.526 11.5423C22.8047 9.19111 24.936 7.26739 27.2804 5.9849C28.9855 4.70241 31.1167 3.41993 33.248 2.77868C35.8056 1.92369 38.3631 1.28245 40.9207 0.854956C44.757 0.213713 48.5933 0.213713 52.2165 0.854956C54.1346 1.0687 56.0528 1.4962 57.9709 2.13744C65.0042 5.12991 72.0374 -3.49657e-05 79.0706 1.4962C79.9231 1.70995 80.7757 1.92369 81.4151 2.35119C81.6282 2.56494 82.0544 2.56494 82.2676 2.35119C83.3332 1.4962 86.5301 1.92369 90.5796 3.20618C91.8583 3.41993 93.3502 3.84742 94.629 4.06117C97.1866 5.77115 103.154 10.6873 104.433 13.4661C106.564 17.741 109.122 19.0235 106.138 23.9397C105.285 25.2222 104.007 26.5047 102.515 27.1459C102.089 27.3597 101.875 27.5734 101.449 27.7872C100.597 28.4284 99.7441 28.0009 98.6784 28.4284C98.2522 28.6421 97.6128 28.6421 97.1865 28.6421C93.9896 28.0009 94.629 28.0009 93.5634 26.2909C91.8583 23.726 89.9402 21.5885 86.317 22.016C85.2514 21.8022 84.1857 21.161 83.3332 20.5197C83.1201 20.0922 80.3494 18.3823 80.1363 18.1685C79.2838 17.3135 78.4312 16.4585 77.3656 15.8173C75.6606 15.176 73.7424 14.5348 72.0374 14.3211C66.7092 13.0386 63.5123 16.6723 58.3972 18.3823C57.5447 18.8098 56.479 18.8098 55.4134 18.596C54.5609 18.1685 53.9215 17.3135 53.2821 16.4585C51.7902 15.176 49.872 14.3211 47.9539 14.3211C45.6095 14.1073 43.0519 14.1073 40.7075 14.3211H40.4944C40.2813 14.3211 40.4944 14.7486 40.4944 14.9623C41.9863 17.0998 41.1338 18.596 40.4944 20.7335C39.4288 23.9397 37.5106 26.9322 34.9531 29.2834C33.248 30.5659 31.3299 31.2071 29.6248 32.4896C27.7067 33.9858 26.0017 35.4821 24.5098 37.1921C22.8047 39.757 21.9522 42.9632 22.3785 45.9557C22.3785 49.5894 21.7391 53.2231 20.2472 56.6431C18.7553 60.0631 16.624 63.9105 17.0503 67.9717C17.0503 69.4679 17.9028 70.9642 19.3947 71.6054C20.0341 71.8192 20.8866 72.0329 21.7391 72.0329C23.0179 72.0329 23.8704 70.9642 23.6573 69.6817C23.6573 69.4679 23.6573 69.0405 23.4441 68.8267C23.231 68.3992 23.4441 67.9717 23.8704 67.9717H24.2966C24.7229 67.9717 24.936 67.9717 25.3623 68.1855C26.0017 68.613 26.641 69.4679 27.0673 70.1092C28.1329 71.8192 28.5592 73.7429 28.3461 75.6666C28.3461 77.8041 27.4936 79.7278 26.2148 81.2241C25.3623 83.1478 26.0017 85.2853 27.7067 86.354C27.9198 86.354 28.1329 86.5678 28.3461 86.5678C28.9855 86.7815 29.838 86.9953 30.4774 87.209C32.8218 88.2777 34.9531 90.2015 36.2318 92.339C37.7237 94.4764 37.7237 97.4689 39.4288 99.6064C40.4944 100.889 41.7732 101.744 43.2651 102.171C45.6095 103.026 47.9539 103.668 50.5114 103.668C52.4296 103.881 54.3477 103.668 56.0528 103.026C57.3315 102.385 58.3972 101.744 59.676 100.889C63.086 98.5376 67.5617 100.034 71.398 100.675C73.103 100.889 73.9556 101.316 75.4475 100.034C76.0868 99.3926 76.7262 98.7514 77.3656 98.1101C78.6444 97.2551 80.3494 97.0414 81.8413 97.6826C82.0544 97.6826 82.0544 97.8964 82.2676 97.8964C82.2676 98.1101 81.8413 98.3239 81.6282 98.3239C80.9888 98.7514 81.2019 99.8201 81.8413 100.034C83.7595 101.316 86.7433 99.1789 88.4483 98.1101C89.3008 97.6826 89.9402 97.0414 90.5796 96.4002C91.4321 95.3314 91.219 94.2627 91.0058 93.1939C91.0058 92.1252 92.2846 90.4152 92.924 88.919C95.6946 86.1403 98.8916 83.3615 102.089 80.7966C102.302 80.7966 102.302 80.5828 102.515 80.5828C103.794 78.8728 110.401 78.0179 115.089 84.0028C116.368 85.499 115.942 92.1252 115.516 93.4077C114.876 94.4764 114.237 95.7589 113.384 96.6139C111.466 98.9651 109.548 100.889 107.63 103.24C106.99 104.095 106.138 104.95 105.285 105.591C104.859 106.019 104.433 106.446 104.007 106.66C103.58 107.088 102.728 107.301 102.302 107.943C101.662 108.584 101.023 109.225 100.383 109.653C99.3178 110.294 98.0391 110.721 96.7603 111.149H95.2684C95.0553 111.149 94.629 110.935 94.629 110.721" fill="white"/>
<path d="M79.4966 88.0639C78.8572 88.0639 78.4309 88.0639 77.7916 87.8502C75.6603 86.9952 73.7421 85.4989 72.2502 83.3615C70.7583 80.369 72.8896 79.3003 73.3159 77.1628L76.939 55.788C77.5784 52.1543 77.1522 49.3756 75.6603 47.6656C73.9552 45.5281 71.6108 43.8182 68.8402 43.3907C61.3807 43.3907 56.2656 50.8718 55.4131 52.5818L49.8717 84.4302H40.4941L38.7891 82.7202L47.9536 42.5357C48.3798 40.1844 48.3798 38.902 47.5273 37.6195L44.9698 33.772L43.2648 30.3521L49.8717 34.4133C51.1505 34.4133 52.4293 34.627 53.4949 35.2682C55.4131 36.5507 56.6918 38.6882 57.1181 41.0394C60.9544 37.8332 65.6432 36.1232 70.7583 36.1232C75.8734 36.1232 80.136 38.2607 83.3329 41.8944C86.5298 45.9556 87.5955 51.0856 86.5298 56.2155L82.9066 76.5215C82.0541 81.0102 82.6935 82.5065 84.6117 84.644L86.3167 86.3539L83.7592 87.6364C82.9066 88.0639 81.841 88.2777 80.7754 88.4914C80.5622 87.8502 80.136 88.0639 79.4966 88.0639Z" fill="white"/>
<path d="M77.1529 86.3539C76.5135 86.3539 76.0872 86.3539 75.4479 86.1402C69.2671 84.2165 70.5459 77.1628 70.9722 73.7428L74.5953 52.3681C75.2347 48.7343 74.8085 45.9556 73.3166 44.2456C71.3984 42.5357 69.054 41.4669 66.4965 41.6807C59.037 41.6807 53.9219 49.1618 53.0694 50.8718L47.528 82.7202H38.1504L45.6099 39.1157C46.0361 36.7645 46.0361 35.482 45.1836 34.1995L42.6261 30.3521L47.528 30.7795C48.8068 30.7795 50.0856 31.207 51.1512 31.6345C53.0694 32.917 54.3482 35.0545 54.7744 37.192C58.6107 33.9858 63.2995 32.2758 68.4146 32.2758C73.5297 32.2758 77.7923 34.4133 80.9892 38.047C84.1861 42.1082 85.2518 47.2381 84.1861 52.1543L80.5629 72.4603C79.7104 76.949 80.1367 79.7278 82.0548 81.8652L83.973 84.0027L81.4155 85.2852C80.5629 85.7127 79.4973 86.1402 78.4317 86.1402C78.0054 86.1402 77.5791 86.3539 77.1529 86.3539Z" fill="#E7282B"/>
</g>
<defs>
<clipPath id="clip0_897_5117">
<rect width="120" height="120" fill="white"/>
</clipPath>
</defs>
</svg>
