<?xml version="1.0" encoding="utf-8" standalone="yes"?>
<!DOCTYPE svg PUBLIC "-//W3C//DTD SVG 1.1//EN" "http://www.w3.org/Graphics/SVG/1.1/DTD/svg11.dtd">
<svg width="746" height="506" viewBox="0 0 746 506" style="fill:none;stroke:none;fill-rule:evenodd;clip-rule:evenodd;stroke-linecap:round;stroke-linejoin:round;stroke-miterlimit:1.5;" version="1.1" xmlns="http://www.w3.org/2000/svg" xmlns:xlink="http://www.w3.org/1999/xlink"><style class="text-font-style fontImports" data-font-family="Roboto">@import url('https://fonts.googleapis.com/css2?family=Roboto:wght@400;700&amp;display=block');</style><g id="items" style="isolation: isolate"><g id="blend" style="mix-blend-mode: normal"><g id="g-root-4.g-4_fr_hzn1rz19jr098-fill" data-item-order="-334072" transform="translate(70.22268676757812, 344.6875)"><g id="4.g-4_fr_hzn1rz19jr098-fill" stroke="none" fill="#fff2e5"><g><path d="M 13.295069 14.8743C 12.242769 13.5657 11.089469 12.1314 10.001869 10.5C 9.997669 10.4937 10.001869 10.0007 10.001869 10.0007L 190.001969 10L 190.001969 16.6677C 209.618969 20.2039 224.501969 37.364 224.501969 58C 224.501969 78.6361 209.618969 95.7962 190.001969 99.3324L 190.001969 107.5L 114.001969 107.5C 113.668969 104.6667 112.901969 97.9 112.501969 93.5C 112.001969 88 109.501769 76 108.001769 72.5C 106.501769 69 104.001769 65.5 98.001769 62C 92.001769 58.5 86.001769 58 78.501769 58C 75.382569 58 72.609269 58.4324 69.138869 58.9736C 64.264869 59.7335 58.015669 60.708 47.501869 61C 29.776669 61.4924 22.233269 55.1968 19.142369 52.6173L 19.001869 52.5C 16.001869 50 15.501869 39.5 17.001869 32C 18.188769 26.0653 17.810369 24.5136 17.352969 22.6381C 17.232369 22.1434 17.106169 21.6261 17.001869 21C 16.683069 19.0876 15.145269 17.1753 13.295069 14.8743ZM 182.501969 94C 202.383969 94 218.501969 77.8822 218.501969 58C 218.501969 38.1177 202.383969 22 182.501969 22C 162.619969 22 146.501969 38.1177 146.501969 58C 146.501969 77.8822 162.619969 94 182.501969 94Z"></path></g></g></g><g id="g-root-3.g-3_fr_djtjnj19jr11i-fill" data-item-order="-334068" transform="translate(41.99998474121094, 248.68798828125)"><g id="3.g-3_fr_djtjnj19jr11i-fill" stroke="none" fill="#fffbda"><g><path d="M 11.725015 40.5C 14.558415 34.1667 21.225015 19.9 25.225015 13.5C 25.922015 12.3849 26.589815 11.2114 27.225815 10.00001L 218.225015 10L 218.225015 16.6677C 237.842015 20.204 252.725015 37.364 252.725015 58C 252.725015 78.636 237.842015 95.796 218.225015 99.3323L 218.225015 106L 37.913315 106C 35.891915 102.5164 36.588615 98.5901 37.224615 97C 38.458915 94.9428 38.677515 94.2399 38.994915 93.2196C 39.063215 93 39.136015 92.7657 39.224615 92.5C 39.533615 91.573 38.314815 91.0279 36.630415 90.2746C 35.589415 89.809 34.370515 89.2639 33.224615 88.5C 30.824615 86.9 30.224615 83.1667 30.224615 81.5L 30.224615 65C 30.224615 62 28.224615 60 25.224615 59.5C 25.081615 59.4762 24.936415 59.4524 24.788815 59.4281L 24.785915 59.4277C 21.837415 58.944 17.961215 58.3081 12.725015 54.5C 8.325015 51.3 10.225015 43.8333 11.725015 40.5ZM 210.725015 94C 230.607015 94 246.725015 77.8822 246.725015 58C 246.725015 38.1177 230.607015 22 210.725015 22C 190.842015 22 174.725015 38.1177 174.725015 58C 174.725015 77.8822 190.842015 94 210.725015 94Z"></path></g></g></g><g id="g-root-2.g-2_fr_9401j319jr1ts-fill" data-item-order="-334064" transform="translate(57.16197204589844, 152.68798828125)"><g id="2.g-2_fr_9401j319jr1ts-fill" stroke="none" fill="#f4ffdc"><g><path d="M 11.562115 62.5C 9.962115 58.9 9.895615 40.3333 10.062315 31.5C 10.006015 26.5458 11.026015 19.0169 13.881515 10L 203.062015 10.000084L 203.062015 16.6677C 222.680015 20.204 237.562015 37.364 237.562015 58C 237.562015 78.636 222.680015 95.796 203.062015 99.3323L 203.062015 106L 12.063315 106C 15.989715 98.5208 18.701915 89.5939 19.562515 84C 20.329315 79.0158 16.392015 71.6797 13.612215 66.5003C 12.766815 64.9251 12.028515 63.5494 11.562115 62.5ZM 195.562015 94C 215.445015 94 231.562015 77.8822 231.562015 58C 231.562015 38.1177 215.445015 22 195.562015 22C 175.680015 22 159.562015 38.1177 159.562015 58C 159.562015 77.8822 175.680015 94 195.562015 94Z"></path></g></g></g><g id="g-root-1.g-1_fr_8d1a719jr2mi-fill" data-item-order="-334060" transform="translate(61.04400634765625, 61)"><g id="1.g-1_fr_8d1a719jr2mi-fill" stroke="none" fill="#e3fff2"><g><path d="M 53.6808 39.6865C 92.0808 8.0865 154.014 7.8532 180.181 11.6865L 185.083 12.2028C 187.232 11.8636 189.436 11.6875 191.681 11.6875C 214.877 11.6875 233.681 30.4915 233.681 53.6875C 233.681 74.3235 218.798 91.4836 199.181 95.0198L 199.181 101.6875L 10 101.6875C 15.5982 84.0097 28.2515 60.6128 53.6808 39.6865ZM 191.681 89.6875C 211.563 89.6875 227.681 73.5698 227.681 53.6875C 227.681 33.8052 211.563 17.6875 191.681 17.6875C 171.798 17.6875 155.681 33.8052 155.681 53.6875C 155.681 73.5698 171.798 89.6875 191.681 89.6875Z"></path></g></g></g><g id="g-root-ente_dbpdj319jsemf-fill" data-item-order="0" transform="translate(219, 81)"></g><g id="g-root-tx_legalent_147zikf19jr01x-fill" data-item-order="0" transform="translate(303, 69)"><g id="tx_legalent_147zikf19jr01x-fill" stroke="none" fill="#3cc583"><g><text style="font: bold 20px Roboto, sans-serif; white-space: pre;" font-weight="bold" font-size="20px" font-family="Roboto, sans-serif"><tspan x="12" y="33.47" dominant-baseline="ideographic">Legal Entity</tspan></text></g></g></g><g id="g-root-tx_theprima_qwj07319jr1mu-fill" data-item-order="0" transform="translate(303, 105)"><g id="tx_theprima_qwj07319jr1mu-fill" stroke="none" fill="#484848"><g><text style="font: 15px Roboto, sans-serif; white-space: pre;" font-size="15px" font-family="Roboto, sans-serif"><tspan x="12" y="27.07" dominant-baseline="ideographic">The primary company entity engaging in contracts and </tspan><tspan x="12" y="45.07" dominant-baseline="ideographic">transactions</tspan></text></g></g></g><g id="g-root-circ_1qbc9tr19jftad-fill" data-item-order="0" transform="translate(219, 177)"></g><g id="g-root-tx_business_mcc9mn19jfsp7-fill" data-item-order="0" transform="translate(303, 165)"><g id="tx_business_mcc9mn19jfsp7-fill" stroke="none" fill="#92bd39"><g><text style="font: bold 20px Roboto, sans-serif; white-space: pre;" font-weight="bold" font-size="20px" font-family="Roboto, sans-serif"><tspan x="12" y="33.47" dominant-baseline="ideographic">Business Unit</tspan></text></g></g></g><g id="g-root-tx_subentit_4loq7z19jfrwk-fill" data-item-order="0" transform="translate(303, 201)"><g id="tx_subentit_4loq7z19jfrwk-fill" stroke="none" fill="#484848"><g><text style="font: 15px Roboto, sans-serif; white-space: pre;" font-size="15px" font-family="Roboto, sans-serif"><tspan x="12" y="27.07" dominant-baseline="ideographic">Sub-entities within the legal entity, managing specific </tspan><tspan x="12" y="45.07" dominant-baseline="ideographic">operations</tspan></text></g></g></g><g id="g-root-targ_quno3j19jlg5j-fill" data-item-order="0" transform="translate(219, 273)"></g><g id="g-root-tx_strategy_924pfj19jlgcl-fill" data-item-order="0" transform="translate(303, 261)"><g id="tx_strategy_924pfj19jlgcl-fill" stroke="none" fill="#e0cb15"><g><text style="font: bold 20px Roboto, sans-serif; white-space: pre;" font-weight="bold" font-size="20px" font-family="Roboto, sans-serif"><tspan x="12" y="33.47" dominant-baseline="ideographic">Strategy</tspan></text></g></g></g><g id="g-root-tx_definesg_18lxolb19jldse-fill" data-item-order="0" transform="translate(303, 297)"><g id="tx_definesg_18lxolb19jldse-fill" stroke="none" fill="#484848"><g><text style="font: 15px Roboto, sans-serif; white-space: pre;" font-size="15px" font-family="Roboto, sans-serif"><tspan x="12" y="27.07" dominant-baseline="ideographic">Defines goals like securing supply, managing costs, or </tspan><tspan x="12" y="45.07" dominant-baseline="ideographic">maximizing revenue</tspan></text></g></g></g><g id="g-root-grap_18itebj19jlfk5-fill" data-item-order="0" transform="translate(219, 369)"></g><g id="g-root-tx_portfoli_4jte4f19jleyz-fill" data-item-order="0" transform="translate(303, 357)"><g id="tx_portfoli_4jte4f19jleyz-fill" stroke="none" fill="#de8431"><g><text style="font: bold 20px Roboto, sans-serif; white-space: pre;" font-weight="bold" font-size="20px" font-family="Roboto, sans-serif"><tspan x="12" y="33.47" dominant-baseline="ideographic">Portfolio</tspan></text></g></g></g><g id="g-root-tx_groupsco_1q9gxq719jlgcs-fill" data-item-order="0" transform="translate(303, 393)"><g id="tx_groupsco_1q9gxq719jlgcs-fill" stroke="none" fill="#484848"><g><text style="font: 15px Roboto, sans-serif; white-space: pre;" font-size="15px" font-family="Roboto, sans-serif"><tspan x="12" y="27.07" dominant-baseline="ideographic">Groups contracts, deals, and assets under a strategy for </tspan><tspan x="12" y="45.07" dominant-baseline="ideographic">reporting</tspan></text></g></g></g><g id="g-root-4.g-4_fr_hzn1rz19jr098-stroke" data-item-order="-334072" transform="translate(70.22268676757812, 344.6875)"><g id="4.g-4_fr_hzn1rz19jr098-stroke" fill="none" stroke-linecap="round" stroke-linejoin="round" stroke-miterlimit="4" stroke="#de8431" stroke-width="2"><g><path d="M 13.295069 14.8743C 12.242769 13.5657 11.089469 12.1314 10.001869 10.5C 9.997669 10.4937 10.001869 10.0007 10.001869 10.0007L 190.001869 10L 190.001869 16.6677C 209.619369 20.2039 224.502069 37.364 224.502069 58C 224.502069 78.6361 209.619369 95.7962 190.001869 99.3324L 190.001869 107.5L 114.001769 107.5C 113.668469 104.6667 112.901769 97.9 112.501769 93.5C 112.001769 88 109.501769 76 108.001769 72.5C 106.501769 69 104.001769 65.5 98.001769 62C 92.001769 58.5 86.001769 58 78.501769 58C 75.382569 58 72.609269 58.4324 69.138869 58.9736C 64.264869 59.7335 58.015669 60.708 47.501869 61C 29.776669 61.4924 22.233269 55.1968 19.142369 52.6173L 19.001869 52.5C 16.001869 50 15.501869 39.5 17.001869 32C 18.188769 26.0653 17.810369 24.5136 17.352969 22.6381C 17.232369 22.1434 17.106169 21.6261 17.001869 21C 16.683069 19.0876 15.145269 17.1752 13.295069 14.8743ZM 182.501969 94C 202.384169 94 218.501969 77.8822 218.501969 58C 218.501969 38.1177 202.384169 22 182.501969 22C 162.619669 22 146.501969 38.1177 146.501969 58C 146.501969 77.8822 162.619669 94 182.501969 94Z"></path></g></g></g><g id="g-root-3.g-3_fr_djtjnj19jr11i-stroke" data-item-order="-334068" transform="translate(41.99998474121094, 248.68798828125)"><g id="3.g-3_fr_djtjnj19jr11i-stroke" fill="none" stroke-linecap="round" stroke-linejoin="round" stroke-miterlimit="4" stroke="#e0cb15" stroke-width="2"><g><path d="M 11.725015 40.5C 14.558415 34.1667 21.225015 19.9 25.225015 13.5C 25.922015 12.3849 26.589815 11.2114 27.225815 10L 218.224615 10L 218.224615 16.6677C 237.842015 20.204 252.724615 37.364 252.724615 58C 252.724615 78.636 237.842015 95.796 218.224615 99.3323L 218.224615 106L 37.913315 106C 35.891915 102.5164 36.588615 98.5901 37.224615 97C 38.458915 94.9428 38.677515 94.2399 38.994915 93.2196C 39.063215 93 39.136015 92.7657 39.224615 92.5C 39.533615 91.573 38.314815 91.0279 36.630415 90.2746C 35.589415 89.809 34.370515 89.2639 33.224615 88.5C 30.824615 86.9 30.224615 83.1667 30.224615 81.5L 30.224615 65C 30.224615 62 28.224615 60 25.224615 59.5C 25.081615 59.4762 24.936415 59.4524 24.788815 59.4281L 24.785915 59.4277C 21.837415 58.944 17.961115 58.3081 12.725015 54.5C 8.325015 51.3 10.225015 43.8333 11.725015 40.5ZM 210.724615 94C 230.606915 94 246.724615 77.8822 246.724615 58C 246.724615 38.1177 230.606915 22 210.724615 22C 190.842415 22 174.724615 38.1177 174.724615 58C 174.724615 77.8822 190.842415 94 210.724615 94Z"></path></g></g></g><g id="g-root-2.g-2_fr_9401j319jr1ts-stroke" data-item-order="-334064" transform="translate(57.16197204589844, 152.68798828125)"><g id="2.g-2_fr_9401j319jr1ts-stroke" fill="none" stroke-linecap="round" stroke-linejoin="round" stroke-miterlimit="4" stroke="#92bd39" stroke-width="2"><g><path d="M 11.562115 62.5C 9.962115 58.9 9.895615 40.3333 10.062315 31.5C 10.006015 26.5458 11.026015 19.0169 13.881515 10L 203.062115 10.0001L 203.062115 16.6677C 222.679515 20.204 237.562115 37.364 237.562115 58C 237.562115 78.636 222.679515 95.796 203.062115 99.3323L 203.062115 106L 12.063315 106C 15.989715 98.5208 18.701915 89.5939 19.562515 84C 20.329315 79.0158 16.392015 71.6797 13.612215 66.5003C 12.766815 64.9251 12.028515 63.5494 11.562115 62.5ZM 195.562515 94C 215.444715 94 231.562515 77.8822 231.562515 58C 231.562515 38.1177 215.444715 22 195.562515 22C 175.680315 22 159.562515 38.1177 159.562515 58C 159.562515 77.8822 175.680315 94 195.562515 94Z"></path></g></g></g><g id="g-root-1.g-1_fr_8d1a719jr2mi-stroke" data-item-order="-334060" transform="translate(61.04400634765625, 61)"><g id="1.g-1_fr_8d1a719jr2mi-stroke" fill="none" stroke-linecap="round" stroke-linejoin="round" stroke-miterlimit="4" stroke="#3cc583" stroke-width="2"><g><path d="M 53.6808 39.6865C 92.0808 8.0865 154.0142 7.8532 180.1808 11.6865L 185.0827 12.2028C 187.2321 11.8636 189.4358 11.6875 191.6807 11.6875C 214.8766 11.6875 233.6807 30.4915 233.6807 53.6875C 233.6807 74.3235 218.798 91.4836 199.1806 95.0198L 199.1806 101.6875L 10 101.6875C 15.5982 84.0097 28.2515 60.6128 53.6808 39.6865ZM 191.6807 89.6875C 211.5629 89.6875 227.6807 73.5698 227.6807 53.6875C 227.6807 33.8052 211.5629 17.6875 191.6807 17.6875C 171.7984 17.6875 155.6807 33.8052 155.6807 53.6875C 155.6807 73.5698 171.7984 89.6875 191.6807 89.6875Z"></path></g></g></g><g id="g-root-ente_dbpdj319jsemf-stroke" data-item-order="0" transform="translate(219, 81)"><g id="ente_dbpdj319jsemf-stroke" fill="none" stroke-linecap="round" stroke-linejoin="round" stroke-miterlimit="4" stroke="#3cc583" stroke-width="2"><g><path d="M 18.08 48.240002L 22.860001 43.459999M 29.48 27.200001C 35.485653 25.070286 42.182564 26.87508 46.304749 31.734207C 50.426933 36.593338 51.115936 43.494869 48.035736 49.073032C 44.95554 54.651199 38.747604 57.74432 32.439445 56.843933C 26.131289 55.943546 21.036606 51.237156 19.639999 45.02M 29.48 41.66C 29.48 44.487698 31.772301 46.779999 34.599998 46.779999C 37.427696 46.779999 39.720001 44.487698 39.720001 41.66C 39.720001 38.832302 37.427696 36.540001 34.599998 36.540001C 31.772301 36.540001 29.48 38.832302 29.48 41.66M 37.080002 46.139999C 39.505463 44.924198 42.458225 45.811512 43.811737 48.162903C 45.165245 50.514297 44.449512 53.513275 42.18 55M 37.080002 37.200001C 39.505463 38.415802 42.458225 37.528488 43.811737 35.177094C 45.165245 32.825703 44.449512 29.826723 42.18 28.34M 29.48 43.119999C 29.311113 45.818222 27.073503 47.920155 24.369999 47.920155C 21.666496 47.920155 19.428886 45.818222 19.26 43.119999L 19.26 11C 24.90435 11 29.48 15.57565 29.48 21.220001Z"></path></g></g></g><g id="g-root-tx_legalent_147zikf19jr01x-stroke" data-item-order="0" transform="translate(303, 69)"></g><g id="g-root-tx_theprima_qwj07319jr1mu-stroke" data-item-order="0" transform="translate(303, 105)"></g><g id="g-root-circ_1qbc9tr19jftad-stroke" data-item-order="0" transform="translate(219, 177)"><g id="circ_1qbc9tr19jftad-stroke" fill="none" stroke-linecap="round" stroke-linejoin="round" stroke-miterlimit="4" stroke="#92bd39" stroke-width="2"><g><path d="M 10 10M 43.700001 27.7005L 33.700001 33.3004L 23.700081 27.7005L 23.700081 16.900459L 33.700001 11.500488L 43.700001 16.900459L 43.700001 27.7005ZM 10 10M 43.700001 16.900879L 33.700001 22.500919L 23.700081 16.900879M 33.700001 22.500481L 33.700001 33.300201M 33.700001 37.7006L 33.700001 47.700199M 17.30018 47.700199L 17.30018 43.329601C 17.30018 41.872601 18.10018 40.901398 19.30018 40.901398L 49.300201 40.901398C 50.500198 40.901398 51.300201 41.872601 51.300201 43.329601L 51.300201 47.700199M 33.700199 56.500198C 36.130199 56.500198 38.100201 54.530201 38.100201 52.100201C 38.100201 49.6702 36.130199 47.700199 33.700199 47.700199C 31.270201 47.700199 29.30018 49.6702 29.30018 52.100201C 29.30018 54.530201 31.270201 56.500198 33.700199 56.500198ZM 50.700001 56.500198C 53.130001 56.500198 55.099998 54.530201 55.099998 52.100201C 55.099998 49.6702 53.130001 47.700199 50.700001 47.700199C 48.27 47.700199 46.299999 49.6702 46.299999 52.100201C 46.299999 54.530201 48.27 56.500198 50.700001 56.500198ZM 17.300039 56.500198C 19.73008 56.500198 21.70002 54.530201 21.70002 52.100201C 21.70002 49.6702 19.73008 47.700199 17.300039 47.700199C 14.86998 47.700199 12.90002 49.6702 12.90002 52.100201C 12.90002 54.530201 14.86998 56.500198 17.300039 56.500198Z"></path></g></g></g><g id="g-root-tx_business_mcc9mn19jfsp7-stroke" data-item-order="0" transform="translate(303, 165)"></g><g id="g-root-tx_subentit_4loq7z19jfrwk-stroke" data-item-order="0" transform="translate(303, 201)"></g><g id="g-root-targ_quno3j19jlg5j-stroke" data-item-order="0" transform="translate(219, 273)"><g id="targ_quno3j19jlg5j-stroke" fill="none" stroke-linecap="round" stroke-linejoin="round" stroke-miterlimit="4" stroke="#e0cb15" stroke-width="2"><g><path d="M 13.644 18.028C 13.642836 21.91028 16.789719 25.058107 20.671999 25.058107C 24.554279 25.058107 27.701164 21.91028 27.699999 18.028C 27.701164 14.14572 24.554279 10.997891 20.671999 10.997891C 16.789719 10.997891 13.642836 14.14572 13.644 18.028M 24.962 28.705999C 22.19043 27.192316 18.826122 27.252041 16.110025 28.863146C 13.393929 30.474251 11.728483 33.398018 11.728 36.556L 11.728 44.222L 15.774 44.222L 16.84 57L 24.506001 57M 47.200001 39.984001C 48.598122 45.418388 46.172527 51.114399 41.285744 53.872417C 36.398956 56.630432 30.269064 55.762993 26.339403 51.757362C 22.40974 47.751728 21.659821 41.60635 24.510895 36.773266C 27.361967 31.94018 33.103374 29.624084 38.509998 31.125999M 41.379997 43.096001C 41.379997 46.526791 38.598793 49.307999 35.167999 49.307999C 31.737207 49.307999 28.955999 46.526791 28.955999 43.096001C 28.955999 39.665207 31.737207 36.883999 35.167999 36.883999M 44.130001 33.912003L 35.503998 43.096001M 49.945999 27.804001L 49.939999 21.114L 43.830002 26.736L 44.130001 33.912003M 49.945999 27.804001L 56.271999 27.804001L 50.650002 33.912003L 44.130001 33.912003"></path></g></g></g><g id="g-root-tx_strategy_924pfj19jlgcl-stroke" data-item-order="0" transform="translate(303, 261)"></g><g id="g-root-tx_definesg_18lxolb19jldse-stroke" data-item-order="0" transform="translate(303, 297)"></g><g id="g-root-grap_18itebj19jlfk5-stroke" data-item-order="0" transform="translate(219, 369)"><g id="grap_18itebj19jlfk5-stroke" fill="none" stroke-linecap="round" stroke-linejoin="round" stroke-miterlimit="4" stroke="#de8431" stroke-width="2"><g><path d="M 37 24C 37 27.865993 40.13401 31 44 31C 47.865993 31 51 27.865993 51 24C 51 20.134007 47.865993 17 44 17C 40.13401 17 37 20.134007 37 24M 17 51L 21.4 44.834C 21.556288 44.615219 21.794092 44.46859 22.059757 44.427197C 22.32542 44.385807 22.596561 44.453136 22.812 44.613998L 25.200001 46.400002C 25.641827 46.731369 26.268629 46.641827 26.6 46.200001L 32 39M 45.501999 17.162001L 44 24L 50.948002 23.15M 40 37L 50 37C 50 37 51 37 51 38L 51 50C 51 50 51 51 50 51L 40 51C 40 51 39 51 39 50L 39 38C 39 38 39 37 40 37M 43 43L 47 43M 43 47L 45 47M 18 17L 28 17C 28 17 29 17 29 18L 29 30C 29 30 29 31 28 31L 18 31C 18 31 17 31 17 30L 17 18C 17 18 17 17 18 17M 21 21L 25 21M 21 25L 23 25M 13 11L 55 11C 55 11 57 11 57 13L 57 55C 57 55 57 57 55 57L 13 57C 13 57 11 57 11 55L 11 13C 11 13 11 11 13 11"></path></g></g></g><g id="g-root-tx_portfoli_4jte4f19jleyz-stroke" data-item-order="0" transform="translate(303, 357)"></g><g id="g-root-tx_groupsco_1q9gxq719jlgcs-stroke" data-item-order="0" transform="translate(303, 393)"></g></g></g></svg>