<?xml version="1.0" encoding="utf-8" standalone="yes"?>
<!DOCTYPE svg PUBLIC "-//W3C//DTD SVG 1.1//EN" "http://www.w3.org/Graphics/SVG/1.1/DTD/svg11.dtd">
<svg width="878" height="591" viewBox="0 0 878 591" style="fill:none;stroke:none;fill-rule:evenodd;clip-rule:evenodd;stroke-linecap:round;stroke-linejoin:round;stroke-miterlimit:1.5;" version="1.1" xmlns="http://www.w3.org/2000/svg" xmlns:xlink="http://www.w3.org/1999/xlink"><style class="text-font-style fontImports" data-font-family="Roboto">@import url('https://fonts.googleapis.com/css2?family=Roboto:wght@400;700&amp;display=block');</style><g id="items" style="isolation: isolate"><g id="blend" style="mix-blend-mode: normal"><g id="g-root-3.cu_sy_2raeo1cvm6tj-fill" data-item-order="-399857" transform="translate(185.0087890625, 288.2864990234375)"><g id="3.cu_sy_2raeo1cvm6tj-fill" stroke="none" fill="#4e88e7"><g><path d="M 211.977 252.973L 394.466 141.898L 413.938 130.046L 360.086 34.0543L 211.977 124.203L 211.977 252.973ZM 28.6641 141.898L 211.977 252.973L 211.977 124.203L 63.1985 34.0543L 10 130.046L 28.6641 141.898ZM 211.977 124.203L 360.086 34.0543L 320.572 10L 211.977 76.0977L 102.8916 10L 63.1985 34.0543L 211.977 124.203ZM 360.080078 34.046875L 643.991078 34.046875L 667.991078 82.046875L 643.991078 130.046875L 413.936478 130.046875L 360.080078 34.046875Z"></path></g></g></g><g id="g-root-2.cu_sy_1uo1u9c1cvm7eo-fill" data-item-order="-399853" transform="translate(15, 156.1888427734375)"><g id="2.cu_sy_1uo1u9c1cvm7eo-fill" stroke="none" fill="#3cc583"><g><path d="M 381.985594 79.2188L 307.926594 34.1445L 254.058594 130.14L 272.899994 142.098L 381.985594 208.195L 381.985594 79.2188ZM 381.985594 208.195L 490.579594 142.098L 509.976594 130.14L 456.039594 34.1482L 381.985594 79.2188L 381.985594 208.195ZM 416.371594 10L 381.985594 30.9297L 347.443494 10L 307.926594 34.1445L 381.985594 79.2188L 456.039594 34.1482L 416.371594 10ZM 34 34.144531L 307.936 34.144531L 254.059 130.144531L 34 130.144531L 10 82.144531L 34 34.144531Z"></path></g></g></g><g id="g-root-1.cu_sy_1lt1b3k1cvm51l-fill" data-item-order="-399849" transform="translate(333.1318359375, 48.3333740234375)"><g id="1.cu_sy_1lt1b3k1cvm51l-fill" stroke="none" fill="#92bd39"><g><path d="M 63.8534 138.785L 98.2397 117.855L 117.712 106.0035L 63.8534 10L 63.8534 138.785ZM 29.3117 117.855L 63.8534 138.785L 63.8534 10L 10 106.0035L 29.3117 117.855ZM 63.826172 10L 339.868172 10L 363.868172 58L 339.868172 106L 117.694772 106L 63.826172 10Z"></path></g></g></g><g id="g-root-tx_pipeline_18jg7zk1cvm5mv-fill" data-item-order="0" transform="translate(447, 60.3333740234375)"><g id="tx_pipeline_18jg7zk1cvm5mv-fill" stroke="none" fill="#ffffff"><g><text style="font: bold 20px Roboto, sans-serif; white-space: pre;" font-weight="bold" font-size="20px" font-family="Roboto, sans-serif"><tspan x="12" y="33.47" dominant-baseline="ideographic">Pipeline Locations</tspan></text></g></g></g><g id="g-root-tx_specific_4kg7sg1cvm51o-fill" data-item-order="0" transform="translate(447, 96.3333740234375)"><g id="tx_specific_4kg7sg1cvm51o-fill" stroke="none" fill="#ffffff"><g><text style="font: 15px Roboto, sans-serif; white-space: pre;" font-size="15px" font-family="Roboto, sans-serif"><tspan x="12" y="27.07" dominant-baseline="ideographic">Specific points for measuring </tspan><tspan x="12" y="45.07" dominant-baseline="ideographic">and transferring gas</tspan></text></g></g></g><g id="g-root-tx_pipeline_1lua99s1cvm77q-fill" data-item-order="0" transform="translate(111, 192.3333740234375)"><g id="tx_pipeline_1lua99s1cvm77q-fill" stroke="none" fill="#ffffff"><g><text style="font: bold 20px Roboto, sans-serif; white-space: pre;" font-weight="bold" font-size="20px" font-family="Roboto, sans-serif"><tspan x="18.68" y="33.47" dominant-baseline="ideographic">Pipeline Zones</tspan></text></g></g></g><g id="g-root-tx_segments_hva92o1cvm6mj-fill" data-item-order="0" transform="translate(87, 228.3333740234375)"><g id="tx_segments_hva92o1cvm6mj-fill" stroke="none" fill="#ffffff"><g><text style="font: 15px Roboto, sans-serif; white-space: pre;" font-size="15px" font-family="Roboto, sans-serif"><tspan x="15.87" y="27.07" dominant-baseline="ideographic">Segments for managing </tspan><tspan x="35.27" y="45.07" dominant-baseline="ideographic">contracts and pricing</tspan></text></g></g></g><g id="g-root-tx_pipeline_1qa3re81cvm6fh-fill" data-item-order="0" transform="translate(603, 324.3333740234375)"><g id="tx_pipeline_1qa3re81cvm6fh-fill" stroke="none" fill="#ffffff"><g><text style="font: bold 20px Roboto, sans-serif; white-space: pre;" font-weight="bold" font-size="20px" font-family="Roboto, sans-serif"><tspan x="12" y="33.47" dominant-baseline="ideographic">Pipeline</tspan></text></g></g></g><g id="g-root-tx_infrastr_1hd7sz41cvm5tu-fill" data-item-order="0" transform="translate(603, 360.3333740234375)"><g id="tx_infrastr_1hd7sz41cvm5tu-fill" stroke="none" fill="#ffffff"><g><text style="font: 15px Roboto, sans-serif; white-space: pre;" font-size="15px" font-family="Roboto, sans-serif"><tspan x="12" y="27.07" dominant-baseline="ideographic">Infrastructure for transporting </tspan><tspan x="12" y="45.07" dominant-baseline="ideographic">natural gas</tspan></text></g></g></g><g id="g-root-3.cu_sy_2raeo1cvm6tj-stroke" data-item-order="-399857" transform="translate(185.0087890625, 288.2864990234375)"><g id="3.cu_sy_2raeo1cvm6tj-stroke" fill="none" stroke-linecap="round" stroke-linejoin="round" stroke-miterlimit="4" stroke="#ffffff" stroke-width="2"><g><path d="M 211.9768 252.9727L 413.9383 130.0461L 360.0863 34.0543L 211.9768 124.2031L 211.9768 252.9727ZM 28.6641 141.8984L 211.9768 252.9727L 211.9768 124.2031L 63.1985 34.0543L 10 130.0461L 28.6641 141.8984ZM 211.9768 124.2031L 360.0863 34.0543L 320.5716 10L 211.9768 76.0977L 102.8916 10L 63.1985 34.0543L 211.9768 124.2031ZM 360.080078 34.046875L 643.991178 34.046875L 667.991178 82.046875L 643.991178 130.046875L 413.936478 130.046875L 360.080078 34.046875Z"></path></g></g></g><g id="g-root-2.cu_sy_1uo1u9c1cvm7eo-stroke" data-item-order="-399853" transform="translate(15, 156.1888427734375)"><g id="2.cu_sy_1uo1u9c1cvm7eo-stroke" fill="none" stroke-linecap="round" stroke-linejoin="round" stroke-miterlimit="4" stroke="#ffffff" stroke-width="2"><g><path d="M 381.985194 79.2188L 307.926594 34.1445L 254.058594 130.1399L 272.899994 142.0977L 381.985194 208.1953L 381.985194 79.2188ZM 381.985194 208.1953L 490.579994 142.0977L 509.976894 130.1399L 456.039994 34.1482L 381.985194 79.2188L 381.985194 208.1953ZM 416.371494 10L 381.985194 30.9297L 347.443494 10L 307.926594 34.1445L 381.985194 79.2188L 456.039994 34.1482L 416.371494 10ZM 34 34.144531L 307.9355 34.144531L 254.0586 130.144531L 34 130.144531L 10 82.144531L 34 34.144531Z"></path></g></g></g><g id="g-root-1.cu_sy_1lt1b3k1cvm51l-stroke" data-item-order="-399849" transform="translate(333.1318359375, 48.3333740234375)"><g id="1.cu_sy_1lt1b3k1cvm51l-stroke" fill="none" stroke-linecap="round" stroke-linejoin="round" stroke-miterlimit="4" stroke="#ffffff" stroke-width="2"><g><path d="M 63.8534 138.7852L 117.7119 106.0035L 63.8534 10L 63.8534 138.7852ZM 29.3117 117.8555L 63.8534 138.7852L 63.8534 10L 10 106.0035L 29.3117 117.8555ZM 63.826172 10L 339.868272 10L 363.868272 58L 339.868272 106L 117.694772 106L 63.826172 10Z"></path></g></g></g><g id="g-root-tx_pipeline_18jg7zk1cvm5mv-stroke" data-item-order="0" transform="translate(447, 60.3333740234375)"></g><g id="g-root-tx_specific_4kg7sg1cvm51o-stroke" data-item-order="0" transform="translate(447, 96.3333740234375)"></g><g id="g-root-tx_pipeline_1lua99s1cvm77q-stroke" data-item-order="0" transform="translate(111, 192.3333740234375)"></g><g id="g-root-tx_segments_hva92o1cvm6mj-stroke" data-item-order="0" transform="translate(87, 228.3333740234375)"></g><g id="g-root-tx_pipeline_1qa3re81cvm6fh-stroke" data-item-order="0" transform="translate(603, 324.3333740234375)"></g><g id="g-root-tx_infrastr_1hd7sz41cvm5tu-stroke" data-item-order="0" transform="translate(603, 360.3333740234375)"></g></g></g></svg>