<?xml version="1.0" encoding="utf-8" standalone="yes"?>
<!DOCTYPE svg PUBLIC "-//W3C//DTD SVG 1.1//EN" "http://www.w3.org/Graphics/SVG/1.1/DTD/svg11.dtd">
<svg width="728" height="387" viewBox="0 0 728 387" style="fill:none;stroke:none;fill-rule:evenodd;clip-rule:evenodd;stroke-linecap:round;stroke-linejoin:round;stroke-miterlimit:1.5;" version="1.1" xmlns="http://www.w3.org/2000/svg" xmlns:xlink="http://www.w3.org/1999/xlink"><style class="text-font-style fontImports" data-font-family="Roboto">@import url('https://fonts.googleapis.com/css2?family=Roboto:wght@400;700&amp;display=block');</style><g id="items" style="isolation: isolate"><g id="blend" style="mix-blend-mode: normal"><g id="g-root-0.cu_sy_de7z0g1d5u6m9-fill" data-item-order="-61050" transform="translate(291, 25.875)"><g id="0.cu_sy_de7z0g1d5u6m9-fill" stroke="none" fill="#f5f5f5"><g><path d="M 78 10C 76.8954 10 76 10.8954 76 12L 76 13.3714C 52.3221 16.324 34 36.5223 34 61L 34 148.211C 30.3565 150.318 27.3184 153.356 25.2108 157L 16 157L 16 156C 16 154.895 15.1046 154 14 154L 10 154L 10 184L 14 184C 15.1046 184 16 183.105 16 182L 16 181L 25.2108 181C 27.3184 184.644 30.3565 187.682 34 189.789L 34 277C 34 301.478 52.3221 321.676 76 324.629L 76 326C 76 327.105 76.8954 328 78 328L 82 328L 82 298L 78 298C 76.8954 298 76 298.895 76 300L 76 300.244C 65.6486 297.58 58 288.183 58 277L 58 246.578C 63.4193 249.713 69.5084 251.819 76 252.629L 76 254C 76 255.105 76.8954 256 78 256L 82 256L 82 226L 78 226C 76.8954 226 76 226.895 76 228L 76 228.244C 65.6525 225.581 58.0058 216.19 58 205.013C 58 205.008 58 205.004 58 205L 58 189.789C 61.6435 187.682 64.6816 184.644 66.7892 181L 76 181L 76 182C 76 183.105 76.8954 184 78 184L 82 184L 82 154L 78 154C 76.8954 154 76 154.895 76 156L 76 157L 66.7892 157C 64.6816 153.356 61.6435 150.318 58 148.211L 58 132.987C 58.0058 121.81 65.6525 112.419 76 109.7561L 76 110C 76 111.105 76.8954 112 78 112L 82 112L 82 82L 78 82C 76.8954 82 76 82.8954 76 84L 76 85.3714C 69.5084 86.1809 63.4193 88.2867 58 91.4215L 58 61C 58 49.817 65.6486 40.4204 76 37.7561L 76 38C 76 39.1046 76.8954 40 78 40L 82 40L 82 10L 78 10Z"></path></g></g></g><g id="g-root-0.cu_1_sy_4ikyrk1d5u7ey-fill" data-item-order="-61048" transform="translate(231, 169.875)"><g id="0.cu_1_sy_4ikyrk1d5u7ey-fill" stroke="none" fill="#f5f5f5"><g><path d="M 64 12C 64 10.8954 64.8954 10 66 10L 70 10L 70 40L 66 40C 64.8954 40 64 39.1046 64 38L 64 37L 16 37L 16 38C 16 39.1046 15.1046 40 14 40L 10 40L 10 10L 14 10C 15.1046 10 16 10.8954 16 12L 16 13L 64 13L 64 12Z"></path></g></g></g><g id="g-root-5.cu_sy_1q8uzgg1d5u5mz-fill" data-item-order="-61044" transform="translate(363, 313.875)"><g id="5.cu_sy_1q8uzgg1d5u5mz-fill" stroke="none" fill="#fff2e5"><g><path d="M 70 40L 66 40C 64.8954 40 64 39.1046 64 38L 64 37L 16 37L 16 38C 16 39.1046 15.1046 40 14 40L 10 40L 10 10L 14 10C 15.1046 10 16 10.8954 16 12L 16 13L 64 13L 64 12C 64 10.8954 64.8954 10 66 10L 70 10L 70 40Z"></path></g></g></g><g id="g-root-4.cu_sy_1lt1hc01d5u6f8-fill" data-item-order="-61040" transform="translate(363, 241.875)"><g id="4.cu_sy_1lt1hc01d5u6f8-fill" stroke="none" fill="#fffbda"><g><path d="M 70 40L 66 40C 64.8954 40 64 39.1046 64 38L 64 37L 16 37L 16 38C 16 39.1046 15.1046 40 14 40L 10 40L 10 10L 14 10C 15.1046 10 16 10.8954 16 12L 16 13L 64 13L 64 12C 64 10.8954 64.8954 10 66 10L 70 10L 70 40Z"></path></g></g></g><g id="g-root-3.cu_sy_1cxeh341d5u77x-fill" data-item-order="-61036" transform="translate(363, 169.875)"><g id="3.cu_sy_1cxeh341d5u77x-fill" stroke="none" fill="#f4ffdc"><g><path d="M 70 40L 66 40C 64.8954 40 64 39.1046 64 38L 64 37L 16 37L 16 38C 16 39.1046 15.1046 40 14 40L 10 40L 10 10L 14 10C 15.1046 10 16 10.8954 16 12L 16 13L 64 13L 64 12C 64 10.8954 64.8954 10 66 10L 70 10L 70 40Z"></path></g></g></g><g id="g-root-2.cu_sy_zmkfsw1d5u5n2-fill" data-item-order="-61032" transform="translate(363, 97.875)"><g id="2.cu_sy_zmkfsw1d5u5n2-fill" stroke="none" fill="#e3fff2"><g><path d="M 70 40L 66 40C 64.8954 40 64 39.1046 64 38L 64 37L 16 37L 16 38C 16 39.1046 15.1046 40 14 40L 10 40L 10 10L 14 10C 15.1046 10 16 10.8954 16 12L 16 13L 64 13L 64 12C 64 10.8954 64.8954 10 66 10L 70 10L 70 40Z"></path></g></g></g><g id="g-root-1.cu_sy_v6qxog1d5u6fb-fill" data-item-order="-61028" transform="translate(363, 25.875)"><g id="1.cu_sy_v6qxog1d5u6fb-fill" stroke="none" fill="#e8f9ff"><g><path d="M 70 40L 66 40C 64.8954 40 64 39.1046 64 38L 64 37L 16 37L 16 38C 16 39.1046 15.1046 40 14 40L 10 40L 10 10L 14 10C 15.1046 10 16 10.8954 16 12L 16 13L 64 13L 64 12C 64 10.8954 64.8954 10 66 10L 70 10L 70 40Z"></path></g></g></g><g id="g-root--1.cu_sy_qqxfk01d5u77k-fill" data-item-order="-61025" transform="translate(309, 166.875)"></g><g id="g-root-tx_producti_zntdz41d5u7t9-fill" data-item-order="0" transform="translate(447, 28.875)"><g id="tx_producti_zntdz41d5u7t9-fill" stroke="none" fill="#484848"><g><text style="font: 20px Roboto, sans-serif; white-space: pre;" font-size="20px" font-family="Roboto, sans-serif"><tspan x="12" y="33.47" dominant-baseline="ideographic">Production Capacity</tspan></text></g></g></g><g id="g-root-tx_marketdy_1cz9wcg1d5u68c-fill" data-item-order="0" transform="translate(447, 100.875)"><g id="tx_marketdy_1cz9wcg1d5u68c-fill" stroke="none" fill="#484848"><g><text style="font: 20px Roboto, sans-serif; white-space: pre;" font-size="20px" font-family="Roboto, sans-serif"><tspan x="12" y="33.47" dominant-baseline="ideographic">Market Dynamics</tspan></text></g></g></g><g id="g-root-tx_importan_hx5ukg1d5u70m-fill" data-item-order="0" transform="translate(3, 160.875)"><g id="tx_importan_hx5ukg1d5u70m-fill" stroke="none" fill="#484848"><g><text style="font: 20px Roboto, sans-serif; white-space: pre;" font-size="20px" font-family="Roboto, sans-serif"><tspan x="21.6" y="33.47" dominant-baseline="ideographic">Importance of Supply </tspan><tspan x="140.2" y="57.47" dominant-baseline="ideographic">Regions</tspan></text></g></g></g><g id="g-root-tx_infrastr_1qa3xmo1d5u7t7-fill" data-item-order="0" transform="translate(447, 160.875)"><g id="tx_infrastr_1qa3xmo1d5u7t7-fill" stroke="none" fill="#484848"><g><text style="font: 20px Roboto, sans-serif; white-space: pre;" font-size="20px" font-family="Roboto, sans-serif"><tspan x="12" y="33.47" dominant-baseline="ideographic">Infrastructure </tspan><tspan x="12" y="57.47" dominant-baseline="ideographic">Development</tspan></text></g></g></g><g id="g-root-tx_regulato_4kge0w1d5u6fe-fill" data-item-order="0" transform="translate(447, 244.875)"><g id="tx_regulato_4kge0w1d5u6fe-fill" stroke="none" fill="#484848"><g><text style="font: 20px Roboto, sans-serif; white-space: pre;" font-size="20px" font-family="Roboto, sans-serif"><tspan x="12" y="33.47" dominant-baseline="ideographic">Regulatory Environment</tspan></text></g></g></g><g id="g-root-tx_geopolit_hvafb41d5u809-fill" data-item-order="0" transform="translate(447, 316.875)"><g id="tx_geopolit_hvafb41d5u809-fill" stroke="none" fill="#484848"><g><text style="font: 20px Roboto, sans-serif; white-space: pre;" font-size="20px" font-family="Roboto, sans-serif"><tspan x="12" y="33.47" dominant-baseline="ideographic">Geopolitical Factors</tspan></text></g></g></g><g id="g-root-0.cu_sy_de7z0g1d5u6m9-stroke" data-item-order="-61050" transform="translate(291, 25.875)"><g id="0.cu_sy_de7z0g1d5u6m9-stroke" fill="none" stroke-linecap="round" stroke-linejoin="round" stroke-miterlimit="4" stroke="#969696" stroke-width="2"><g><path d="M 78 10C 76.8954 10 76 10.8954 76 12L 76 13.3714C 52.3221 16.3239 34 36.5223 34 61L 34 148.2108C 30.3565 150.3184 27.3184 153.3565 25.2108 157L 16 157L 16 156C 16 154.8954 15.1046 154 14 154L 10 154L 10 184L 14 184C 15.1046 184 16 183.1046 16 182L 16 181L 25.2108 181C 27.3184 184.6435 30.3565 187.6816 34 189.7892L 34 277C 34 301.4777 52.3221 321.6761 76 324.6287L 76 326C 76 327.1046 76.8954 328 78 328L 82 328L 82 298L 78 298C 76.8954 298 76 298.8954 76 300L 76 300.2439C 65.6486 297.5797 58 288.183 58 277L 58 246.5785C 63.4193 249.7133 69.5084 251.8191 76 252.6286L 76 254C 76 255.1046 76.8954 256 78 256L 82 256L 82 226L 78 226C 76.8954 226 76 226.8954 76 228L 76 228.2439C 65.6525 225.5806 58.0058 216.1901 58 205.0127C 58 205.0084 58 205.0042 58 205L 58 189.7892C 61.6435 187.6816 64.6816 184.6435 66.7892 181L 76 181L 76 182C 76 183.1046 76.8954 184 78 184L 82 184L 82 154L 78 154C 76.8954 154 76 154.8954 76 156L 76 157L 66.7892 157C 64.6816 153.3565 61.6435 150.3185 58 148.2108L 58 132.9873C 58.0058 121.8099 65.6525 112.4194 76 109.7561L 76 110C 76 111.1046 76.8954 112 78 112L 82 112L 82 82L 78 82C 76.8954 82 76 82.8954 76 84L 76 85.3714C 69.5084 86.1809 63.4193 88.2867 58 91.4215L 58 61C 58 49.817 65.6486 40.4204 76 37.7561L 76 38C 76 39.1046 76.8954 40 78 40L 82 40L 82 10L 78 10ZM 22 169C 22.000001 182.254835 32.745167 193.000001 46.000001 193.000001C 59.254835 193.000001 70.000001 182.254835 70.000001 169.000001C 70.000001 155.745167 59.254835 145.000001 46.000001 145.000001C 32.745167 145.000001 22.000001 155.745167 22.000001 169.000001M 76 85L 76 109M 76 13L 76 37M 76 157L 76 181M 16 157L 16 181M 76 229L 76 253M 76 301L 76 325"></path></g></g></g><g id="g-root-0.cu_1_sy_4ikyrk1d5u7ey-stroke" data-item-order="-61048" transform="translate(231, 169.875)"><g id="0.cu_1_sy_4ikyrk1d5u7ey-stroke" fill="none" stroke-linecap="round" stroke-linejoin="round" stroke-miterlimit="4" stroke="#969696" stroke-width="2"><g><path d="M 64 12C 64 10.8954 64.8954 10 66 10L 70 10L 70 40L 66 40C 64.8954 40 64 39.1046 64 38L 64 37L 16 37L 16 38C 16 39.1046 15.1046 40 14 40L 10 40L 10 10L 14 10C 15.1046 10 16 10.8954 16 12L 16 13L 64 13L 64 12ZM 64 13L 64 37M 16 13L 16 37"></path></g></g></g><g id="g-root-5.cu_sy_1q8uzgg1d5u5mz-stroke" data-item-order="-61044" transform="translate(363, 313.875)"><g id="5.cu_sy_1q8uzgg1d5u5mz-stroke" fill="none" stroke-linecap="round" stroke-linejoin="round" stroke-miterlimit="4" stroke="#de8431" stroke-width="2"><g><path d="M 70 40L 66 40C 64.8954 40 64 39.1046 64 38L 64 37L 16 37L 16 38C 16 39.1046 15.1046 40 14 40L 10 40L 10 10L 14 10C 15.1046 10 16 10.8954 16 12L 16 13L 64 13L 64 12C 64 10.8954 64.8954 10 66 10L 70 10L 70 40ZM 16 13L 16 37M 64 13L 64 37"></path></g></g></g><g id="g-root-4.cu_sy_1lt1hc01d5u6f8-stroke" data-item-order="-61040" transform="translate(363, 241.875)"><g id="4.cu_sy_1lt1hc01d5u6f8-stroke" fill="none" stroke-linecap="round" stroke-linejoin="round" stroke-miterlimit="4" stroke="#e0cb15" stroke-width="2"><g><path d="M 70 40L 66 40C 64.8954 40 64 39.1046 64 38L 64 37L 16 37L 16 38C 16 39.1046 15.1046 40 14 40L 10 40L 10 10L 14 10C 15.1046 10 16 10.8954 16 12L 16 13L 64 13L 64 12C 64 10.8954 64.8954 10 66 10L 70 10L 70 40ZM 16 13L 16 37M 64 13L 64 37"></path></g></g></g><g id="g-root-3.cu_sy_1cxeh341d5u77x-stroke" data-item-order="-61036" transform="translate(363, 169.875)"><g id="3.cu_sy_1cxeh341d5u77x-stroke" fill="none" stroke-linecap="round" stroke-linejoin="round" stroke-miterlimit="4" stroke="#92bd39" stroke-width="2"><g><path d="M 70 40L 66 40C 64.8954 40 64 39.1046 64 38L 64 37L 16 37L 16 38C 16 39.1046 15.1046 40 14 40L 10 40L 10 10L 14 10C 15.1046 10 16 10.8954 16 12L 16 13L 64 13L 64 12C 64 10.8954 64.8954 10 66 10L 70 10L 70 40ZM 16 13L 16 37M 64 13L 64 37"></path></g></g></g><g id="g-root-2.cu_sy_zmkfsw1d5u5n2-stroke" data-item-order="-61032" transform="translate(363, 97.875)"><g id="2.cu_sy_zmkfsw1d5u5n2-stroke" fill="none" stroke-linecap="round" stroke-linejoin="round" stroke-miterlimit="4" stroke="#3cc583" stroke-width="2"><g><path d="M 70 40L 66 40C 64.8954 40 64 39.1046 64 38L 64 37L 16 37L 16 38C 16 39.1046 15.1046 40 14 40L 10 40L 10 10L 14 10C 15.1046 10 16 10.8954 16 12L 16 13L 64 13L 64 12C 64 10.8954 64.8954 10 66 10L 70 10L 70 40ZM 16 13L 16 37M 64 13L 64 37"></path></g></g></g><g id="g-root-1.cu_sy_v6qxog1d5u6fb-stroke" data-item-order="-61028" transform="translate(363, 25.875)"><g id="1.cu_sy_v6qxog1d5u6fb-stroke" fill="none" stroke-linecap="round" stroke-linejoin="round" stroke-miterlimit="4" stroke="#1eabda" stroke-width="2"><g><path d="M 70 40L 66 40C 64.8954 40 64 39.1046 64 38L 64 37L 16 37L 16 38C 16 39.1046 15.1046 40 14 40L 10 40L 10 10L 14 10C 15.1046 10 16 10.8954 16 12L 16 13L 64 13L 64 12C 64 10.8954 64.8954 10 66 10L 70 10L 70 40ZM 16 13L 16 37M 64 13L 64 37"></path></g></g></g><g id="g-root--1.cu_sy_qqxfk01d5u77k-stroke" data-item-order="-61025" transform="translate(309, 166.875)"><g id="-1.cu_sy_qqxfk01d5u77k-stroke" fill="none" stroke-linecap="round" stroke-linejoin="round" stroke-miterlimit="4" stroke="#969696" stroke-width="2"><g><path d="M 46 28C 46 37.9411 37.9411 46 28 46C 18.0589 46 10 37.9411 10 28C 10 18.0589 18.0589 10 28 10C 37.9411 10 46 18.0589 46 28ZM 34 28C 34 31.3137 31.3137 34 28 34C 24.6863 34 22 31.3137 22 28C 22 24.6863 24.6863 22 28 22C 31.3137 22 34 24.6863 34 28ZM 28 46L 28 34M 46 28L 34 28M 10 28L 22 28M 28 10L 28 22"></path></g></g></g><g id="g-root-tx_producti_zntdz41d5u7t9-stroke" data-item-order="0" transform="translate(447, 28.875)"></g><g id="g-root-tx_marketdy_1cz9wcg1d5u68c-stroke" data-item-order="0" transform="translate(447, 100.875)"></g><g id="g-root-tx_importan_hx5ukg1d5u70m-stroke" data-item-order="0" transform="translate(3, 160.875)"></g><g id="g-root-tx_infrastr_1qa3xmo1d5u7t7-stroke" data-item-order="0" transform="translate(447, 160.875)"></g><g id="g-root-tx_regulato_4kge0w1d5u6fe-stroke" data-item-order="0" transform="translate(447, 244.875)"></g><g id="g-root-tx_geopolit_hvafb41d5u809-stroke" data-item-order="0" transform="translate(447, 316.875)"></g></g></g></svg>