<?xml version="1.0" encoding="utf-8" standalone="yes"?>
<!DOCTYPE svg PUBLIC "-//W3C//DTD SVG 1.1//EN" "http://www.w3.org/Graphics/SVG/1.1/DTD/svg11.dtd">
<svg width="794" height="390" viewBox="0 0 794 390" style="fill:none;stroke:none;fill-rule:evenodd;clip-rule:evenodd;stroke-linecap:round;stroke-linejoin:round;stroke-miterlimit:1.5;" version="1.1" xmlns="http://www.w3.org/2000/svg" xmlns:xlink="http://www.w3.org/1999/xlink"><style class="text-font-style fontImports" data-font-family="Roboto">@import url('https://fonts.googleapis.com/css2?family=Roboto:wght@400;700&amp;display=block');</style><g id="items" style="isolation: isolate"><g id="blend" style="mix-blend-mode: normal"><g id="g-root--1.cu_sy_1hegr401g760wf-fill" data-item-order="-149754" transform="translate(266, 72.3333740234375)"><g id="-1.cu_sy_1hegr401g760wf-fill" stroke="none" fill="#a3a3a3"><g><path d="M 125 34L 101 10L 10 166L 34 190L 125 34ZM 125 34L 34 190L 216 190L 125 34Z"></path></g></g></g><g id="g-root-0.line-start_sy_1cyn8zk1g761oo-fill" data-item-order="-149749" transform="translate(243, 174.3333740234375)"></g><g id="g-root-0.cr-small_cr_18itqv41g762gx-fill" data-item-order="-149748" transform="translate(171, 138.3333740234375)"><g id="0.cr-small_cr_18itqv41g762gx-fill" stroke="none" fill="#666666"><g><path d="M 10 46C 10 65.882251 26.117749 82 46 82C 65.882251 82 82 65.882251 82 46C 82 26.117749 65.882251 10 46 10C 26.117749 10 10 26.117749 10 46"></path></g></g></g><g id="g-root-4.line_sy_18itqv41g762gy-fill" data-item-order="-149741" transform="translate(335.5, 174.3333740234375)"></g><g id="g-root-4.cr-small_cr_zn6qm81g7639n-fill" data-item-order="-149740" transform="translate(591, 270.3333740234375)"><g id="4.cr-small_cr_zn6qm81g7639n-fill" stroke="none" fill="#de58a9"><g><path d="M 10 40C 10.000002 56.568544 23.431459 70.000002 40.000002 70.000002C 56.568544 70.000002 70.000002 56.568544 70.000002 40.000002C 70.000002 23.431459 56.568544 10.000002 40.000002 10.000002C 23.431459 10.000002 10.000002 23.431459 10.000002 40.000002"></path></g></g></g><g id="g-root-3.line_sy_zn6qm81g7639o-fill" data-item-order="-149733" transform="translate(336, 174.3333740234375)"></g><g id="g-root-3.cr-small_cr_v7zpkw1g760w5-fill" data-item-order="-149732" transform="translate(591, 186.3333740234375)"><g id="3.cr-small_cr_v7zpkw1g760w5-fill" stroke="none" fill="#7f64ea"><g><path d="M 10 40C 10.000002 56.568544 23.431459 70.000002 40.000002 70.000002C 56.568544 70.000002 70.000002 56.568544 70.000002 40.000002C 70.000002 23.431459 56.568544 10.000002 40.000002 10.000002C 23.431459 10.000002 10.000002 23.431459 10.000002 40.000002"></path></g></g></g><g id="g-root-2.line_sy_v7zpkw1g760w6-fill" data-item-order="-149725" transform="translate(335.5, 132.3333740234375)"></g><g id="g-root-2.cr-small_cr_mccpc01g761ov-fill" data-item-order="-149724" transform="translate(591, 102.3333740234375)"><g id="2.cr-small_cr_mccpc01g761ov-fill" stroke="none" fill="#1eabda"><g><path d="M 10 40C 10.000002 56.568544 23.431459 70.000002 40.000002 70.000002C 56.568544 70.000002 70.000002 56.568544 70.000002 40.000002C 70.000002 23.431459 56.568544 10.000002 40.000002 10.000002C 23.431459 10.000002 10.000002 23.431459 10.000002 40.000002"></path></g></g></g><g id="g-root-1.line_sy_hwj77k1g762h4-fill" data-item-order="-149717" transform="translate(335.5, 48.33343505859375)"></g><g id="g-root-1.cr-small_cr_hwj77k1g762h5-fill" data-item-order="-149716" transform="translate(591, 18.3333740234375)"><g id="1.cr-small_cr_hwj77k1g762h5-fill" stroke="none" fill="#3cc583"><g><path d="M 10 40C 10.000002 56.568544 23.431459 70.000002 40.000002 70.000002C 56.568544 70.000002 70.000002 56.568544 70.000002 40.000002C 70.000002 23.431459 56.568544 10.000002 40.000002 10.000002C 23.431459 10.000002 10.000002 23.431459 10.000002 40.000002"></path></g></g></g><g id="g-root-gas_1uqjqkg1g7pq0y-fill" data-item-order="0" transform="translate(603, 30.3333740234375)"></g><g id="g-root-tx_supplier_zkoxfk1g77gne-fill" data-item-order="0" transform="translate(663, 36.3333740234375)"><g id="tx_supplier_zkoxfk1g77gne-fill" stroke="none" fill="#374840"><g><text style="font: 20px Roboto, sans-serif; white-space: pre;" font-size="20px" font-family="Roboto, sans-serif"><tspan x="12" y="33.47" dominant-baseline="ideographic">Suppliers</tspan></text></g></g></g><g id="g-root-1_1cuwegw1g7mya2-fill" data-item-order="0" transform="translate(603, 114.3333740234375)"></g><g id="g-root-tx_ldcs_1umsz7k1g77fv3-fill" data-item-order="0" transform="translate(663, 120.3333740234375)"><g id="tx_ldcs_1umsz7k1g77fv3-fill" stroke="none" fill="#32444a"><g><text style="font: 20px Roboto, sans-serif; white-space: pre;" font-size="20px" font-family="Roboto, sans-serif"><tspan x="12" y="33.47" dominant-baseline="ideographic">LDCs</tspan></text></g></g></g><g id="g-root-tx_counterp_4pg3ls1g761op-fill" data-item-order="0" transform="translate(15, 162.3333740234375)"><g id="tx_counterp_4pg3ls1g761op-fill" stroke="none" fill="#484848"><g><text style="font: 20px Roboto, sans-serif; white-space: pre;" font-size="20px" font-family="Roboto, sans-serif"><tspan x="19.87" y="33.47" dominant-baseline="ideographic">Counterparties</tspan></text></g></g></g><g id="g-root-card_dgpp341g7639e-fill" data-item-order="0" transform="translate(183, 150.3333740234375)"></g><g id="g-root-1_8vwe9s1g7mxov-fill" data-item-order="0" transform="translate(603, 198.3333740234375)"></g><g id="g-root-tx_pipeline_m7zgw01g77g25-fill" data-item-order="0" transform="translate(663, 192.3333740234375)"><g id="tx_pipeline_m7zgw01g77g25-fill" stroke="none" fill="#443e5c"><g><text style="font: 20px Roboto, sans-serif; white-space: pre;" font-size="20px" font-family="Roboto, sans-serif"><tspan x="12" y="33.47" dominant-baseline="ideographic">Pipeline </tspan><tspan x="12" y="57.47" dominant-baseline="ideographic">Operators</tspan></text></g></g></g><g id="g-root-2_3drgg1g7egi5-fill" data-item-order="0" transform="translate(603, 282.3333740234375)"></g><g id="g-root-tx_storagef_1cua0jk1g77g23-fill" data-item-order="0" transform="translate(663, 276.3333740234375)"><g id="tx_storagef_1cua0jk1g77g23-fill" stroke="none" fill="#573e4d"><g><text style="font: 20px Roboto, sans-serif; white-space: pre;" font-size="20px" font-family="Roboto, sans-serif"><tspan x="12" y="33.47" dominant-baseline="ideographic">Storage </tspan><tspan x="12" y="57.47" dominant-baseline="ideographic">Facilities</tspan></text></g></g></g><g id="g-root--1.cu_sy_1hegr401g760wf-stroke" data-item-order="-149754" transform="translate(266, 72.3333740234375)"><g id="-1.cu_sy_1hegr401g760wf-stroke" fill="none" stroke-linecap="round" stroke-linejoin="round" stroke-miterlimit="4" stroke="#ffffff" stroke-width="2"><g><path d="M 125 34L 101 10L 10 166L 34 190L 125 34ZM 125 34L 34 190L 216 190L 125 34Z"></path></g></g></g><g id="g-root-0.line-start_sy_1cyn8zk1g761oo-stroke" data-item-order="-149749" transform="translate(243, 174.3333740234375)"><g id="0.line-start_sy_1cyn8zk1g761oo-stroke" fill="none" stroke-linecap="round" stroke-linejoin="round" stroke-miterlimit="4" stroke="#484848" stroke-width="2"><g><path d="M 10 10L 102.5 10"></path></g></g></g><g id="g-root-0.cr-small_cr_18itqv41g762gx-stroke" data-item-order="-149748" transform="translate(171, 138.3333740234375)"><g id="0.cr-small_cr_18itqv41g762gx-stroke" fill="none" stroke-linecap="round" stroke-linejoin="round" stroke-miterlimit="4" stroke="#ffffff" stroke-width="2"><g><path d="M 10 46C 10 65.882251 26.117749 82 46 82C 65.882251 82 82 65.882251 82 46C 82 26.117749 65.882251 10 46 10C 26.117749 10 10 26.117749 10 46"></path></g></g></g><g id="g-root-4.line_sy_18itqv41g762gy-stroke" data-item-order="-149741" transform="translate(335.5, 174.3333740234375)"><g id="4.line_sy_18itqv41g762gy-stroke" fill="none" stroke-linecap="round" stroke-linejoin="round" stroke-miterlimit="4" stroke="#de58a9" stroke-width="2"><g><path d="M 257.88 134.82L 111.5 28L 10 10"></path><path d="M 249.2 136.5L 258.3 135.1L 256.9 126" stroke-dasharray="none"></path></g></g></g><g id="g-root-4.cr-small_cr_zn6qm81g7639n-stroke" data-item-order="-149740" transform="translate(591, 270.3333740234375)"><g id="4.cr-small_cr_zn6qm81g7639n-stroke" fill="none" stroke-linecap="round" stroke-linejoin="round" stroke-miterlimit="4" stroke="#ffffff" stroke-width="2"><g><path d="M 10 40C 10.000002 56.568544 23.431459 70.000002 40.000002 70.000002C 56.568544 70.000002 70.000002 56.568544 70.000002 40.000002C 70.000002 23.431459 56.568544 10.000002 40.000002 10.000002C 23.431459 10.000002 10.000002 23.431459 10.000002 40.000002"></path></g></g></g><g id="g-root-3.line_sy_zn6qm81g7639o-stroke" data-item-order="-149733" transform="translate(336, 174.3333740234375)"><g id="3.line_sy_zn6qm81g7639o-stroke" fill="none" stroke-linecap="round" stroke-linejoin="round" stroke-miterlimit="4" stroke="#7f64ea" stroke-width="2"><g><path d="M 257.05 51.55L 104 16L 10 10"></path><path d="M 249.7 56.5L 257.5 51.7L 252.7 43.9" stroke-dasharray="none"></path></g></g></g><g id="g-root-3.cr-small_cr_v7zpkw1g760w5-stroke" data-item-order="-149732" transform="translate(591, 186.3333740234375)"><g id="3.cr-small_cr_v7zpkw1g760w5-stroke" fill="none" stroke-linecap="round" stroke-linejoin="round" stroke-miterlimit="4" stroke="#ffffff" stroke-width="2"><g><path d="M 10 40C 10.000002 56.568544 23.431459 70.000002 40.000002 70.000002C 56.568544 70.000002 70.000002 56.568544 70.000002 40.000002C 70.000002 23.431459 56.568544 10.000002 40.000002 10.000002C 23.431459 10.000002 10.000002 23.431459 10.000002 40.000002"></path></g></g></g><g id="g-root-2.line_sy_v7zpkw1g760w6-stroke" data-item-order="-149725" transform="translate(335.5, 132.3333740234375)"><g id="2.line_sy_v7zpkw1g760w6-stroke" fill="none" stroke-linecap="round" stroke-linejoin="round" stroke-miterlimit="4" stroke="#1eabda" stroke-width="2"><g><path d="M 257.55 10.429993L 97.5 45.999993L 10 51.999993"></path><path d="M 253.1 18.129993L 258 10.329993L 250.3 5.429993" stroke-dasharray="none"></path></g></g></g><g id="g-root-2.cr-small_cr_mccpc01g761ov-stroke" data-item-order="-149724" transform="translate(591, 102.3333740234375)"><g id="2.cr-small_cr_mccpc01g761ov-stroke" fill="none" stroke-linecap="round" stroke-linejoin="round" stroke-miterlimit="4" stroke="#ffffff" stroke-width="2"><g><path d="M 10 40C 10.000002 56.568544 23.431459 70.000002 40.000002 70.000002C 56.568544 70.000002 70.000002 56.568544 70.000002 40.000002C 70.000002 23.431459 56.568544 10.000002 40.000002 10.000002C 23.431459 10.000002 10.000002 23.431459 10.000002 40.000002"></path></g></g></g><g id="g-root-1.line_sy_hwj77k1g762h4-stroke" data-item-order="-149717" transform="translate(335.5, 48.33343505859375)"><g id="1.line_sy_hwj77k1g762h4-stroke" fill="none" stroke-linecap="round" stroke-linejoin="round" stroke-miterlimit="4" stroke="#3cc583" stroke-width="2"><g><path d="M 10 135.999956L 90.5 117.999956L 257.81 11.079956"></path><path d="M 256.3 19.779956L 258.2 10.779956L 249.3 8.879956" stroke-dasharray="none"></path></g></g></g><g id="g-root-1.cr-small_cr_hwj77k1g762h5-stroke" data-item-order="-149716" transform="translate(591, 18.3333740234375)"><g id="1.cr-small_cr_hwj77k1g762h5-stroke" fill="none" stroke-linecap="round" stroke-linejoin="round" stroke-miterlimit="4" stroke="#ffffff" stroke-width="2"><g><path d="M 10 40C 10.000002 56.568544 23.431459 70.000002 40.000002 70.000002C 56.568544 70.000002 70.000002 56.568544 70.000002 40.000002C 70.000002 23.431459 56.568544 10.000002 40.000002 10.000002C 23.431459 10.000002 10.000002 23.431459 10.000002 40.000002"></path></g></g></g><g id="g-root-gas_1uqjqkg1g7pq0y-stroke" data-item-order="0" transform="translate(603, 30.3333740234375)"><g id="gas_1uqjqkg1g7pq0y-stroke" fill="none" stroke-linecap="round" stroke-linejoin="round" stroke-miterlimit="4" stroke="#ffffff" stroke-width="2"><g><path d="M 41.5 24.633999C 41.506439 18.079128 36.803352 12.466833 30.348417 11.326571C 23.893482 10.186309 17.552216 13.847624 15.312511 20.00799C 13.072807 26.168356 15.581954 33.047386 21.261999 36.319C 23.794001 37.779999 24.4765 39.392498 27.3475 44.483501C 27.480461 44.719231 27.73011 44.865036 28.00075 44.865036C 28.271391 44.865036 28.52104 44.719231 28.653999 44.483501C 31.555 39.337002 32.211998 37.777 34.737999 36.319C 38.921425 33.915504 41.50053 29.458712 41.499996 24.633999ZM 23.5 18.634001L 29.5 18.634001C 29.5 18.634001 31 18.634001 31 20.134001L 31 30.634001C 31 30.634001 31 32.134003 29.5 32.134003L 23.5 32.134003C 23.5 32.134003 22 32.134003 22 30.634001L 22 20.134001C 22 20.134001 22 18.634001 23.5 18.634001M 22 24.633999L 31 24.633999M 25 21.634001L 28 21.634001M 31 30.633999L 32.5 30.633999C 33.328426 30.633999 34 29.962427 34 29.133999L 34 22.438C 33.999424 21.93605 34.249954 21.467081 34.6675 21.188499L 36.25 20.1385"></path></g></g></g><g id="g-root-tx_supplier_zkoxfk1g77gne-stroke" data-item-order="0" transform="translate(663, 36.3333740234375)"></g><g id="g-root-1_1cuwegw1g7mya2-stroke" data-item-order="0" transform="translate(603, 114.3333740234375)"><g id="1_1cuwegw1g7mya2-stroke" fill="none" stroke-linecap="round" stroke-linejoin="round" stroke-miterlimit="4" stroke="#ffffff" stroke-width="2"><g><path d="M 45.25 42.25L 45.25 43.75C 45.25 44.578426 44.578426 45.25 43.75 45.25L 34.75 45.25C 33.921574 45.25 33.25 44.578426 33.25 43.75L 33.25 31.75C 33.25 30.921572 33.921574 30.25 34.75 30.25L 43.75 30.25C 44.578426 30.25 45.25 30.921572 45.25 31.75L 45.25 42.25M 44.755001 24.219999C 41.797085 21.263557 37.002918 21.263557 34.045002 24.220001M 41.755001 26.724998C 40.449333 25.422388 38.335667 25.422388 37.029999 26.724998M 33.25 19L 33.25 17.5C 33.245625 16.919575 32.906773 16.393768 32.380001 16.15L 22.555 10.885C 22.379456 10.807484 22.191536 10.761773 22 10.75C 21.812817 10.758671 21.629242 10.804565 21.459999 10.885L 11.62 16.225C 11.093227 16.468769 10.754375 16.994576 10.75 17.575001L 10.75 28.674999C 10.754375 29.255424 11.093227 29.781231 11.62 30.025002L 21.459999 35.349998C 21.628977 35.433479 21.812174 35.484371 22 35.5L 22 35.5C 22.192463 35.48349 22.380423 35.43269 22.555 35.349998L 30.325001 31.135M 16.18 28.75L 18.955 30.25M 10.825 17.125C 10.953115 17.522614 11.241238 17.848791 11.62 18.025L 21.459999 23.349998C 21.628977 23.433481 21.812174 23.484369 22 23.5L 22 23.5C 22.192463 23.48349 22.380423 23.43269 22.555 23.35L 32.380001 18.025C 32.758762 17.848791 33.046883 17.522614 33.174999 17.125M 15.61 20.184999L 27.655001 13.66M 22 23.5L 22 35.5"></path></g></g></g><g id="g-root-tx_ldcs_1umsz7k1g77fv3-stroke" data-item-order="0" transform="translate(663, 120.3333740234375)"></g><g id="g-root-tx_counterp_4pg3ls1g761op-stroke" data-item-order="0" transform="translate(15, 162.3333740234375)"></g><g id="g-root-card_dgpp341g7639e-stroke" data-item-order="0" transform="translate(183, 150.3333740234375)"><g id="card_dgpp341g7639e-stroke" fill="none" stroke-linecap="round" stroke-linejoin="round" stroke-miterlimit="4" stroke="#ffffff" stroke-width="2"><g><path d="M 39 41L 55 41C 55 41 57 41 57 43L 57 55C 57 55 57 57 55 57L 39 57C 39 57 37 57 37 55L 37 43C 37 43 37 41 39 41M 10 10M 37 47L 57 47M 10 10M 53 53L 49 53M 31 41L 11 41C 10.994063 35.150826 15.206163 30.149508 20.971134 29.160578C 26.736103 28.171646 32.374214 31.48325 34.318001 37M 15.5 18.5C 15.5 22.642136 18.857864 26 23 26C 27.142136 26 30.5 22.642136 30.5 18.5C 30.5 14.357864 27.142136 11 23 11C 18.857864 11 15.5 14.357864 15.5 18.5M 34.5 18.5C 34.5 22.642136 37.857864 26 42 26C 46.142136 26 49.5 22.642136 49.5 18.5C 49.5 14.357864 46.142136 11 42 11C 37.857864 11 34.5 14.357864 34.5 18.5M 53.32 37C 52.131599 33.642467 49.513142 30.986324 46.172935 29.750069C 42.832726 28.513813 39.115944 28.825201 36.028 30.6"></path></g></g></g><g id="g-root-1_8vwe9s1g7mxov-stroke" data-item-order="0" transform="translate(603, 198.3333740234375)"><g id="1_8vwe9s1g7mxov-stroke" fill="none" stroke-linecap="round" stroke-linejoin="round" stroke-miterlimit="4" stroke="#ffffff" stroke-width="2"><g><path d="M 14.5 38.5C 14.5 40.156857 15.843145 41.5 17.5 41.5C 19.156855 41.5 20.5 40.156857 20.5 38.5C 20.5 36.843143 19.156855 35.5 17.5 35.5C 15.843145 35.5 14.5 36.843143 14.5 38.5ZM 35.5 38.5C 35.5 40.156857 36.843143 41.5 38.5 41.5C 40.156857 41.5 41.5 40.156857 41.5 38.5C 41.5 36.843143 40.156857 35.5 38.5 35.5C 36.843143 35.5 35.5 36.843143 35.5 38.5ZM 20.5 38.5L 35.5 38.5M 10.7515 35.5L 45.25 35.5M 18.25 35.5C 14.107864 35.5 10.75 32.142136 10.75 28C 10.75 23.857864 14.107864 20.5 18.25 20.5L 37.75 20.5C 41.892136 20.5 45.25 23.857864 45.25 28C 45.25 32.142136 41.892136 35.5 37.75 35.5M 31.75 14.5L 31.75 20.5M 36.25 20.5L 36.25 14.5M 28.75 14.5L 39.272499 14.5M 25.75 35.5L 25.75 20.5M 18.25 20.5L 18.25 35.5M 18.25 25L 25.75 25M 18.25 31L 25.75 31"></path></g></g></g><g id="g-root-tx_pipeline_m7zgw01g77g25-stroke" data-item-order="0" transform="translate(663, 192.3333740234375)"></g><g id="g-root-2_3drgg1g7egi5-stroke" data-item-order="0" transform="translate(603, 282.3333740234375)"><g id="2_3drgg1g7egi5-stroke" fill="none" stroke-linecap="round" stroke-linejoin="round" stroke-miterlimit="4" stroke="#ffffff" stroke-width="2"><g><path d="M 11.125 17.875L 27.625 17.875L 27.625 44.875L 11.125 44.875ZM 17.125 11.125L 21.625 11.125C 24.938709 11.125 27.625 13.811292 27.625 17.125L 27.625 17.875L 27.625 17.875L 11.125 17.875L 11.125 17.875L 11.125 17.125C 11.125 13.811292 13.811292 11.125 17.125 11.125ZM 39.625 44.875L 39.625 38.875C 39.625 37.632362 38.617641 36.625 37.375 36.625L 27.625 36.625L 27.625 31.375L 37.375 31.375C 41.517136 31.375 44.875 34.732864 44.875 38.875L 44.875 44.875ZM 33.625 29.875L 33.625 38.125M 17.875 17.875L 17.875 44.125M 23.125 17.875L 23.125 44.125M 17.875 24.625L 23.125 24.625M 17.875 31.375L 23.125 31.375M 17.875 38.125L 23.125 38.125M 27.625 44.875L 40.375 44.875"></path></g></g></g><g id="g-root-tx_storagef_1cua0jk1g77g23-stroke" data-item-order="0" transform="translate(663, 276.3333740234375)"></g></g></g></svg>