<?xml version="1.0" encoding="utf-8" standalone="yes"?>
<!DOCTYPE svg PUBLIC "-//W3C//DTD SVG 1.1//EN" "http://www.w3.org/Graphics/SVG/1.1/DTD/svg11.dtd">
<svg width="1166" height="617" viewBox="0 0 1166 617" style="fill:none;stroke:none;fill-rule:evenodd;clip-rule:evenodd;stroke-linecap:round;stroke-linejoin:round;stroke-miterlimit:1.5;" version="1.1" xmlns="http://www.w3.org/2000/svg" xmlns:xlink="http://www.w3.org/1999/xlink"><style class="text-font-style fontImports" data-font-family="Roboto">@import url('https://fonts.googleapis.com/css2?family=Roboto:wght@400;700&amp;display=block');</style><g id="items" style="isolation: isolate"><g id="blend" style="mix-blend-mode: normal"><g id="g-root-6.g-6_fr_zrjvuy1fxc1l6-fill" data-item-order="-583190" transform="translate(876, 75)"><g id="6.g-6_fr_zrjvuy1fxc1l6-fill" stroke="none" fill="#de58a9"><g><path d="M 136.5037 52C 138.1093 48.3252 139 44.2666 139 40C 139 35.7334 138.1093 31.6748 136.5037 28L 157 28L 157 27C 157 25.8954 157.895 25 159 25L 163 25L 163 55L 159 55C 157.895 55 157 54.1046 157 53L 157 52L 136.5037 52ZM 81.4963 52L 61 52L 61 53C 61 54.1046 60.1046 55 59 55L 55 55L 55 25L 59 25C 60.1046 25 61 25.8954 61 27L 61 28L 81.4963 28C 79.8907 31.6748 79 35.7334 79 40C 79 44.2666 79.8907 48.3252 81.4963 52Z"></path></g></g><g id="6.g-6_fr_zrjvuy1fxc1l6-fill" stroke="none" fill="#de58a9"><g><path d="M 10 130L 10 126C 10 124.8954 10.8954 124 12 124L 13 124L 13 76L 12 76C 10.8954 76 10.000002 75.1046 10.000002 74L 10.000003 70L 40 70.000001L 40 74C 40 75.1046 39.1046 76 38 76L 37 76L 37 124L 38 124C 39.1046 124 40 124.8954 40 126L 40 130L 10 130Z"></path></g></g><g id="6.g-6_fr_zrjvuy1fxc1l6-fill" stroke="none" fill="#de58a9"><g><path d="M 13 52C 13 38.7452 23.7452 28 37 28L 49 28L 49 27C 49 25.8954 49.8954 25 51 25L 55 25L 55 55L 51 55C 49.8954 55 49 54.1046 49 53L 49 52L 41 52C 38.7909 52 37 53.7909 37 56L 37 64L 38 64C 39.1046 64 40 64.8954 40 66L 40 70L 10 70L 10 66C 10 64.8954 10.8954 64 12 64L 13 64L 13 52Z"></path></g></g><g id="6.g-6_fr_zrjvuy1fxc1l6-fill" stroke="none" fill="#de58a9"><g><path d="M 139 40C 139 56.5685 125.5685 70 109 70C 92.4315 70 79 56.5685 79 40C 79 23.4315 92.4315 10 109 10C 125.5685 10 139 23.4315 139 40Z"></path></g></g></g><g id="g-root-5.g-5_fr_vbqdqi1fxc2dj-fill" data-item-order="-583186" transform="translate(708, 195)"><g id="5.g-5_fr_vbqdqi1fxc2dj-fill" stroke="none" fill="#7f64ea"><g><path d="M 136.5037 112C 138.1093 108.3252 139 104.2666 139 100C 139 95.7334 138.1093 91.6748 136.5037 88L 157 88L 157 87C 157 85.8954 157.895 85 159 85L 163 85L 163 115L 159 115C 157.895 115 157 114.1046 157 113L 157 112L 136.5037 112ZM 81.4963 112L 61 112L 61 113C 61 114.1046 60.1046 115 59 115L 55 115L 55 85L 59 85C 60.1046 85 61 85.8954 61 87L 61 88L 81.4963 88C 79.8907 91.6748 79 95.7334 79 100C 79 104.2666 79.8907 108.3252 81.4963 112Z"></path></g></g><g id="5.g-5_fr_vbqdqi1fxc2dj-fill" stroke="none" fill="#7f64ea"><g><path d="M 10 70L 10 66C 10 64.8954 10.8954 64 12 64L 13 64L 13 46L 12 46C 10.8954 46 10.000001 45.1046 10.000001 44L 10.000001 40L 40 40.000001L 40 44C 40 45.1046 39.1046 46 38 46L 37 46L 37 64L 38 64C 39.1046 64 40 64.8954 40 66L 40 70L 10 70Z"></path></g></g><g id="5.g-5_fr_vbqdqi1fxc2dj-fill" stroke="none" fill="#7f64ea"><g><path d="M 178 70L 178 66C 178 64.8954 178.8954 64 180 64L 181 64L 181 16L 180 16C 178.8954 16 178.000002 15.1046 178.000002 14L 178.000003 10L 208 10.000001L 208 14C 208 15.1046 207.1046 16 206 16L 205 16L 205 64L 206 64C 207.1046 64 208 64.8954 208 66L 208 70L 178 70Z"></path></g></g><g id="5.g-5_fr_vbqdqi1fxc2dj-fill" stroke="none" fill="#7f64ea"><g><path d="M 13 88C 13 101.2548 23.7452 112 37 112L 49 112L 49 113C 49 114.1046 49.8954 115 51 115L 55 115L 55 85L 51 85C 49.8954 85 49 85.8954 49 87L 49 88L 41 88C 38.7909 88 37 86.2091 37 84L 37 76L 38 76C 39.1046 76 40 75.1046 40 74L 40 70L 10 70.000005L 10.000001 74C 10.000001 75.1046 10.8954 76 12 76L 13 76L 13 88Z"></path></g></g><g id="5.g-5_fr_vbqdqi1fxc2dj-fill" stroke="none" fill="#7f64ea"><g><path d="M 205 88C 205 101.2548 194.2548 112 181 112L 169 112L 169 113C 169 114.1046 168.1046 115 167 115L 163 115L 163.000007 85L 167 85C 168.1046 85 169 85.8954 169 87L 169 88L 177 88C 179.2091 88 181 86.2091 181 84L 181 76L 180 76C 178.8954 76 178 75.1046 178 74L 178 70L 208 70.000005L 208 74C 208 75.1046 207.1046 76 206 76L 205 76L 205 88Z"></path></g></g><g id="5.g-5_fr_vbqdqi1fxc2dj-fill" stroke="none" fill="#7f64ea"><g><path d="M 139 100C 139 116.5685 125.5685 130 109 130C 92.4315 130 79 116.5685 79 100C 79 83.4315 92.4315 70 109 70C 125.5685 70 139 83.4315 139 100Z"></path></g></g></g><g id="g-root-4.g-4_fr_i09vd61fxc3ym-fill" data-item-order="-583182" transform="translate(540, 135)"><g id="4.g-4_fr_i09vd61fxc3ym-fill" stroke="none" fill="#1eabda"><g><path d="M 136.5037 52C 138.1093 48.3252 139 44.2666 139 40C 139 35.7334 138.1093 31.6748 136.5037 28L 157 28L 157 27C 157 25.8954 157.895 25 159 25L 163 25L 163 55L 159 55C 157.895 55 157 54.1046 157 53L 157 52L 136.5037 52ZM 81.4963 52L 61 52L 61 53C 61 54.1046 60.1046 55 59 55L 55 55L 55 25L 59 25C 60.1046 25 61 25.8954 61 27L 61 28L 81.4963 28C 79.8907 31.6748 79 35.7334 79 40C 79 44.2666 79.8907 48.3252 81.4963 52Z"></path></g></g><g id="4.g-4_fr_i09vd61fxc3ym-fill" stroke="none" fill="#1eabda"><g><path d="M 178 100L 178 96C 178 94.8954 178.8954 94 180 94L 181 94L 181 76L 180 76C 178.8954 76 178.000001 75.1046 178.000001 74L 178.000001 70L 208 70.000001L 208 74C 208 75.1046 207.1046 76 206 76L 205 76L 205 94L 206 94C 207.1046 94 208 94.8954 208 96L 208 100L 178 100Z"></path></g></g><g id="4.g-4_fr_i09vd61fxc3ym-fill" stroke="none" fill="#1eabda"><g><path d="M 13 52C 13 38.7452 23.7452 28 37 28L 49 28L 49 27C 49 25.8954 49.8954 25 51 25L 55 25L 55 55L 51 55C 49.8954 55 49 54.1046 49 53L 49 52L 41 52C 38.7909 52 37 53.7909 37 56L 37 64L 38 64C 39.1046 64 40 64.8954 40 66L 40 70L 10 70L 10 66C 10 64.8954 10.8954 64 12 64L 13 64L 13 52Z"></path></g></g><g id="4.g-4_fr_i09vd61fxc3ym-fill" stroke="none" fill="#1eabda"><g><path d="M 205 52C 205 38.7452 194.2548 28 181 28L 169 28L 169 27C 169 25.8954 168.1046 25 167 25L 163 25L 163.000001 55L 167 55C 168.1046 55 169 54.1046 169 53L 169 52L 177 52C 179.2091 52 181 53.7909 181 56L 181 64L 180 64C 178.8954 64 178 64.8954 178 66L 178 70L 208 70L 208 66C 208 64.8954 207.1046 64 206 64L 205 64L 205 52Z"></path></g></g><g id="4.g-4_fr_i09vd61fxc3ym-fill" stroke="none" fill="#1eabda"><g><path d="M 139 40C 139 56.5685 125.5685 70 109 70C 92.4315 70 79 56.5685 79 40C 79 23.4315 92.4315 10 109 10C 125.5685 10 139 23.4315 139 40Z"></path></g></g></g><g id="g-root-3.g-3_fr_dl2ubu1fxc1l8-fill" data-item-order="-583178" transform="translate(372, 165)"><g id="3.g-3_fr_dl2ubu1fxc1l8-fill" stroke="none" fill="#92bd39"><g><path d="M 136.5037 82C 138.1093 78.3252 139 74.2666 139 70C 139 65.7334 138.1093 61.6748 136.5037 58L 157 58L 157 57C 157 55.8954 157.895 55 159 55L 163 55L 163 85L 159 85C 157.895 85 157 84.1046 157 83L 157 82L 136.5037 82ZM 81.4963 82L 61 82L 61 83C 61 84.1046 60.1046 85 59 85L 55 85L 55 55L 59 55C 60.1046 55 61 55.8954 61 57L 61 58L 81.4963 58C 79.8907 61.6748 79 65.7334 79 70C 79 74.2666 79.8907 78.3252 81.4963 82Z"></path></g></g><g id="3.g-3_fr_dl2ubu1fxc1l8-fill" stroke="none" fill="#92bd39"><g><path d="M 10 40L 10 36C 10 34.8954 10.8954 34 12 34L 13 34L 13 16L 12 16C 10.8954 16 10.000001 15.1046 10.000001 14L 10.000001 10L 40 10.000001L 40 14C 40 15.1046 39.1046 16 38 16L 37 16L 37 34L 38 34C 39.1046 34 40 34.8954 40 36L 40 40L 10 40Z"></path></g></g><g id="3.g-3_fr_dl2ubu1fxc1l8-fill" stroke="none" fill="#92bd39"><g><path d="M 205 58C 205 71.2548 194.2548 82 181 82L 169 82L 169 83C 169 84.1046 168.1046 85 167 85L 163 85L 163.000007 55L 167 55C 168.1046 55 169 55.8954 169 57L 169 58L 177 58C 179.2091 58 181 56.2091 181 54L 181 46L 180 46C 178.8954 46 178 45.1046 178 44L 178 40L 208 40.000005L 208 44C 208 45.1046 207.1046 46 206 46L 205 46L 205 58Z"></path></g></g><g id="3.g-3_fr_dl2ubu1fxc1l8-fill" stroke="none" fill="#92bd39"><g><path d="M 13 58C 13 71.2548 23.7452 82 37 82L 49 82L 49 83C 49 84.1046 49.8954 85 51 85L 55 85L 55 55L 51 55C 49.8954 55 49 55.8954 49 57L 49 58L 41 58C 38.7909 58 37 56.2091 37 54L 37 46L 38 46C 39.1046 46 40 45.1046 40 44L 40 40L 10 40.000005L 10.000001 44C 10.000001 45.1046 10.8954 46 12 46L 13 46L 13 58Z"></path></g></g><g id="3.g-3_fr_dl2ubu1fxc1l8-fill" stroke="none" fill="#92bd39"><g><path d="M 139 70C 139 86.5685 125.5685 100 109 100C 92.4315 100 79 86.5685 79 70C 79 53.4315 92.4315 40 109 40C 125.5685 40 139 53.4315 139 70Z"></path></g></g></g><g id="g-root-2.g-2_fr_4pfu2y1fxc35u-fill" data-item-order="-583174" transform="translate(204, 75)"><g id="2.g-2_fr_4pfu2y1fxc35u-fill" stroke="none" fill="#3cc583"><g><path d="M 136.5037 52C 138.1093 48.3252 139 44.2666 139 40C 139 35.7334 138.1093 31.6748 136.5037 28L 157 28L 157 27C 157 25.8954 157.895 25 159 25L 163 25L 163 55L 159 55C 157.895 55 157 54.1046 157 53L 157 52L 136.5037 52ZM 81.4963 52L 61 52L 61 53C 61 54.1046 60.1046 55 59 55L 55 55L 55 25L 59 25C 60.1046 25 61 25.8954 61 27L 61 28L 81.4963 28C 79.8907 31.6748 79 35.7334 79 40C 79 44.2666 79.8907 48.3252 81.4963 52Z"></path></g></g><g id="2.g-2_fr_4pfu2y1fxc35u-fill" stroke="none" fill="#3cc583"><g><path d="M 178 100L 178 96C 178 94.8954 178.8954 94 180 94L 181 94L 181 76L 180 76C 178.8954 76 178.000001 75.1046 178.000001 74L 178.000001 70L 208 70.000001L 208 74C 208 75.1046 207.1046 76 206 76L 205 76L 205 94L 206 94C 207.1046 94 208 94.8954 208 96L 208 100L 178 100Z"></path></g></g><g id="2.g-2_fr_4pfu2y1fxc35u-fill" stroke="none" fill="#3cc583"><g><path d="M 10 130L 10 126C 10 124.8954 10.8954 124 12 124L 13 124L 13 76L 12 76C 10.8954 76 10.000002 75.1046 10.000002 74L 10.000003 70L 40 70.000001L 40 74C 40 75.1046 39.1046 76 38 76L 37 76L 37 124L 38 124C 39.1046 124 40 124.8954 40 126L 40 130L 10 130Z"></path></g></g><g id="2.g-2_fr_4pfu2y1fxc35u-fill" stroke="none" fill="#3cc583"><g><path d="M 205 52C 205 38.7452 194.2548 28 181 28L 169 28L 169 27C 169 25.8954 168.1046 25 167 25L 163 25L 163.000001 55L 167 55C 168.1046 55 169 54.1046 169 53L 169 52L 177 52C 179.2091 52 181 53.7909 181 56L 181 64L 180 64C 178.8954 64 178 64.8954 178 66L 178 70L 208 70L 208 66C 208 64.8954 207.1046 64 206 64L 205 64L 205 52Z"></path></g></g><g id="2.g-2_fr_4pfu2y1fxc35u-fill" stroke="none" fill="#3cc583"><g><path d="M 13 52C 13 38.7452 23.7452 28 37 28L 49 28L 49 27C 49 25.8954 49.8954 25 51 25L 55 25L 55 55L 51 55C 49.8954 55 49 54.1046 49 53L 49 52L 41 52C 38.7909 52 37 53.7909 37 56L 37 64L 38 64C 39.1046 64 40 64.8954 40 66L 40 70L 10 70L 10 66C 10 64.8954 10.8954 64 12 64L 13 64L 13 52Z"></path></g></g><g id="2.g-2_fr_4pfu2y1fxc35u-fill" stroke="none" fill="#3cc583"><g><path d="M 139 40C 139 56.5685 125.5685 70 109 70C 92.4315 70 79 56.5685 79 40C 79 23.4315 92.4315 10 109 10C 125.5685 10 139 23.4315 139 40Z"></path></g></g></g><g id="g-root-1.g-1_fr_9mbyi1fxc3y9-fill" data-item-order="-583170" transform="translate(81, 195)"><g id="1.g-1_fr_9mbyi1fxc3y9-fill" stroke="none" fill="#4e88e7"><g><path d="M 133 69.999999L 133 65.999999C 133 64.895399 133.8954 63.999999 135 63.999999L 136 63.999999L 136 15.999999L 135 15.999999C 133.8954 15.999999 133.000002 15.104599 133.000002 13.999999L 133.000003 9.999999L 163 10L 163 13.999999C 163 15.104599 162.1046 15.999999 161 15.999999L 160 15.999999L 160 63.999999L 161 63.999999C 162.1046 63.999999 163 64.895399 163 65.999999L 163 69.999999L 133 69.999999Z"></path></g></g><g id="1.g-1_fr_9mbyi1fxc3y9-fill" stroke="none" fill="#4e88e7"><g><path d="M 91.5037 112C 93.1093 108.3252 94 104.2666 94 100C 94 95.7334 93.1093 91.6748 91.5037 88L 112 88L 112 87C 112 85.8954 112.895 85 114 85L 118 85L 118 115L 114 115C 112.895 115 112 114.1046 112 113L 112 112L 91.5037 112ZM 36.4963 112L 16 112L 16 113C 16 114.1046 15.1046 115 14 115L 10 115L 10 85L 14 85C 15.1046 85 16 85.8954 16 87L 16 88L 36.4963 88C 34.8907 91.6748 34 95.7334 34 100C 34 104.2666 34.8907 108.3252 36.4963 112Z"></path></g></g><g id="1.g-1_fr_9mbyi1fxc3y9-fill" stroke="none" fill="#4e88e7"><g><path d="M 160 88.000004C 160 101.254804 149.2548 112.000004 136 112.000004L 124 112.000004L 124 113.000004C 124 114.104604 123.1046 115.000004 122 115.000004L 118 115.000004L 118.000007 85.000004L 122 85.000004C 123.1046 85.000004 124 85.895404 124 87.000004L 124 88.000004L 132 88.000004C 134.2091 88.000004 136 86.209104 136 84.000004L 136 76.000004L 135 76.000004C 133.8954 76.000004 133 75.104604 133 74.000004L 133 70.000004L 163 70.000009L 163 74.000004C 163 75.104604 162.1046 76.000004 161 76.000004L 160 76.000004L 160 88.000004Z"></path></g></g><g id="1.g-1_fr_9mbyi1fxc3y9-fill" stroke="none" fill="#4e88e7"><g><path d="M 94 100C 94 116.5685 80.5685 130 64 130C 47.4315 130 34 116.5685 34 100C 34 83.4315 47.4315 70 64 70C 80.5685 70 94 83.4315 94 100Z"></path></g></g></g><g id="g-root-docu_4mbq4q1fxao7j-fill" data-item-order="0" transform="translate(621, 147)"></g><g id="g-root-bill_zit8ne1fxdj4f-fill" data-item-order="0" transform="translate(957, 87)"></g><g id="g-root-expe_1uooefe1fxdgqp-fill" data-item-order="0" transform="translate(453, 207)"></g><g id="g-root-sign_zofv2i1fx6hhe-fill" data-item-order="0" transform="translate(285, 87)"></g><g id="g-root-9_8zni8a1fx52iq-fill" data-item-order="0" transform="translate(117, 267)"></g><g id="g-root-1_143mpsa1fxhqf9-fill" data-item-order="0" transform="translate(789, 267)"></g><g id="g-root-48px_141rk0a1fx6fwo-fill" data-item-order="0" transform="translate(117, 327)"></g><g id="g-root-48px_qofmdm1fxg9oi-fill" data-item-order="0" transform="translate(285, 327)"></g><g id="g-root-48px_4nkumi1fxkjd6-fill" data-item-order="0" transform="translate(453, 327)"></g><g id="g-root-48px_zp2fbe1fxq4ue-fill" data-item-order="0" transform="translate(621, 327)"></g><g id="g-root-tx_pipeline_1lpwr9m1fxdgqu-fill" data-item-order="0" transform="translate(357, 557.6666259765625)"><g id="tx_pipeline_1lpwr9m1fxdgqu-fill" stroke="none" fill="#484848"><g><text style="font: 20px Roboto, sans-serif; white-space: pre;" font-size="20px" font-family="Roboto, sans-serif"><tspan x="17.21" y="33.47" dominant-baseline="ideographic">Pipeline scheduling and Nominations process</tspan></text></g></g></g><g id="g-root-48px_mcd1xm1fxkjd8-fill" data-item-order="0" transform="translate(957.5, 327)"></g><g id="g-root-tx_identify_1hbcn4a1fx6fbc-fill" data-item-order="0" transform="translate(63, 375)"><g id="tx_identify_1hbcn4a1fx6fbc-fill" stroke="none" fill="#4e88e7"><g><text style="font: bold 20px Roboto, sans-serif; white-space: pre;" font-weight="bold" font-size="20px" font-family="Roboto, sans-serif"><tspan x="47.78" y="33.47" dominant-baseline="ideographic">Identify </tspan><tspan x="45.58" y="57.47" dominant-baseline="ideographic">Pipeline </tspan><tspan x="29.28" y="81.47" dominant-baseline="ideographic">Information</tspan></text></g></g></g><g id="g-root-tx_establis_1lpx72i1fxgc20-fill" data-item-order="0" transform="translate(231, 375)"><g id="tx_establis_1lpx72i1fxgc20-fill" stroke="none" fill="#3cc583"><g><text style="font: bold 20px Roboto, sans-serif; white-space: pre;" font-weight="bold" font-size="20px" font-family="Roboto, sans-serif"><tspan x="40.84" y="33.47" dominant-baseline="ideographic">Establish </tspan><tspan x="27.01" y="57.47" dominant-baseline="ideographic">Agreements</tspan></text></g></g></g><g id="g-root-tx_specifyn_v9vea21fxkjd4-fill" data-item-order="0" transform="translate(399, 375)"><g id="tx_specifyn_v9vea21fxkjd4-fill" stroke="none" fill="#92bd39"><g><text style="font: bold 20px Roboto, sans-serif; white-space: pre;" font-weight="bold" font-size="20px" font-family="Roboto, sans-serif"><tspan x="45.84" y="33.47" dominant-baseline="ideographic">Specify </tspan><tspan x="30.12" y="57.47" dominant-baseline="ideographic">Nominated </tspan><tspan x="45.24" y="81.47" dominant-baseline="ideographic">Volume</tspan></text></g></g></g><g id="g-root-tx_createno_1ur6h3e1fxq424-fill" data-item-order="0" transform="translate(567, 375)"><g id="tx_createno_1ur6h3e1fxq424-fill" stroke="none" fill="#1eabda"><g><text style="font: bold 20px Roboto, sans-serif; white-space: pre;" font-weight="bold" font-size="20px" font-family="Roboto, sans-serif"><tspan x="52.35" y="33.47" dominant-baseline="ideographic">Create </tspan><tspan x="29.75" y="57.47" dominant-baseline="ideographic">Nomination</tspan></text></g></g></g><g id="g-root-tx_processn_hxshze1fxdhc5-fill" data-item-order="0" transform="translate(735, 375)"><g id="tx_processn_hxshze1fxdhc5-fill" stroke="none" fill="#7f64ea"><g><text style="font: bold 20px Roboto, sans-serif; white-space: pre;" font-weight="bold" font-size="20px" font-family="Roboto, sans-serif"><tspan x="45.5" y="33.47" dominant-baseline="ideographic">Process </tspan><tspan x="29.75" y="57.47" dominant-baseline="ideographic">Nomination</tspan></text></g></g></g><g id="g-root-tx_trackand_2rmyy1fxki6i-fill" data-item-order="0" transform="translate(903, 375)"><g id="tx_trackand_2rmyy1fxki6i-fill" stroke="none" fill="#de58a9"><g><text style="font: bold 20px Roboto, sans-serif; white-space: pre;" font-weight="bold" font-size="20px" font-family="Roboto, sans-serif"><tspan x="37.65" y="33.47" dominant-baseline="ideographic">Track and </tspan><tspan x="16.25" y="57.47" dominant-baseline="ideographic">Review Details</tspan></text></g></g></g><g id="g-root-tx_securele_18f35sa1fxgah5-fill" data-item-order="0" transform="translate(225, 435)"><g id="tx_securele_18f35sa1fxgah5-fill" stroke="none" fill="#374840"><g><text style="font: 15px Roboto, sans-serif; white-space: pre;" font-size="15px" font-family="Roboto, sans-serif"><tspan x="31.95" y="27.07" dominant-baseline="ideographic">Secure legal and </tspan><tspan x="56.37" y="45.07" dominant-baseline="ideographic">transport </tspan><tspan x="17.02" y="63.07" dominant-baseline="ideographic">agreements between </tspan><tspan x="63.83" y="81.07" dominant-baseline="ideographic">parties</tspan></text></g></g></g><g id="g-root-tx_capturea_1hfpyq21fxq5n1-fill" data-item-order="0" transform="translate(567, 435)"><g id="tx_capturea_1hfpyq21fxq5n1-fill" stroke="none" fill="#32444a"><g><text style="font: 15px Roboto, sans-serif; white-space: pre;" font-size="15px" font-family="Roboto, sans-serif"><tspan x="44.33" y="30.07" dominant-baseline="ideographic">Capture all </tspan><tspan x="19.75" y="48.07" dominant-baseline="ideographic">scheduling details </tspan><tspan x="28.85" y="66.07" dominant-baseline="ideographic">for gas transfer</tspan></text></g></g></g><g id="g-root-tx_executet_1qcm0ay1fxdh52-fill" data-item-order="0" transform="translate(735, 435)"><g id="tx_executet_1qcm0ay1fxdh52-fill" stroke="none" fill="#443e5c"><g><text style="font: 15px Roboto, sans-serif; white-space: pre;" font-size="15px" font-family="Roboto, sans-serif"><tspan x="41.33" y="30.07" dominant-baseline="ideographic">Execute the </tspan><tspan x="22.7" y="48.07" dominant-baseline="ideographic">scheduling of the </tspan><tspan x="40.13" y="66.07" dominant-baseline="ideographic">gas transfer</tspan></text></g></g></g><g id="g-root-tx_monitora_18jgkju1fxkgzn-fill" data-item-order="0" transform="translate(897, 435)"><g id="tx_monitora_18jgkju1fxkgzn-fill" stroke="none" fill="#573e4d"><g><text style="font: 15px Roboto, sans-serif; white-space: pre;" font-size="15px" font-family="Roboto, sans-serif"><tspan x="21.48" y="30.07" dominant-baseline="ideographic">Monitor and assess </tspan><tspan x="17.5" y="48.07" dominant-baseline="ideographic">nomination details in </tspan><tspan x="16.82" y="66.07" dominant-baseline="ideographic">management system</tspan></text></g></g></g><g id="g-root-tx_determin_2rjt61fx6fbh-fill" data-item-order="0" transform="translate(63, 459)"><g id="tx_determin_2rjt61fx6fbh-fill" stroke="none" fill="#3a4455"><g><text style="font: 15px Roboto, sans-serif; white-space: pre;" font-size="15px" font-family="Roboto, sans-serif"><tspan x="14" y="30.07" dominant-baseline="ideographic">Determine start and </tspan><tspan x="19.83" y="48.07" dominant-baseline="ideographic">end points for gas </tspan><tspan x="49.52" y="66.07" dominant-baseline="ideographic">transport</tspan></text></g></g></g><g id="g-root-tx_defineth_hz1czu1fxkhs9-fill" data-item-order="0" transform="translate(399, 459)"><g id="tx_defineth_hz1czu1fxkhs9-fill" stroke="none" fill="#424736"><g><text style="font: 15px Roboto, sans-serif; white-space: pre;" font-size="15px" font-family="Roboto, sans-serif"><tspan x="18.79" y="30.07" dominant-baseline="ideographic">Define the specific </tspan><tspan x="23.19" y="48.07" dominant-baseline="ideographic">gas volume to be </tspan><tspan x="41.32" y="66.07" dominant-baseline="ideographic">transported</tspan></text></g></g></g><g id="g-root-48px_1d15hxm1fxdipz-fill" data-item-order="0" transform="translate(789, 327)"></g><g id="g-root-6.g-6_fr_zrjvuy1fxc1l6-stroke" data-item-order="-583190" transform="translate(876, 75)"><g id="6.g-6_fr_zrjvuy1fxc1l6-stroke" fill="none" stroke-linecap="round" stroke-linejoin="round" stroke-miterlimit="4" stroke="#ffffff" stroke-width="2"><g><path d="M 136.5037 52C 138.1093 48.3252 139 44.2666 139 40C 139 35.7334 138.1093 31.6748 136.5037 28L 157 28L 157 27C 157 25.8954 157.8954 25 159 25L 163 25L 163 55L 159 55C 157.8954 55 157 54.1046 157 53L 157 52L 136.5037 52ZM 81.4963 52L 61 52L 61 53C 61 54.1046 60.1046 55 59 55L 55 55L 55 25L 59 25C 60.1046 25 61 25.8954 61 27L 61 28L 81.4963 28C 79.8907 31.6748 79 35.7334 79 40C 79 44.2666 79.8907 48.3252 81.4963 52ZM 157 28L 157 52M 61 52L 61 28"></path></g></g><g id="6.g-6_fr_zrjvuy1fxc1l6-stroke" fill="none" stroke-linecap="round" stroke-linejoin="round" stroke-miterlimit="4" stroke="#ffffff" stroke-width="2"><g><path d="M 10 130L 10 126C 10 124.8954 10.8954 124 12 124L 13 124L 13 76L 12 76C 10.8954 76 10 75.1046 10 74L 10 70L 40 70L 40 74C 40 75.1046 39.1046 76 38 76L 37 76L 37 124L 38 124C 39.1046 124 40 124.8954 40 126L 40 130L 10 130ZM 13 124L 37 124M 13 76L 37 76"></path></g></g><g id="6.g-6_fr_zrjvuy1fxc1l6-stroke" fill="none" stroke-linecap="round" stroke-linejoin="round" stroke-miterlimit="4" stroke="#ffffff" stroke-width="2"><g><path d="M 13 52C 13 38.7452 23.7452 28 37 28L 49 28L 49 27C 49 25.8954 49.8954 25 51 25L 55 25L 55 55L 51 55C 49.8954 55 49 54.1046 49 53L 49 52L 41 52C 38.7909 52 37 53.7909 37 56L 37 64L 38 64C 39.1046 64 40 64.8954 40 66L 40 70L 10 70L 10 66C 10 64.8954 10.8954 64 12 64L 13 64L 13 52ZM 49 28L 49 52M 37 64L 13 64"></path></g></g><g id="6.g-6_fr_zrjvuy1fxc1l6-stroke" fill="none" stroke-linecap="round" stroke-linejoin="round" stroke-miterlimit="4" stroke="#ffffff" stroke-width="2"><g><path d="M 139 40C 139 56.5685 125.5685 70 109 70C 92.4315 70 79 56.5685 79 40C 79 23.4315 92.4315 10 109 10C 125.5685 10 139 23.4315 139 40Z"></path></g></g></g><g id="g-root-5.g-5_fr_vbqdqi1fxc2dj-stroke" data-item-order="-583186" transform="translate(708, 195)"><g id="5.g-5_fr_vbqdqi1fxc2dj-stroke" fill="none" stroke-linecap="round" stroke-linejoin="round" stroke-miterlimit="4" stroke="#ffffff" stroke-width="2"><g><path d="M 136.5037 112C 138.1093 108.3252 139 104.2666 139 100C 139 95.7334 138.1093 91.6748 136.5037 88L 157 88L 157 87C 157 85.8954 157.8954 85 159 85L 163 85L 163 115L 159 115C 157.8954 115 157 114.1046 157 113L 157 112L 136.5037 112ZM 81.4963 112L 61 112L 61 113C 61 114.1046 60.1046 115 59 115L 55 115L 55 85L 59 85C 60.1046 85 61 85.8954 61 87L 61 88L 81.4963 88C 79.8907 91.6748 79 95.7334 79 100C 79 104.2666 79.8907 108.3252 81.4963 112ZM 157 88L 157 112M 61 112L 61 88"></path></g></g><g id="5.g-5_fr_vbqdqi1fxc2dj-stroke" fill="none" stroke-linecap="round" stroke-linejoin="round" stroke-miterlimit="4" stroke="#ffffff" stroke-width="2"><g><path d="M 10 70L 10 66C 10 64.8954 10.8954 64 12 64L 13 64L 13 46L 12 46C 10.8954 46 10 45.1046 10 44L 10 40L 40 40L 40 44C 40 45.1046 39.1046 46 38 46L 37 46L 37 64L 38 64C 39.1046 64 40 64.8954 40 66L 40 70L 10 70ZM 13 64L 37 64M 13 46L 37 46"></path></g></g><g id="5.g-5_fr_vbqdqi1fxc2dj-stroke" fill="none" stroke-linecap="round" stroke-linejoin="round" stroke-miterlimit="4" stroke="#ffffff" stroke-width="2"><g><path d="M 178 70L 178 66C 178 64.8954 178.8954 64 180 64L 181 64L 181 16L 180 16C 178.8954 16 178 15.1046 178 14L 178 10L 208 10L 208 14C 208 15.1046 207.1046 16 206 16L 205 16L 205 64L 206 64C 207.1046 64 208 64.8954 208 66L 208 70L 178 70ZM 181 64L 205 64M 181 16L 205 16"></path></g></g><g id="5.g-5_fr_vbqdqi1fxc2dj-stroke" fill="none" stroke-linecap="round" stroke-linejoin="round" stroke-miterlimit="4" stroke="#ffffff" stroke-width="2"><g><path d="M 13 88C 13 101.2548 23.7452 112 37 112L 49 112L 49 113C 49 114.1046 49.8954 115 51 115L 55 115L 55 85L 51 85C 49.8954 85 49 85.8954 49 87L 49 88L 41 88C 38.7909 88 37 86.2091 37 84L 37 76L 38 76C 39.1046 76 40 75.1046 40 74L 40 70L 10 70L 10.000001 74C 10.000001 75.1046 10.8954 76 12 76L 13 76L 13 88ZM 49 112L 49 88M 37 76L 13 76"></path></g></g><g id="5.g-5_fr_vbqdqi1fxc2dj-stroke" fill="none" stroke-linecap="round" stroke-linejoin="round" stroke-miterlimit="4" stroke="#ffffff" stroke-width="2"><g><path d="M 205 88C 205 101.2548 194.2548 112 181 112L 169 112L 169 113C 169 114.1046 168.1046 115 167 115L 163 115L 163 85L 167 85C 168.1046 85 169 85.8954 169 87L 169 88L 177 88C 179.2091 88 181 86.2091 181 84L 181 76L 180 76C 178.8954 76 178 75.1046 178 74L 178 70L 208 70L 208 74C 208 75.1046 207.1046 76 206 76L 205 76L 205 88ZM 169 112L 169 88M 181 76L 205 76"></path></g></g><g id="5.g-5_fr_vbqdqi1fxc2dj-stroke" fill="none" stroke-linecap="round" stroke-linejoin="round" stroke-miterlimit="4" stroke="#ffffff" stroke-width="2"><g><path d="M 139 100C 139 116.5685 125.5685 130 109 130C 92.4315 130 79 116.5685 79 100C 79 83.4315 92.4315 70 109 70C 125.5685 70 139 83.4315 139 100Z"></path></g></g></g><g id="g-root-4.g-4_fr_i09vd61fxc3ym-stroke" data-item-order="-583182" transform="translate(540, 135)"><g id="4.g-4_fr_i09vd61fxc3ym-stroke" fill="none" stroke-linecap="round" stroke-linejoin="round" stroke-miterlimit="4" stroke="#ffffff" stroke-width="2"><g><path d="M 136.5037 52C 138.1093 48.3252 139 44.2666 139 40C 139 35.7334 138.1093 31.6748 136.5037 28L 157 28L 157 27C 157 25.8954 157.8954 25 159 25L 163 25L 163 55L 159 55C 157.8954 55 157 54.1046 157 53L 157 52L 136.5037 52ZM 81.4963 52L 61 52L 61 53C 61 54.1046 60.1046 55 59 55L 55 55L 55 25L 59 25C 60.1046 25 61 25.8954 61 27L 61 28L 81.4963 28C 79.8907 31.6748 79 35.7334 79 40C 79 44.2666 79.8907 48.3252 81.4963 52ZM 157 28L 157 52M 61 52L 61 28"></path></g></g><g id="4.g-4_fr_i09vd61fxc3ym-stroke" fill="none" stroke-linecap="round" stroke-linejoin="round" stroke-miterlimit="4" stroke="#ffffff" stroke-width="2"><g><path d="M 178 100L 178 96C 178 94.8954 178.8954 94 180 94L 181 94L 181 76L 180 76C 178.8954 76 178 75.1046 178 74L 178 70L 208 70L 208 74C 208 75.1046 207.1046 76 206 76L 205 76L 205 94L 206 94C 207.1046 94 208 94.8954 208 96L 208 100L 178 100ZM 181 94L 205 94M 181 76L 205 76"></path></g></g><g id="4.g-4_fr_i09vd61fxc3ym-stroke" fill="none" stroke-linecap="round" stroke-linejoin="round" stroke-miterlimit="4" stroke="#ffffff" stroke-width="2"><g><path d="M 13 52C 13 38.7452 23.7452 28 37 28L 49 28L 49 27C 49 25.8954 49.8954 25 51 25L 55 25L 55 55L 51 55C 49.8954 55 49 54.1046 49 53L 49 52L 41 52C 38.7909 52 37 53.7909 37 56L 37 64L 38 64C 39.1046 64 40 64.8954 40 66L 40 70L 10 70L 10 66C 10 64.8954 10.8954 64 12 64L 13 64L 13 52ZM 49 28L 49 52M 37 64L 13 64"></path></g></g><g id="4.g-4_fr_i09vd61fxc3ym-stroke" fill="none" stroke-linecap="round" stroke-linejoin="round" stroke-miterlimit="4" stroke="#ffffff" stroke-width="2"><g><path d="M 205 52C 205 38.7452 194.2548 28 181 28L 169 28L 169 27C 169 25.8954 168.1046 25 167 25L 163 25L 163 55L 167 55C 168.1046 55 169 54.1046 169 53L 169 52L 177 52C 179.2091 52 181 53.7909 181 56L 181 64L 180 64C 178.8954 64 178 64.8954 178 66L 178 70L 208 70L 208 66C 208 64.8954 207.1046 64 206 64L 205 64L 205 52ZM 169 28L 169 52M 181 64L 205 64"></path></g></g><g id="4.g-4_fr_i09vd61fxc3ym-stroke" fill="none" stroke-linecap="round" stroke-linejoin="round" stroke-miterlimit="4" stroke="#ffffff" stroke-width="2"><g><path d="M 139 40C 139 56.5685 125.5685 70 109 70C 92.4315 70 79 56.5685 79 40C 79 23.4315 92.4315 10 109 10C 125.5685 10 139 23.4315 139 40Z"></path></g></g></g><g id="g-root-3.g-3_fr_dl2ubu1fxc1l8-stroke" data-item-order="-583178" transform="translate(372, 165)"><g id="3.g-3_fr_dl2ubu1fxc1l8-stroke" fill="none" stroke-linecap="round" stroke-linejoin="round" stroke-miterlimit="4" stroke="#ffffff" stroke-width="2"><g><path d="M 136.5037 82C 138.1093 78.3252 139 74.2666 139 70C 139 65.7334 138.1093 61.6748 136.5037 58L 157 58L 157 57C 157 55.8954 157.8954 55 159 55L 163 55L 163 85L 159 85C 157.8954 85 157 84.1046 157 83L 157 82L 136.5037 82ZM 81.4963 82L 61 82L 61 83C 61 84.1046 60.1046 85 59 85L 55 85L 55 55L 59 55C 60.1046 55 61 55.8954 61 57L 61 58L 81.4963 58C 79.8907 61.6748 79 65.7334 79 70C 79 74.2666 79.8907 78.3252 81.4963 82ZM 157 58L 157 82M 61 82L 61 58"></path></g></g><g id="3.g-3_fr_dl2ubu1fxc1l8-stroke" fill="none" stroke-linecap="round" stroke-linejoin="round" stroke-miterlimit="4" stroke="#ffffff" stroke-width="2"><g><path d="M 10 40L 10 36C 10 34.8954 10.8954 34 12 34L 13 34L 13 16L 12 16C 10.8954 16 10 15.1046 10 14L 10 10L 40 10L 40 14C 40 15.1046 39.1046 16 38 16L 37 16L 37 34L 38 34C 39.1046 34 40 34.8954 40 36L 40 40L 10 40ZM 13 34L 37 34M 13 16L 37 16"></path></g></g><g id="3.g-3_fr_dl2ubu1fxc1l8-stroke" fill="none" stroke-linecap="round" stroke-linejoin="round" stroke-miterlimit="4" stroke="#ffffff" stroke-width="2"><g><path d="M 205 58C 205 71.2548 194.2548 82 181 82L 169 82L 169 83C 169 84.1046 168.1046 85 167 85L 163 85L 163 55L 167 55C 168.1046 55 169 55.8954 169 57L 169 58L 177 58C 179.2091 58 181 56.2091 181 54L 181 46L 180 46C 178.8954 46 178 45.1046 178 44L 178 40L 208 40L 208 44C 208 45.1046 207.1046 46 206 46L 205 46L 205 58ZM 169 82L 169 58M 181 46L 205 46"></path></g></g><g id="3.g-3_fr_dl2ubu1fxc1l8-stroke" fill="none" stroke-linecap="round" stroke-linejoin="round" stroke-miterlimit="4" stroke="#ffffff" stroke-width="2"><g><path d="M 13 58C 13 71.2548 23.7452 82 37 82L 49 82L 49 83C 49 84.1046 49.8954 85 51 85L 55 85L 55 55L 51 55C 49.8954 55 49 55.8954 49 57L 49 58L 41 58C 38.7909 58 37 56.2091 37 54L 37 46L 38 46C 39.1046 46 40 45.1046 40 44L 40 40L 10 40L 10.000001 44C 10.000001 45.1046 10.8954 46 12 46L 13 46L 13 58ZM 49 82L 49 58M 37 46L 13 46"></path></g></g><g id="3.g-3_fr_dl2ubu1fxc1l8-stroke" fill="none" stroke-linecap="round" stroke-linejoin="round" stroke-miterlimit="4" stroke="#ffffff" stroke-width="2"><g><path d="M 139 70C 139 86.5685 125.5685 100 109 100C 92.4315 100 79 86.5685 79 70C 79 53.4315 92.4315 40 109 40C 125.5685 40 139 53.4315 139 70Z"></path></g></g></g><g id="g-root-2.g-2_fr_4pfu2y1fxc35u-stroke" data-item-order="-583174" transform="translate(204, 75)"><g id="2.g-2_fr_4pfu2y1fxc35u-stroke" fill="none" stroke-linecap="round" stroke-linejoin="round" stroke-miterlimit="4" stroke="#ffffff" stroke-width="2"><g><path d="M 136.5037 52C 138.1093 48.3252 139 44.2666 139 40C 139 35.7334 138.1093 31.6748 136.5037 28L 157 28L 157 27C 157 25.8954 157.8954 25 159 25L 163 25L 163 55L 159 55C 157.8954 55 157 54.1046 157 53L 157 52L 136.5037 52ZM 81.4963 52L 61 52L 61 53C 61 54.1046 60.1046 55 59 55L 55 55L 55 25L 59 25C 60.1046 25 61 25.8954 61 27L 61 28L 81.4963 28C 79.8907 31.6748 79 35.7334 79 40C 79 44.2666 79.8907 48.3252 81.4963 52ZM 157 28L 157 52M 61 52L 61 28"></path></g></g><g id="2.g-2_fr_4pfu2y1fxc35u-stroke" fill="none" stroke-linecap="round" stroke-linejoin="round" stroke-miterlimit="4" stroke="#ffffff" stroke-width="2"><g><path d="M 178 100L 178 96C 178 94.8954 178.8954 94 180 94L 181 94L 181 76L 180 76C 178.8954 76 178 75.1046 178 74L 178 70L 208 70L 208 74C 208 75.1046 207.1046 76 206 76L 205 76L 205 94L 206 94C 207.1046 94 208 94.8954 208 96L 208 100L 178 100ZM 181 94L 205 94M 181 76L 205 76"></path></g></g><g id="2.g-2_fr_4pfu2y1fxc35u-stroke" fill="none" stroke-linecap="round" stroke-linejoin="round" stroke-miterlimit="4" stroke="#ffffff" stroke-width="2"><g><path d="M 10 130L 10 126C 10 124.8954 10.8954 124 12 124L 13 124L 13 76L 12 76C 10.8954 76 10 75.1046 10 74L 10 70L 40 70L 40 74C 40 75.1046 39.1046 76 38 76L 37 76L 37 124L 38 124C 39.1046 124 40 124.8954 40 126L 40 130L 10 130ZM 13 124L 37 124M 13 76L 37 76"></path></g></g><g id="2.g-2_fr_4pfu2y1fxc35u-stroke" fill="none" stroke-linecap="round" stroke-linejoin="round" stroke-miterlimit="4" stroke="#ffffff" stroke-width="2"><g><path d="M 205 52C 205 38.7452 194.2548 28 181 28L 169 28L 169 27C 169 25.8954 168.1046 25 167 25L 163 25L 163 55L 167 55C 168.1046 55 169 54.1046 169 53L 169 52L 177 52C 179.2091 52 181 53.7909 181 56L 181 64L 180 64C 178.8954 64 178 64.8954 178 66L 178 70L 208 70L 208 66C 208 64.8954 207.1046 64 206 64L 205 64L 205 52ZM 169 28L 169 52M 181 64L 205 64"></path></g></g><g id="2.g-2_fr_4pfu2y1fxc35u-stroke" fill="none" stroke-linecap="round" stroke-linejoin="round" stroke-miterlimit="4" stroke="#ffffff" stroke-width="2"><g><path d="M 13 52C 13 38.7452 23.7452 28 37 28L 49 28L 49 27C 49 25.8954 49.8954 25 51 25L 55 25L 55 55L 51 55C 49.8954 55 49 54.1046 49 53L 49 52L 41 52C 38.7909 52 37 53.7909 37 56L 37 64L 38 64C 39.1046 64 40 64.8954 40 66L 40 70L 10 70L 10 66C 10 64.8954 10.8954 64 12 64L 13 64L 13 52ZM 49 28L 49 52M 37 64L 13 64"></path></g></g><g id="2.g-2_fr_4pfu2y1fxc35u-stroke" fill="none" stroke-linecap="round" stroke-linejoin="round" stroke-miterlimit="4" stroke="#ffffff" stroke-width="2"><g><path d="M 139 40C 139 56.5685 125.5685 70 109 70C 92.4315 70 79 56.5685 79 40C 79 23.4315 92.4315 10 109 10C 125.5685 10 139 23.4315 139 40Z"></path></g></g></g><g id="g-root-1.g-1_fr_9mbyi1fxc3y9-stroke" data-item-order="-583170" transform="translate(81, 195)"><g id="1.g-1_fr_9mbyi1fxc3y9-stroke" fill="none" stroke-linecap="round" stroke-linejoin="round" stroke-miterlimit="4" stroke="#ffffff" stroke-width="2"><g><path d="M 133 69.999999L 133 65.999999C 133 64.895399 133.8954 63.999999 135 63.999999L 136 63.999999L 136 15.999999L 135 15.999999C 133.8954 15.999999 133 15.104599 133 13.999999L 133 9.999999L 163 9.999999L 163 13.999999C 163 15.104599 162.1046 15.999999 161 15.999999L 160 15.999999L 160 63.999999L 161 63.999999C 162.1046 63.999999 163 64.895399 163 65.999999L 163 69.999999L 133 69.999999ZM 136 63.999999L 160 63.999999M 136 15.999999L 160 15.999999"></path></g></g><g id="1.g-1_fr_9mbyi1fxc3y9-stroke" fill="none" stroke-linecap="round" stroke-linejoin="round" stroke-miterlimit="4" stroke="#ffffff" stroke-width="2"><g><path d="M 91.5037 112C 93.1093 108.3252 94 104.2666 94 100C 94 95.7334 93.1093 91.6748 91.5037 88L 112 88L 112 87C 112 85.8954 112.8954 85 114 85L 118 85L 118 115L 114 115C 112.8954 115 112 114.1046 112 113L 112 112L 91.5037 112ZM 36.4963 112L 16 112L 16 113C 16 114.1046 15.1046 115 14 115L 10 115L 10 85L 14 85C 15.1046 85 16 85.8954 16 87L 16 88L 36.4963 88C 34.8907 91.6748 34 95.7334 34 100C 34 104.2666 34.8907 108.3252 36.4963 112ZM 112 88L 112 112M 16 112L 16 88"></path></g></g><g id="1.g-1_fr_9mbyi1fxc3y9-stroke" fill="none" stroke-linecap="round" stroke-linejoin="round" stroke-miterlimit="4" stroke="#ffffff" stroke-width="2"><g><path d="M 160 88.000004C 160 101.254804 149.2548 112.000004 136 112.000004L 124 112.000004L 124 113.000004C 124 114.104604 123.1046 115.000004 122 115.000004L 118 115.000004L 118 85.000004L 122 85.000004C 123.1046 85.000004 124 85.895404 124 87.000004L 124 88.000004L 132 88.000004C 134.2091 88.000004 136 86.209104 136 84.000004L 136 76.000004L 135 76.000004C 133.8954 76.000004 133 75.104604 133 74.000004L 133 70.000004L 163 70.000004L 163 74.000004C 163 75.104604 162.1046 76.000004 161 76.000004L 160 76.000004L 160 88.000004ZM 124 112.000004L 124 88.000004M 136 76.000004L 160 76.000004"></path></g></g><g id="1.g-1_fr_9mbyi1fxc3y9-stroke" fill="none" stroke-linecap="round" stroke-linejoin="round" stroke-miterlimit="4" stroke="#ffffff" stroke-width="2"><g><path d="M 94 100C 94 116.5685 80.5685 130 64 130C 47.4315 130 34 116.5685 34 100C 34 83.4315 47.4315 70 64 70C 80.5685 70 94 83.4315 94 100Z"></path></g></g></g><g id="g-root-docu_4mbq4q1fxao7j-stroke" data-item-order="0" transform="translate(621, 147)"><g id="docu_4mbq4q1fxao7j-stroke" fill="none" stroke-linecap="round" stroke-linejoin="round" stroke-miterlimit="4" stroke="#ffffff" stroke-width="2"><g><path d="M 28.75 31.75C 28.75 32.578426 28.078428 33.25 27.25 33.25L 11.8705 33.25C 11.24918 33.25 10.7455 32.746323 10.7455 32.125L 10.7455 14.875C 10.7455 14.25368 11.24918 13.75 11.8705 13.75L 27.620499 13.75C 28.241821 13.75 28.745501 14.25368 28.745501 14.875ZM 15.2455 16L 15.2455 10.75M 19.745501 16L 19.745501 10.75M 24.245499 16L 24.245499 10.75M 39.25 25.75L 39.25 19C 39.25 17.343145 37.906857 16 36.25 16L 33.25 16M 35.495499 22L 39.245499 25.75L 42.995499 22M 34.392998 31.921001C 36.728401 34.330406 40.307583 35.050419 43.392998 33.731499M 33.706001 34.381001C 33.706001 37.073387 35.888611 39.256001 38.581001 39.256001C 41.273392 39.256001 43.456001 37.073387 43.456001 34.381001C 43.456001 31.688612 41.273392 29.506001 38.581001 29.506001C 35.888611 29.506001 33.706001 31.688612 33.706001 34.381001M 45.25 45.25C 43.764496 42.965912 41.224659 41.588013 38.5 41.588013C 35.775337 41.588013 33.235504 42.965912 31.75 45.25M 21.245501 19.75L 15.2455 19.75M 22.745499 24.25L 15.2455 24.25M 24.245499 28.75L 15.2455 28.75"></path></g></g></g><g id="g-root-bill_zit8ne1fxdj4f-stroke" data-item-order="0" transform="translate(957, 87)"><g id="bill_zit8ne1fxdj4f-stroke" fill="none" stroke-linecap="round" stroke-linejoin="round" stroke-miterlimit="4" stroke="#ffffff" stroke-width="2"><g><path d="M 39.3535 10.75L 15.442 10.75C 12.956718 10.75 10.942 12.764719 10.942 15.25L 10.942 44.483501L 14.007999 41.416L 17.0755 44.483501L 20.525501 41.033501L 24.358 44.865997M 35.474499 29.533001L 35.474499 14.629M 21.700001 19.363001L 18.224499 19.363001C 17.117596 19.356413 16.163292 20.139879 15.954198 21.226875C 15.745104 22.313869 16.340647 23.395462 17.370998 23.799999L 20.905001 25.213001C 21.921026 25.626434 22.503199 26.700325 22.295168 27.77734C 22.087135 28.854355 21.14691 29.634186 20.049999 29.6395L 16.568501 29.6395M 19.138 31.352499L 19.138 29.6395M 19.138 19.3645L 19.138 17.65M 26.3335 20.0305L 30.5515 20.0305M 26.3335 24.219999L 30.5515 24.219999M 26.3335 28.658501L 30.5515 28.658501M 44.8255 38.814999C 45.136127 39.219215 45.136127 39.781784 44.8255 40.186001C 43.661499 41.711502 40.466499 45.25 35.858501 45.25C 31.2505 45.25 28.058498 41.709999 26.891499 40.184498C 26.58112 39.780762 26.58112 39.218742 26.8915 38.815002C 28.0555 37.289501 31.2505 33.7495 35.858501 33.7495C 40.466499 33.7495 43.662998 37.291 44.8255 38.814999ZM 35.858501 36.864998C 37.314045 36.864998 38.493996 38.044952 38.493996 39.500496C 38.493996 40.956047 37.314045 42.136002 35.858498 42.135998C 34.402954 42.135998 33.223 40.956047 33.223 39.500496C 33.223 38.044952 34.402954 36.864998 35.858498 36.864998M 35.474499 14.629C 35.472958 13.56306 35.910133 12.543458 36.683327 11.809702C 37.456524 11.075946 38.497601 10.692703 39.561996 10.75C 41.671204 10.936536 43.275444 12.724999 43.232498 14.842L 43.232502 19.729C 43.232502 20.557426 42.560928 21.229 41.732502 21.229L 35.858501 21.229"></path></g></g></g><g id="g-root-expe_1uooefe1fxdgqp-stroke" data-item-order="0" transform="translate(453, 207)"><g id="expe_1uooefe1fxdgqp-stroke" fill="none" stroke-linecap="round" stroke-linejoin="round" stroke-miterlimit="4" stroke="#ffffff" stroke-width="2"><g><path d="M 21.25 15.25L 12.25 15.25L 12.25 42.25M 26.5 13.75L 22 13.75C 21.585787 13.75 21.25 14.085787 21.25 14.5L 21.25 17.5C 21.25 17.914213 21.585787 18.25 22 18.25L 40 18.25M 36.25 15.25L 36.25 11.5C 36.25 11.085787 35.914215 10.75 35.5 10.75L 32.5 10.75C 32.085785 10.75 31.75 11.085787 31.75 11.5L 31.75 15.25M 36.189999 34.375C 36.189999 35.203426 36.861572 35.875 37.689999 35.875C 38.518429 35.875 39.189999 35.203426 39.189999 34.375C 39.189999 33.546574 38.518429 32.875 37.689999 32.875C 36.861572 32.875 36.189999 33.546574 36.189999 34.375M 25 28.75L 43 28.75M 24.25 45.25L 12.25 45.25L 12.25 42.25L 22 42.25C 22.944271 42.25 23.833437 42.694584 24.400002 43.449997L 24.849998 44.050003C 25.020447 44.277264 25.047865 44.581322 24.92082 44.835411C 24.793776 45.0895 24.534081 45.25 24.25 45.25ZM 32.5 36.25C 32.707108 36.25 32.875 36.417892 32.875 36.625M 32.064999 36.625C 32.063572 36.514217 32.111202 36.408474 32.195118 36.336136C 32.27903 36.263794 32.390636 36.232265 32.5 36.25M 32.5 37C 32.292892 37 32.125 36.832108 32.125 36.625M 32.814999 36.625C 32.81739 36.810772 32.683395 36.970287 32.5 37M 29.815001 31.75C 30.022106 31.75 30.190001 31.917892 30.190001 32.125M 29.5 32.125C 29.5 31.917892 29.667892 31.75 29.875 31.75M 29.815001 32.5C 29.607893 32.5 29.440001 32.332108 29.440001 32.125M 30.190001 32.125C 30.190001 32.332108 30.022106 32.5 29.815001 32.5M 36.25 23.02L 36.25 18.25L 31.75 18.25L 31.75 23.02C 26.936916 24.161522 23.741364 28.726395 24.316017 33.639503C 24.890669 38.552612 29.053402 42.256832 34 42.256832C 38.946602 42.256832 43.109333 38.552612 43.683983 33.639503C 44.258636 28.726395 41.063084 24.161522 36.25 23.02Z"></path></g></g></g><g id="g-root-sign_zofv2i1fx6hhe-stroke" data-item-order="0" transform="translate(285, 87)"><g id="sign_zofv2i1fx6hhe-stroke" fill="none" stroke-linecap="round" stroke-linejoin="round" stroke-miterlimit="4" stroke="#ffffff" stroke-width="2"><g><path d="M 40.75 40.974998L 34.855 42.16M 35.5 35.5L 32.724998 36.639999C 32.282623 36.820087 31.787373 36.820087 31.344999 36.639999C 30.696657 36.367188 30.266626 35.741707 30.244053 35.038666C 30.221478 34.335625 30.610495 33.683846 31.24 33.369999L 34 32.02C 34.342667 31.84141 34.723591 31.748751 35.110001 31.75C 35.401665 31.748604 35.691227 31.799404 35.965004 31.900002L 41.035 33.834999M 24.25 42.25L 26.349998 42.25L 29.844999 44.904999C 30.206755 45.320595 30.83568 45.367428 31.255001 45.010002L 36.505001 40.810001C 36.928867 40.451988 36.995029 39.823425 36.654999 39.385002L 33.775002 36.204998M 31 33.52L 30.625 33.205002C 30.249029 32.921658 29.790781 32.768909 29.32 32.77C 29.041775 32.771187 28.76652 32.827259 28.51 32.935001L 24.25 34.75M 19.75 43.75L 22.75 43.75C 23.578428 43.75 24.25 43.078426 24.25 42.25L 24.25 34.75C 24.25 33.921574 23.578428 33.25 22.75 33.25L 19.75 33.25M 45.25 43.75L 42.25 43.75C 41.421574 43.75 40.75 43.078426 40.75 42.25L 40.75 34.75C 40.75 33.921574 41.421574 33.25 42.25 33.25L 45.25 33.25M 35.5 10.75L 15.25 10.75C 12.764719 10.75 10.75 12.764719 10.75 15.25L 10.75 44.5C 10.75 44.914215 11.085787 45.25 11.5 45.25L 16 45.25M 15.25 16.75L 27.25 16.75M 15.25 21.25L 27.25 21.25M 15.25 25.75L 20.5 25.75M 31.75 29.5L 31.75 14.5C 31.75 12.428932 33.428932 10.75 35.5 10.75C 37.57 10.75 39.25 12.43 39.25 15.25L 31.75 15.25"></path></g></g></g><g id="g-root-9_8zni8a1fx52iq-stroke" data-item-order="0" transform="translate(117, 267)"><g id="9_8zni8a1fx52iq-stroke" fill="none" stroke-linecap="round" stroke-linejoin="round" stroke-miterlimit="4" stroke="#ffffff" stroke-width="2"><g><path d="M 45.197502 31.439501L 45.197502 22.267C 45.198326 20.578321 43.829178 19.209169 42.140499 19.209999C 41.71883 19.210001 41.377003 19.55183 41.377003 19.973499L 41.376999 22.267L 36.790001 22.267L 36.790001 19.209999C 36.790398 19.007248 36.710136 18.812664 36.566906 18.669155C 36.423683 18.525646 36.229256 18.445 36.026501 18.445L 33.732998 18.445L 31.439501 15.388L 21.5035 15.388L 19.209999 17.681499L 16.15 17.681499C 15.947248 17.681103 15.752663 17.761366 15.609154 17.904593C 15.465646 18.047821 15.385 18.242247 15.385 18.445L 15.385 29.146C 15.385 29.568497 15.727502 29.910999 16.15 29.910999L 19.209999 29.910999L 22.267 35.261497L 24.560499 35.261497M 27.6175 15.388L 27.6175 10.8025M 32.968002 10.8025L 22.267 10.8025M 10.8025 17.681499L 10.8025 29.910999M 10.8025 23.7955L 15.388 23.7955M 39.586002 39.586002L 45.197502 45.197502M 29.146 35.261497C 29.145498 38.639351 31.883648 41.377911 35.261497 41.377911C 38.639351 41.377911 41.377502 38.639351 41.377003 35.261497C 41.377502 31.883648 38.639351 29.145092 35.261497 29.145092C 31.883648 29.145092 29.145498 31.883648 29.146 35.261497M 36.790001 22.267L 36.790001 26.041M 41.376999 22.267L 41.376999 26.041M 19.209999 17.681499L 19.209999 29.910999"></path></g></g></g><g id="g-root-1_143mpsa1fxhqf9-stroke" data-item-order="0" transform="translate(789, 267)"><g id="1_143mpsa1fxhqf9-stroke" fill="none" stroke-linecap="round" stroke-linejoin="round" stroke-miterlimit="4" stroke="#ffffff" stroke-width="2"><g><path d="M 25 14.125C 25 15.988961 23.48896 17.5 21.625 17.5L 14.875 17.5C 13.011039 17.5 11.5 15.988961 11.5 14.125C 11.5 12.261039 13.011039 10.75 14.875 10.75L 21.625 10.75C 23.48896 10.75 25 12.261039 25 14.125ZM 18.25 31L 10.75 26.849499L 18.25 22L 25.75 26.5L 18.25 31ZM 18.25 22L 18.25 17.5M 18.25 31L 18.25 36.067001M 34.75 22.75L 45.25 22.75L 45.25 30.25L 34.75 30.25ZM 25.333 26.5L 34.534 26.5M 40 30.25L 40 33.966999C 39.999172 34.813313 39.313313 35.499172 38.467003 35.5L 29.5 35.5M 13.75 40.75C 13.75 43.235283 15.764719 45.25 18.25 45.25C 20.735283 45.25 22.75 43.235283 22.75 40.75C 22.75 38.264721 20.735283 36.25 18.25 36.25C 15.764719 36.25 13.75 38.264721 13.75 40.75"></path></g></g></g><g id="g-root-48px_141rk0a1fx6fwo-stroke" data-item-order="0" transform="translate(117, 327)"><g id="48px_141rk0a1fx6fwo-stroke" fill="none" stroke-linecap="round" stroke-linejoin="round" stroke-miterlimit="4" stroke="#484848" stroke-width="2"><g><path d="M 30.881351 20.033051L 37.222675 17.637701L 37.222675 38.463249M 13.804202 25.133875C 13.804202 20.861275 15.841548 17.271431 19.758026 17.271431C 23.674599 17.271431 25.711899 20.861275 25.711899 25.133875L 25.711899 30.454525C 25.711899 34.727127 23.57905 38.411201 19.758026 38.411201C 15.937067 38.411201 13.804202 34.727127 13.804202 30.454525L 13.804202 25.133875Z"></path></g></g></g><g id="g-root-48px_qofmdm1fxg9oi-stroke" data-item-order="0" transform="translate(285, 327)"><g id="48px_qofmdm1fxg9oi-stroke" fill="none" stroke-linecap="round" stroke-linejoin="round" stroke-miterlimit="4" stroke="#484848" stroke-width="2"><g><path d="M 13.804202 25.133875C 13.804202 20.861275 15.841548 17.271431 19.758026 17.271431C 23.674599 17.271431 25.711899 20.861275 25.711899 25.133875L 25.711899 30.454525C 25.711899 34.727127 23.57905 38.411201 19.758026 38.411201C 15.937067 38.411201 13.804202 34.727127 13.804202 30.454525L 13.804202 25.133875ZM 30.123625 23.136551C 30.123625 19.671326 32.541924 17.271482 35.828201 17.271482C 41.279949 17.271482 43.139427 22.59145 39.565975 27.323799L 30.497499 38.063126L 42.963024 38.063126"></path></g></g></g><g id="g-root-48px_4nkumi1fxkjd6-stroke" data-item-order="0" transform="translate(453, 327)"><g id="48px_4nkumi1fxkjd6-stroke" fill="none" stroke-linecap="round" stroke-linejoin="round" stroke-miterlimit="4" stroke="#484848" stroke-width="2"><g><path d="M 13.804202 25.133875C 13.804202 20.861275 15.841548 17.271431 19.758026 17.271431C 23.674599 17.271431 25.711899 20.861275 25.711899 25.133875L 25.711899 30.454525C 25.711899 34.727127 23.57905 38.411201 19.758026 38.411201C 15.937067 38.411201 13.804202 34.727127 13.804202 30.454525L 13.804202 25.133875ZM 30.3409 22.801075C 30.251575 20.9944 31.36195 17.282455 36.298973 17.282455C 41.236 17.282455 41.992226 20.94805 41.821152 23.01775C 41.632526 25.299925 40.20385 27.630924 34.150524 27.630924C 39.785202 27.630924 42.344124 29.171501 42.344124 33.343376C 42.344124 36.9496 39.156624 38.417351 36.244148 38.417351C 34.151051 38.399502 29.964701 37.215324 29.964701 32.621651"></path></g></g></g><g id="g-root-48px_zp2fbe1fxq4ue-stroke" data-item-order="0" transform="translate(621, 327)"><g id="48px_zp2fbe1fxq4ue-stroke" fill="none" stroke-linecap="round" stroke-linejoin="round" stroke-miterlimit="4" stroke="#484848" stroke-width="2"><g><path d="M 13.804202 25.134251C 13.804202 20.86165 15.841548 17.271797 19.758026 17.271797C 23.674599 17.271797 25.711899 20.86165 25.711899 25.134251L 25.711899 30.454899C 25.711899 34.727501 23.57905 38.411575 19.758026 38.411575C 15.937067 38.411575 13.804202 34.727501 13.804202 30.454899L 13.804202 25.134251ZM 39.93235 38.4841L 39.93235 17.163452L 29.721176 32.303501L 43.986027 32.303501"></path></g></g></g><g id="g-root-tx_pipeline_1lpwr9m1fxdgqu-stroke" data-item-order="0" transform="translate(357, 557.6666259765625)"></g><g id="g-root-48px_mcd1xm1fxkjd8-stroke" data-item-order="0" transform="translate(957.5, 327)"><g id="48px_mcd1xm1fxkjd8-stroke" fill="none" stroke-linecap="round" stroke-linejoin="round" stroke-miterlimit="4" stroke="#484848" stroke-width="2"><g><path d="M 13.804202 25.134251C 13.804202 20.86165 15.841548 17.271797 19.758026 17.271797C 23.674599 17.271797 25.711899 20.86165 25.711899 25.134251L 25.711899 30.454899C 25.711899 34.727501 23.57905 38.411575 19.758026 38.411575C 15.937067 38.411575 13.804202 34.727501 13.804202 30.454899L 13.804202 25.134251ZM 40.313278 17.248413C 33.688076 17.248413 30.526676 21.536949 30.277901 28.107176L 30.277451 31.269325C 30.277451 35.417351 32.5816 38.083 36.423622 38.411648C 40.04245 38.551975 42.295074 35.710373 42.457302 31.593775C 42.560349 28.979874 41.233597 25.310875 37.160725 24.903551C 33.591549 24.5467 30.801849 26.918724 30.277901 29.48245"></path></g></g></g><g id="g-root-tx_identify_1hbcn4a1fx6fbc-stroke" data-item-order="0" transform="translate(63, 375)"></g><g id="g-root-tx_establis_1lpx72i1fxgc20-stroke" data-item-order="0" transform="translate(231, 375)"></g><g id="g-root-tx_specifyn_v9vea21fxkjd4-stroke" data-item-order="0" transform="translate(399, 375)"></g><g id="g-root-tx_createno_1ur6h3e1fxq424-stroke" data-item-order="0" transform="translate(567, 375)"></g><g id="g-root-tx_processn_hxshze1fxdhc5-stroke" data-item-order="0" transform="translate(735, 375)"></g><g id="g-root-tx_trackand_2rmyy1fxki6i-stroke" data-item-order="0" transform="translate(903, 375)"></g><g id="g-root-tx_securele_18f35sa1fxgah5-stroke" data-item-order="0" transform="translate(225, 435)"></g><g id="g-root-tx_capturea_1hfpyq21fxq5n1-stroke" data-item-order="0" transform="translate(567, 435)"></g><g id="g-root-tx_executet_1qcm0ay1fxdh52-stroke" data-item-order="0" transform="translate(735, 435)"></g><g id="g-root-tx_monitora_18jgkju1fxkgzn-stroke" data-item-order="0" transform="translate(897, 435)"></g><g id="g-root-tx_determin_2rjt61fx6fbh-stroke" data-item-order="0" transform="translate(63, 459)"></g><g id="g-root-tx_defineth_hz1czu1fxkhs9-stroke" data-item-order="0" transform="translate(399, 459)"></g><g id="g-root-48px_1d15hxm1fxdipz-stroke" data-item-order="0" transform="translate(789, 327)"><g id="48px_1d15hxm1fxdipz-stroke" fill="none" stroke-linecap="round" stroke-linejoin="round" stroke-miterlimit="4" stroke="#484848" stroke-width="2"><g><path d="M 13.804202 25.134251C 13.804202 20.86165 15.841548 17.271797 19.758026 17.271797C 23.674599 17.271797 25.711899 20.86165 25.711899 25.134251L 25.711899 30.454899C 25.711899 34.727501 23.57905 38.411575 19.758026 38.411575C 15.937067 38.411575 13.804202 34.727501 13.804202 30.454899L 13.804202 25.134251ZM 42.769974 17.59045L 32.7841 17.59045L 31.74085 27.35815C 32.362675 26.73625 34.264824 25.492451 36.898827 25.492451C 39.978325 25.492451 42.859375 27.585024 42.570248 32.539299C 42.270851 37.670349 39.183998 38.42815 36.646374 38.42815C 33.958374 38.42815 31.303751 36.520676 31.0546 32.923752"></path></g></g></g></g></g></svg>