<?xml version="1.0" encoding="utf-8" standalone="yes"?>
<!DOCTYPE svg PUBLIC "-//W3C//DTD SVG 1.1//EN" "http://www.w3.org/Graphics/SVG/1.1/DTD/svg11.dtd">
<svg width="937" height="651" viewBox="0 0 937 651" style="fill:none;stroke:none;fill-rule:evenodd;clip-rule:evenodd;stroke-linecap:round;stroke-linejoin:round;stroke-miterlimit:1.5;" version="1.1" xmlns="http://www.w3.org/2000/svg" xmlns:xlink="http://www.w3.org/1999/xlink"><style class="text-font-style fontImports" data-font-family="Arial"></style><g id="items" style="isolation: isolate"><g id="blend" style="mix-blend-mode: normal"><g id="g-root-3.g-3_fr_hxrsth1pcya6b-fill" data-item-order="3999500064" transform="translate(458.68927001953125, 239.5)"><g id="3.g-3_fr_hxrsth1pcya6b-fill" stroke="none" fill="#95bdff"><g><path d="M 111.81073 52C 111.810731 75.19596 130.614771 94.000001 153.810731 94.000001C 177.00669 94.000001 195.810731 75.19596 195.810731 52.000001C 195.810731 28.804041 177.00669 10.000001 153.810731 10.000001C 130.614771 10.000001 111.810731 28.804041 111.810731 52.000001"></path></g></g><g id="3.g-3_fr_hxrsth1pcya6b-fill" stroke="none" fill="#95bdff"><g><path d="M 97.81073 88C 97.81073 91.313709 100.497022 94 103.81073 94C 107.124439 94 109.81073 91.313709 109.81073 88C 109.81073 84.686292 107.124439 82 103.81073 82C 100.497022 82 97.81073 84.686292 97.81073 88"></path></g></g></g><g id="g-root-2.g-2_fr_924skl1pcyaz1-fill" data-item-order="3999500070" transform="translate(416.5, 179.5)"><g id="2.g-2_fr_924skl1pcyaz1-fill" stroke="none" fill="#4e8bef"><g><path d="M 10 52C 10.000001 75.19596 28.804041 94.000001 52.000001 94.000001C 75.19596 94.000001 94.000001 75.19596 94.000001 52.000001C 94.000001 28.804041 75.19596 10.000001 52.000001 10.000001C 28.804041 10.000001 10.000001 28.804041 10.000001 52.000001"></path></g></g><g id="2.g-2_fr_924skl1pcyaz1-fill" stroke="none" fill="#4e8bef"><g><path d="M 46 112C 46 115.313709 48.686292 118 52 118C 55.313709 118 58 115.313709 58 112C 58 108.686292 55.313709 106 52 106C 48.686292 106 46 108.686292 46 112"></path></g></g></g><g id="g-root-1.g-1_fr_4mxrj91pcy8lj-fill" data-item-order="3999500076" transform="translate(272.5, 239.5)"><g id="1.g-1_fr_4mxrj91pcy8lj-fill" stroke="none" fill="#4371bd"><g><path d="M 10 52C 10.000001 75.19596 28.804041 94.000001 52.000001 94.000001C 75.19596 94.000001 94.000001 75.19596 94.000001 52.000001C 94.000001 28.804041 75.19596 10.000001 52.000001 10.000001C 28.804041 10.000001 10.000001 28.804041 10.000001 52.000001"></path></g></g><g id="1.g-1_fr_4mxrj91pcy8lj-fill" stroke="none" fill="#4371bd"><g><path d="M 95 88C 95 91.3137 97.6863 94 101 94C 104.3137 94 107 91.3137 107 88C 107 84.6863 104.3137 82 101 82C 97.6863 82 95 84.6863 95 88Z"></path></g></g></g><g id="g-root-0.g-0_fr_4mxrj91pcy8lm-fill" data-item-order="3999500082" transform="translate(374.5, 400.5)"><g id="0.g-0_fr_4mxrj91pcy8lm-fill" stroke="none" fill="#3a4455"><g><path d="M 10 94C 10.000002 140.391921 47.608083 178.000002 94.000002 178.000002C 140.391921 178.000002 178.000002 140.391921 178.000002 94.000002C 178.000002 47.608083 140.391921 10.000002 94.000002 10.000002C 47.608083 10.000002 10.000002 47.608083 10.000002 94.000002"></path></g></g></g><g id="g-root-tx_operatio_qunr8l1pcybk2-fill" data-item-order="4000000000" transform="translate(338.5, 101.5)"><g id="tx_operatio_qunr8l1pcybk2-fill" stroke="none" fill="#484848"><g><text style="font: bold 20px Arial, Helvetica, sans-serif; white-space: pre;" font-weight="bold" font-size="20px" font-family="Arial, Helvetica, sans-serif"><tspan x="24.41" y="33" dominant-baseline="ideographic">Operational Efficiency</tspan></text></g></g></g><g id="g-root-tx_streamli_hzn82t1pcy96z-fill" data-item-order="4000000000" transform="translate(338.5, 137.5)"><g id="tx_streamli_hzn82t1pcy96z-fill" stroke="none" fill="#484848"><g><text style="font: 15px Arial, Helvetica, sans-serif; white-space: pre;" font-size="15px" font-family="Arial, Helvetica, sans-serif"><tspan x="22.03" y="30" dominant-baseline="ideographic">Streamlines valuation processes</tspan></text></g></g></g><g id="g-root-tx_2_18lxrqd1pcy96u-fill" data-item-order="4000000000" transform="translate(446.5, 203.5)"><g id="tx_2_18lxrqd1pcy96u-fill" stroke="none" fill="#ffffff"><g><text style="font: bold 30px Arial, Helvetica, sans-serif; white-space: pre;" font-weight="bold" font-size="30px" font-family="Arial, Helvetica, sans-serif"><tspan x="13.66" y="44.5" dominant-baseline="ideographic">2</tspan></text></g></g></g><g id="g-root-tx_financia_vah9d11pcyars-fill" data-item-order="4000000000" transform="translate(662.5, 215.5)"><g id="tx_financia_vah9d11pcyars-fill" stroke="none" fill="#484848"><g><text style="font: bold 20px Arial, Helvetica, sans-serif; white-space: pre;" font-weight="bold" font-size="20px" font-family="Arial, Helvetica, sans-serif"><tspan x="12" y="33" dominant-baseline="ideographic">Financial </tspan><tspan x="12" y="57" dominant-baseline="ideographic">Transparency</tspan></text></g></g></g><g id="g-root-tx_marketin_djtpyd1pcy9z8-fill" data-item-order="4000000000" transform="translate(62.5, 239.5)"><g id="tx_marketin_djtpyd1pcy9z8-fill" stroke="none" fill="#484848"><g><text style="font: bold 20px Arial, Helvetica, sans-serif; white-space: pre;" font-weight="bold" font-size="20px" font-family="Arial, Helvetica, sans-serif"><tspan x="53.3" y="33" dominant-baseline="ideographic">Market Insights</tspan></text></g></g></g><g id="g-root-tx_provides_djtpyd1pcy9z9-fill" data-item-order="4000000000" transform="translate(62.5, 275.5)"><g id="tx_provides_djtpyd1pcy9z9-fill" stroke="none" fill="#484848"><g><text style="font: 15px Arial, Helvetica, sans-serif; white-space: pre;" font-size="15px" font-family="Arial, Helvetica, sans-serif"><tspan x="19.07" y="27" dominant-baseline="ideographic">Provides actionable market </tspan><tspan x="170.8" y="45" dominant-baseline="ideographic">data</tspan></text></g></g></g><g id="g-root-tx_1_zqarhh1pcy9zj-fill" data-item-order="4000000000" transform="translate(302.5, 263.5)"><g id="tx_1_zqarhh1pcy9zj-fill" stroke="none" fill="#ffffff"><g><text style="font: bold 30px Arial, Helvetica, sans-serif; white-space: pre;" font-weight="bold" font-size="30px" font-family="Arial, Helvetica, sans-serif"><tspan x="13.66" y="44.5" dominant-baseline="ideographic">1</tspan></text></g></g></g><g id="g-root-tx_3_1d14srp1pcybkd-fill" data-item-order="4000000000" transform="translate(590.5, 263.5)"><g id="tx_3_1d14srp1pcybkd-fill" stroke="none" fill="#ffffff"><g><text style="font: bold 30px Arial, Helvetica, sans-serif; white-space: pre;" font-weight="bold" font-size="30px" font-family="Arial, Helvetica, sans-serif"><tspan x="13.66" y="44.5" dominant-baseline="ideographic">3</tspan></text></g></g></g><g id="g-root-tx_ensuresa_vah9d11pcyart-fill" data-item-order="4000000000" transform="translate(662.5, 275.5)"><g id="tx_ensuresa_vah9d11pcyart-fill" stroke="none" fill="#484848"><g><text style="font: 15px Arial, Helvetica, sans-serif; white-space: pre;" font-size="15px" font-family="Arial, Helvetica, sans-serif"><tspan x="12" y="27" dominant-baseline="ideographic">Ensures accurate financial </tspan><tspan x="12" y="45" dominant-baseline="ideographic">records</tspan></text></g></g></g><g id="g-root-tx_supplyva_1lwrt0l1pcyaro-fill" data-item-order="4000000000" transform="translate(386.5, 461.5)"><g id="tx_supplyva_1lwrt0l1pcyaro-fill" stroke="none" fill="#ffffff"><g><text style="font: bold 20px Arial, Helvetica, sans-serif; white-space: pre;" font-weight="bold" font-size="20px" font-family="Arial, Helvetica, sans-serif"><tspan x="48.66" y="33" dominant-baseline="ideographic">Supply </tspan><tspan x="13.1" y="57" dominant-baseline="ideographic">Valuation Pool</tspan></text></g></g></g><g id="g-root-tx_supplyva_749et1pcy9dv-fill" data-item-order="4000000000" transform="translate(146.5, 595.5)"><g id="tx_supplyva_749et1pcy9dv-fill" stroke="none" fill="#484848"><g><text style="font: bold 25px Arial, Helvetica, sans-serif; white-space: pre;" font-weight="bold" font-size="25px" font-family="Arial, Helvetica, sans-serif"><tspan x="13.13" y="42" dominant-baseline="ideographic">Supply valuation pool enhances financial accuracy</tspan></text></g></g></g><g id="g-root-3.g-3_fr_hxrsth1pcya6b-stroke" data-item-order="3999500064" transform="translate(458.68927001953125, 239.5)"><g id="3.g-3_fr_hxrsth1pcya6b-stroke" fill="none" stroke-linecap="butt" stroke-linejoin="miter" stroke-miterlimit="4" stroke="#95bdff" stroke-width="1"><g><path d="M 111.81073 52C 111.810731 75.19596 130.614771 94.000001 153.810731 94.000001C 177.00669 94.000001 195.810731 75.19596 195.810731 52.000001C 195.810731 28.804041 177.00669 10.000001 153.810731 10.000001C 130.614771 10.000001 111.810731 28.804041 111.810731 52.000001"></path></g></g><g id="3.g-3_fr_hxrsth1pcya6b-stroke" fill="none" stroke-linecap="butt" stroke-linejoin="miter" stroke-miterlimit="4" stroke="#95bdff" stroke-width="1"><g><path d="M 99.023129 91.609512C 99.023129 91.609512 53.810729 110.500112 32.310729 129.500112C 22.382229 138.274212 11.552629 154.853212 10.000029 171.500112"></path></g></g><g id="3.g-3_fr_hxrsth1pcya6b-stroke" fill="none" stroke-linecap="butt" stroke-linejoin="miter" stroke-miterlimit="4" stroke="#95bdff" stroke-width="1"><g><path d="M 97.81073 88C 97.81073 91.313709 100.497022 94 103.81073 94C 107.124439 94 109.81073 91.313709 109.81073 88C 109.81073 84.686292 107.124439 82 103.81073 82C 100.497022 82 97.81073 84.686292 97.81073 88"></path></g></g></g><g id="g-root-2.g-2_fr_924skl1pcyaz1-stroke" data-item-order="3999500070" transform="translate(416.5, 179.5)"><g id="2.g-2_fr_924skl1pcyaz1-stroke" fill="none" stroke-linecap="butt" stroke-linejoin="miter" stroke-miterlimit="4" stroke="#4e8bef" stroke-width="1"><g><path d="M 10 52C 10.000001 75.19596 28.804041 94.000001 52.000001 94.000001C 75.19596 94.000001 94.000001 75.19596 94.000001 52.000001C 94.000001 28.804041 75.19596 10.000001 52.000001 10.000001C 28.804041 10.000001 10.000001 28.804041 10.000001 52.000001"></path></g></g><g id="2.g-2_fr_924skl1pcyaz1-stroke" fill="none" stroke-linecap="butt" stroke-linejoin="miter" stroke-miterlimit="4" stroke="#4e8bef" stroke-width="1"><g><path d="M 52.00069 118L 52.00069 231.5"></path></g></g><g id="2.g-2_fr_924skl1pcyaz1-stroke" fill="none" stroke-linecap="butt" stroke-linejoin="miter" stroke-miterlimit="4" stroke="#4e8bef" stroke-width="1"><g><path d="M 46 112C 46 115.313709 48.686292 118 52 118C 55.313709 118 58 115.313709 58 112C 58 108.686292 55.313709 106 52 106C 48.686292 106 46 108.686292 46 112"></path></g></g></g><g id="g-root-1.g-1_fr_4mxrj91pcy8lj-stroke" data-item-order="3999500076" transform="translate(272.5, 239.5)"><g id="1.g-1_fr_4mxrj91pcy8lj-stroke" fill="none" stroke-linecap="butt" stroke-linejoin="miter" stroke-miterlimit="4" stroke="#4371bd" stroke-width="1"><g><path d="M 10 52C 10.000001 75.19596 28.804041 94.000001 52.000001 94.000001C 75.19596 94.000001 94.000001 75.19596 94.000001 52.000001C 94.000001 28.804041 75.19596 10.000001 52.000001 10.000001C 28.804041 10.000001 10.000001 28.804041 10.000001 52.000001"></path></g></g><g id="1.g-1_fr_4mxrj91pcy8lj-stroke" fill="none" stroke-linecap="butt" stroke-linejoin="miter" stroke-miterlimit="4" stroke="#4371bd" stroke-width="1"><g><path d="M 106.5 91.5C 106.5 91.5 152.2124 110.5 173.7124 129.5C 183.641 138.2741 194.4705 154.853 196.0231 171.5"></path></g></g><g id="1.g-1_fr_4mxrj91pcy8lj-stroke" fill="none" stroke-linecap="butt" stroke-linejoin="miter" stroke-miterlimit="4" stroke="#4371bd" stroke-width="1"><g><path d="M 95 88C 95 91.3137 97.6863 94 101 94C 104.3137 94 107 91.3137 107 88C 107 84.6863 104.3137 82 101 82C 97.6863 82 95 84.6863 95 88Z"></path></g></g></g><g id="g-root-0.g-0_fr_4mxrj91pcy8lm-stroke" data-item-order="3999500082" transform="translate(374.5, 400.5)"><g id="0.g-0_fr_4mxrj91pcy8lm-stroke" fill="none" stroke-linecap="butt" stroke-linejoin="miter" stroke-miterlimit="4" stroke="#ffffff" stroke-width="1"><g><path d="M 10 94C 10.000002 140.391921 47.608083 178.000002 94.000002 178.000002C 140.391921 178.000002 178.000002 140.391921 178.000002 94.000002C 178.000002 47.608083 140.391921 10.000002 94.000002 10.000002C 47.608083 10.000002 10.000002 47.608083 10.000002 94.000002"></path></g></g></g><g id="g-root-tx_operatio_qunr8l1pcybk2-stroke" data-item-order="4000000000" transform="translate(338.5, 101.5)"></g><g id="g-root-tx_streamli_hzn82t1pcy96z-stroke" data-item-order="4000000000" transform="translate(338.5, 137.5)"></g><g id="g-root-tx_2_18lxrqd1pcy96u-stroke" data-item-order="4000000000" transform="translate(446.5, 203.5)"></g><g id="g-root-tx_financia_vah9d11pcyars-stroke" data-item-order="4000000000" transform="translate(662.5, 215.5)"></g><g id="g-root-tx_marketin_djtpyd1pcy9z8-stroke" data-item-order="4000000000" transform="translate(62.5, 239.5)"></g><g id="g-root-tx_provides_djtpyd1pcy9z9-stroke" data-item-order="4000000000" transform="translate(62.5, 275.5)"></g><g id="g-root-tx_1_zqarhh1pcy9zj-stroke" data-item-order="4000000000" transform="translate(302.5, 263.5)"></g><g id="g-root-tx_3_1d14srp1pcybkd-stroke" data-item-order="4000000000" transform="translate(590.5, 263.5)"></g><g id="g-root-tx_ensuresa_vah9d11pcyart-stroke" data-item-order="4000000000" transform="translate(662.5, 275.5)"></g><g id="g-root-tx_supplyva_1lwrt0l1pcyaro-stroke" data-item-order="4000000000" transform="translate(386.5, 461.5)"></g><g id="g-root-tx_supplyva_749et1pcy9dv-stroke" data-item-order="4000000000" transform="translate(146.5, 595.5)"></g></g></g></svg>