<?xml version="1.0" encoding="utf-8" standalone="yes"?>
<!DOCTYPE svg PUBLIC "-//W3C//DTD SVG 1.1//EN" "http://www.w3.org/Graphics/SVG/1.1/DTD/svg11.dtd">
<svg width="938" height="597" viewBox="0 0 938 597" style="fill:none;stroke:none;fill-rule:evenodd;clip-rule:evenodd;stroke-linecap:round;stroke-linejoin:round;stroke-miterlimit:1.5;" version="1.1" xmlns="http://www.w3.org/2000/svg" xmlns:xlink="http://www.w3.org/1999/xlink"><style class="text-font-style fontImports" data-font-family="Roboto">@import url('https://fonts.googleapis.com/css2?family=Roboto:wght@400;700&amp;display=block');</style><g id="items" style="isolation: isolate"><g id="blend" style="mix-blend-mode: normal"><g id="g-root-0.g-0_fr_18k29cl1mv64ud-fill" data-item-order="4999552457" transform="translate(85.208984375, 84.23876953125)"></g><g id="g-root-4.g-4_fr_zof93p1mv65n3-fill" data-item-order="4999552460" transform="translate(490.0789794921875, 312.23876953125)"><g id="4.g-4_fr_zof93p1mv65n3-fill" stroke="none" fill="#de8431"><g><path d="M 55.031099 82L 96.601099 82L 117.381099 46L 96.601099 10L 55.031099 10L 34.251099 46L 55.031099 82ZM 217.952099 79L 207.582099 79L 202.392099 87.98L 207.582099 96.96L 217.952099 96.96L 223.132099 87.98L 217.952099 79Z"></path></g></g></g><g id="g-root-3.g-3_fr_1448r851mv65mp-fill" data-item-order="4999552466" transform="translate(214.20895385742188, 312.23876953125)"><g id="3.g-3_fr_1448r851mv65mp-fill" stroke="none" fill="#e0cb15"><g><path d="M 193.099719 82L 151.529719 82L 130.749719 46L 151.529719 10L 193.099719 10L 213.879719 46L 193.099719 82ZM 40.821719 79L 30.451719 79L 25.261719 87.98L 30.451719 96.96L 40.821719 96.96L 46.001719 87.98L 40.821719 79Z"></path></g></g></g><g id="g-root-2.g-2_fr_v8lqz91mv66ff-fill" data-item-order="4999552472" transform="translate(490.0789794921875, 108.23876953125)"><g id="2.g-2_fr_v8lqz91mv66ff-fill" stroke="none" fill="#3cc583"><g><path d="M 55.031099 94L 96.601099 94L 117.381099 130L 96.601099 166L 55.031099 166L 34.251099 130L 55.031099 94ZM 217.952099 79L 207.582099 79L 202.392099 87.98L 207.582099 96.96L 217.952099 96.96L 223.132099 87.98L 217.952099 79Z"></path></g></g></g><g id="g-root-1.g-1_fr_qtepxx1mv641x-fill" data-item-order="4999552478" transform="translate(214.20895385742188, 108.23876953125)"><g id="1.g-1_fr_qtepxx1mv641x-fill" stroke="none" fill="#4e88e7"><g><path d="M 193.099719 94L 151.529719 94L 130.749719 130L 151.529719 166L 193.099719 166L 213.879719 130L 193.099719 94ZM 40.821719 79L 30.451719 79L 25.261719 87.98L 30.451719 96.96L 40.821719 96.96L 46.001719 87.98L 40.821719 79Z"></path></g></g></g><g id="g-root-tx_primaryp_9592vp1mvelfk-fill" data-item-order="5000000000" transform="translate(46.208984375, 150.23876953125)"><g id="tx_primaryp_9592vp1mvelfk-fill" stroke="none" fill="#4e88e7"><g><text style="font: bold 20px Roboto, sans-serif; white-space: pre;" font-weight="bold" font-size="20px" font-family="Roboto, sans-serif"><tspan x="24.17" y="33.5" dominant-baseline="ideographic">Primary Paths</tspan></text></g></g></g><g id="g-root-tx_capacity_m9udat1mvbsao-fill" data-item-order="5000000000" transform="translate(742.208984375, 138.23876953125)"><g id="tx_capacity_m9udat1mvbsao-fill" stroke="none" fill="#3cc583"><g><text style="font: bold 20px Roboto, sans-serif; white-space: pre;" font-weight="bold" font-size="20px" font-family="Roboto, sans-serif"><tspan x="12" y="33.5" dominant-baseline="ideographic">Capacity</tspan></text></g></g></g><g id="g-root-tx_originan_9m2mt1mvem89-fill" data-item-order="5000000000" transform="translate(46.208984375, 186.23876953125)"><g id="tx_originan_9m2mt1mvem89-fill" stroke="none" fill="#3a4455"><g><text style="font: 15px Roboto, sans-serif; white-space: pre;" font-size="15px" font-family="Roboto, sans-serif"><tspan x="83.97" y="27.5" dominant-baseline="ideographic">Origin and </tspan><tspan x="32.17" y="45.5" dominant-baseline="ideographic">destination points</tspan></text></g></g></g><g id="g-root-tx_maximumd_de7d1x1mvbt3d-fill" data-item-order="5000000000" transform="translate(742.208984375, 174.23876953125)"><g id="tx_maximumd_de7d1x1mvbt3d-fill" stroke="none" fill="#374840"><g><text style="font: 15px Roboto, sans-serif; white-space: pre;" font-size="15px" font-family="Roboto, sans-serif"><tspan x="12" y="30.5" dominant-baseline="ideographic">Maximum daily </tspan><tspan x="12" y="48.5" dominant-baseline="ideographic">transportable </tspan><tspan x="12" y="66.5" dominant-baseline="ideographic">volume</tspan></text></g></g></g><g id="g-root-tx_1_hu0yc51muuxhd-fill" data-item-order="5000000000" transform="translate(364.208984375, 210.23876953125)"><g id="tx_1_hu0yc51muuxhd-fill" stroke="none" fill="#ffffff"><g><text style="font: bold 30px Roboto, sans-serif; white-space: pre;" font-weight="bold" font-size="30px" font-family="Roboto, sans-serif"><tspan x="13.39" y="45.5" dominant-baseline="ideographic">1</tspan></text></g></g></g><g id="g-root-tx_2_145hped1mveln3-fill" data-item-order="5000000000" transform="translate(544.208984375, 210.23876953125)"><g id="tx_2_145hped1mveln3-fill" stroke="none" fill="#ffffff"><g><text style="font: bold 30px Roboto, sans-serif; white-space: pre;" font-weight="bold" font-size="30px" font-family="Roboto, sans-serif"><tspan x="13.39" y="45.5" dominant-baseline="ideographic">2</tspan></text></g></g></g><g id="g-root-dash_8z0c0l1mvbqpv-fill" data-item-order="5000000000" transform="translate(586.208984375, 132.23876953125)"></g><g id="g-root-1_1ulji6t1mvfy82-fill" data-item-order="5000000000" transform="translate(298.208984375, 132.23876953125)"></g><g id="g-root-tx_termsand_924pg51mv7kli-fill" data-item-order="5000000000" transform="translate(46.208984375, 342.23876953125)"><g id="tx_termsand_924pg51mv7kli-fill" stroke="none" fill="#e0cb15"><g><text style="font: bold 20px Roboto, sans-serif; white-space: pre;" font-weight="bold" font-size="20px" font-family="Roboto, sans-serif"><tspan x="56.63" y="33.5" dominant-baseline="ideographic">Terms and </tspan><tspan x="55.01" y="57.5" dominant-baseline="ideographic">Conditions</tspan></text></g></g></g><g id="g-root-tx_3_1useq511mv7itk-fill" data-item-order="5000000000" transform="translate(364.208984375, 330.23876953125)"><g id="tx_3_1useq511mv7itk-fill" stroke="none" fill="#ffffff"><g><text style="font: bold 30px Roboto, sans-serif; white-space: pre;" font-weight="bold" font-size="30px" font-family="Roboto, sans-serif"><tspan x="13.39" y="45.5" dominant-baseline="ideographic">3</tspan></text></g></g></g><g id="g-root-tx_4_mdl7th1mv7j0l-fill" data-item-order="5000000000" transform="translate(544.208984375, 330.23876953125)"><g id="tx_4_mdl7th1mv7j0l-fill" stroke="none" fill="#ffffff"><g><text style="font: bold 30px Roboto, sans-serif; white-space: pre;" font-weight="bold" font-size="30px" font-family="Roboto, sans-serif"><tspan x="13.39" y="45.5" dominant-baseline="ideographic">4</tspan></text></g></g></g><g id="g-root-tx_transpor_hxrpp11mv64un-fill" data-item-order="5000000000" transform="translate(303, 517.8955078125)"><g id="tx_transpor_hxrpp11mv64un-fill" stroke="none" fill="#484848"><g><text style="font: 20px Roboto, sans-serif; white-space: pre;" font-size="20px" font-family="Roboto, sans-serif"><tspan x="21.34" y="45.5" dominant-baseline="ideographic">Key aspects of Transport Contracts</tspan></text></g></g></g><g id="g-root-tx_guidelin_6hp791mv7le7-fill" data-item-order="5000000000" transform="translate(46.208984375, 402.23876953125)"><g id="tx_guidelin_6hp791mv7le7-fill" stroke="none" fill="#46432d"><g><text style="font: 15px Roboto, sans-serif; white-space: pre;" font-size="15px" font-family="Roboto, sans-serif"><tspan x="59.6" y="27.5" dominant-baseline="ideographic">Guidelines for </tspan><tspan x="29.25" y="45.5" dominant-baseline="ideographic">delivery schedules</tspan></text></g></g></g><g id="g-root-edit_1qcl80l1mv7jlt-fill" data-item-order="5000000000" transform="translate(298.208984375, 396.23876953125)"></g><g id="g-root-doll_924pg51mv66f6-fill" data-item-order="5000000000" transform="translate(586.208984375, 396.23876953125)"></g><g id="g-root-tx_costsbas_924pg51mv66f5-fill" data-item-order="5000000000" transform="translate(742.208984375, 390.23876953125)"><g id="tx_costsbas_924pg51mv66f5-fill" stroke="none" fill="#4c4034"><g><text style="font: 15px Roboto, sans-serif; white-space: pre;" font-size="15px" font-family="Roboto, sans-serif"><tspan x="12" y="27.5" dominant-baseline="ideographic">Costs based on </tspan><tspan x="12" y="45.5" dominant-baseline="ideographic">various factors</tspan></text></g></g></g><g id="g-root-tx_feesandr_dhy7kl1mv65mw-fill" data-item-order="5000000000" transform="translate(742.208984375, 354.23876953125)"><g id="tx_feesandr_dhy7kl1mv65mw-fill" stroke="none" fill="#de8431"><g><text style="font: bold 20px Roboto, sans-serif; white-space: pre;" font-weight="bold" font-size="20px" font-family="Roboto, sans-serif"><tspan x="12" y="33.5" dominant-baseline="ideographic">Fees and Rates</tspan></text></g></g></g><g id="g-root-0.g-0_fr_18k29cl1mv64ud-stroke" data-item-order="4999552457" transform="translate(85.208984375, 84.23876953125)"><g id="0.g-0_fr_18k29cl1mv64ud-stroke" fill="none" stroke-linecap="round" stroke-linejoin="round" stroke-miterlimit="4" stroke="#484848" stroke-width="2" stroke-dasharray="5.0, 7.0"><g><path d="M 778 214L 394.1143 214M 394.1143 214L 10 214M 394.1143 214L 394.1143 10M 394.1143 214L 394.1143 418"></path></g></g></g><g id="g-root-4.g-4_fr_zof93p1mv65n3-stroke" data-item-order="4999552460" transform="translate(490.0789794921875, 312.23876953125)"><g id="4.g-4_fr_zof93p1mv65n3-stroke" fill="none" stroke-linecap="round" stroke-linejoin="round" stroke-miterlimit="4" stroke="#484848" stroke-width="2"><g><path d="M 55.0311 82L 96.6011 82L 117.3811 46L 96.6011 10L 55.0311 10L 34.2511 46L 55.0311 82ZM 217.9517 79L 207.5817 79L 202.3917 87.98L 207.5817 96.96L 217.9517 96.96L 223.1317 87.98L 217.9517 79ZM 55.03 166L 145.1 166L 190.13 88L 145.1 10L 55.03 10L 10 88L 55.03 166ZM 238.13 88L 223.13 88M 238.13 58L 238.13 118"></path></g></g></g><g id="g-root-3.g-3_fr_1448r851mv65mp-stroke" data-item-order="4999552466" transform="translate(214.20895385742188, 312.23876953125)"><g id="3.g-3_fr_1448r851mv65mp-stroke" fill="none" stroke-linecap="round" stroke-linejoin="round" stroke-miterlimit="4" stroke="#484848" stroke-width="2"><g><path d="M 193.1 166L 103.03 166L 58 88L 103.03 10L 193.1 10L 238.13 88L 193.1 166ZM 193.1 82L 151.53 82L 130.75 46L 151.53 10L 193.1 10L 213.88 46L 193.1 82ZM 40.82 79L 30.45 79L 25.26 87.98L 30.45 96.96L 40.82 96.96L 46 87.98L 40.82 79ZM 25 88L 10 88M 10 58L 10 118"></path></g></g></g><g id="g-root-2.g-2_fr_v8lqz91mv66ff-stroke" data-item-order="4999552472" transform="translate(490.0789794921875, 108.23876953125)"><g id="2.g-2_fr_v8lqz91mv66ff-stroke" fill="none" stroke-linecap="round" stroke-linejoin="round" stroke-miterlimit="4" stroke="#484848" stroke-width="2"><g><path d="M 55.03 10L 145.1 10L 190.13 88L 145.1 166L 55.03 166L 10 88L 55.03 10ZM 55.03 94L 96.6 94L 117.38 130L 96.6 166L 55.03 166L 34.25 130L 55.03 94ZM 217.95 79L 207.58 79L 202.39 87.98L 207.58 96.96L 217.95 96.96L 223.13 87.98L 217.95 79ZM 238.13 88L 223.13 88M 238.13 58L 238.13 118"></path></g></g></g><g id="g-root-1.g-1_fr_qtepxx1mv641x-stroke" data-item-order="4999552478" transform="translate(214.20895385742188, 108.23876953125)"><g id="1.g-1_fr_qtepxx1mv641x-stroke" fill="none" stroke-linecap="round" stroke-linejoin="round" stroke-miterlimit="4" stroke="#484848" stroke-width="2"><g><path d="M 193.1 94L 151.53 94L 130.75 130L 151.53 166L 193.1 166L 213.88 130L 193.1 94ZM 40.8217 79L 30.4517 79L 25.2617 87.98L 30.4517 96.96L 40.8217 96.96L 46.0017 87.98L 40.8217 79ZM 193.1 10L 103.03 10L 58 88L 103.03 166L 193.1 166L 238.13 88L 193.1 10ZM 25 88L 10 88M 10 58L 10 118"></path></g></g></g><g id="g-root-tx_primaryp_9592vp1mvelfk-stroke" data-item-order="5000000000" transform="translate(46.208984375, 150.23876953125)"></g><g id="g-root-tx_capacity_m9udat1mvbsao-stroke" data-item-order="5000000000" transform="translate(742.208984375, 138.23876953125)"></g><g id="g-root-tx_originan_9m2mt1mvem89-stroke" data-item-order="5000000000" transform="translate(46.208984375, 186.23876953125)"></g><g id="g-root-tx_maximumd_de7d1x1mvbt3d-stroke" data-item-order="5000000000" transform="translate(742.208984375, 174.23876953125)"></g><g id="g-root-tx_1_hu0yc51muuxhd-stroke" data-item-order="5000000000" transform="translate(364.208984375, 210.23876953125)"></g><g id="g-root-tx_2_145hped1mveln3-stroke" data-item-order="5000000000" transform="translate(544.208984375, 210.23876953125)"></g><g id="g-root-dash_8z0c0l1mvbqpv-stroke" data-item-order="5000000000" transform="translate(586.208984375, 132.23876953125)"><g id="dash_8z0c0l1mvbqpv-stroke" fill="none" stroke-linecap="round" stroke-linejoin="round" stroke-miterlimit="4" stroke="#3cc583" stroke-width="2"><g><path d="M 31 38C 31 39.656853 32.343147 41 34 41C 35.656853 41 37 39.656853 37 38C 37 36.343147 35.656853 35 34 35C 32.343147 35 31 36.343147 31 38ZM 36.120003 35.877998L 46.021999 25.98M 15 39L 19 39M 53 39L 49 39M 51.551998 30.73L 47.858002 32.260002M 41.27 20.445999L 39.739998 24.142M 34 19L 34 23M 26.73 20.445999L 28.26 24.142M 20.566 24.563999L 23.389999 27.393999M 16.448 30.73L 20.139999 32.260002M 34 15C 21.297451 15 11 25.297451 11 38L 11 45C 11 46.104568 11.895431 47 13 47L 55 47C 56.104568 47 57 46.104568 57 45L 57 38C 57 25.297451 46.702549 15 34 15Z"></path></g></g></g><g id="g-root-1_1ulji6t1mvfy82-stroke" data-item-order="5000000000" transform="translate(298.208984375, 132.23876953125)"><g id="1_1ulji6t1mvfy82-stroke" fill="none" stroke-linecap="round" stroke-linejoin="round" stroke-miterlimit="4" stroke="#4e88e7" stroke-width="2"><g><path d="M 15 11L 53 11C 53 11 57 11 57 15L 57 53C 57 53 57 57 53 57L 15 57C 15 57 11 57 11 53L 11 15C 11 15 11 11 15 11M 11 26L 17.992001 26M 11 45L 21 45M 42 11L 42 20M 44 32L 44 41M 26 11L 26 20M 21 45C 21 47.761425 23.238577 50 26 50C 28.761423 50 31 47.761425 31 45C 31 42.238575 28.761423 40 26 40C 23.238577 40 21 42.238575 21 45M 46 32L 26 32L 17.992001 26L 26 20L 46 20L 46 32ZM 39.5 41L 47.5 41L 47.5 49L 39.5 49ZM 31 45L 39.5 45M 47.5 45L 57 45M 44 49L 44 57M 26 32L 26 40M 26 50L 26 57M 46 26L 57 26"></path></g></g></g><g id="g-root-tx_termsand_924pg51mv7kli-stroke" data-item-order="5000000000" transform="translate(46.208984375, 342.23876953125)"></g><g id="g-root-tx_3_1useq511mv7itk-stroke" data-item-order="5000000000" transform="translate(364.208984375, 330.23876953125)"></g><g id="g-root-tx_4_mdl7th1mv7j0l-stroke" data-item-order="5000000000" transform="translate(544.208984375, 330.23876953125)"></g><g id="g-root-tx_transpor_hxrpp11mv64un-stroke" data-item-order="5000000000" transform="translate(303, 517.8955078125)"></g><g id="g-root-tx_guidelin_6hp791mv7le7-stroke" data-item-order="5000000000" transform="translate(46.208984375, 402.23876953125)"></g><g id="g-root-edit_1qcl80l1mv7jlt-stroke" data-item-order="5000000000" transform="translate(298.208984375, 396.23876953125)"><g id="edit_1qcl80l1mv7jlt-stroke" fill="none" stroke-linecap="round" stroke-linejoin="round" stroke-miterlimit="4" stroke="#e0cb15" stroke-width="2"><g><path d="M 27 57L 13 57C 11.895431 57 11 56.104568 11 55L 11 13C 11 11.895431 11.895431 11 13 11L 39.585999 11C 40.11639 11.000113 40.625015 11.210901 41 11.586L 48.414001 19C 48.789101 19.374985 48.999886 19.88361 49 20.414L 49 27M 17 27.542L 19.166 29.705999C 19.373581 29.913752 19.661993 30.019751 19.954704 29.995872C 20.247417 29.971992 20.514835 29.82065 20.686001 29.582001L 25 23.542M 31 27L 39 27M 17 37.542L 19.166 39.706001C 19.373581 39.91375 19.661993 40.019753 19.954704 39.995872C 20.247417 39.971992 20.514835 39.820648 20.686001 39.582001L 25 33.542M 31 37L 39 37M 55.759998 40.237999L 40.5 55.5L 33 57L 34.5 49.5L 49.759998 34.237999C 51.41259 32.585938 54.091408 32.585938 55.743999 34.237999L 55.759998 34.256001C 56.554218 35.048752 57.000534 36.12484 57.000534 37.246998C 57.000534 38.36916 56.554218 39.445244 55.759998 40.237999Z"></path></g></g></g><g id="g-root-doll_924pg51mv66f6-stroke" data-item-order="5000000000" transform="translate(586.208984375, 396.23876953125)"><g id="doll_924pg51mv66f6-stroke" fill="none" stroke-linecap="round" stroke-linejoin="round" stroke-miterlimit="4" stroke="#de8431" stroke-width="2"><g><path d="M 25.428572 46L 38.628574 46C 41.548523 46.01215 43.997971 43.799973 44.282356 40.893879C 44.566746 37.987785 42.592628 35.34272 39.725716 34.78857L 28.274286 33.21143C 25.407375 32.65728 23.433254 30.012215 23.717644 27.106121C 24.002031 24.200029 26.451479 21.987852 29.371429 22L 42.57143 22M 34 56.285713L 34 11.714286"></path></g></g></g><g id="g-root-tx_costsbas_924pg51mv66f5-stroke" data-item-order="5000000000" transform="translate(742.208984375, 390.23876953125)"></g><g id="g-root-tx_feesandr_dhy7kl1mv65mw-stroke" data-item-order="5000000000" transform="translate(742.208984375, 354.23876953125)"></g></g></g></svg>