<svg width="54" height="56" viewBox="0 0 54 56" fill="none" xmlns="http://www.w3.org/2000/svg">
<g clip-path="url(#clip0_0_1807)">
<path d="M18.127 56C17.8507 55.7632 17.4896 55.7924 17.1695 55.7047C13.4626 54.6874 10.868 51.4365 10.7204 47.6068C10.6839 46.6654 11.0946 46.224 12.0477 46.2167C13.505 46.2065 14.9638 46.2079 16.4211 46.2167C17.3011 46.2225 17.6227 46.5193 17.7484 47.3963C17.8916 48.3873 18.6181 49.0437 19.5039 48.9823C20.4292 48.918 21.0782 48.1754 21.0782 47.1566C21.0811 41.507 21.0723 35.8575 21.0928 30.2079C21.0942 29.7358 20.8955 29.7402 20.5505 29.7402C14.3002 29.7475 8.04984 29.7446 1.79952 29.7446C0.653535 29.7446 0.293951 29.3777 0.315877 28.2361C0.52198 17.6824 7.38915 8.5613 17.4794 5.43029C19.4381 4.82221 21.4509 4.53864 23.4842 4.36908C24.2136 4.36908 24.9444 4.36908 25.6738 4.36908C28.3736 4.5708 31.0252 5.01955 33.532 6.08075C41.3859 9.40617 46.3353 15.2077 48.3086 23.5176C48.6842 25.0992 48.8363 26.713 48.8553 28.3398C48.867 29.3733 48.4928 29.7475 47.4403 29.7475C41.2251 29.7475 35.0098 29.7548 28.7946 29.7358C28.2538 29.7343 28.071 29.8308 28.074 30.4257C28.1003 35.9116 28.014 41.4003 28.112 46.8847C28.2011 51.8429 24.5629 55.4299 20.644 55.9079C20.6031 55.9123 20.568 55.9693 20.5315 56.0015H18.1255L18.127 56ZM14.5282 27.5359C14.8746 27.5432 15.221 27.5359 15.5646 27.5622C15.8686 27.5856 15.9227 27.4409 15.93 27.1749C15.9548 26.1911 15.987 25.2074 16.0425 24.2251C16.2457 20.6907 16.7222 17.1957 17.6329 13.7694C18.2614 11.4073 19.0683 9.11529 20.4409 7.0338C20.3429 7.01626 20.2888 6.99141 20.2421 7.00164C17.0219 7.66088 14.0721 8.92526 11.46 10.9395C11.3548 11.0082 11.2422 11.0681 11.1428 11.1456C7.92998 13.6291 5.56346 16.7572 4.05496 20.5255C3.21155 22.6318 2.70871 24.8215 2.56839 27.093C2.54646 27.4511 2.63417 27.5783 3.00398 27.5637C3.69538 27.5388 4.38677 27.5578 5.07963 27.5564C8.22818 27.5491 11.3782 27.5417 14.5267 27.5344L14.5282 27.5359ZM24.5951 27.5578C26.5991 27.5578 28.6031 27.5578 30.6086 27.5578C30.8688 27.5578 31.0837 27.6017 31.0749 27.1851C30.9769 22.7648 30.5297 18.3914 29.3734 14.1129C28.7931 11.9656 28.0754 9.86223 26.7365 8.04531C25.2835 6.07491 23.8993 6.0866 22.4361 8.05408C21.5255 9.279 20.9188 10.6618 20.4335 12.0943C18.776 16.991 18.2307 22.0618 18.108 27.1968C18.0992 27.5534 18.26 27.5622 18.5289 27.5607C20.5519 27.5534 22.5735 27.5564 24.5965 27.5564L24.5951 27.5578ZM28.7303 6.96948C29.0855 7.60095 29.4129 8.12717 29.6848 8.6797C31.3555 12.0884 32.139 15.7457 32.6682 19.4701C33.0277 21.9974 33.2236 24.5394 33.247 27.093C33.2499 27.3736 33.2631 27.5681 33.6475 27.5666C37.8573 27.5549 42.067 27.5549 46.2768 27.5651C46.6159 27.5651 46.67 27.4467 46.6247 27.1442C46.5194 26.4235 46.4858 25.6912 46.3499 24.9779C44.8341 17.0451 40.3393 11.4789 32.9707 8.22364C31.6406 7.63603 30.2446 7.23113 28.7303 6.96948ZM25.9033 39.0294C25.9033 36.1147 25.896 33.2001 25.9121 30.2854C25.9135 29.8805 25.8448 29.6949 25.3873 29.7358C24.8991 29.7796 24.4007 29.7826 23.9139 29.7358C23.4038 29.6876 23.2503 29.822 23.2517 30.3702C23.2751 36.0168 23.2722 41.6649 23.262 47.313C23.2591 49.0437 22.1584 50.4922 20.53 50.9936C18.9484 51.4804 17.0891 50.9746 16.3217 49.5246C15.756 48.4546 15.0544 48.2777 14.0473 48.4064C13.8865 48.4268 13.7169 48.4283 13.5561 48.4064C13.0869 48.3406 13.008 48.5408 13.1132 48.9574C13.7783 51.6163 16.3027 53.6817 19.0537 53.803C22.8205 53.9697 25.8799 51.0652 25.9004 47.2823C25.915 44.5313 25.9033 41.7804 25.9033 39.0294Z" fill="#193461"/>
<path d="M41.514 33C47.1739 33.0682 51.5944 37.0521 51.671 43.2042C51.7413 48.7697 47.0931 53.3245 41.4888 53.3182C35.8845 53.3119 31.2836 48.7256 31.3161 43.179C31.3507 37.3691 35.7376 32.9895 41.514 33ZM47.3765 49.4162C47.4667 49.4319 47.4982 49.3626 47.537 49.3039C49.2152 47.7181 49.9645 45.7073 50.0894 43.4613C50.2835 39.9655 48.2171 36.6543 44.9941 35.2648C42.5205 34.1985 40.05 34.2374 37.6256 35.4642C37.5795 35.481 37.5175 35.48 37.527 35.5555L37.5238 35.5387C37.4231 35.5209 37.3517 35.586 37.2741 35.6311C31.9279 38.7365 31.7527 45.4186 35.2464 49.0992C37.6697 51.6516 41.663 52.4114 44.9878 50.9967C45.8778 50.6178 46.7205 50.154 47.3848 49.4246L47.3765 49.4162Z" fill="#002E62"/>
<path d="M37.6244 35.4644C40.0487 34.2376 42.5192 34.1977 44.9929 35.265C48.2158 36.6556 50.2823 39.9657 50.0881 43.4615C49.9633 45.7074 49.2139 47.7183 47.5358 49.3041C47.4613 49.3114 47.3784 49.3061 47.3752 49.4163L47.3836 49.4247C47.2629 49.3513 47.159 49.4184 47.0499 49.4604C45.6299 50.0146 44.1575 50.1688 42.6651 49.9149C40.5084 49.5465 38.6854 48.5547 37.2508 46.8713C36.175 45.6077 35.5243 44.15 35.3606 42.5191C35.1266 40.1871 35.6387 38.0273 37.1175 36.1466C37.2655 35.9587 37.5016 35.817 37.5226 35.54L37.5257 35.5568C37.5835 35.5526 37.6118 35.5179 37.6244 35.4655V35.4644ZM38.5511 45.5427C38.5458 45.719 38.6424 45.8974 38.7925 46.0559C39.1199 46.4022 39.4851 46.7338 39.9375 46.8587C40.5441 47.0256 40.8421 47.3247 40.713 47.968C40.7078 47.9922 40.7204 48.0195 40.7246 48.0457C40.798 48.4561 41.1181 48.7426 41.5023 48.7415C41.9053 48.7415 42.2988 48.433 42.261 48.0048C42.2054 47.3677 42.5024 47.1578 43.0387 46.9102C44.5794 46.2007 44.9257 44.3756 43.8017 43.2359C43.4658 42.8948 43.0597 42.6618 42.6189 42.4845C42.0375 42.2504 41.454 42.0216 40.8768 41.7792C40.4255 41.5903 40.374 41.0844 40.7718 40.7958C40.967 40.6541 41.1948 40.5985 41.4351 40.587C42.0123 40.5576 42.5014 40.7811 42.9684 41.0949C43.3735 41.3678 43.8164 41.2954 44.0809 40.9375C44.3411 40.5859 44.2687 40.1304 43.894 39.8271C43.5446 39.5448 43.151 39.3213 42.7207 39.2142C42.3744 39.1271 42.2705 38.9792 42.2841 38.6276C42.3114 37.9087 42.0291 37.5393 41.5159 37.5298C40.9901 37.5204 40.6878 37.9087 40.7141 38.637C40.7267 38.9729 40.6312 39.1229 40.3079 39.2615C39.4264 39.6414 38.9541 40.3445 38.9352 41.3164C38.9184 42.2273 39.376 42.8665 40.3048 43.2569C40.7739 43.4542 41.2514 43.6326 41.7226 43.8247C42.0123 43.9422 42.3125 44.0429 42.5612 44.2445C42.9736 44.5782 42.9883 44.9854 42.5906 45.3422C42.2453 45.6518 41.8265 45.7284 41.3816 45.6697C40.8064 45.5951 40.309 45.3611 39.8976 44.9413C39.6447 44.6842 39.333 44.6128 38.9992 44.7734C38.7033 44.9161 38.5469 45.1596 38.5521 45.5427H38.5511Z" fill="#FECE3F"/>
<path d="M37.5226 35.5387C37.5016 35.8158 37.2655 35.9575 37.1175 36.1453C35.6388 38.026 35.1266 40.1859 35.3607 42.5179C35.5244 44.1488 36.1751 45.6065 37.2508 46.8701C38.6855 48.5535 40.5084 49.5463 42.6651 49.9136C44.1575 50.1686 45.63 50.0133 47.0499 49.4592C47.1591 49.4162 47.263 49.35 47.3837 49.4235C46.7193 50.1529 45.8766 50.6168 44.9866 50.9956C41.6618 52.4104 37.6675 51.6505 35.2452 49.0982C31.7525 45.4187 31.9267 38.7355 37.2729 35.63C37.3505 35.5849 37.4219 35.5198 37.5226 35.5377V35.5387Z" fill="#FECE3F"/>
<path d="M37.6246 35.4644C37.612 35.5169 37.5837 35.5516 37.526 35.5558C37.5165 35.4802 37.5785 35.4802 37.6246 35.4644Z" fill="#FB8E02"/>
<path d="M38.5509 45.5427C38.5467 45.1597 38.7021 44.9151 38.998 44.7735C39.3318 44.6129 39.6445 44.6842 39.8964 44.9414C40.3078 45.3612 40.8063 45.5952 41.3804 45.6697C41.8253 45.7274 42.2441 45.6519 42.5894 45.3423C42.9871 44.9854 42.9724 44.5782 42.56 44.2445C42.3113 44.0441 42.0122 43.9433 41.7214 43.8247C41.2502 43.6327 40.7727 43.4542 40.3036 43.2569C39.3737 42.8665 38.9162 42.2274 38.934 41.3164C38.9518 40.3446 39.4252 39.6414 40.3067 39.2615C40.63 39.1219 40.7255 38.9729 40.7129 38.6371C40.6856 37.9087 40.9889 37.5204 41.5147 37.5299C42.0279 37.5393 42.3113 37.9087 42.2829 38.6276C42.2693 38.9792 42.3721 39.1272 42.7195 39.2143C43.1498 39.3213 43.5434 39.5449 43.8928 39.8272C44.2675 40.1295 44.3389 40.5849 44.0797 40.9376C43.8162 41.2954 43.3733 41.3679 42.9672 41.095C42.5012 40.7812 42.0122 40.5576 41.4339 40.587C41.1936 40.5996 40.9658 40.6552 40.7706 40.7959C40.3729 41.0845 40.4253 41.5893 40.8756 41.7793C41.4528 42.0217 42.0363 42.2505 42.6177 42.4845C43.0585 42.6619 43.4647 42.8959 43.8005 43.2359C44.9245 44.3757 44.5782 46.2008 43.0375 46.9102C42.5012 47.1568 42.2042 47.3678 42.2598 48.0048C42.2976 48.432 41.9041 48.7405 41.5011 48.7416C41.1159 48.7416 40.7958 48.4561 40.7234 48.0458C40.7192 48.0195 40.7066 47.9922 40.7118 47.9681C40.842 47.3258 40.5439 47.0257 39.9363 46.8588C39.4839 46.7339 39.1198 46.4023 38.7913 46.0559C38.6412 45.8975 38.5446 45.719 38.5499 45.5427H38.5509Z" fill="#002E62"/>
<path d="M25.6754 4.36908C24.946 4.36908 24.2151 4.36908 23.4857 4.36908C23.4857 3.33418 23.4843 2.29928 23.4872 1.26438C23.4901 0.572985 23.9725 0.0102227 24.563 -9.33211e-06C25.2354 -0.0117031 25.6695 0.479435 25.6725 1.26438C25.6768 2.29928 25.6739 3.33418 25.6739 4.36908H25.6754Z" fill="#193461"/>
<path d="M24.5951 27.5578C22.5721 27.5578 20.5505 27.5549 18.5275 27.5622C18.2586 27.5622 18.0978 27.5549 18.1065 27.1982C18.2308 22.0632 18.7745 16.9925 20.4321 12.0957C20.9174 10.6618 21.524 9.27899 22.4347 8.05553C23.8979 6.08952 25.2821 6.07782 26.7351 8.04676C28.074 9.86368 28.7917 11.9671 29.372 14.1144C30.5282 18.3928 30.9755 22.7663 31.0735 27.1865C31.0822 27.6031 30.8674 27.5593 30.6072 27.5593C28.6032 27.5578 26.5991 27.5593 24.5937 27.5593L24.5951 27.5578Z" fill="#FDFDFE"/>
<path d="M28.7303 6.96948C30.2447 7.23113 31.6406 7.63603 32.9708 8.22364C40.3393 11.4789 44.8341 17.0451 46.3499 24.9779C46.4859 25.6912 46.5195 26.4235 46.6247 27.1442C46.6686 27.4453 46.6145 27.5651 46.2768 27.5651C42.0671 27.5549 37.8573 27.5549 33.6476 27.5666C33.2631 27.5666 33.25 27.3722 33.2471 27.093C33.2237 24.5394 33.0278 21.9974 32.6682 19.4701C32.1391 15.7457 31.3556 12.0884 29.6849 8.6797C29.413 8.12717 29.0855 7.60241 28.7303 6.96948Z" fill="#0CBEAD"/>
<path d="M14.5282 27.5359C11.3797 27.5432 8.22969 27.5505 5.08114 27.5578C4.38975 27.5593 3.69689 27.5403 3.0055 27.5651C2.63568 27.5783 2.54798 27.4526 2.56991 27.0945C2.71023 24.8229 3.21306 22.6347 4.05648 20.5269C5.56497 16.7586 7.9315 13.6305 11.1444 11.1471C11.2438 11.0696 11.3549 11.0097 11.4616 10.941C11.3885 11.9159 11.2891 12.8909 11.2496 13.8673C11.2014 15.066 11.3388 16.2573 11.444 17.45C11.6107 19.34 12.055 21.1643 12.6075 22.968C13.0943 24.554 13.8281 26.0376 14.5282 27.5344V27.5359Z" fill="#0CBEAD"/>
<path d="M14.5282 27.5359C13.8266 26.0391 13.0928 24.5554 12.6075 22.9695C12.055 21.1657 11.6106 19.34 11.444 17.4515C11.3387 16.2587 11.2013 15.0674 11.2496 13.8688C11.289 12.8924 11.3884 11.9174 11.4615 10.9424C14.0751 8.92964 17.0234 7.66379 20.245 7.00456C20.2918 6.99433 20.3459 7.01918 20.4438 7.03672C19.0698 9.11674 18.2629 11.4102 17.6358 13.7723C16.7252 17.1986 16.2501 20.6936 16.0455 24.228C15.9885 25.2103 15.9578 26.194 15.9329 27.1778C15.9256 27.4438 15.8715 27.5885 15.5675 27.5651C15.2225 27.5388 14.8761 27.5461 14.5311 27.5388L14.5282 27.5359Z" fill="#0CBEAD"/>
<path d="M25.9034 39.0294C25.9034 41.7804 25.9151 44.5313 25.9005 47.2823C25.88 51.0652 22.8206 53.9697 19.0538 53.803C16.3028 53.6817 13.7784 51.6163 13.1133 48.9574C13.0081 48.5394 13.087 48.3406 13.5562 48.4064C13.717 48.4283 13.8866 48.4283 14.0474 48.4064C15.0545 48.2763 15.7561 48.4531 16.3218 49.5246C17.0892 50.9746 18.9485 51.4789 20.5301 50.9936C22.1599 50.4922 23.2591 49.0437 23.2621 47.313C23.2737 41.6649 23.2767 36.0183 23.2518 30.3702C23.2489 29.8235 23.4038 29.6876 23.914 29.7358C24.4007 29.7826 24.8992 29.7796 25.3874 29.7358C25.8435 29.6949 25.9136 29.8805 25.9122 30.2854C25.8961 33.2001 25.9034 36.1147 25.9034 39.0294Z" fill="#DFEBFF"/>
</g>
<defs>
<clipPath id="clip0_0_1807">
<rect width="53.1014" height="56" fill="white" transform="translate(0.315918)"/>
</clipPath>
</defs>
</svg>
