<svg width="365" height="120" viewBox="0 0 365 120" fill="none" xmlns="http://www.w3.org/2000/svg">
<g clip-path="url(#clip0_897_5115)">
<path d="M21.9435 115H18.0908L11.7255 104.167C11.893 106.167 11.893 107.5 11.893 108.333V115.167H9.21289V100.833H13.0656L19.4309 111.667C19.2634 109.833 19.2634 108.5 19.2634 107.667V100.833H21.9435V115Z" fill="#0B182D"/>
<path d="M32.3291 115L31.8265 113.5C31.4915 114 30.8215 114.5 30.319 114.833C29.6489 115.167 28.9789 115.166 28.3089 115.166C27.4713 115.166 26.4663 115 25.7962 114.333C25.1262 113.666 24.7912 112.666 24.9587 111.833C24.9587 110.833 25.2937 109.833 26.1313 109.167C27.3038 108.5 28.4764 108.167 29.8164 108.167H31.659V107.5C31.8265 106.667 31.1565 106 30.319 105.833H29.9839C28.9789 105.833 27.8063 106.167 26.9688 106.667L25.9638 104.667C27.3038 104 28.6439 103.667 30.1515 103.667C31.324 103.667 32.4966 104 33.5016 104.667C34.3392 105.333 34.8417 106.5 34.6742 107.5V114.833H32.3291V115ZM31.4915 109.833H30.319C29.6489 109.833 28.9789 110 28.3089 110.333C27.8063 110.666 27.6388 111.167 27.6388 111.667C27.6388 112.5 28.1414 113 29.1464 113C29.8164 113 30.319 112.833 30.8215 112.333C31.324 111.833 31.4915 111.333 31.4915 110.667V109.833Z" fill="#0B182D"/>
<path d="M42.2119 112.833C42.882 112.833 43.552 112.667 44.0545 112.5V114.667C43.217 115 42.2119 115.167 41.2069 115.167C40.2018 115.333 39.1968 115 38.5268 114.333C37.8567 113.5 37.6892 112.667 37.6892 111.667V106.333H36.1816V105L37.8567 104L38.6943 101.667H40.7044V104H43.7195V106.333H40.5369V111.667C40.5369 112 40.7044 112.333 40.8719 112.667C41.5419 112.667 41.8769 112.833 42.2119 112.833Z" fill="#0B182D"/>
<path d="M54.1053 115L53.7703 113.667H53.6028C53.2678 114.167 52.7652 114.667 52.2627 114.833C51.5927 115.167 50.9226 115.333 50.2526 115.167C49.2476 115.167 48.075 114.833 47.2375 114.167C46.5674 113.333 46.2324 112.333 46.2324 111.167V104H49.2476V110.5C49.2476 111.167 49.4151 111.667 49.7501 112.333C50.0851 112.667 50.5876 113 51.0902 112.833C51.7602 112.833 52.4302 112.5 52.9327 112C53.4353 111.167 53.6028 110.167 53.4353 109.167V104H56.4504V115H54.1053Z" fill="#0B182D"/>
<path d="M65.8311 103.833C66.1661 103.833 66.5011 103.833 66.8361 104L66.6686 106.833C66.3336 106.833 65.9986 106.667 65.8311 106.667C64.9935 106.667 64.156 106.834 63.6535 107.334C63.1509 107.834 62.8159 108.5 62.8159 109.333V115H59.8008V104H62.1459L62.6484 105.833H62.8159C63.1509 105.167 63.6535 104.667 64.156 104.333C64.491 104 65.161 103.833 65.8311 103.833Z" fill="#0B182D"/>
<path d="M75.8809 115L75.3783 113.5H75.2108C74.8758 114 74.2058 114.5 73.7033 114.833C73.0332 115.167 72.3632 115.166 71.5257 115.166C70.6881 115.166 69.6831 114.833 69.013 114.333C68.343 113.666 68.008 112.666 68.1755 111.833C68.1755 110.833 68.5105 109.833 69.3481 109.167C70.5206 108.5 71.6932 108.167 73.0332 108.167H75.0433V107.5C75.2108 106.667 74.5408 106 73.7033 105.833H73.3682C72.3632 105.833 71.1906 106.167 70.1856 106.667L69.1805 104.667C70.5206 104 71.8607 103.667 73.3682 103.667C74.5408 103.667 75.7134 104 76.7184 104.667C77.556 105.333 78.0585 106.5 77.891 107.666V115H75.8809ZM74.8758 109.833H73.7033C73.0332 109.833 72.3632 110 71.6932 110.333C71.1906 110.666 71.0231 111.167 71.0231 111.667C71.0231 112.5 71.5257 113 72.5307 113C73.2007 113 73.7033 112.833 74.2058 112.333C74.7083 111.833 74.8758 111.333 74.8758 110.667V109.833Z" fill="#0B182D"/>
<path d="M84.088 115H81.0742V99.6665H84.088V115Z" fill="#0B182D"/>
<path d="M98.1598 106.833H103.855V114.167C103.018 114.5 102.18 114.667 101.175 114.833C100.337 115 99.4999 115 98.6623 115C96.8197 115.167 94.9771 114.5 93.6371 113C92.4645 111.5 91.7945 109.5 91.962 107.5C91.7945 105.5 92.632 103.5 93.9721 102C95.4797 100.667 97.4898 100 99.4999 100C101.007 100 102.515 100.333 103.855 100.833L102.85 103.333C101.845 102.833 100.672 102.5 99.4999 102.5C98.3273 102.5 97.1547 103 96.3172 103.833C95.4797 104.833 95.1446 106.167 95.1446 107.5C95.1446 108.833 95.4797 110 96.1497 111.167C96.8197 112 97.8248 112.5 98.9973 112.333C99.6674 112.333 100.337 112.333 101.007 112.167V109.167H98.3273V106.833H98.1598Z" fill="#0B182D"/>
<path d="M114.073 115L113.571 113.5C113.236 114 112.566 114.5 112.063 114.834C111.393 115.167 110.723 115.167 110.053 115.167C109.048 115.167 108.21 114.834 107.54 114.167C106.87 113.5 106.535 112.5 106.703 111.667C106.703 110.667 107.038 109.667 107.875 109C109.048 108.334 110.221 108 111.561 108H113.403V107.5C113.571 106.667 112.901 106 112.063 105.833H111.728C110.723 105.833 109.55 106.167 108.713 106.667L107.54 104.834C108.88 104.167 110.221 103.833 111.728 103.833C112.901 103.833 114.073 104.167 115.078 104.834C115.916 105.667 116.251 106.667 116.251 107.667V115H114.073ZM113.236 109.834H112.063C111.393 109.834 110.723 110 110.053 110.333C109.55 110.667 109.383 111.167 109.383 111.667C109.383 112.5 109.885 113 110.891 113C111.561 113 112.063 112.834 112.566 112.334C113.068 111.834 113.236 111.334 113.236 110.667V109.834Z" fill="#0B182D"/>
<path d="M126.971 111.667C126.971 112.666 126.636 113.666 125.799 114.333C124.793 115 123.453 115.333 122.281 115.166C121.611 115.166 120.941 115.166 120.271 115C119.768 114.833 119.098 114.666 118.596 114.5V112C119.266 112.333 119.768 112.5 120.438 112.666C121.108 112.833 121.611 113 122.281 113C123.453 113 123.956 112.666 123.956 112C123.956 111.833 123.956 111.5 123.788 111.5C123.621 111.333 123.286 111.166 123.118 111C122.783 110.833 122.281 110.666 121.778 110.333C121.108 110 120.606 109.666 119.936 109.333C119.601 109 119.266 108.667 119.098 108.333C118.931 107.833 118.763 107.333 118.763 106.833C118.763 106 119.098 105 119.936 104.5C120.941 103.833 122.113 103.667 123.118 103.667C124.458 103.667 125.799 104 126.971 104.5L125.966 106.833C125.464 106.666 124.961 106.333 124.458 106.333C123.956 106.167 123.453 106.167 122.951 106.167C122.113 106.167 121.611 106.333 121.611 106.833C121.611 107.166 121.778 107.333 122.113 107.5C122.783 107.833 123.286 108.167 123.956 108.333C124.626 108.5 125.296 108.833 125.799 109.333C126.134 109.666 126.469 110 126.636 110.333C126.971 110.833 126.971 111.167 126.971 111.667Z" fill="#0B182D"/>
<path d="M147.91 107.833C148.077 109.833 147.407 111.833 146.067 113.333C143.22 115.833 138.864 115.833 135.849 113.333C134.509 111.833 134.007 109.833 134.007 107.833C133.839 105.833 134.509 103.833 135.849 102.333C137.189 101 139.032 100.333 140.875 100.5C142.717 100.333 144.56 101.166 145.9 102.5C147.407 103.833 148.077 105.833 147.91 107.833ZM137.357 107.833C137.189 109.166 137.524 110.333 138.362 111.5C139.032 112.333 140.037 112.833 141.042 112.666C143.555 112.666 144.727 111 144.727 107.833C144.727 104.666 143.555 103 141.042 103C140.037 103 139.032 103.333 138.362 104.166C137.692 105.166 137.357 106.5 137.357 107.833Z" fill="#0B182D"/>
<path d="M156.787 115.167C155.615 115.167 154.442 114.667 153.772 113.833H153.604C153.772 114.833 153.772 115.333 153.772 115.5V120H150.757V104.167H153.269L153.772 105.667H153.939C154.61 104.667 155.782 104 157.122 104C158.295 104 159.467 104.5 160.137 105.5C160.975 106.667 161.31 108.167 161.31 109.667C161.31 110.667 161.142 111.833 160.807 112.667C160.472 113.5 159.97 114.167 159.3 114.667C158.462 115 157.625 115.167 156.787 115.167ZM155.95 106.167C155.28 106.167 154.61 106.333 154.275 106.833C153.939 107.5 153.604 108.333 153.772 109.167V109.5C153.772 110.333 153.939 111.333 154.275 112C154.61 112.5 155.28 112.833 155.95 112.833C157.29 112.833 157.96 111.667 157.96 109.5C157.96 108.667 157.792 107.833 157.457 107C157.122 106.5 156.452 106.167 155.95 106.167Z" fill="#0B182D"/>
<path d="M168.513 115.167C167.006 115.333 165.498 114.667 164.325 113.667C163.32 112.5 162.65 111 162.818 109.5C162.65 108 163.153 106.5 164.158 105.167C166.168 103.167 169.518 103.167 171.696 105C172.533 106 173.036 107.333 173.036 108.667V110.167H166.001C166.001 110.833 166.336 111.667 166.838 112.167C167.341 112.667 168.178 113 168.848 112.833C169.518 112.833 170.188 112.667 170.691 112.5C171.361 112.333 172.031 112.167 172.533 111.833V114.167C172.031 114.5 171.361 114.667 170.858 114.667C170.021 115.167 169.183 115.167 168.513 115.167ZM168.011 106C167.508 106 166.838 106.167 166.503 106.667C166.168 107.167 165.833 107.667 165.833 108.333H170.021C170.021 107.667 169.853 107.167 169.518 106.667C169.183 106.167 168.681 106 168.011 106Z" fill="#0B182D"/>
<path d="M181.579 103.833C181.914 103.833 182.249 103.833 182.584 104L182.417 106.833C182.082 106.833 181.747 106.667 181.579 106.667C180.742 106.667 179.904 106.834 179.402 107.334C178.899 107.834 178.564 108.667 178.564 109.333V115H175.549V104H177.894L178.396 105.833H178.564C178.899 105.167 179.402 104.667 179.904 104.333C180.239 104 180.909 103.833 181.579 103.833Z" fill="#0B182D"/>
<path d="M191.629 115L190.959 113.5C190.624 114 189.954 114.5 189.451 114.833C188.781 115.167 188.111 115.166 187.274 115.166C186.268 115.166 185.431 114.833 184.761 114.166C184.091 113.5 183.756 112.5 183.756 111.667C183.756 110.667 184.091 109.667 184.928 109C186.101 108.333 187.274 108 188.614 108H190.456V107.5C190.624 106.667 189.954 106 189.116 105.833H188.781C187.776 105.833 186.604 106.167 185.598 106.667L184.593 104.667C185.933 104 187.274 103.667 188.781 103.667C189.954 103.667 191.126 104 192.131 104.667C192.969 105.333 193.471 106.5 193.304 107.666V115H191.629ZM190.791 109.833H189.619C188.949 109.833 188.279 110 187.609 110.333C187.106 110.666 186.939 111.167 186.939 111.667C186.939 112.5 187.441 113 188.446 113C189.116 113 189.619 112.833 190.121 112.333C190.624 111.833 190.791 111.333 190.791 110.667V109.833Z" fill="#0B182D"/>
<path d="M201.512 112.833C202.182 112.833 202.852 112.667 203.355 112.5V114.667C202.517 115 201.512 115.167 200.675 115.167C199.67 115.333 198.832 115 197.995 114.333C197.324 113.5 197.157 112.667 197.157 111.667V106.333H195.649V105L197.324 104L198.162 101.667H200.005V104H203.02V106.333H200.005V111.667C200.005 112 200.172 112.333 200.34 112.667C200.842 112.667 201.177 112.833 201.512 112.833Z" fill="#0B182D"/>
<path d="M205.532 101.167C205.532 100.167 206.035 99.6665 207.207 99.6665C208.379 99.6665 208.881 100.167 208.881 101.167C208.881 101.5 208.713 102 208.546 102.333C208.211 102.667 207.709 102.833 207.374 102.667C206.035 102.667 205.532 102.167 205.532 101.167ZM208.713 115H205.7V104H208.713V115Z" fill="#0B182D"/>
<path d="M221.781 109.5C221.949 111 221.446 112.5 220.274 113.666C219.268 114.666 217.761 115.333 216.253 115.166C215.248 115.166 214.243 115 213.406 114.5C212.568 114 211.898 113.333 211.563 112.5C211.061 111.5 210.893 110.5 210.893 109.5C210.726 108 211.228 106.5 212.233 105.333C213.238 104.333 214.746 103.666 216.253 103.833C217.258 103.833 218.263 104 219.101 104.5C219.939 105 220.609 105.666 220.944 106.5C221.614 107.333 221.949 108.5 221.781 109.5ZM214.243 109.5C214.243 110.333 214.411 111.166 214.746 112C215.583 113 216.923 113.166 217.928 112.333C218.04 112.222 218.152 112.111 218.263 112C218.598 111.166 218.766 110.333 218.766 109.5C218.766 108.666 218.598 107.833 218.263 107C217.426 106 216.086 105.833 215.081 106.666C214.969 106.778 214.857 106.889 214.746 107C214.411 107.833 214.243 108.666 214.243 109.5Z" fill="#0B182D"/>
<path d="M234.511 115H231.496V108.667C231.496 108 231.328 107.5 230.993 106.833C230.658 106.333 230.156 106.167 229.653 106.167C228.983 106.167 228.313 106.5 227.811 107C227.308 107.833 227.141 108.833 227.308 109.833V115H224.293V104H226.638L226.973 105.333H227.141C227.476 104.833 227.978 104.333 228.481 104.167C229.151 103.833 229.821 103.667 230.491 103.833C231.496 103.833 232.668 104.167 233.506 104.833C234.176 105.667 234.511 106.667 234.511 107.833V115Z" fill="#0B182D"/>
<path d="M244.729 115L244.059 113.5C243.724 114 243.054 114.5 242.551 114.833C241.881 115.167 241.211 115.166 240.541 115.166C239.536 115.166 238.699 114.833 238.028 114.166C237.358 113.5 237.023 112.5 237.023 111.667C237.023 110.667 237.358 109.667 238.196 109C239.369 108.333 240.541 108 241.881 108H243.724V107.5C243.891 106.667 243.221 106 242.384 105.833H242.049C241.044 105.833 239.871 106.167 238.866 106.667L237.861 104.667C239.201 104 240.709 103.667 242.049 103.667C243.221 103.667 244.394 104 245.399 104.667C246.236 105.333 246.571 106.5 246.571 107.5V114.833H244.729V115ZM243.724 109.833H242.551C241.881 109.833 241.211 110 240.541 110.333C240.039 110.666 239.871 111.167 239.871 111.667C239.871 112.5 240.374 113 241.379 113C242.049 113 242.551 112.833 243.054 112.333C243.556 111.833 243.724 111.333 243.724 110.667V109.833Z" fill="#0B182D"/>
<path d="M252.936 115H249.922V99.6665H252.936V115Z" fill="#0B182D"/>
<path d="M269.856 115H261.48V100.667H269.856V103.167H264.663V106.333H269.521V108.833H264.663V112.5H269.856V115Z" fill="#0B182D"/>
<path d="M274.881 109.333L271.363 104H274.713L276.891 107.5L279.068 104H282.418L278.901 109.333L282.586 115H279.236L276.891 111.167L274.545 115H271.195L274.881 109.333Z" fill="#0B182D"/>
<path d="M288.784 115.166C285.266 115.166 283.591 113.333 283.591 109.5C283.424 108 283.926 106.333 284.931 105.166C285.936 104.166 287.444 103.667 288.952 103.667C290.124 103.667 291.297 103.833 292.469 104.333L291.632 106.667L290.292 106.167C289.957 106 289.454 106 289.119 106C287.612 106 286.774 107.166 286.774 109.333C286.774 111.5 287.612 112.5 289.119 112.5C289.622 112.5 290.292 112.5 290.794 112.333C291.297 112.167 291.799 112 292.302 111.667V114.166C291.799 114.5 291.297 114.667 290.794 114.833C290.124 115.167 289.454 115.166 288.784 115.166Z" fill="#0B182D"/>
<path d="M299.672 115.167C298.165 115.167 296.657 114.667 295.485 113.667C294.48 112.5 293.977 111 293.977 109.5C293.81 108 294.312 106.5 295.317 105.167C297.327 103.167 300.677 103.167 302.855 105C303.693 106 304.195 107.333 304.195 108.667V110.167H297.16C297.16 110.833 297.495 111.667 297.83 112.167C298.332 112.667 299.17 113 299.84 112.833C300.51 112.833 301.18 112.833 301.682 112.667C302.352 112.5 303.022 112.333 303.525 112V114.167C303.022 114.5 302.352 114.667 301.85 114.667C301.18 115 300.51 115.167 299.672 115.167ZM299.337 106C298.835 106 298.165 106.167 297.83 106.667C297.495 107.167 297.16 107.667 297.16 108.333H301.347C301.347 107.667 301.18 107.167 300.845 106.667C300.51 106.167 299.84 106 299.337 106Z" fill="#0B182D"/>
<path d="M309.721 115H306.707V99.6665H309.721V115Z" fill="#0B182D"/>
<path d="M315.919 115H312.905V99.6665H315.919V115Z" fill="#0B182D"/>
<path d="M323.96 115.167C322.453 115.167 320.945 114.667 319.773 113.667C318.768 112.5 318.098 111 318.265 109.5C318.098 108 318.6 106.5 319.605 105.167C321.615 103.167 324.965 103.167 327.143 105C327.981 106 328.483 107.333 328.483 108.667V110.167H321.28C321.28 110.833 321.615 111.667 322.118 112.167C322.62 112.667 323.458 113 324.128 112.833C324.798 112.833 325.468 112.833 325.971 112.667C326.641 112.5 327.311 112.333 327.813 112V114.167C327.311 114.5 326.641 114.667 326.138 114.667C325.468 115 324.798 115.167 323.96 115.167ZM323.625 106C323.123 106 322.453 106.167 322.118 106.667C321.783 107.167 321.448 107.667 321.448 108.333H325.635C325.635 107.667 325.468 107.167 324.965 106.667C324.798 106.167 324.128 106 323.625 106Z" fill="#0B182D"/>
<path d="M341.214 115H338.199V108.667C338.199 108 338.031 107.5 337.696 106.833C337.361 106.333 336.859 106.167 336.356 106.167C335.686 106.167 335.016 106.5 334.514 107C334.011 107.833 333.844 108.833 334.011 109.833V115H330.996V104H333.341L333.676 105.333H333.844C334.179 104.833 334.681 104.333 335.184 104.167C335.854 103.833 336.524 103.667 337.194 103.833C338.199 103.833 339.371 104.167 340.209 104.833C340.879 105.667 341.214 106.667 341.214 107.833V115Z" fill="#0B182D"/>
<path d="M348.752 115.166C345.402 115.166 343.559 113.333 343.559 109.5C343.392 108 343.894 106.333 344.899 105.166C345.904 104.166 347.412 103.667 348.919 103.667C350.092 103.667 351.264 103.833 352.437 104.333L351.599 106.667C351.097 106.5 350.762 106.333 350.259 106.167C349.924 106 349.422 106 349.087 106C347.579 106 346.742 107.166 346.742 109.333C346.742 111.5 347.579 112.5 349.087 112.5C349.589 112.5 350.259 112.5 350.762 112.333C351.264 112.167 351.767 112 352.269 111.667V114.166C351.767 114.5 351.264 114.667 350.762 114.833C350.092 115.167 349.422 115.166 348.752 115.166Z" fill="#0B182D"/>
<path d="M359.64 115.167C358.133 115.167 356.625 114.667 355.452 113.667C354.447 112.5 353.777 111 353.945 109.5C353.777 108 354.28 106.5 355.285 105.167C357.295 103.167 360.645 103.167 362.823 105C363.66 106 364.163 107.333 364.163 108.667V110.167H357.127C357.127 110.833 357.463 111.667 357.798 112.167C358.3 112.667 359.138 113 359.808 112.833C360.478 112.833 361.148 112.833 361.65 112.667C362.32 112.5 362.99 112.333 363.493 112V114.167C362.99 114.5 362.32 114.667 361.818 114.667C361.148 115 360.478 115.167 359.64 115.167ZM359.305 106C358.803 106 358.133 106.167 357.798 106.667C357.463 107.167 357.127 107.667 357.127 108.333H361.315C361.315 107.667 361.148 107.167 360.645 106.667C360.31 106.167 359.808 106 359.305 106Z" fill="#0B182D"/>
<path d="M69.6833 84.9998C68.3433 85.6665 66.6682 85.9998 65.1606 85.9998C63.318 86.1665 61.643 85.8332 60.3029 87.1665C59.6329 87.9998 59.4654 88.9998 59.6329 89.9998C59.9679 90.8332 60.4704 91.6665 61.3079 91.8332H61.978C62.1455 91.8332 62.4805 91.9998 62.4805 92.1665C62.4805 92.3332 62.4805 92.6665 62.313 92.8332C62.1455 92.9998 61.978 93.1665 61.643 93.1665C59.2978 93.9998 56.6177 93.9998 54.1051 93.1665C48.9123 90.9998 43.0496 90.1665 37.3543 90.4998C32.8316 90.8332 25.9637 91.1665 23.9537 86.3332C23.1161 84.3332 22.2786 80.9998 19.5984 80.4998C18.5934 80.3332 16.7508 80.1665 16.5833 81.4998C16.5833 81.8332 16.9183 82.4998 16.7508 82.8332C16.4158 83.6665 15.4107 82.8332 15.0757 82.4998C12.2281 79.9998 10.3855 76.4998 10.0505 72.8332C9.88297 69.6665 7.87288 69.1665 5.52777 67.4998C4.69023 66.9998 4.1877 66.1665 3.85268 65.3332C3.85268 64.9998 4.02019 64.6665 4.35521 64.6665H4.69023C5.02524 64.8332 5.36026 64.6665 5.36026 64.3332V63.9998C4.69023 60.9998 3.01514 58.6665 2.0101 55.8332C0.83754 52.8332 0.670032 49.6665 1.17256 46.4998C2.0101 43.6665 3.18265 40.9998 4.35521 38.3332C5.19275 36.6665 5.52777 34.6665 5.36026 32.8332C5.19275 31.8332 4.35521 29.4998 3.18265 29.9998C2.34511 30.3332 2.1776 31.9998 1.34006 31.9998C0.335016 32.1665 0.167508 30.9998 0 30.1665C0 26.8332 1.50757 23.8332 4.35521 21.9998C5.86278 21.1665 7.37035 20.4998 8.87793 19.8332C10.553 19.1665 12.0606 18.1665 13.5682 16.9998C14.7407 16.3332 15.9133 15.4998 16.9183 14.4998C17.9234 13.3332 18.0909 11.6665 17.2533 10.4998C16.9183 10.3332 16.7508 9.99984 16.7508 9.6665C16.7508 9.49984 16.7508 9.1665 16.9183 8.99984C17.9234 7.1665 19.5984 5.6665 21.441 4.6665C22.7811 3.6665 24.4562 2.6665 26.1313 2.1665C28.1414 1.49984 30.1514 0.999837 32.1615 0.666504C35.1767 0.166504 38.1918 0.166504 41.0395 0.666504C42.547 0.833171 44.0546 1.1665 45.5622 1.6665C51.09 3.99984 56.6177 -0.000162794 62.1455 1.1665C62.8155 1.33317 63.4855 1.49984 63.9881 1.83317C64.1556 1.99984 64.4906 1.99984 64.6581 1.83317C65.4956 1.1665 68.0083 1.49984 71.1909 2.49984C72.196 2.6665 73.3685 2.99984 74.3736 3.1665C76.3837 4.49984 81.0739 8.33317 82.0789 10.4998C83.754 13.8332 85.7641 14.8332 83.419 18.6665C82.749 19.6665 81.7439 20.6665 80.5714 21.1665C80.2363 21.3332 80.0688 21.4998 79.7338 21.6665C79.0638 22.1665 78.3938 21.8332 77.5562 22.1665C77.2212 22.3332 76.7187 22.3332 76.3837 22.3332C73.871 21.8332 74.3736 21.8332 73.536 20.4998C72.196 18.4998 70.6884 16.8332 67.8408 17.1665C67.0032 16.9998 66.1657 16.4998 65.4956 15.9998C65.3281 15.6665 63.1505 14.3332 62.983 14.1665C62.313 13.4998 61.643 12.8332 60.8054 12.3332C59.4654 11.8332 57.9578 11.3332 56.6177 11.1665C52.43 10.1665 49.9174 12.9998 45.8972 14.3332C45.2272 14.6665 44.3896 14.6665 43.5521 14.4998C42.8821 14.1665 42.3795 13.4998 41.877 12.8332C40.7045 11.8332 39.1969 11.1665 37.6893 11.1665C35.8467 10.9998 33.8366 10.9998 31.994 11.1665H31.8265C31.659 11.1665 31.8265 11.4998 31.8265 11.6665C32.9991 13.3332 32.3291 14.4998 31.8265 16.1665C30.989 18.6665 29.4814 20.9998 27.4713 22.8332C26.1313 23.8332 24.6237 24.3332 23.2836 25.3332C21.776 26.4998 20.436 27.6665 19.2634 28.9998C17.9234 30.9998 17.2533 33.4998 17.5883 35.8332C17.5883 38.6665 17.0858 41.4998 15.9133 44.1665C14.7407 46.8332 13.0656 49.8332 13.4006 52.9998C13.4006 54.1665 14.0707 55.3332 15.2432 55.8332C15.7458 55.9998 16.4158 56.1665 17.0858 56.1665C18.0909 56.1665 18.7609 55.3332 18.5934 54.3332C18.5934 54.1665 18.5934 53.8332 18.4259 53.6665C18.2584 53.3332 18.4259 52.9998 18.7609 52.9998H19.0959C19.4309 52.9998 19.5984 52.9998 19.9335 53.1665C20.436 53.4998 20.9385 54.1665 21.2735 54.6665C22.1111 55.9998 22.4461 57.4998 22.2786 58.9998C22.2786 60.6665 21.6085 62.1665 20.6035 63.3332C19.9335 64.8332 20.436 66.4998 21.776 67.3332C21.9436 67.3332 22.1111 67.4998 22.2786 67.4998C22.7811 67.6665 23.4511 67.8332 23.9537 67.9998C25.7962 68.8332 27.4713 70.3332 28.4764 71.9998C29.6489 73.6665 29.6489 75.9998 30.989 77.6665C31.8265 78.6665 32.8316 79.3332 34.0041 79.6665C35.8467 80.3332 37.6893 80.8332 39.6994 80.8332C41.207 80.9998 42.7145 80.8332 44.0546 80.3332C45.0597 79.8332 45.8972 79.3332 46.9023 78.6665C49.5824 76.8332 53.1 77.9998 56.1152 78.4998C57.4553 78.6665 58.1253 78.9998 59.2978 77.9998C59.8004 77.4998 60.3029 76.9998 60.8054 76.4998C61.8105 75.8332 63.1505 75.6665 64.3231 76.1665C64.4906 76.1665 64.4906 76.3332 64.6581 76.3332C64.6581 76.4998 64.3231 76.6665 64.1556 76.6665C63.6531 76.9998 63.8206 77.8332 64.3231 77.9998C65.8307 78.9998 68.1758 77.3332 69.5158 76.4998C70.1859 76.1665 70.6884 75.6665 71.1909 75.1665C71.8609 74.3332 71.6934 73.4998 71.5259 72.6665C71.5259 71.8332 72.531 70.4998 73.0335 69.3332C75.2111 67.1665 77.7237 64.9998 80.2364 62.9998C80.4039 62.9998 80.4039 62.8332 80.5714 62.8332C81.5764 61.4998 86.7692 60.8332 90.4543 65.4998C91.4594 66.6665 91.1244 71.8332 90.7894 72.8332C90.2868 73.6665 89.7843 74.6665 89.1143 75.3332C87.6067 77.1665 86.0991 78.6665 84.5916 80.4998C84.089 81.1665 83.419 81.8332 82.749 82.3332C82.414 82.6665 82.0789 82.9998 81.7439 83.1665C81.4089 83.4998 80.7389 83.6665 80.4039 84.1665C79.9013 84.6665 79.3988 85.1665 78.8963 85.4998C78.0587 85.9998 77.0537 86.3332 76.0487 86.6665H74.8761C74.7086 86.6665 74.3736 86.4998 74.3736 86.3332" fill="#0B182D"/>
<path d="M117.088 36.6667H142.717V67.1667C142.717 67.1667 132.499 77.1667 113.57 77.1667C91.6269 77.1667 77.0537 60.1667 77.0537 38.5C77.0537 16.8333 92.2969 0 113.57 0C131.996 0 140.539 10.5 140.539 10.5L136.687 14.1667C136.687 14.1667 129.651 5.33333 113.57 5.33333C95.3121 5.33333 82.749 20 82.749 38.5C82.749 57 94.8096 71.6667 113.57 71.6667C129.484 71.6667 137.357 64.6667 137.357 64.6667V42H117.088V36.6667Z" fill="#0B182D"/>
<path d="M200.172 51.6667C200.172 52.3333 200.172 53.1667 200.005 53.8333H158.295C158.965 64 167.341 71.8333 177.559 71.8333C184.092 71.6667 190.122 68.6667 194.142 63.5L197.827 67.3333C192.802 73.5 185.432 77.1667 177.559 77.3333C163.153 77.3333 152.768 65.6667 152.768 51.6667C152.768 37.6667 162.148 26 176.554 26C189.619 26 200.172 36.6667 200.172 51.6667ZM194.477 48.8333C194.31 43.3333 189.452 31.5 176.721 31.5C163.321 31.5 158.798 43.5 158.63 48.8333H194.477Z" fill="#0B182D"/>
<path d="M251.429 44.8333V76H246.069V45.8333C246.069 35.8333 240.206 31.5 232.333 31.5C221.613 31.5 217.425 42.3333 217.425 42.3333V76H211.897V27.3333H216.923V36.1667C220.105 30 226.471 26 233.338 26C242.216 26 251.429 31.6667 251.429 44.8333Z" fill="#0B182D"/>
<path d="M266.673 58.3335V27.3335H272.201V57.5002C272.201 67.5002 277.896 71.8335 285.936 71.8335C296.657 71.8335 300.845 61.1668 300.845 61.1668V27.3335H306.372V76.0002H301.347V67.3335C298.164 73.5002 291.799 77.3335 284.764 77.3335C275.551 77.1668 266.673 71.5002 266.673 58.3335Z" fill="#0B182D"/>
<path d="M365 51.6667C365 52.3333 365 53.1667 364.833 53.8333H323.123C323.793 64 332.169 71.8333 342.387 71.8333C348.92 71.6667 354.95 68.6667 358.97 63.5L362.655 67.3333C357.63 73.5 350.26 77.1667 342.387 77.3333C327.981 77.3333 317.596 65.6667 317.596 51.6667C317.596 37.6667 326.976 26 341.382 26C354.447 26 365 36.6667 365 51.6667ZM359.305 48.8333C359.138 43.3333 354.28 31.5 341.549 31.5C328.149 31.5 323.626 43.5 323.458 48.8333H359.305Z" fill="#0B182D"/>
<path d="M62.4804 68.6665C61.9778 68.6665 61.6428 68.6665 61.1403 68.4998C59.4652 67.8332 57.9576 66.6665 56.7851 64.9998C55.6125 62.6665 57.2876 61.8332 57.6226 60.1665L60.4703 43.4998C60.9728 40.6665 60.6378 38.4998 59.4652 37.1665C58.1252 35.4998 56.2826 34.1665 54.105 33.8332C48.2422 33.8332 44.222 39.6665 43.552 40.9998L39.1967 65.8332H31.8264L30.4863 64.4998L37.6892 33.1665C38.0242 31.3332 38.0242 30.3332 37.3542 29.3332L35.3441 26.3332L34.004 23.6665L39.1967 26.8332C40.2018 26.8332 41.2068 26.9998 42.0444 27.4998C43.552 28.4998 44.557 30.1665 44.892 31.9998C47.9072 29.4998 51.5923 28.1665 55.6125 28.1665C59.6327 28.1665 62.9829 29.8332 65.4955 32.6665C68.0081 35.8332 68.8457 39.8332 68.0081 43.8332L65.1605 59.6665C64.4905 63.1665 64.993 64.3332 66.5006 65.9998L67.8406 67.3332L65.8305 68.3332C65.1605 68.6665 64.323 68.8332 63.4854 68.9998C63.3179 68.4998 62.9829 68.6665 62.4804 68.6665Z" fill="#0B182D"/>
<path d="M60.6383 67.3332C60.1358 67.3332 59.8008 67.3332 59.2983 67.1665C54.4406 65.6665 55.4456 60.1665 55.7806 57.4998L58.6282 40.8332C59.1308 37.9998 58.7958 35.8332 57.6232 34.4998C56.1156 33.1665 54.273 32.3332 52.2629 32.4998C46.4002 32.4998 42.38 38.3332 41.7099 39.6665L37.3547 64.4998H29.9844L35.8472 30.4998C36.1822 28.6665 36.1822 27.6665 35.5121 26.6665L33.502 23.6665L37.3547 23.9998C38.3598 23.9998 39.3648 24.3332 40.2024 24.6665C41.7099 25.6665 42.715 27.3332 43.05 28.9998C46.0651 26.4998 49.7503 25.1665 53.7705 25.1665C57.7907 25.1665 61.1409 26.8332 63.6535 29.6665C66.1661 32.8332 67.0037 36.8332 66.1661 40.6665L63.3185 56.4998C62.6484 59.9998 62.9835 62.1665 64.491 63.8332L65.9986 65.4998L63.9885 66.4998C63.3185 66.8332 62.4809 67.1665 61.6434 67.1665C61.3084 67.1665 60.9734 67.3332 60.6383 67.3332Z" fill="#E7282B"/>
</g>
<defs>
<clipPath id="clip0_897_5115">
<rect width="365" height="120" fill="white"/>
</clipPath>
</defs>
</svg>
