<svg width="56" height="56" viewBox="0 0 56 56" fill="none" xmlns="http://www.w3.org/2000/svg">
<g clip-path="url(#clip0_0_99)">
<path d="M55.9999 40.0246C55.918 40.1401 55.8449 40.2629 55.7514 40.3681C55.4356 40.7261 55.0468 40.884 54.5776 40.7261C54.0967 40.5639 53.8233 40.219 53.816 39.7075C53.8131 39.4211 53.8087 39.2515 53.4213 39.253C50.432 39.272 47.4442 39.2632 44.4476 39.2632C44.3891 39.5 44.5967 39.5848 44.6932 39.7148C46.3143 41.9055 45.0074 45.0301 42.3061 45.3853C41.9977 45.4262 41.8983 45.5168 41.8457 45.8325C41.5562 47.5555 40.4745 48.6253 38.7628 48.9074C38.4909 48.9527 38.3798 49.0374 38.3272 49.3268C38.0042 51.1142 37.0072 52.1109 35.2151 52.4382C34.9228 52.4923 34.8365 52.599 34.7971 52.8738C34.5866 54.3191 33.7884 55.3144 32.4071 55.785C30.9979 56.2643 29.754 55.9165 28.6898 54.8949C27.9604 54.1949 27.9648 54.192 27.25 54.8774C26.1712 55.9121 24.9126 56.2775 23.486 55.7762C22.0914 55.2866 21.2875 54.2709 21.1062 52.7963C21.0741 52.5332 20.9644 52.4894 20.7393 52.4441C18.8449 52.07 17.9547 51.1682 17.5878 49.2552C17.5439 49.0301 17.4518 48.9614 17.2428 48.9278C15.42 48.6414 14.3558 47.5833 14.0605 45.7609C14.0284 45.5636 13.9831 45.451 13.7477 45.4013C10.5903 44.7437 9.51739 41.831 11.5142 39.3524C11.4454 39.1828 11.2964 39.2662 11.1896 39.2647C8.34652 39.2589 5.50194 39.2691 2.65882 39.2501C2.26999 39.2472 2.18374 39.3611 2.17497 39.7324C2.16328 40.352 1.65897 40.7948 1.07281 40.7817C0.507106 40.7685 0.0568842 40.3316 0.00426089 39.7411C-0.00450966 39.6505 -0.000124384 39.5584 -0.000124384 39.4678C-0.000124384 33.2713 -0.000124384 27.0747 -0.000124384 20.8781C-0.000124384 20.1547 0.299536 19.7061 0.846234 19.5848C1.51718 19.4357 2.13989 19.8946 2.18228 20.5946C2.21006 21.0491 2.22467 21.508 2.18228 21.9596C2.14135 22.3951 2.3153 22.4609 2.70413 22.458C6.09395 22.4434 9.48523 22.4492 12.8751 22.4492C13.7682 22.4492 14.6672 22.3878 15.553 22.4653C16.6581 22.5603 17.6199 22.2051 18.6212 21.7141C17.8582 20.8723 17.1916 19.975 16.6537 18.9856C12.4877 11.3173 17.1609 1.68194 25.7648 0.191257C25.9987 0.150336 26.2765 0.213179 26.4665 -0.00457764H29.3096C29.583 0.216102 29.9265 0.135722 30.232 0.188334C39.6384 1.81201 44.0602 12.9746 38.3038 20.5902C38.0115 20.9775 37.6943 21.3473 37.342 21.7828C38.0246 21.9508 38.5552 22.436 39.2174 22.439C43.9564 22.4594 48.6955 22.4477 53.4345 22.455C53.7122 22.455 53.8218 22.3864 53.8102 22.0911C53.7882 21.6001 53.7955 21.1076 53.8102 20.6151C53.8262 20.1006 54.1054 19.7455 54.5863 19.6067C55.0877 19.462 55.5204 19.6213 55.823 20.07C55.8829 20.1576 55.9385 20.2483 55.9969 20.3374V40.0217L55.9999 40.0246ZM36.6447 19.0367C36.7266 19.0411 36.7514 18.9856 36.7704 18.9213C38.6444 16.2322 39.1414 13.2757 38.3082 10.1408C36.902 4.84307 31.9145 1.56502 26.4519 2.31329C24.5457 2.57489 22.8092 3.29977 21.3357 4.57708C21.2889 4.60339 21.2363 4.62385 21.1954 4.65746C16.1202 8.74515 16.0339 16.7788 21.0127 20.9585C21.2188 21.1324 21.4103 21.1514 21.6588 21.1295C23.6555 20.9498 25.5602 21.2435 27.2208 22.4331C27.7777 22.8321 28.1183 22.8613 28.6884 22.4302C30.3621 21.1602 32.3223 20.9571 34.3498 21.131C34.5076 21.1441 34.6743 21.2274 34.8204 21.0944C35.4987 20.4675 36.2223 19.8829 36.6549 19.0367H36.6476H36.6447ZM48.1151 24.6867C47.8988 24.6721 47.681 24.6428 47.4647 24.6428C44.6771 24.6399 41.8895 24.6414 39.1019 24.6414C38.773 24.6414 38.45 24.6385 38.143 24.485C36.9444 23.8843 35.677 23.5102 34.3468 23.3465C32.3778 23.1039 30.5711 23.4167 29.1035 24.8884C27.2895 26.7079 25.4754 28.5259 23.6497 30.3323C23.3047 30.6728 23.3266 30.9125 23.6891 31.2223C25.1611 32.485 27.364 32.4236 28.8097 31.0352C29.6897 30.1905 30.5404 29.3137 31.4043 28.4514C32.2083 27.6505 32.6673 27.6505 33.4756 28.4587C36.2325 31.215 38.9894 33.9713 41.7463 36.7276C41.9261 36.9074 42.0825 37.0784 42.3865 37.0754C44.2985 37.055 46.2119 37.055 48.1239 37.0491C49.8342 37.0564 51.5459 37.0447 53.2547 37.0813C53.7254 37.0915 53.8204 36.9381 53.8175 36.4982C53.7999 33.0944 53.8116 29.6922 53.8043 26.2884C53.8043 25.7638 54.0265 25.0784 53.7195 24.7554C53.3833 24.4017 52.6846 24.6385 52.1467 24.6428C50.8019 24.6531 49.4556 24.5683 48.1137 24.6867H48.1151ZM7.8846 24.6896C6.08518 24.5888 4.28429 24.675 2.4834 24.6428C2.2276 24.6385 2.18521 24.77 2.18959 24.9834C2.19836 25.4744 2.19251 25.9669 2.19251 26.458C2.19251 29.8252 2.19251 33.1924 2.19251 36.5595C2.19251 36.8299 2.12527 37.0857 2.58134 37.0769C4.34569 37.0433 6.11149 37.0535 7.8773 37.0462C9.15341 37.0521 10.4383 36.9644 11.7013 37.09C13.1996 37.2391 14.4055 36.8986 15.2738 35.6198C15.3045 35.576 15.3498 35.5409 15.3893 35.5044C16.4505 34.5267 17.6945 34.2578 19.0378 34.7079C20.3929 35.1624 21.1852 36.1737 21.4103 37.584C21.4629 37.9099 21.5316 38.0268 21.8824 38.0678C23.4392 38.2461 24.7255 39.5161 24.9199 41.0623C24.9638 41.4116 25.0457 41.5314 25.4169 41.5826C27.0322 41.8047 28.2498 43.0484 28.4369 44.6516C28.4764 44.9892 28.6094 45.0389 28.9018 45.0886C30.4235 45.3473 31.4306 46.2168 31.8779 47.7061C31.9364 47.899 31.9949 48.0743 32.1513 48.2249C32.6892 48.7437 33.2037 49.2859 33.7431 49.8032C34.379 50.4127 35.1713 50.4331 35.7428 49.8748C36.3275 49.3063 36.3129 48.485 35.6873 47.8361C35.1552 47.2852 34.6026 46.7561 34.0676 46.2081C33.5282 45.6556 33.4815 45.0301 33.9288 44.5595C34.3995 44.0641 35.0441 44.0933 35.6156 44.6487C36.1243 45.1441 36.6213 45.6527 37.1256 46.154C37.8536 46.8759 38.6897 46.9446 39.2861 46.3367C39.8942 45.717 39.8167 44.9264 39.0727 44.1766C38.5728 43.6724 38.0626 43.1755 37.5671 42.667C37.0525 42.1394 37.0189 41.4642 37.4706 41.0184C37.9428 40.5537 38.5699 40.5873 39.1151 41.1222C39.6749 41.6702 40.2173 42.2373 40.783 42.7795C41.394 43.3655 42.2374 43.3801 42.79 42.835C43.3527 42.2782 43.3571 41.4423 42.7519 40.8343C39.4074 37.4773 36.0527 34.1321 32.7082 30.7736C32.4816 30.5471 32.3588 30.5763 32.1527 30.7883C31.492 31.4678 30.8342 32.1518 30.134 32.789C27.9078 34.8131 24.4463 34.8219 22.1982 32.8328C20.8533 31.6432 20.7978 30.1014 22.0593 28.8343C23.3836 27.5044 24.7051 26.1715 26.047 24.8577C26.3232 24.5873 26.3642 24.4412 26.0046 24.2263C25.3746 23.8478 24.7226 23.5292 23.9961 23.4035C21.9467 23.0499 20.0128 23.4898 18.152 24.3213C17.6565 24.5435 17.1697 24.6589 16.6274 24.6545C14.4581 24.6399 12.2889 24.6458 10.1211 24.6502C9.3756 24.6516 8.6301 24.675 7.8846 24.6896ZM23.2828 52.3871C23.2755 52.9761 23.5751 53.4452 24.1174 53.6761C24.708 53.9275 25.2298 53.7799 25.6684 53.3473C26.8992 52.1313 28.1241 50.9096 29.3388 49.6776C29.9352 49.074 29.9455 48.2307 29.3988 47.6739C28.836 47.101 28.0203 47.0922 27.402 47.6987C26.1537 48.9234 24.9243 50.1657 23.6921 51.4065C23.4275 51.6739 23.2682 51.9969 23.2828 52.3871ZM14.1234 43.2238C14.5298 43.2618 14.8864 43.0396 15.2095 42.7137C16.3774 41.5373 17.5541 40.371 18.7221 39.1945C19.3887 38.5223 19.431 37.7039 18.8449 37.1178C18.2587 36.5318 17.4299 36.5698 16.7604 37.2318C15.5822 38.398 14.4128 39.5731 13.2449 40.7481C13.1177 40.8767 12.9964 41.0184 12.9057 41.1734C12.381 42.0751 13.0095 43.1931 14.1219 43.2223L14.1234 43.2238ZM19.7716 48.8343C19.7614 49.4773 20.0435 49.8982 20.5654 50.1438C21.1662 50.4273 21.7114 50.2738 22.1645 49.8252C23.3953 48.6092 24.6232 47.3889 25.8335 46.154C26.4329 45.5431 26.4299 44.7071 25.8745 44.1503C25.3117 43.5848 24.496 43.5891 23.8792 44.1956C22.6455 45.4086 21.4307 46.6407 20.2043 47.8624C19.9193 48.1459 19.7497 48.4733 19.7702 48.8343H19.7716ZM22.7639 41.7755C22.7595 41.0126 22.4657 40.6019 21.9526 40.3491C21.4395 40.0963 20.8504 40.2029 20.3958 40.6502C19.1518 41.8778 17.9137 43.1112 16.6873 44.3579C16.0851 44.9687 16.0865 45.7959 16.6508 46.3542C17.2121 46.9081 18.0321 46.8979 18.6475 46.2928C19.8798 45.0798 21.096 43.8493 22.3195 42.6275C22.6016 42.3454 22.7682 42.0137 22.7624 41.7769L22.7639 41.7755ZM31.5739 50.743C31.1251 51.1259 30.6778 51.4708 30.2729 51.8624C29.3988 52.7086 29.4075 52.7174 30.3796 53.4715C30.9804 53.9377 31.7464 53.8968 32.2565 53.3706C32.7594 52.8518 32.7857 52.0568 32.2974 51.4912C32.0373 51.1902 31.7434 50.9169 31.5739 50.743Z" fill="#193461"/>
<path d="M7.88481 24.6898C8.63031 24.6767 9.3758 24.6533 10.1213 24.6504C12.2906 24.6445 14.4598 24.6401 16.6276 24.6547C17.1684 24.6577 17.6567 24.5437 18.1522 24.3215C20.013 23.4885 21.9469 23.0501 23.9963 23.4037C24.7228 23.5294 25.3748 23.848 26.0048 24.2265C26.3644 24.4428 26.3234 24.5875 26.0472 24.8579C24.7067 26.1717 23.3853 27.5046 22.0595 28.8345C20.798 30.1016 20.8535 31.6434 22.1984 32.833C24.4465 34.8221 27.908 34.8133 30.1342 32.7892C30.8344 32.152 31.4922 31.468 32.1529 30.7885C32.359 30.5766 32.4818 30.5473 32.7084 30.7738C36.0515 34.1323 39.4076 37.4775 42.7522 40.8345C43.3573 41.4425 43.3529 42.2784 42.7902 42.8352C42.2376 43.3804 41.3942 43.3672 40.7832 42.7797C40.2175 42.2375 39.6752 41.6705 39.1153 41.1224C38.5686 40.5875 37.9415 40.5539 37.4708 41.0186C37.0191 41.4644 37.0528 42.1396 37.5673 42.6672C38.0628 43.1757 38.573 43.6726 39.0729 44.1768C39.8169 44.9266 39.893 45.7172 39.2863 46.3369C38.6899 46.9463 37.8538 46.8761 37.1258 46.1542C36.6215 45.6544 36.1245 45.1443 35.6158 44.6489C35.0458 44.0935 34.4011 44.0643 33.929 44.5597C33.4817 45.0303 33.5285 45.6558 34.0678 46.2083C34.6028 46.7563 35.1569 47.2854 35.6875 47.8363C36.3131 48.4852 36.3292 49.3065 35.743 49.8751C35.17 50.4319 34.3792 50.4129 33.7433 49.8034C33.2039 49.2861 32.6894 48.7439 32.1515 48.2251C31.9965 48.0745 31.9366 47.8992 31.8781 47.7063C31.4294 46.217 30.4237 45.3475 28.902 45.0888C28.6096 45.0391 28.4752 44.9894 28.4371 44.6518C28.25 43.0486 27.0339 41.8049 25.4172 41.5828C25.0459 41.5316 24.964 41.4103 24.9202 41.0625C24.7257 39.5163 23.4394 38.2463 21.8826 38.068C21.5318 38.027 21.4631 37.9116 21.4105 37.5842C21.1854 36.1725 20.3945 35.1626 19.038 34.7081C17.6947 34.2565 16.4493 34.5269 15.3895 35.5046C15.35 35.5411 15.3032 35.5762 15.274 35.62C14.4057 36.8988 13.1998 37.2393 11.7015 37.0903C10.4385 36.9646 9.15362 37.0523 7.8775 37.0464C7.84242 36.9836 7.80734 36.9193 7.77079 36.8564C6.45813 34.6379 5.82665 32.2733 6.11316 29.6748C6.31342 27.8626 6.9449 26.2258 7.88481 24.6884V24.6898Z" fill="#EFCBCA"/>
<path d="M48.1255 37.0493C46.2135 37.0552 44.3001 37.0552 42.3881 37.0756C42.0841 37.0786 41.9276 36.9061 41.7478 36.7278C38.991 33.9715 36.2356 31.2137 33.4772 28.4589C32.6689 27.6507 32.2099 27.6507 31.4059 28.4516C30.542 29.3138 29.6913 30.1907 28.8113 31.0354C27.3656 32.4238 25.1613 32.4852 23.6907 31.2225C23.3282 30.9127 23.3078 30.673 23.6513 30.3325C25.477 28.5261 27.291 26.7081 29.1051 24.8886C30.5727 23.4154 32.3794 23.1041 34.3484 23.3467C35.6786 23.5104 36.946 23.8845 38.1446 24.4852C38.4516 24.6387 38.7761 24.6416 39.1035 24.6416C41.8911 24.6416 44.6787 24.6416 47.4662 24.643C47.6826 24.643 47.9004 24.6708 48.1167 24.6869C48.4296 25.2788 48.7906 25.8517 49.0479 26.4684C49.8708 28.4414 50.1968 30.4786 49.8226 32.6182C49.5434 34.2141 48.9602 35.6756 48.127 37.0493H48.1255Z" fill="#D37F7F"/>
<path d="M21.3359 4.57874C22.8093 3.30143 24.5459 2.57654 26.452 2.31494C31.9146 1.56522 36.9021 4.84326 38.3083 10.1425C39.1415 13.2788 38.6445 16.2353 36.7706 18.9229C36.7282 18.9609 36.6873 18.9989 36.6449 19.0384H36.6522C36.5089 19.0501 36.3584 19.0384 36.2239 19.0793C33.8061 19.8246 31.3971 19.7413 28.9911 19.0223C28.9794 18.426 29.2601 18.1001 29.8009 17.7976C31.2042 17.0142 31.767 15.2532 31.1896 13.7669C30.8168 12.8067 30.0962 12.2075 29.1636 11.8202C28.5774 11.5776 27.9503 11.43 27.4051 11.0881C27.1551 10.9302 27.0031 10.7139 27.0572 10.4056C27.1157 10.0767 27.2838 9.82974 27.6273 9.74498C28.1667 9.61198 28.6505 9.67629 29.1153 10.0343C29.5948 10.4041 30.2087 10.2945 30.58 9.84728C30.9396 9.41469 30.9235 8.84911 30.5332 8.40336C30.238 8.06577 29.8594 7.83778 29.4413 7.70625C29.1694 7.62148 29.089 7.49434 29.0613 7.2152C28.9925 6.54001 28.497 6.10888 27.9079 6.14688C27.3247 6.18488 26.9256 6.61747 26.8876 7.28243C26.8745 7.51188 26.8555 7.67264 26.5967 7.79247C25.42 8.33906 24.8353 9.30946 24.8572 10.5809C24.8806 11.8831 25.6261 12.738 26.7897 13.2437C27.3729 13.498 27.9737 13.7099 28.5555 13.9657C29.0437 14.1805 29.2805 14.578 29.1957 15.11C29.1153 15.6186 28.8259 15.9781 28.3011 16.0935C27.6755 16.2309 27.0762 16.1768 26.5076 15.8495C25.5998 15.3277 25.1452 15.4417 24.6073 16.3054C23.6893 15.5586 23.0154 14.6102 22.4497 13.5915C21.3972 11.6975 20.9046 9.66898 20.9719 7.48557C21.0026 6.49616 21.2131 5.54622 21.3344 4.57728L21.3359 4.57874Z" fill="#FECE3F"/>
<path d="M21.3359 4.57873C21.2145 5.54768 21.004 6.49762 20.9733 7.48703C20.9061 9.67044 21.3987 11.6989 22.4512 13.593C23.0169 14.6116 23.6907 15.5601 24.6087 16.3069C24.5108 16.9952 24.8061 17.4483 25.4156 17.7596C25.7913 17.951 26.167 18.1293 26.5733 18.2331C26.7414 18.2755 26.8862 18.2989 26.8876 18.5254C26.8905 19.1144 27.1873 19.4856 27.7574 19.62C28.3231 19.7545 28.6856 19.4388 28.9925 19.0208C31.3986 19.7399 33.8076 19.8232 36.2253 19.0778C36.3598 19.0369 36.5104 19.0486 36.6536 19.0369C36.2224 19.8831 35.4974 20.4677 34.8191 21.0946C34.6744 21.2291 34.5078 21.1458 34.3484 21.1312C32.321 20.9572 30.3608 21.1604 28.687 22.4304C28.1184 22.8615 27.7764 22.8323 27.2194 22.4333C25.5603 21.2437 23.6542 20.9514 21.6574 21.1297C21.4089 21.1516 21.2189 21.1326 21.0113 20.9587C16.0326 16.779 16.1188 8.74534 21.1941 4.65765C21.235 4.62404 21.2876 4.60358 21.3344 4.57727L21.3359 4.57873Z" fill="#FECE3F"/>
<path d="M7.88479 24.6898C6.94488 26.2273 6.3134 27.8641 6.11313 29.6763C5.82663 32.2748 6.45811 34.6394 7.77077 36.8579C7.80731 36.9207 7.8424 36.985 7.87748 37.0479C6.11167 37.0552 4.34587 37.0449 2.58152 37.0786C2.12545 37.0873 2.1927 36.8316 2.1927 36.5612C2.1927 33.194 2.1927 29.8268 2.1927 26.4596C2.1927 25.9686 2.19854 25.4761 2.18977 24.985C2.18539 24.7702 2.22778 24.6401 2.48359 24.6445C4.28301 24.6752 6.08536 24.589 7.88479 24.6913V24.6898Z" fill="#D37F7F"/>
<path d="M48.1255 37.0493C48.9601 35.6756 49.5419 34.2141 49.8211 32.6182C50.1953 30.4786 49.8708 28.4414 49.0464 26.4684C48.7891 25.8517 48.4281 25.2788 48.1152 24.6869C49.4586 24.567 50.8049 24.6518 52.1482 24.643C52.6862 24.6387 53.3849 24.4019 53.7211 24.7556C54.0281 25.0786 53.8044 25.764 53.8059 26.2886C53.8132 29.6924 53.8015 33.0946 53.819 36.4984C53.8219 36.9397 53.7269 37.0917 53.2562 37.0815C51.546 37.0464 49.8357 37.0566 48.1255 37.0493Z" fill="#B25249"/>
<path d="M23.2843 52.3873C23.2682 51.9971 23.4276 51.6741 23.6921 51.4067C24.9244 50.1659 26.1537 48.9222 27.4021 47.6989C28.0204 47.0924 28.8375 47.1012 29.3988 47.6741C29.9455 48.2309 29.9353 49.0727 29.3389 49.6778C28.1242 50.9098 26.8978 52.1315 25.6684 53.3475C25.2299 53.7801 24.7081 53.9277 24.1175 53.6763C23.5752 53.4454 23.2755 52.9763 23.2828 52.3873H23.2843Z" fill="#D37F7F"/>
<path d="M14.1235 43.224C13.0111 43.1933 12.3826 42.0767 12.9073 41.175C12.998 41.0201 13.1193 40.8783 13.2465 40.7497C14.4159 39.5747 15.5853 38.3997 16.762 37.2335C17.4315 36.5714 18.2588 36.5334 18.8465 37.1195C19.4326 37.7055 19.3917 38.5239 18.7237 39.1962C17.5557 40.3727 16.379 41.5389 15.2111 42.7154C14.888 43.0413 14.5314 43.2634 14.125 43.2254L14.1235 43.224Z" fill="#D37F7F"/>
<path d="M19.7717 48.8345C19.7512 48.4735 19.9208 48.1462 20.2058 47.8626C21.4308 46.6409 22.647 45.4103 23.8807 44.1958C24.4976 43.5879 25.3147 43.585 25.876 44.1505C26.4315 44.7088 26.4329 45.5448 25.8351 46.1542C24.6233 47.3891 23.3968 48.6094 22.166 49.8254C21.7114 50.274 21.1677 50.4275 20.5669 50.144C20.045 49.8984 19.7629 49.4775 19.7731 48.8345H19.7717Z" fill="#D37F7F"/>
<path d="M22.7637 41.7757C22.7696 42.0124 22.6029 42.3442 22.3208 42.6262C21.0973 43.8495 19.8811 45.0786 18.6489 46.2916C18.0335 46.8981 17.2134 46.9083 16.6521 46.353C16.0879 45.7961 16.0879 44.969 16.6887 44.3566C17.9151 43.1114 19.1532 41.8765 20.3971 40.6489C20.8518 40.2002 21.4408 40.095 21.9539 40.3478C22.4685 40.6007 22.7608 41.0113 22.7652 41.7742L22.7637 41.7757Z" fill="#D37F7F"/>
<path d="M31.5741 50.7431C31.7437 50.9171 32.0375 51.1889 32.2977 51.4914C32.7859 52.057 32.7611 52.852 32.2568 53.3708C31.7466 53.897 30.9806 53.9394 30.3799 53.4717C29.4093 52.7176 29.399 52.7088 30.2732 51.8626C30.6766 51.4724 31.1254 51.126 31.5741 50.7431Z" fill="#EFCBCA"/>
<path d="M36.6448 19.0369C36.6872 18.9989 36.7281 18.9609 36.7705 18.9214C36.7515 18.9858 36.7266 19.0413 36.6448 19.0369Z" fill="#0CBEAD"/>
<path d="M28.9911 19.0208C28.6842 19.4373 28.3216 19.753 27.7559 19.62C27.1859 19.4856 26.8891 19.1129 26.8862 18.5254C26.8862 18.2989 26.74 18.277 26.5719 18.2331C26.1656 18.1293 25.7899 17.951 25.4142 17.7596C24.8047 17.4483 24.5094 16.9953 24.6073 16.3069C25.1452 15.4432 25.5999 15.3292 26.5076 15.8509C27.0748 16.1768 27.6756 16.2324 28.3012 16.095C28.826 15.9795 29.1154 15.62 29.1958 15.1114C29.2806 14.5795 29.0438 14.182 28.5555 13.9671C27.9738 13.7114 27.373 13.4995 26.7897 13.2452C25.6262 12.738 24.8792 11.8846 24.8573 10.5824C24.8354 9.31093 25.4201 8.34052 26.5968 7.79394C26.8555 7.6741 26.8745 7.51334 26.8877 7.28389C26.9257 6.61893 27.3247 6.18488 27.908 6.14834C28.4971 6.11035 28.9941 6.54294 29.0613 7.21667C29.0891 7.4958 29.1709 7.62295 29.4414 7.70772C29.8609 7.83925 30.238 8.06723 30.5333 8.40483C30.9236 8.85057 30.9397 9.41615 30.5801 9.84875C30.2088 10.296 29.5948 10.4056 29.1154 10.0358C28.6505 9.67776 28.1667 9.61345 27.6273 9.74644C27.2838 9.83121 27.1157 10.0782 27.0572 10.407C27.0031 10.7154 27.1552 10.9331 27.4051 11.0895C27.9504 11.4315 28.5775 11.5791 29.1636 11.8217C30.0962 12.2075 30.8169 12.8082 31.1896 13.7684C31.767 15.2547 31.2057 17.0143 29.8009 17.7991C29.2601 18.1016 28.9794 18.4275 28.9911 19.0238V19.0208Z" fill="#193461"/>
</g>
<defs>
<clipPath id="clip0_0_99">
<rect width="56" height="56" fill="white"/>
</clipPath>
</defs>
</svg>
