<?xml version="1.0" encoding="utf-8" standalone="yes"?>
<!DOCTYPE svg PUBLIC "-//W3C//DTD SVG 1.1//EN" "http://www.w3.org/Graphics/SVG/1.1/DTD/svg11.dtd">
<svg width="844" height="761" viewBox="0 0 844 761" style="fill:none;stroke:none;fill-rule:evenodd;clip-rule:evenodd;stroke-linecap:round;stroke-linejoin:round;stroke-miterlimit:1.5;" version="1.1" xmlns="http://www.w3.org/2000/svg" xmlns:xlink="http://www.w3.org/1999/xlink"><style class="text-font-style fontImports" data-font-family="Shantell Sans">@import url('https://fonts.googleapis.com/css2?family=Shantell+Sans:wght@300..800&amp;display=block');</style><g id="items" style="isolation: isolate"><g id="blend" style="mix-blend-mode: normal"><g id="g-root-8.cu_sy_qqwzvk1fdbimc-fill" data-item-order="-222906" transform="translate(259.234375, 148)"><g id="8.cu_sy_qqwzvk1fdbimc-fill" stroke="none" fill="#ffd9d8"><g><path d="M 169.065625 25L 163.665625 11.6L 143.765625 15.8L 150.565625 32.5ZM 143.765625 15.8L 145.365625 72.2L 165.265625 68.5L 163.665625 11.6ZM 165.265625 68.5L 144.765625 10.6L 124.965625 14.8L 145.365625 72.2ZM 124.965625 14.8L 131.865625 100.2L 151.565625 95.8L 144.765625 10.6ZM 151.565625 95.8L 123.365625 19.1L 104.065625 24.7L 131.865625 100.2ZM 104.065625 24.7L 127.165625 132.7L 146.265625 126.2L 123.365625 19.1ZM 146.265625 126.2L 96.265625 23L 77.565625 30.2L 127.165625 132.7ZM 77.565625 30.2L 109.365625 138.6L 128.165625 131.6L 96.265625 23ZM 128.165625 131.6L 81.965625 29.1L 62.765625 35.1L 109.365625 138.6ZM 62.765625 35.1L 79.365625 121.6L 98.565625 115.7L 81.965625 29.1ZM 98.565625 115.7L 65.165625 38.4L 45.765625 44L 79.365625 121.6ZM 45.765625 44L 58.465625 126.4L 77.865625 120.9L 65.165625 38.4ZM 77.865625 120.9L 48.165625 50.8L 26.765625 51.5L 58.465625 126.4ZM 26.765625 51.5L 16.865625 79.9L 38.365625 78.9L 48.165625 50.8ZM 38.365625 78.9L 30.465625 61.5L 12.265625 69.8L 16.865625 79.9Z" fill-rule="nonzero"></path></g></g></g><g id="g-root-7.cu_sy_hvwgps1fdbg99-fill" data-item-order="-222902" transform="translate(196, 211.2725830078125)"><g id="7.cu_sy_hvwgps1fdbg99-fill" stroke="none" fill="#e7e1ff"><g><path d="M 83.1 12.127386L 70.3 9.927386L 61.5 28.727386L 79.7 31.827386ZM 61.5 28.727386L 113.9 73.127386L 125.1 56.427386L 70.3 9.927386ZM 125.1 56.427386L 63.5 24.427386L 52.5 41.227386L 113.9 73.127386ZM 52.5 41.227386L 116.5 92.927386L 126.6 75.427386L 63.5 24.427386ZM 126.6 75.427386L 43 42.627386L 33.6 60.427386L 116.5 92.927386ZM 33.6 60.427386L 132.8 128.027386L 142.9 110.727386L 43 42.627386ZM 142.9 110.727386L 41.3 61.227386L 31.6 78.827386L 132.8 128.027386ZM 31.6 78.827386L 132.1 141.927386L 141.3 124.027386L 41.3 61.227386ZM 141.3 124.027386L 26 76.227386L 15.9 93.727386L 132.1 141.927386ZM 15.9 93.727386L 87.6 148.827386L 97.2 130.927386L 26 76.227386ZM 97.2 130.927386L 20.4 104.227386L 11 122.127386L 87.6 148.827386ZM 11 122.127386L 68.1 163.927386L 77.4 146.027386L 20.4 104.227386ZM 77.4 146.027386L 25.6 128.527386L 7.1 143.327386L 68.1 163.927386ZM 7.1 143.327386L 9.5 165.927386L 28.7 156.727386L 25.6 128.527386ZM 28.7 156.727386L 16.2 144.227386L 2.1 158.427386L 9.5 165.927386Z" fill-rule="nonzero"></path></g></g></g><g id="g-root-6.cu_sy_dg2ylc1fdbh1i-fill" data-item-order="-222898" transform="translate(196, 363.9991455078125)"><g id="6.cu_sy_dg2ylc1fdbh1i-fill" stroke="none" fill="#ffd7ef"><g><path d="M 23.6 7.700916L 16.2 8.000916L 17 27.900916L 24.2 27.700916ZM 17 27.900916L 84.3 25.100916L 80 5.300916L 16.2 8.000916ZM 80 5.300916L 14.3 31.900916L 20.1 51.100916L 84.3 25.100916ZM 20.1 51.100916L 99.4 35.200916L 92.9 16.200916L 14.3 31.900916ZM 92.9 16.200916L 18.1 53.200916L 24.8 72.200916L 99.4 35.200916ZM 24.8 72.200916L 98.4 55.300916L 92.2 36.200916L 18.1 53.200916ZM 92.2 36.200916L 20.9 66.600916L 26.3 86.100916L 98.4 55.300916ZM 26.3 86.100916L 141.4 70.200916L 136.6 50.700916L 20.9 66.600916ZM 136.6 50.700916L 26.6 90.000916L 31.5 109.500916L 141.4 70.200916ZM 31.5 109.500916L 117.8 96.700916L 111.6 77.400916L 26.6 90.000916ZM 111.6 77.400916L 42.4 113.000916L 49.1 132.000916L 117.8 96.700916ZM 49.1 132.000916L 127.3 116.200916L 121.5 96.900916L 42.4 113.000916ZM 121.5 96.900916L 54.7 124.100916L 52.8 146.500916L 127.3 116.200916ZM 52.8 146.500916L 78.9 163.000916L 82.8 141.800916L 54.7 124.100916ZM 82.8 141.800916L 65.2 145.300916L 69.1 164.900916L 78.9 163.000916Z" fill-rule="nonzero"></path></g></g></g><g id="g-root-5.cu_sy_4kfycg1fdbhu7-fill" data-item-order="-222894" transform="translate(259.2642517089844, 441.8797607421875)"><g id="5.cu_sy_4kfycg1fdbhu7-fill" stroke="none" fill="#e9ffb9"><g><path d="M 168.735748 146.520178L 168.435748 145.720178L 143.935748 131.920178L 124.835748 137.020178L 138.935748 153.920178L 149.235748 151.120178L 149.435748 151.920178ZM 138.935748 153.920178L 169.635748 89.820178L 152.535748 79.220178L 124.835748 137.020178ZM 152.535748 79.220178L 106.035748 138.620178L 124.035748 148.120178L 169.635748 89.820178ZM 124.035748 148.120178L 149.935748 65.120178L 131.835748 55.820178L 106.035748 138.620178ZM 131.835748 55.820178L 79.035748 125.320178L 96.335748 135.620178L 149.935748 65.120178ZM 96.335748 135.620178L 147.435748 23.820178L 129.835748 14.320178L 79.035748 125.320178ZM 129.835748 14.320178L 65.935748 117.020178L 83.835748 126.220178L 147.435748 23.820178ZM 83.835748 126.220178L 128.835748 17.520178L 111.135748 8.020178L 65.935748 117.020178ZM 111.135748 8.020178L 45.535748 106.520178L 63.335748 115.820178L 128.835748 17.520178ZM 63.335748 115.820178L 89.635748 47.420178L 71.935748 37.820178L 45.535748 106.520178ZM 71.935748 37.820178L 30.035748 95.820178L 47.735748 105.520178L 89.635748 47.420178ZM 47.735748 105.520178L 72.235748 42.620178L 54.835748 32.120178L 30.035748 95.820178ZM 54.835748 32.120178L 9.435748 84.520178L 29.935748 91.420178L 72.235748 42.620178ZM 29.935748 91.420178L 29.235748 81.820178L 9.335748 83.120178L 9.435748 84.520178Z" fill-rule="nonzero"></path></g></g></g><g id="g-root-4.cu_sy_4mg801fdbimg-fill" data-item-order="-222890" transform="translate(411.97265625, 441.8798828125)"><g id="4.cu_sy_4mg801fdbimg-fill" stroke="none" fill="#d1f4ff"><g><path d="M 165.127344 80.420117L 163.227344 77.620117L 140.327344 79.420117L 148.527344 91.620117ZM 140.327344 79.420117L 129.227344 102.820117L 150.927344 103.720117L 163.227344 77.620117ZM 150.927344 103.720117L 126.827344 39.120117L 107.127344 43.620117L 129.227344 102.820117ZM 107.127344 43.620117L 113.627344 113.920117L 133.227344 108.920117L 126.827344 39.120117ZM 133.227344 108.920117L 101.527344 34.920117L 81.727344 39.620117L 113.627344 113.920117ZM 81.727344 39.620117L 87.427344 128.820117L 107.227344 124.520117L 101.527344 34.920117ZM 107.227344 124.520117L 64.227344 10.220117L 45.027344 15.820117L 87.427344 128.820117ZM 45.027344 15.820117L 71.427344 137.120117L 90.527344 130.920117L 64.227344 10.220117ZM 90.527344 130.920117L 57.827344 57.220117L 38.627344 63.220117L 71.427344 137.120117ZM 38.627344 63.220117L 53.227344 138.920117L 72.627344 133.520117L 57.827344 57.220117ZM 72.627344 133.520117L 45.427344 59.920117L 25.627344 64.220117L 53.227344 138.920117ZM 25.627344 64.220117L 32.027344 149.620117L 51.827344 145.020117L 45.427344 59.920117ZM 51.827344 145.020117L 28.427344 86.020117L 8.127344 89.120117L 32.027344 149.620117ZM 8.127344 89.120117L 3.727344 146.820117L 23.327344 153.120117L 28.427344 86.020117ZM 23.327344 153.120117L 27.127344 146.720117L 10.027344 136.420117L 3.727344 146.820117Z" fill-rule="nonzero"></path></g></g></g><g id="g-root-3.cu_sy_1luwgww1fdbguh-fill" data-item-order="-222886" transform="translate(490.65625, 364.0001220703125)"><g id="3.cu_sy_1luwgww1fdbguh-fill" stroke="none" fill="#ffe4cb"><g><path d="M 145.64375 11.199939L 138.54375 9.299939L 126.24375 26.799939L 140.74375 30.499939ZM 126.24375 26.799939L 139.34375 46.099939L 151.94375 28.999939L 138.54375 9.299939ZM 151.94375 28.999939L 86.54375 9.299939L 76.94375 27.399939L 139.34375 46.099939ZM 76.94375 27.399939L 131.04375 71.099939L 141.54375 53.799939L 86.54375 9.299939ZM 141.54375 53.799939L 66.84375 20.699939L 56.64375 38.099939L 131.04375 71.099939ZM 56.64375 38.099939L 129.64375 92.499939L 140.04375 75.299939L 66.84375 20.699939ZM 140.04375 75.299939L 61.34375 37.399939L 50.24375 54.299939L 129.64375 92.499939ZM 50.24375 54.299939L 121.04375 114.999939L 131.84375 97.899939L 61.34375 37.399939ZM 131.84375 97.899939L 14.94375 46.599939L 5.54375 64.299939L 121.04375 114.999939ZM 5.54375 64.299939L 110.54375 131.199939L 120.44375 113.799939L 14.94375 46.599939ZM 120.44375 113.799939L 45.84375 75.799939L 34.44375 92.499939L 110.54375 131.199939ZM 34.44375 92.499939L 94.24375 145.999939L 105.44375 129.299939L 45.84375 75.799939ZM 105.44375 129.299939L 50.64375 102.899939L 38.04375 118.999939L 94.24375 145.999939ZM 38.04375 118.999939L 75.84375 164.899939L 91.74375 152.599939L 50.64375 102.899939ZM 91.74375 152.599939L 87.74375 146.999939L 71.44375 158.699939L 75.84375 164.899939Z" fill-rule="nonzero"></path></g></g></g><g id="g-root-2.cu_sy_1hf2ysg1fdbhmq-fill" data-item-order="-222882" transform="translate(493.759765625, 211.265625)"><g id="2.cu_sy_1hf2ysg1fdbhmq-fill" stroke="none" fill="#fff8b6"><g><path d="M 136.040234 165.034375L 142.640234 164.434375L 140.640234 144.534375L 134.340234 145.134375ZM 140.640234 144.534375L 69.340234 152.934375L 74.740234 172.434375L 142.640234 164.434375ZM 74.740234 172.434375L 142.040234 142.634375L 137.040234 122.934375L 69.340234 152.934375ZM 137.040234 122.934375L 58.140234 129.334375L 63.140234 148.934375L 142.040234 142.634375ZM 63.140234 148.934375L 139.940234 115.134375L 133.040234 96.234375L 58.140234 129.334375ZM 133.040234 96.234375L 15.540234 131.034375L 22.740234 149.734375L 139.940234 115.134375ZM 22.740234 149.734375L 131.040234 98.134375L 124.440234 79.134375L 15.540234 131.034375ZM 124.440234 79.134375L 10.040234 104.434375L 15.440234 123.634375L 131.040234 98.134375ZM 15.440234 123.634375L 128.340234 85.434375L 124.540234 65.534375L 10.040234 104.434375ZM 124.540234 65.534375L 30.640234 70.734375L 34.840234 90.534375L 128.340234 85.434375ZM 34.840234 90.534375L 109.040234 61.934375L 103.940234 42.434375L 30.640234 70.734375ZM 103.940234 42.434375L 38.740234 51.734375L 44.940234 71.134375L 109.040234 61.934375ZM 44.940234 71.134375L 100.940234 42.334375L 100.340234 20.234375L 38.740234 51.734375ZM 100.340234 20.234375L 77.540234 10.134375L 76.640234 31.634375L 100.940234 42.334375ZM 76.640234 31.634375L 91.840234 26.234375L 85.240234 7.434375L 77.540234 10.134375Z" fill-rule="nonzero"></path></g></g></g><g id="g-root-1.cu_sy_1hf2ysg1fdbhmr-fill" data-item-order="-222878" transform="translate(412.01641845703125, 148)"><g id="1.cu_sy_1hf2ysg1fdbhmr-fill" stroke="none" fill="#c8ffe5"><g><path d="M 12.383582 1.6L 5.883582 8.7L 16.383582 26.9L 27.183582 15ZM 16.383582 26.9L 48.883582 19.7L 34.883582 2.3L 5.883582 8.7ZM 34.883582 2.3L 6.883582 63.1L 23.883582 74.1L 48.883582 19.7ZM 23.883582 74.1L 70.383582 21.6L 53.383582 10.6L 6.883582 63.1ZM 53.383582 10.6L 19.183582 85.6L 36.483582 95.9L 70.383582 21.6ZM 36.483582 95.9L 89.383582 25.4L 71.583582 15.8L 19.183582 85.6ZM 71.583582 15.8L 32.083582 127L 50.083582 136L 89.383582 25.4ZM 50.083582 136L 113.083582 39.8L 95.583582 30L 32.083582 127ZM 95.583582 30L 46.583582 134.8L 63.983582 144.8L 113.083582 39.8ZM 63.983582 144.8L 130.483582 48.7L 112.683582 39.3L 46.583582 134.8ZM 112.683582 39.3L 84.683582 112.7L 102.483582 122L 130.483582 48.7ZM 102.483582 122L 147.883582 55.6L 129.883582 46.5L 84.683582 112.7ZM 129.883582 46.5L 105.083582 116.7L 122.783582 126.5L 147.883582 55.6ZM 122.783582 126.5L 166.383582 71.2L 149.483582 60.4L 105.083582 116.7ZM 149.483582 60.4L 141.383582 76.2L 159.083582 85.4L 166.383582 71.2Z" fill-rule="nonzero"></path></g></g></g><g id="g-root-0.cu_sy_18jfyjk1fdbifg-fill" data-item-order="-222874" transform="translate(316, 265)"><g id="0.cu_sy_18jfyjk1fdbifg-fill" stroke="none" fill="#ebebeb"><g><path d="M 197.5 147.3L 197 139L 176.5 133L 177.6 148.6ZM 176.5 133L 139.5 182.9L 157 193L 197 139ZM 157 193L 205.8 79.3L 188 70L 139.5 182.9ZM 188 70L 108.1 197.3L 126 206.4L 205.8 79.3ZM 126 206.4L 188.6 52.6L 170.6 43.9L 108.1 197.3ZM 170.6 43.9L 85 194.1L 103 202.8L 188.6 52.6ZM 103 202.8L 169 40.3L 150.9 31.7L 85 194.1ZM 150.9 31.7L 65.9 188L 83.9 196.7L 169 40.3ZM 83.9 196.7L 156.1 29.4L 138.3 20L 65.9 188ZM 138.3 20L 39.3 174.7L 56.9 184.3L 156.1 29.4ZM 56.9 184.3L 133.7 16.8L 116 7.5L 39.3 174.7ZM 116 7.5L 23.3 161.8L 41.2 170.9L 133.7 16.8ZM 41.2 170.9L 106.7 13.7L 88.8 4.6L 23.3 161.8ZM 88.8 4.6L 9.3 136.7L 27.2 145.8L 106.7 13.7ZM 27.2 145.8L 76.8 26.2L 59.1 16.7L 9.3 136.7ZM 59.1 16.7L 5.2 96.3L 23 105.6L 76.8 26.2ZM 23 105.6L 44.9 48.3L 26.2 41.2L 5.2 96.3Z" fill-rule="nonzero"></path></g></g></g><g id="g-root-truc_1hegr6o1fdh3bi-fill" data-item-order="0" transform="translate(454, 178)"></g><g id="g-root-tx_cashdeal_znsyao1fdlc0a-fill" data-item-order="0" transform="translate(46, 232)"><g id="tx_cashdeal_znsyao1fdlc0a-fill" stroke="none" fill="#484848"><g><text style="font: bold 20px &quot;Shantell Sans&quot;, cursive; white-space: pre;" font-weight="bold" font-size="20px" font-family="'Shantell Sans', cursive"><tspan x="12.55" y="34.53" dominant-baseline="ideographic">Cash Deal</tspan></text></g></g></g><g id="g-root-tx_physical_8zmzds1fdlczy-fill" data-item-order="0" transform="translate(640, 220)"><g id="tx_physical_8zmzds1fdlczy-fill" stroke="none" fill="#484848"><g><text style="font: bold 20px &quot;Shantell Sans&quot;, cursive; white-space: pre;" font-weight="bold" font-size="20px" font-family="'Shantell Sans', cursive"><tspan x="14.4" y="34.53" dominant-baseline="ideographic">Physical Retail </tspan><tspan x="68.45" y="58.53" dominant-baseline="ideographic">Deal</tspan></text></g></g></g><g id="g-root-tx_immediat_18fp40w1fdld6v-fill" data-item-order="0" transform="translate(16, 268)"><g id="tx_immediat_18fp40w1fdld6v-fill" stroke="none" fill="#484848"><g><text style="font: 20px &quot;Shantell Sans&quot;, cursive; white-space: pre;" font-size="20px" font-family="'Shantell Sans', cursive"><tspan x="39.32" y="34.53" dominant-baseline="ideographic">Immediate </tspan><tspan x="12.4" y="58.53" dominant-baseline="ideographic">purchase/sale at </tspan><tspan x="33.55" y="82.53" dominant-baseline="ideographic">spot market </tspan><tspan x="61.9" y="106.53" dominant-baseline="ideographic">prices.</tspan></text></g></g></g><g id="g-root-1_144vhr41fd5v5t-fill" data-item-order="0" transform="translate(232, 274)"></g><g id="g-root-tx_physical_v7zg681fdlcsj-fill" data-item-order="0" transform="translate(190, 16)"><g id="tx_physical_v7zg681fdlcsj-fill" stroke="none" fill="#484848"><g><text style="font: bold 20px &quot;Shantell Sans&quot;, cursive; white-space: pre;" font-weight="bold" font-size="20px" font-family="'Shantell Sans', cursive"><tspan x="45.49" y="34.53" dominant-baseline="ideographic">Physical </tspan><tspan x="12.81" y="58.53" dominant-baseline="ideographic">Wellhead Deal</tspan></text></g></g></g><g id="g-root-24_1d2e3kw1fda39l-fill" data-item-order="0" transform="translate(550, 274)"></g><g id="g-root-tx_directsa_18hkja81fdlc78-fill" data-item-order="0" transform="translate(646, 268)"><g id="tx_directsa_18hkja81fdlc78-fill" stroke="none" fill="#484848"><g><text style="font: 20px &quot;Shantell Sans&quot;, cursive; white-space: pre;" font-size="20px" font-family="'Shantell Sans', cursive"><tspan x="19.95" y="34.53" dominant-baseline="ideographic">Direct sale to </tspan><tspan x="12.18" y="58.53" dominant-baseline="ideographic">end-users with </tspan><tspan x="46.18" y="82.53" dominant-baseline="ideographic">delivery </tspan><tspan x="35.5" y="106.53" dominant-baseline="ideographic">schedules.</tspan></text></g></g></g><g id="g-root-stru_qssf4w1fdbhmu-fill" data-item-order="0" transform="translate(364, 316)"></g><g id="g-root-tx_agreemen_2r0yo1fdlcea-fill" data-item-order="0" transform="translate(484, 628.0001220703125)"><g id="tx_agreemen_2r0yo1fdlcea-fill" stroke="none" fill="#484848"><g><text style="font: 20px &quot;Shantell Sans&quot;, cursive; white-space: pre;" font-size="20px" font-family="'Shantell Sans', cursive"><tspan x="12" y="34.53" dominant-baseline="ideographic">Agreement to </tspan><tspan x="17.85" y="58.53" dominant-baseline="ideographic">buy/sell at a </tspan><tspan x="21.87" y="82.53" dominant-baseline="ideographic">future date.</tspan></text></g></g></g><g id="g-root-yuan_1d0ieu81fdlclj-fill" data-item-order="0" transform="translate(323, 178)"></g><g id="g-root-tx_producti_1cz9go01fdlafd-fill" data-item-order="0" transform="translate(34, 388)"><g id="tx_producti_1cz9go01fdlafd-fill" stroke="none" fill="#484848"><g><text style="font: bold 20px &quot;Shantell Sans&quot;, cursive; white-space: pre;" font-weight="bold" font-size="20px" font-family="'Shantell Sans', cursive"><tspan x="15.67" y="34.53" dominant-baseline="ideographic">Production </tspan><tspan x="49.42" y="58.53" dominant-baseline="ideographic">Deal</tspan></text></g></g></g><g id="g-root-2_18gy5cw1fdlb7u-fill" data-item-order="0" transform="translate(232, 406)"></g><g id="g-root-tran_1ltnp281fdlatr-fill" data-item-order="0" transform="translate(550, 406)"></g><g id="g-root-tx_swapdeal_hx5ew01fdlb7o-fill" data-item-order="0" transform="translate(664, 412)"><g id="tx_swapdeal_hx5ew01fdlb7o-fill" stroke="none" fill="#484848"><g><text style="font: bold 20px &quot;Shantell Sans&quot;, cursive; white-space: pre;" font-weight="bold" font-size="20px" font-family="'Shantell Sans', cursive"><tspan x="16.11" y="34.53" dominant-baseline="ideographic">Swap Deal</tspan></text></g></g></g><g id="g-root-tx_transact_qp1km81fdlce8-fill" data-item-order="0" transform="translate(28, 436)"><g id="tx_transact_qp1km81fdlce8-fill" stroke="none" fill="#484848"><g><text style="font: 20px &quot;Shantell Sans&quot;, cursive; white-space: pre;" font-size="20px" font-family="'Shantell Sans', cursive"><tspan x="17.33" y="34.53" dominant-baseline="ideographic">Transactions </tspan><tspan x="25.67" y="58.53" dominant-baseline="ideographic">tied to gas </tspan><tspan x="21.02" y="82.53" dominant-baseline="ideographic">output from </tspan><tspan x="51.15" y="106.53" dominant-baseline="ideographic">wells.</tspan></text></g></g></g><g id="g-root-tx_saleatpr_1i2sg1fdla86-fill" data-item-order="0" transform="translate(184, 64)"><g id="tx_saleatpr_1i2sg1fdla86-fill" stroke="none" fill="#484848"><g><text style="font: 20px &quot;Shantell Sans&quot;, cursive; white-space: pre;" font-size="20px" font-family="'Shantell Sans', cursive"><tspan x="59.72" y="34.53" dominant-baseline="ideographic">Sale at </tspan><tspan x="21.78" y="58.53" dominant-baseline="ideographic">production site </tspan><tspan x="29.4" y="82.53" dominant-baseline="ideographic">influenced by </tspan><tspan x="15.28" y="106.53" dominant-baseline="ideographic">local conditions.</tspan></text></g></g></g><g id="g-root-tx_involves_mb3hr41fdlbf1-fill" data-item-order="0" transform="translate(472, 64)"><g id="tx_involves_mb3hr41fdlbf1-fill" stroke="none" fill="#484848"><g><text style="font: 20px &quot;Shantell Sans&quot;, cursive; white-space: pre;" font-size="20px" font-family="'Shantell Sans', cursive"><tspan x="16.16" y="34.53" dominant-baseline="ideographic">Involves actual </tspan><tspan x="26.94" y="58.53" dominant-baseline="ideographic">delivery with </tspan><tspan x="22.37" y="82.53" dominant-baseline="ideographic">specific terms.</tspan></text></g></g></g><g id="g-root-tx_exchange_1lt11nk1fdlamb-fill" data-item-order="0" transform="translate(640, 448)"><g id="tx_exchange_1lt11nk1fdlamb-fill" stroke="none" fill="#484848"><g><text style="font: 20px &quot;Shantell Sans&quot;, cursive; white-space: pre;" font-size="20px" font-family="'Shantell Sans', cursive"><tspan x="34.67" y="34.53" dominant-baseline="ideographic">Exchange of </tspan><tspan x="24.75" y="58.53" dominant-baseline="ideographic">delivery terms </tspan><tspan x="17.18" y="82.53" dominant-baseline="ideographic">to mitigate risk.</tspan></text></g></g></g><g id="g-root-pipe_1lr5sps1fd8pah-fill" data-item-order="0" transform="translate(323, 502)"></g><g id="g-root-sett_vs0w1fdeayv-fill" data-item-order="0" transform="translate(454, 502)"></g><g id="g-root-tx_physical_1lu9zts1fdlcsg-fill" data-item-order="0" transform="translate(196, 580.0001220703125)"><g id="tx_physical_1lu9zts1fdlcsg-fill" stroke="none" fill="#484848"><g><text style="font: bold 20px &quot;Shantell Sans&quot;, cursive; white-space: pre;" font-weight="bold" font-size="20px" font-family="'Shantell Sans', cursive"><tspan x="16.75" y="34.53" dominant-baseline="ideographic">Physical NG </tspan><tspan x="55.42" y="58.53" dominant-baseline="ideographic">Deal</tspan></text></g></g></g><g id="g-root-tx_futurede_1upx02o1fdlb7z-fill" data-item-order="0" transform="translate(490, 592.0001220703125)"><g id="tx_futurede_1upx02o1fdlb7z-fill" stroke="none" fill="#484848"><g><text style="font: bold 20px &quot;Shantell Sans&quot;, cursive; white-space: pre;" font-weight="bold" font-size="20px" font-family="'Shantell Sans', cursive"><tspan x="15.38" y="34.53" dominant-baseline="ideographic">Future Deal</tspan></text></g></g></g><g id="g-root-tx_tangible_4ikj341fdlbm1-fill" data-item-order="0" transform="translate(196, 628.0001220703125)"><g id="tx_tangible_4ikj341fdlbm1-fill" stroke="none" fill="#484848"><g><text style="font: 20px &quot;Shantell Sans&quot;, cursive; white-space: pre;" font-size="20px" font-family="'Shantell Sans', cursive"><tspan x="39.71" y="34.53" dominant-baseline="ideographic">Tangible </tspan><tspan x="16.14" y="58.53" dominant-baseline="ideographic">transfer with </tspan><tspan x="41.76" y="82.53" dominant-baseline="ideographic">delivery </tspan><tspan x="12.99" y="106.53" dominant-baseline="ideographic">specifications.</tspan></text></g></g></g><g id="g-root-tx_physical_4lowio1fdlcsl-fill" data-item-order="0" transform="translate(484, 28)"><g id="tx_physical_4lowio1fdlcsl-fill" stroke="none" fill="#484848"><g><text style="font: bold 20px &quot;Shantell Sans&quot;, cursive; white-space: pre;" font-weight="bold" font-size="20px" font-family="'Shantell Sans', cursive"><tspan x="12.89" y="34.53" dominant-baseline="ideographic">Physical Deal</tspan></text></g></g></g><g id="g-root-8.cu_sy_qqwzvk1fdbimc-stroke" data-item-order="-222906" transform="translate(259.234375, 148)"><g id="8.cu_sy_qqwzvk1fdbimc-stroke" fill="none" stroke-linecap="round" stroke-linejoin="round" stroke-miterlimit="4" stroke="#484848" stroke-width="4"><g><path d="M 162.765625 10C 161.765625 17.5 160.865625 25.3 162.765625 32.6C 167.965625 52.4 161.565625 73.6 162.765625 94C 151.265625 92.7 139.965625 95.4 129.365625 98.3C 133.665625 108.6 138.465625 118.7 142.165625 129.2C 129.865625 130.1 118.565625 136.2 109.065625 143.4C 104.365625 133.1 98.865625 123 96.065625 112.1C 87.065625 118.9 77.765625 125.2 69.365625 132.7C 50.565625 113.2 29.065625 92.4 9.965625 73.3C 24.165625 60.7 38.965625 48.6 55.265625 38.6C 69.665625 29.8 86.065625 24.5 102.365625 18.6C 121.065625 11.7 141.765625 10.5 162.765625 10M 162.766 10L 162.7843 10L 162.7868 32.619C 162.789 53.0793 162.7912 73.5397 162.7952 94L 162.766 94C 151.2191 94 140.0184 95.4826 129.3441 98.2679L 142.1646 129.2194C 130.1367 131.8501 118.9524 136.7358 109.0769 143.411L 96.0883 112.0539C 86.3215 117.7815 77.3566 124.729 69.4027 132.687C 50.2617 113.5625 29.0971 92.3987 10 73.2959C 49.0908 34.1894 103.1035 10 162.766 10Z"></path></g></g></g><g id="g-root-7.cu_sy_hvwgps1fdbg99-stroke" data-item-order="-222902" transform="translate(196, 211.2725830078125)"><g id="7.cu_sy_hvwgps1fdbg99-stroke" fill="none" stroke-linecap="round" stroke-linejoin="round" stroke-miterlimit="4" stroke="#484848" stroke-width="4"><g><path d="M 73.3 10.027386C 61.7 19.527386 53.8 32.627386 45 44.827386C 36.9 56.127386 30.3 68.527386 25.7 81.727386C 20.9 95.427386 16.9 109.327386 13.5 123.827386C 10.6 136.327386 10.6 149.427386 10 162.727386C 22.8 163.427386 35.6 162.127386 48.4 162.727386C 63.6 163.427386 78.9 164.027386 94 162.727386C 93.8 151.227386 95.4 139.927386 98.3 129.327386C 109.7 132.827386 120.9 137.327386 131.4 143.027386C 133.2 130.827386 138.3 119.627386 144.3 109.427386C 133.7 104.427386 122.9 100.127386 112.1 96.027386C 118.4 86.727386 125.9 78.327386 132.7 69.427386C 111.7 50.827386 92.1 30.727386 73.3 10.027386M 73.2573 10C 34.1735 49.0877 10 103.085 10 162.7279L 94 162.7275C 94 151.1795 95.4829 139.9778 98.2687 129.3026L 131.4497 143.0466C 133.581 130.884 138.0017 119.5093 144.2511 109.383L 112.0555 96.0472C 117.7761 86.2927 124.7135 77.3382 132.6593 69.392L 73.2573 10Z"></path></g></g></g><g id="g-root-6.cu_sy_dg2ylc1fdbh1i-stroke" data-item-order="-222898" transform="translate(196, 363.9991455078125)"><g id="6.cu_sy_dg2ylc1fdbh1i-stroke" fill="none" stroke-linecap="round" stroke-linejoin="round" stroke-miterlimit="4" stroke="#484848" stroke-width="4"><g><path d="M 10 10.000916C 11.2 31.200916 14.4 51.400916 18.8 71.100916C 22.8 89.000916 32 104.900916 40.5 120.700916C 48.9 136.500916 61.1 149.700916 73.3 162.700916C 83.8 152.300916 93.1 140.700916 104.6 131.400916C 114.9 123.100916 123 112.400916 132.7 103.300916C 123.5 96.900916 117.7 86.500916 112.1 76.700916C 123.4 70.800916 135.4 66.400916 147.4 62.100916C 140.8 52.100916 137.2 40.600916 132.6 29.200916C 121.2 34.000916 109.6 38.400916 98.3 43.400916C 94.3 33.100916 93.4 21.500916 94 10.000916C 66 9.900916 38 9.300916 10 10.000916M 10 10C 10 69.6467 34.1766 123.6467 73.2649 162.735L 132.6621 103.3383C 124.7166 95.3928 117.7793 86.4392 112.0586 76.6857L 147.356 62.065C 140.5033 52.2946 135.4248 41.1889 132.5885 29.2158L 98.2703 43.4309C 95.4835 32.7538 94 21.5502 94 10L 10 10Z"></path></g></g></g><g id="g-root-5.cu_sy_4kfycg1fdbhu7-stroke" data-item-order="-222894" transform="translate(259.2642517089844, 441.8797607421875)"><g id="5.cu_sy_4kfycg1fdbhu7-stroke" fill="none" stroke-linecap="round" stroke-linejoin="round" stroke-miterlimit="4" stroke="#484848" stroke-width="4"><g><path d="M 111.035748 10.020178C 120.035748 17.720178 132.135748 22.620178 144.435748 23.420178C 139.135748 35.420178 135.935748 48.520178 129.335748 59.820178C 139.735748 63.420178 151.235748 62.620178 162.735748 64.120178C 163.735748 84.420178 163.435748 104.720178 162.735748 125.020178C 162.435748 132.720178 164.535748 140.620178 162.735748 148.120178C 135.535748 149.420178 110.035748 141.520178 85.435748 133.920178C 56.235748 124.720178 32.235748 105.020178 10.035748 84.820178C 29.035748 64.320178 50.835748 46.420178 69.435748 25.420178C 76.135748 34.420178 85.635748 41.620178 96.035748 46.020178C 101.035748 34.020178 107.435748 22.520178 111.035748 10.020178M 110.9991 10C 121.0219 16.4254 132.3177 21.0387 144.4241 23.3775L 129.3156 59.8526C 139.9807 62.6353 151.1711 64.1177 162.7074 64.1201C 162.7113 84.4042 162.7134 104.6883 162.7156 124.9724L 162.7181 148.1201C 103.078 148.1153 49.0845 123.9392 10 84.8542L 69.3977 25.458C 77.3457 33.406 86.3025 40.3452 96.0597 46.067L 110.9991 10Z"></path></g></g></g><g id="g-root-4.cu_sy_4mg801fdbimg-stroke" data-item-order="-222890" transform="translate(411.97265625, 441.8798828125)"><g id="4.cu_sy_4mg801fdbimg-stroke" fill="none" stroke-linecap="round" stroke-linejoin="round" stroke-miterlimit="4" stroke="#484848" stroke-width="4"><g><path d="M 43.427344 59.820117C 39.727344 47.220117 34.627344 34.920117 28.327344 23.420117C 40.527344 21.420117 52.427344 17.420117 61.727344 10.020117C 67.527344 21.620117 70.627344 34.620117 76.727344 46.020117C 85.827344 39.420117 95.027344 33.020117 103.327344 25.420117C 124.027344 44.320117 141.727344 66.420117 162.727344 84.820117C 153.127344 96.120117 140.827344 104.820117 128.227344 112.920117C 116.627344 120.420117 104.427344 127.020117 91.427344 132.220117C 78.527344 137.520117 65.027344 141.520117 51.127344 144.220117C 37.827344 146.820117 24.027344 146.620117 10.027344 148.120117C 11.527344 140.720117 10.827344 133.020117 10.027344 125.520117C 7.827344 105.120117 9.127344 84.620117 10.027344 64.120117C 21.427344 65.920117 32.727344 62.620117 43.427344 59.820117M 10.227344 232.120117C 10.327344 232.120117 10.427344 232.120117 10.527344 232.120117C 10.327344 232.120117 10.227344 232.120117 10.027344 232.120117M 43.4564 59.8507L 28.3486 23.3773C 40.455 21.0386 51.7508 16.4254 61.7737 10L 76.7114 46.0629C 86.4666 40.3414 95.4217 33.403 103.3683 25.4561C 123.1679 45.2545 142.9664 65.054 162.7647 84.8536C 123.6763 123.9429 69.6755 148.1203 10.0279 148.1203L 10.0107 148.1203L 10.0082 125.5088C 10.006 105.0459 10.0039 84.5831 10 64.1203L 10.0279 64.1203C 21.5772 64.1203 32.78 62.637 43.4564 59.8507ZM 10.2171 232.1203C 10.3249 232.1204 10.4326 232.1205 10.5403 232.1203L 10.0285 232.1203L 10.2171 232.1203Z"></path></g></g></g><g id="g-root-3.cu_sy_1luwgww1fdbguh-stroke" data-item-order="-222886" transform="translate(490.65625, 364.0001220703125)"><g id="3.cu_sy_1luwgww1fdbguh-stroke" fill="none" stroke-linecap="round" stroke-linejoin="round" stroke-miterlimit="4" stroke="#484848" stroke-width="4"><g><path d="M 147.34375 9.999939C 148.84375 25.499939 146.14375 40.799939 142.54375 55.299939C 139.44375 68.399939 135.14375 80.899939 130.74375 93.299939C 126.34375 105.599939 119.54375 116.799939 112.44375 127.699939C 104.24375 140.399939 95.64375 153.099939 84.04375 162.699939C 63.24375 143.999939 44.34375 123.199939 24.64375 103.299939C 33.24375 95.999939 38.04375 85.399939 45.24375 76.699939C 34.24375 70.299939 21.64375 67.099939 10.04375 62.099939C 18.24375 53.399939 22.24375 41.299939 24.74375 29.199939C 35.64375 34.999939 47.64375 38.699939 59.04375 43.399939C 61.34375 32.599939 65.24375 21.399939 63.34375 9.999939C 78.54375 9.999939 93.84375 11.199939 108.94375 9.999939C 121.74375 8.999939 134.54375 9.599939 147.34375 9.999939M 147.3442 10.0005C 147.3442 69.647 123.1678 123.6469 84.0797 162.7351L 24.6826 103.3383C 32.6294 95.3914 39.5677 86.4359 45.2889 76.6803L 10 62.0632C 16.8527 52.2927 21.931 41.187 24.7672 29.2138L 59.0756 43.4248C 61.8613 32.7495 63.3442 21.5479 63.3442 10L 147.3442 10.0005Z"></path></g></g></g><g id="g-root-2.cu_sy_1hf2ysg1fdbhmq-stroke" data-item-order="-222882" transform="translate(493.759765625, 211.265625)"><g id="2.cu_sy_1hf2ysg1fdbhmq-stroke" fill="none" stroke-linecap="round" stroke-linejoin="round" stroke-miterlimit="4" stroke="#484848" stroke-width="4"><g><path d="M 144.240234 162.734375C 143.240234 130.134375 135.240234 99.834375 124.040234 71.434375C 114.740234 47.834375 98.240234 28.134375 80.940234 10.034375C 62.240234 30.834375 41.340234 49.534375 21.540234 69.434375C 28.140234 78.534375 36.640234 86.234375 42.140234 96.034375C 31.740234 101.134375 21.040234 105.834375 10.040234 109.434375C 15.840234 119.734375 19.140234 131.234375 22.840234 143.034375C 33.540234 137.734375 45.440234 135.034375 55.940234 129.334375C 59.640234 139.734375 61.440234 151.234375 60.240234 162.734375C 88.240234 164.334375 116.240234 162.334375 144.240234 162.734375M 144.24 162.7346C 144.2398 103.088 120.0632 49.0882 80.9751 10L 21.5781 69.397C 29.5257 77.3446 36.4646 86.301 42.1861 96.0576L 10 109.3895C 16.2494 119.5158 20.67 130.8906 22.8012 143.0532L 55.9721 129.3134C 58.7573 139.9876 60.2399 151.188 60.24 162.7347L 144.24 162.7346Z"></path></g></g></g><g id="g-root-1.cu_sy_1hf2ysg1fdbhmr-stroke" data-item-order="-222878" transform="translate(412.01641845703125, 148)"><g id="1.cu_sy_1hf2ysg1fdbhmr-stroke" fill="none" stroke-linecap="round" stroke-linejoin="round" stroke-miterlimit="4" stroke="#484848" stroke-width="4"><g><path d="M 9.983582 10C 27.983582 11.2 45.183582 14 62.283582 16.4C 82.583582 19.1 101.383582 28.3 118.183582 39C 134.083582 49.2 149.483582 60.1 162.683582 73.3C 143.883582 93.9 121.783582 111.6 103.283582 132.7C 94.783582 125.4 87.083582 116.5 76.683582 112.1C 73.083582 122.8 66.883582 132.6 63.683582 143.4C 54.083582 136.3 42.783582 130.9 30.583582 129.2C 35.383582 119.1 38.483582 108.3 43.383582 98.3C 32.583582 96.2 21.583582 94.4 9.983582 94C 11.683582 81.1 11.783582 67.9 9.983582 55C 7.983582 40.2 11.583582 24.9 9.983582 10M 10 10C 69.6404 10.0043 123.6342 34.1801 162.719 73.2649L 103.3222 132.662C 95.377 124.7169 86.4237 117.7798 76.6707 112.0592L 63.6843 143.411C 53.8089 136.7357 42.6245 131.85 30.5967 129.2192L 43.416 98.2706C 32.7485 95.4862 21.5553 94.0027 10.016 94L 10 10Z"></path></g></g></g><g id="g-root-0.cu_sy_18jfyjk1fdbifg-stroke" data-item-order="-222874" transform="translate(316, 265)"><g id="0.cu_sy_18jfyjk1fdbifg-stroke" fill="none" stroke-linecap="round" stroke-linejoin="round" stroke-miterlimit="4" stroke="#484848" stroke-width="4"><g><path d="M 202 106C 201.7 122.4 196.6 137.2 190.6 151.3C 184.5 165.9 172.1 176.6 159.4 185.8C 144.5 196.6 125.7 203 106 202C 81.4 200.7 58.6 193 41.9 177.4C 22.6 159.5 11.9 134.3 10 106C 8.9 89 13.8 72.5 22.3 59C 31.7 44.1 43.1 29.6 59.1 22.2C 73.6 15.6 89 10.7 106 10C 124 9.2 140.5 15.6 155.3 23.6C 170.3 31.7 182.6 44.6 190.2 59.9C 197.2 73.8 200.5 89.3 202 106M 202 106C 202 159.0193 159.0193 202 106 202C 52.9807 202 10 159.0193 10 106C 10 52.9807 52.9807 10 106 10C 159.0193 10 202 52.9807 202 106Z"></path></g></g></g><g id="g-root-truc_1hegr6o1fdh3bi-stroke" data-item-order="0" transform="translate(454, 178)"><g id="truc_1hegr6o1fdh3bi-stroke" fill="none" stroke-linecap="round" stroke-linejoin="round" stroke-miterlimit="4" stroke="#484848" stroke-width="2"><g><path d="M 47 46C 48 43.599998 46.799999 40.599998 47 38C 47 36.799999 46 35.799999 45 36C 39 36.799999 33 36.799999 27 36C 26 35.799999 24.799999 36.799999 25 38C 25.6 42.599998 25.200001 47.400002 25 52C 26.4 51.799999 27.799999 51.799999 29 52M 47 50C 48.200001 46.599998 46.200001 42.599998 47 39C 48.200001 38.599998 49.599998 39 51 39C 54.400002 39 56.799999 41.799999 57 45C 57 46.599998 57.599998 48.400002 57 50C 56.599998 51 56 52.200001 55 52C 53.400002 51.799999 51.599998 51.400002 50 52M 57 46C 55.599998 45.799999 54.400002 46 53 46C 51.799999 46 51.200001 45 51 44C 50.599998 42.400002 51.200001 40.599998 51 39M 44 53C 44.200001 54.599998 45.400002 55.799999 47 56C 48.599998 56.400002 50.599998 54.599998 50 53C 49.400002 51.400002 48.599998 50 47 50C 45.400002 50 43.400002 51.400002 44 53M 29 53C 29.6 54.599998 30.4 56.400002 32 56C 33.599998 55.599998 34.799999 54.599998 35 53C 35.200001 51.400002 33.599998 50.599998 32 50C 30.4 49.400002 29 51.400002 29 53M 44 52C 41 52.599998 37.799999 53 35 52M 21 42C 18.4 41.799999 15.6 42 13 42C 11.8 42 10.6 41 11 40C 12.8 33.799999 12 27.200001 11 20.799999C 11 20.4 11.2 19.6 11.6 19.4C 14.4 17.6 15.6 14 18.4 12.6C 18.799999 12.4 19.4 12 19.799999 12C 23.200001 12 27 10.8 30.200001 12C 30.6 12.2 31.200001 12.2 31.6 12.6C 33.599998 15 36.200001 17 38.400002 19.4C 38.799999 19.799999 38.799999 20.4 39 20.799999C 40.400002 24.200001 39 28.200001 39 32M 25 12C 25.799999 14.6 24.6 17.4 25 20M 38.799999 20C 29.6 19.200001 20.4 21 11.2 20M 47 46L 47 38C 47 36.895432 46.104568 36 45 36L 27 36C 25.895432 36 25 36.895432 25 38L 25 52L 29 52M 47 50L 47 39L 51 39C 54.313709 39 57 41.686295 57 45L 57 50C 57 51.104568 56.104568 52 55 52L 50 52M 57 46L 53 46C 51.895432 46 51 45.104568 51 44L 51 39M 44 53C 44 54.656857 45.343147 56 47 56C 48.656857 56 50 54.656857 50 53C 50 51.343147 48.656857 50 47 50C 45.343147 50 44 51.343147 44 53M 29 53C 29 54.656857 30.343147 56 32 56C 33.656853 56 35 54.656857 35 53C 35 51.343147 33.656853 50 32 50C 30.343147 50 29 51.343147 29 53M 44 52L 35 52M 21 42L 13 42C 11.895431 42 11 41.104568 11 40L 11 20.82C 11.002209 20.295321 11.210512 19.792522 11.58 19.42L 18.42 12.58C 18.792522 12.210512 19.295321 12.002209 19.82 12L 30.18 12C 30.704679 12.002209 31.207479 12.210512 31.58 12.58L 38.419998 19.42C 38.78949 19.792522 38.997791 20.295321 39 20.82L 39 32M 25 12L 25 20M 38.82 20L 11.18 20"></path></g></g></g><g id="g-root-tx_cashdeal_znsyao1fdlc0a-stroke" data-item-order="0" transform="translate(46, 232)"></g><g id="g-root-tx_physical_8zmzds1fdlczy-stroke" data-item-order="0" transform="translate(640, 220)"></g><g id="g-root-tx_immediat_18fp40w1fdld6v-stroke" data-item-order="0" transform="translate(16, 268)"></g><g id="g-root-1_144vhr41fd5v5t-stroke" data-item-order="0" transform="translate(232, 274)"><g id="1_144vhr41fd5v5t-stroke" fill="none" stroke-linecap="round" stroke-linejoin="round" stroke-miterlimit="4" stroke="#484848" stroke-width="2"><g><path d="M 34 47C 37 49.400002 39.400002 52.400002 42 55M 42 47C 40.200001 50.200001 36.400002 52.200001 34 55M 57 57C 53.400002 56.200001 49.599998 56.200001 46 57C 48.799999 55.799999 50.200001 52.200001 53 50.799999C 55.400002 49.599998 56.599998 47.799999 56 45C 55.400002 42.400002 53 40.599998 50.400002 41C 48 41.400002 45.400002 43.599998 46 46M 11 16C 11.6 18.6 16 20.6 22 21C 28 21.4 33.599998 18.6 33 16C 32.400002 13.4 27.799999 12.8 22 11C 16.200001 9.2 11.2 13.2 11 16M 33 22C 32 24.6 28 27.6 22 27C 16 26.4 11.2 24.799999 11 22M 33 28C 33 30.799999 27.799999 31 22 33C 16.200001 35 10.2 30.6 11 28M 33 34C 33.200001 36.799999 28 39.799999 22 39C 16 38.200001 11.8 36.599998 11 34M 11 16C 8.8 25.799999 13.8 36.400002 11 46C 10.2 48.599998 16 49.599998 22 51C 24.799999 51.400002 27.6 50.599998 30 49.400002M 33 16C 33.799999 24 32.599998 32 33 40C 33.200001 42.799999 28 44.400002 22 45C 16 45.599998 10.6 42.799999 11 40M 34 47L 42 55M 42 47L 34 55M 57 57L 46 57L 53 50.821999C 54.973999 49.082001 56.481998 47.863998 55.900002 45C 55.388828 42.482609 53.053265 40.762131 50.497505 41.020287C 47.941742 41.278446 45.997417 43.431236 46 46M 11 16C 11 18.761425 15.924868 21 22 21C 28.075132 21 33 18.761425 33 16C 33 13.238577 28.075132 11 22 11C 15.924868 11 11 13.238577 11 16ZM 33 22C 33 24.762001 28.076 27 22 27C 15.924 27 11 24.762001 11 22M 33 28C 33 30.761999 28.076 33 22 33C 15.924 33 11 30.761999 11 28M 33 34C 33 36.762001 28.076 39 22 39C 15.924 39 11 36.762001 11 34M 11 16L 11 46C 11 48.762001 15.924 51 22 51C 24.748592 51.060978 27.477795 50.526054 30 49.431999M 33 16L 33 40C 33 42.762001 28.076 45 22 45C 15.924 45 11 42.762001 11 40"></path></g></g></g><g id="g-root-tx_physical_v7zg681fdlcsj-stroke" data-item-order="0" transform="translate(190, 16)"></g><g id="g-root-24_1d2e3kw1fda39l-stroke" data-item-order="0" transform="translate(550, 274)"><g id="24_1d2e3kw1fda39l-stroke" fill="none" stroke-linecap="round" stroke-linejoin="round" stroke-miterlimit="4" stroke="#484848" stroke-width="2"><g><path d="M 11 57C 11.6 51 11.6 45 11 39C 10.8 38 12 37.400002 13 37C 26.200001 32.400002 41.200001 34.400002 55 37C 56 37.200001 57.200001 38 57 39C 56 45 56.400002 51 57 57M 21 46C 21 44.400002 22.4 42.400002 24 43C 25.6 43.599998 26.4 44.400002 27 46C 27.4 47 26.6 47.799999 26 48.599998C 24.6 51 23.4 53.599998 21 55C 23 55.599998 25 55.200001 27 55M 36 51C 34.200001 51.599998 32 51.400002 30 51C 29.799999 49 30 42.200001 36 43C 35.400002 47 37.400002 51.200001 36 55M 42 43C 43.200001 46.799999 41.200001 51 42 55M 42 48C 43.200001 48.400002 44.599998 48 46 48C 47.200001 48 48.200001 49 48 50C 47.799999 51.599998 48.400002 53.400002 48 55M 47 37C 46.599998 35.400002 46.400002 33.599998 47 32M 43 27C 45.599998 27.799999 48.400002 27.6 51 27C 51 27 52.200001 27 52 28C 51.799999 29 52 30 52 31C 52 31 52 32 51 32C 48.400002 32.200001 45.599998 31.799999 43 32C 43 32 42.200001 32 42 31C 41.799999 30 41.799999 29 42 28C 42 28 42 27.200001 43 27M 17 17C 17 17.4 17 17.6 17 18C 17.200001 20.799999 19.4 23.799999 22 23C 24.6 22.200001 27.6 20.6 27 18C 27 17.6 26.799999 17.4 27 17M 27 17C 23.799999 16.200001 20.200001 16.4 17 17C 17 15.6 17.6 14 17 12.8C 16.799999 12.4 17.200001 11.8 17.6 11.8C 20.6 11.6 23.4 11 26.4 11.8C 26.799999 11.8 27 12.2 27 12.8C 27.200001 14.2 26.6 15.6 27 17M 14.2 33C 16.200001 30 18.4 27.6 22 27C 25.6 26.6 28.200001 29.6 29.799999 33M 11 57L 11 39C 11 37.895432 11.895431 37 13 37L 55 37C 56.104568 37 57 37.895432 57 39L 57 57M 21 46C 21 44.343147 22.343147 43 24 43L 24 43C 25.656855 43 27 44.343147 27 46L 27 46C 26.98068 46.980972 26.628004 47.926147 26 48.68L 21 55L 27 55M 36 51L 30 51C 30 49 30 43 36 43L 36 55M 42 43L 42 55M 42 48L 46 48C 47.104568 48 48 48.895432 48 50L 48 55M 47 37L 47 32M 43 27L 51 27C 51 27 52 27 52 28L 52 31C 52 31 52 32 51 32L 43 32C 43 32 42 32 42 31L 42 28C 42 28 42 27 43 27M 17 17L 17 18C 17 20.761425 19.238577 23 22 23C 24.761425 23 27 20.761425 27 18L 27 17M 27 17L 17 17L 17 12.7C 16.994095 12.277069 17.260199 11.898072 17.66 11.76C 20.463537 10.740568 23.536463 10.740568 26.34 11.76C 26.739801 11.898072 27.005907 12.277069 27 12.7ZM 14.26 33C 15.180237 29.47912 18.360847 27.022968 22 27.022968C 25.639153 27.022968 28.819763 29.47912 29.74 33"></path></g></g></g><g id="g-root-tx_directsa_18hkja81fdlc78-stroke" data-item-order="0" transform="translate(646, 268)"></g><g id="g-root-stru_qssf4w1fdbhmu-stroke" data-item-order="0" transform="translate(364, 316)"><g id="stru_qssf4w1fdbhmu-stroke" fill="none" stroke-linecap="round" stroke-linejoin="round" stroke-miterlimit="4" stroke="#484848" stroke-width="2"><g><path d="M 26 80C 25.6 75.199997 26.4 70.800003 26 66C 26 64.800003 26.799999 63.599998 28 64C 46.799999 70.400002 68.400002 60 88 64C 89.199997 64.400002 90.400002 64.800003 90 66C 88.800003 70.400002 88.400002 75.599998 90 80M 58 52C 57.599998 61.200001 56 70.800003 58 80M 38 32C 40.799999 42.799999 47.200001 50 58 52C 68.800003 54 78.800003 43.200001 78 32C 77.199997 20.799999 68.400002 8.4 58 12C 47.599998 15.6 36 21.200001 38 32M 58 40C 58 41.200001 58.400002 42.799999 58 44M 58 20C 58.400002 21.200001 58 22.799999 58 24M 50 40C 54 40.799999 58 40 62 40C 64.400002 40 66.400002 38.400002 66 36C 65.599998 34 64.400002 31.6 62 32C 59.200001 32.400002 56.400002 32.799999 54 32C 52 31.6 49.599998 30 50 28C 50.400002 26 52 24.4 54 24C 58 23.200001 62 24 66 24M 14 92C 14.4 98.800003 19.6 102.800003 26 104C 32.400002 105.199997 36.799999 98.400002 38 92C 39.200001 85.599998 32.799999 79.599998 26 80C 19.200001 80.400002 16.4 86 14 92M 46 80C 54 80.800003 62 80.400002 70 80C 68 87.599998 68 96.400002 70 104C 62 103.199997 53.599998 101.599998 46 104C 44 96.400002 48 87.599998 46 80M 90 80C 84 86.800003 79.599998 95.199997 78 104C 86 103.599998 94 105.599998 102 104C 96.800003 96.800003 96.400002 86 90 80M 26 80L 26 66C 26 64.895432 26.89543 64 28 64L 88 64C 89.104568 64 90 64.895432 90 66L 90 80M 58.015999 52L 58.015999 80M 38.015999 32C 38.015999 43.045696 46.970306 52 58.015999 52C 69.061691 52 78.015999 43.045696 78.015999 32C 78.015999 20.954306 69.061691 12 58.015999 12C 46.970306 12 38.015999 20.954306 38.015999 32M 58.015999 40L 58.015999 44M 58.015999 20L 58.015999 24M 50 40L 62 40C 64.209137 40 66 38.209137 66 36C 66 33.790863 64.209137 32 62 32L 54 32C 51.790859 32 50 30.209139 50 28C 50 25.790861 51.790859 24 54 24L 66 24M 14.016 92C 14.016001 98.627419 19.388584 104 26.016001 104C 32.643417 104 38.015999 98.627419 38.015999 92C 38.015999 85.372589 32.643417 80 26.016001 80C 19.388584 80 14.016001 85.372589 14.016001 92M 46.015999 80L 70.015999 80L 70.015999 104L 46.015999 104ZM 90.015999 80L 78.015999 104L 102.015999 104L 90.015999 80Z"></path></g></g></g><g id="g-root-tx_agreemen_2r0yo1fdlcea-stroke" data-item-order="0" transform="translate(484, 628.0001220703125)"></g><g id="g-root-yuan_1d0ieu81fdlclj-stroke" data-item-order="0" transform="translate(323, 178)"><g id="yuan_1d0ieu81fdlclj-stroke" fill="none" stroke-linecap="round" stroke-linejoin="round" stroke-miterlimit="4" stroke="#484848" stroke-width="2"><g><path d="M 55 11C 48.400002 9.8 41.400002 12.6 35 11C 34.400002 10.8 33.799999 11.2 33.599998 11.6C 33.400002 12 33 12.4 33 13C 32.599998 21.6 35.599998 30.6 33 39C 34.400002 38 36 37.200001 37 36C 38.400002 36.799999 39.599998 38 41 39C 42.400002 38.200001 43.799999 37.200001 45 36C 46 37.400002 47.799999 37.799999 49 39C 50.400002 38.200001 51.799999 37.200001 53 36C 54.200001 37 55.400002 38.400002 57 39C 56.799999 30.4 56.200001 21.6 57 13C 57 12.4 56.799999 11.8 56.400002 11.6C 56 11.4 55.599998 11 55 11M 26.799999 23C 24.799999 23 22.6 23 20.4 23C 19.4 23 18.4 23.200001 18 24C 17.6 24.799999 17 25.4 17 26.4C 17.6 33.799999 18.200001 41.599998 17 49C 20.4 49 23.799999 49.599998 27 49C 27.799999 51 30.200001 52.799999 34 53C 37.799999 53.200001 40.200001 51 41 49C 44.200001 48.200001 47.599998 49.400002 51 49C 50.599998 47.599998 51 46.200001 51 44.799999M 41 49C 40.799999 51.200001 37.599998 54.400002 34 53C 30.4 51.599998 27 51.200001 27 49C 21.799999 50 16.200001 48 11 49C 12.2 51 13.6 52.799999 14.8 54.799999C 16 56.799999 19 56.200001 21.200001 57C 29.200001 60 38.400002 55.599998 46.799999 57C 49 57.400002 51 55.599998 53.200001 54.799999C 55.400002 53.799999 57 51.400002 57 49C 51.599998 48.799999 46 47.200001 41 49M 41 16C 41 17.4 40.599998 18.799999 41 20C 41.200001 20.6 41.200001 21 41.400002 21.6C 41.599998 22 41.799999 22.6 42.200001 22.799999C 42.599998 23 43 23.4 43.400002 23.6C 43.799999 24 44.400002 24 45 24C 45.599998 24 46 23.799999 46.400002 23.6C 47 23.6 47.400002 23.200001 47.799999 22.799999C 48.200001 22.4 48.599998 22 48.599998 21.6C 48.799999 21 48.799999 20.6 49 20C 49.200001 18.799999 48.599998 17.4 49 16M 45 24C 44.400002 26.4 44.400002 29.200001 45 31.6M 41 28.200001C 43.599998 28.6 46.400002 28.6 49 28.200001M 54.976398 11L 34.999001 11C 34.4692 11 33.960999 11.210476 33.586399 11.585128C 33.211601 11.95978 33.001198 12.46792 33.001198 12.99776L 33.001198 38.968597L 36.996799 35.919998L 40.992203 39.020401L 44.987801 35.972L 48.9832 38.968597L 52.978802 35.972L 56.974201 38.968597L 56.974201 12.99776C 56.974201 12.46792 56.763802 11.95978 56.389198 11.585128C 56.0144 11.210476 55.506401 11 54.976398 11L 54.976398 11ZM 26.891939 23.03808L 20.3493 23.03808C 19.466061 23.03808 18.618999 23.38896 17.994461 24.0135C 17.3699 24.638039 17.019039 25.4851 17.019039 26.36834L 17.019039 49.008801L 27.007799 49.008801C 27.007799 51.206402 30.138201 53.004398 34 53.004398C 37.861603 53.004398 40.992001 51.206402 40.992001 49.008801L 50.980801 49.008801L 50.980801 44.719601M 40.992203 49.008801C 40.992203 51.206402 37.861603 53.0042 34 53.0042C 30.138399 53.0042 27.0079 51.206402 27.0079 49.008801L 11.025878 49.008801C 11.596564 51.291199 12.91378 53.317402 14.76816 54.765202C 16.62254 56.2132 18.907681 56.999599 21.260361 56.999802L 46.739601 56.999802C 49.0924 56.999599 51.377602 56.2132 53.2318 54.765202C 55.086201 53.317402 56.4034 51.291199 56.974201 49.008801L 40.992203 49.008801ZM 41.042999 16.083L 41.042999 20.02774C 41.042999 20.545761 41.145 21.05872 41.343201 21.537319C 41.541401 22.015919 41.832001 22.450779 42.198399 22.81708C 42.564602 23.18338 42.999599 23.473961 43.478199 23.672199C 43.956799 23.87044 44.469601 23.97246 44.987598 23.97246C 45.505798 23.97246 46.0186 23.87044 46.4972 23.672199C 46.9758 23.473961 47.410801 23.18338 47.777 22.81708C 48.143398 22.450779 48.433998 22.015919 48.632198 21.537319C 48.830399 21.05872 48.9324 20.545761 48.9324 20.02774L 48.9324 16.083M 44.987999 23.973141L 44.987999 31.614M 41.042999 28.247561L 48.9324 28.247561"></path></g></g></g><g id="g-root-tx_producti_1cz9go01fdlafd-stroke" data-item-order="0" transform="translate(34, 388)"></g><g id="g-root-2_18gy5cw1fdlb7u-stroke" data-item-order="0" transform="translate(232, 406)"><g id="2_18gy5cw1fdlb7u-stroke" fill="none" stroke-linecap="round" stroke-linejoin="round" stroke-miterlimit="4" stroke="#484848" stroke-width="2"><g><path d="M 11.6 20.6C 18.799999 20.6 26.4 18.4 33.599998 20.6C 35.200001 32.400002 33.200001 44.599998 33.599998 56.599998C 26.200001 56.599998 18.799999 57 11.6 56.599998C 9 44.799999 8.2 32 11.6 20.6M 19.6 11.6C 21.4 11 23.6 12 25.6 11.6C 29.799999 10.4 32.799999 15.2 33.599998 19.6C 33.599998 19.799999 33.599998 20.200001 33.599998 20.6C 26.200001 19.200001 18.6 22.200001 11.6 20.6C 11.4 20.200001 11.6 19.799999 11.6 19.6C 10.2 15.2 15.4 13.2 19.4 11.6M 49.599998 56.599998C 49.799999 53.799999 50.200001 51 49.599998 48.599998C 49 47 48 45 46.599998 45.599998C 42.400002 47 37.799999 45.599998 33.599998 45.599998C 34.200001 43.200001 33.799999 40.799999 33.599998 38.599998C 37.799999 39.400002 42.200001 39 46.599998 38.599998C 52 37.799999 56.799999 43 56.599998 48.599998C 56.400002 51.200001 56.599998 53.799999 56.599998 56.599998C 54.200001 57.200001 51.799999 57.200001 49.599998 56.599998M 41.599998 36.599998C 41.599998 40.200001 40.400002 44 41.599998 47.599998M 20.6 20.6C 21.6 32.200001 19.6 43.799999 20.6 55.599998M 27.6 20.6C 26.6 32.200001 28.6 43.799999 27.6 55.599998M 20.6 29.6C 22.6 28.6 25.4 30.4 27.6 29.6M 20.6 38.599998C 22.799999 38.799999 25.200001 38.599998 27.6 38.599998M 20.6 47.599998C 22.799999 47 25.4 48.200001 27.6 47.599998M 33.599998 56.599998C 38.799999 58.200001 45 58.200001 50.599998 56.599998M 11.5 20.5L 33.5 20.5L 33.5 56.5L 11.5 56.5ZM 19.5 11.5L 25.5 11.5C 29.918278 11.5 33.5 15.081722 33.5 19.5L 33.5 20.5L 33.5 20.5L 11.5 20.5L 11.5 20.5L 11.5 19.5C 11.5 15.081722 15.081722 11.5 19.5 11.5ZM 49.5 56.5L 49.5 48.5C 49.5 46.843147 48.156857 45.5 46.5 45.5L 33.5 45.5L 33.5 38.5L 46.5 38.5C 52.02285 38.5 56.5 42.977154 56.5 48.5L 56.5 56.5ZM 41.5 36.5L 41.5 47.5M 20.5 20.5L 20.5 55.5M 27.5 20.5L 27.5 55.5M 20.5 29.5L 27.5 29.5M 20.5 38.5L 27.5 38.5M 20.5 47.5L 27.5 47.5M 33.5 56.5L 50.5 56.5"></path></g></g></g><g id="g-root-tran_1ltnp281fdlatr-stroke" data-item-order="0" transform="translate(550, 406)"><g id="tran_1ltnp281fdlatr-stroke" fill="none" stroke-linecap="round" stroke-linejoin="round" stroke-miterlimit="4" stroke="#484848" stroke-width="2"><g><path d="M 41 17.6C 34.599998 16 27.6 16 21 17.6C 15.2 18.799999 13 23 13 27.6C 13 29.200001 13.2 30.799999 14 32.400002C 14.4 32.799999 14.8 33.200001 15.2 32.799999C 15.6 32.599998 16 32.400002 16 32C 16 31.4 16 31 16 30.6C 16.4 28.6 17 27.200001 21 27.6C 27.6 28.200001 34.400002 28.6 41 27.6C 41.200001 29.200001 40.799999 30.799999 41 32.599998C 41 33 41.400002 33.200001 41.599998 32.799999C 43.400002 28.799999 48.599998 27.200001 50.400002 23.200001C 50.599998 22.799999 50.799999 22 50.400002 21.799999C 46.799999 19.4 44.400002 15.6 41.599998 12.2C 41.400002 11.8 40.799999 12 41 12.6C 41.400002 14.2 41.200001 15.8 41 17.6M 27 51.599998C 33.599998 51 40.400002 51.599998 47 51.599998C 53 51.400002 56.200001 45.799999 55 41.599998C 54.599998 40 54.400002 38.400002 54 36.799999C 53.799999 36.200001 53.200001 36 52.799999 36.200001C 52.400002 36.400002 52 36.599998 52 37.200001C 52 37.599998 52 38 52 38.400002C 52 40.400002 51 42.200001 47 41.400002C 40.400002 40.400002 33.599998 41.599998 27 41.400002C 27.4 39.799999 26.799999 38.200001 27 36.400002C 27 36 26.799999 35.799999 26.4 36.200001C 23.4 39.400002 20.6 42.599998 17.6 45.799999C 17.200001 46.200001 17.4 46.799999 17.6 47.200001C 19.200001 51.200001 23.200001 53.799999 26.4 56.799999C 26.799999 57.200001 27 57 27 56.400002C 27.200001 54.799999 26.799999 53.200001 27 51.599998M 41 17.501999L 21 17.501999C 15 17.501999 13 23.084 13 27.502001C 13.026219 29.159662 13.395296 30.793949 14.084 32.302002C 14.273787 32.73534 14.74127 32.976398 15.204363 32.879719C 15.667457 32.783039 15.999443 32.375076 16 31.902L 16 30.514C 16 28.514 17 27.514 21 27.514L 41 27.514L 41 32.514C 41 33.063999 41.302002 33.181999 41.672001 32.774002L 50.327999 23.254C 50.69775 22.829948 50.69775 22.198055 50.328003 21.774002L 41.672001 12.254C 41.302002 11.854 41 11.964 41 12.514ZM 27 51.501999L 47 51.501999C 53 51.501999 55 45.919998 55 41.501999C 54.972752 39.847679 54.603691 38.216866 53.916 36.711998C 53.726212 36.27866 53.258732 36.037601 52.795635 36.134281C 52.332542 36.230961 52.000557 36.638924 52 37.112L 52 38.498001C 52 40.498001 51 41.498001 47 41.498001L 27 41.498001L 27 36.498001C 27 35.947998 26.698 35.832001 26.327999 36.237999L 17.672001 45.757999C 17.302254 46.182056 17.302254 46.81395 17.672001 47.238003L 26.327999 56.757999C 26.698 57.158001 27 57.048 27 56.498001Z"></path></g></g></g><g id="g-root-tx_swapdeal_hx5ew01fdlb7o-stroke" data-item-order="0" transform="translate(664, 412)"></g><g id="g-root-tx_transact_qp1km81fdlce8-stroke" data-item-order="0" transform="translate(28, 436)"></g><g id="g-root-tx_saleatpr_1i2sg1fdla86-stroke" data-item-order="0" transform="translate(184, 64)"></g><g id="g-root-tx_involves_mb3hr41fdlbf1-stroke" data-item-order="0" transform="translate(472, 64)"></g><g id="g-root-tx_exchange_1lt11nk1fdlamb-stroke" data-item-order="0" transform="translate(640, 448)"></g><g id="g-root-pipe_1lr5sps1fd8pah-stroke" data-item-order="0" transform="translate(323, 502)"><g id="pipe_1lr5sps1fd8pah-stroke" fill="none" stroke-linecap="round" stroke-linejoin="round" stroke-miterlimit="4" stroke="#484848" stroke-width="2"><g><path d="M 13.4 25C 12.6 18 21.200001 15.4 28 13C 30.799999 12 34.200001 14 37 13M 37 43C 34 42.799999 30.799999 42.200001 28 43C 20.4 45 13.2 36.799999 13 29M 45 53C 44.599998 51.400002 45.599998 49.599998 45 48.200001C 44.200001 45.799999 43.400002 43.400002 41 43.200001M 41 33C 48.599998 31 53 40.400002 55 48.200001C 55.400002 49.799999 54.599998 51.400002 55 53M 23 29C 22.6 31.4 25.6 33 28 33C 31 33 34.200001 32 37 33M 37 23C 34.200001 22 30.799999 23.799999 28 23C 26.4 22.6 25 23.799999 24 25M 41 23C 40.799999 24 40.200001 25 39 25C 37.799999 25 36.799999 24 37 23C 37.599998 19.799999 36.599998 16.4 37 13C 37.200001 12 38 10.6 39 11C 40 11.4 40.799999 11.8 41 13C 41.599998 16.200001 40.400002 19.6 41 23M 41 43C 40.799999 44 40 44.799999 39 45C 38 45.200001 37 44 37 43C 37.200001 39.599998 35.799999 36.200001 37 33C 37.400002 32 37.799999 31 39 31C 40.200001 31 41.200001 32 41 33C 40.400002 36.200001 41 39.599998 41 43M 45 57C 44 56.599998 43 56 43 55C 43 53.799999 44 53.200001 45 53C 48.200001 52 51.799999 52.200001 55 53C 56 53.200001 57 54 57 55C 57 56.200001 56 57 55 57C 51.599998 57 48.400002 56.799999 45 57M 26 27C 25.6 28 25.200001 28.799999 24 29C 20.4 29.4 16.6 28.799999 13 29C 11.8 29 10.8 28 11 27C 11.2 26 12 24.799999 13 25C 16.6 25.6 20.4 24.6 24 25C 25 25.200001 26.200001 25.799999 26 27M 13.302 25C 14.737495 18.021696 20.875587 13.010328 28 13L 37 13M 37 43L 28 43C 20.111231 42.991188 13.573991 36.880272 13.034 29.01M 45 53L 45 48.125999C 44.995899 45.730438 43.336235 43.655861 41 43.126003M 41 33.042C 48.890995 33.639801 54.991257 40.212399 55 48.125999L 55 53M 23.098 29C 23.576935 31.326941 25.624287 32.997566 28.000002 33L 37 33M 37 23L 28 23C 26.429733 23.003143 24.95216 23.743782 24.01 25M 41 23C 41 24.104568 40.104568 25 39 25C 37.895432 25 37 24.104568 37 23L 37 13C 37 11.895431 37.895432 11 39 11C 40.104568 11 41 11.895431 41 13ZM 41 43C 41 44.104568 40.104568 45 39 45C 37.895432 45 37 44.104568 37 43L 37 33C 37 31.89543 37.895432 31 39 31C 40.104568 31 41 31.89543 41 33ZM 45 57C 43.895432 57 43 56.104568 43 55C 43 53.895432 43.895432 53 45 53L 55 53C 56.104568 53 57 53.895432 57 55C 57 56.104568 56.104568 57 55 57ZM 26 27C 26 28.10457 25.104568 29 24 29L 13 29C 11.895431 29 11 28.10457 11 27C 11 25.895432 11.895431 25 13 25L 24 25C 25.104568 25 26 25.895432 26 27Z"></path></g></g></g><g id="g-root-sett_vs0w1fdeayv-stroke" data-item-order="0" transform="translate(454, 502)"><g id="sett_vs0w1fdeayv-stroke" fill="none" stroke-linecap="round" stroke-linejoin="round" stroke-miterlimit="4" stroke="#484848" stroke-width="2"><g><path d="M 15.142858 18.571428C 13.085714 18.228571 11.028571 20.285715 11.714286 22C 15.142858 31.6 15.485714 43.257141 11.714286 52.857143C 11.028571 54.57143 13.085714 56.285713 15.142858 56.285713C 27.828571 56.628574 40.514286 54.914288 52.857143 56.285713C 54.57143 56.628574 56.971428 54.57143 56.285713 52.857143C 53.200001 42.914288 54.228569 31.942858 56.285713 22C 56.628574 20.285715 54.57143 18.914286 52.857143 18.571428C 50.457146 18.228571 48.400002 18.914286 46 18.571428M 22 11.714286C 23.371429 16.171429 23.371429 20.971428 22 25.428572M 46 11.714286C 46.342857 16.171429 45.314285 20.971428 46 25.428572M 22 18.571428C 27.828571 18.914286 33.657143 17.542858 39.142857 18.571428M 34 25.428572C 34 27.142857 33.657143 28.857143 34 30.571428M 23.371429 31.6C 24.742859 32.628571 26.800001 32.628571 27.828571 34M 23.371429 43.600002C 24.742859 42.57143 26.457144 41.542858 27.828571 40.857143M 34 49.428574C 33.314285 47.714287 34 46 34 44.285713M 44.285713 43.600002C 43.257141 42.228569 41.200001 41.542858 39.828571 40.857143M 44.285713 31.6C 42.914288 32.628571 41.542858 33.314285 39.828571 34M 27.142857 37.428574C 27.485714 41.200001 30.228573 45.314285 34 44.285713C 37.428574 43.257141 40.171429 41.200001 40.857143 37.428574C 41.200001 33.657143 37.771431 30.571428 34 30.571428C 30.228573 30.571428 27.142857 33.657143 27.142857 37.428574M 15.142858 18.571428C 13.24931 18.571428 11.714286 20.106453 11.714286 22L 11.714286 52.857143C 11.714286 54.750694 13.24931 56.285713 15.142858 56.285713L 52.857143 56.285713C 54.750694 56.285713 56.285713 54.750694 56.285713 52.857143L 56.285713 22C 56.285713 20.106453 54.750694 18.571428 52.857143 18.571428L 46 18.571428M 22 11.714286L 22 25.428572M 46 11.714286L 46 25.428572M 22 18.571428L 39.142857 18.571428M 33.897141 25.428572L 33.897141 30.571428M 23.508572 31.428572L 27.965714 34M 23.508572 43.428574L 27.965714 40.857143M 33.897141 49.428574L 33.897141 44.285713M 44.285713 43.428574L 39.828571 40.857143M 44.285713 31.428572L 39.828571 34M 27.039999 37.428574C 27.039999 41.215668 30.110046 44.285713 33.897141 44.285713C 37.684238 44.285713 40.754288 41.215668 40.754288 37.428574C 40.754288 33.641476 37.684238 30.571428 33.897141 30.571428C 30.110046 30.571428 27.039999 33.641476 27.039999 37.428574"></path></g></g></g><g id="g-root-tx_physical_1lu9zts1fdlcsg-stroke" data-item-order="0" transform="translate(196, 580.0001220703125)"></g><g id="g-root-tx_futurede_1upx02o1fdlb7z-stroke" data-item-order="0" transform="translate(490, 592.0001220703125)"></g><g id="g-root-tx_tangible_4ikj341fdlbm1-stroke" data-item-order="0" transform="translate(196, 628.0001220703125)"></g><g id="g-root-tx_physical_4lowio1fdlcsl-stroke" data-item-order="0" transform="translate(484, 28)"></g></g></g></svg>