<?xml version="1.0" encoding="utf-8" standalone="yes"?>
<!DOCTYPE svg PUBLIC "-//W3C//DTD SVG 1.1//EN" "http://www.w3.org/Graphics/SVG/1.1/DTD/svg11.dtd">
<svg width="949" height="622" viewBox="0 0 949 622" style="fill:none;stroke:none;fill-rule:evenodd;clip-rule:evenodd;stroke-linecap:round;stroke-linejoin:round;stroke-miterlimit:1.5;" version="1.1" xmlns="http://www.w3.org/2000/svg" xmlns:xlink="http://www.w3.org/1999/xlink"><style class="text-font-style fontImports" data-font-family="Arial"></style><g id="items" style="isolation: isolate"><g id="blend" style="mix-blend-mode: normal"><g id="g-root-0.cu_sy_14305m11otd6hb-fill" data-item-order="-217364" transform="translate(235.50387573242188, 144.6943359375)"><g id="0.cu_sy_14305m11otd6hb-fill" stroke="none" fill="#4f92ff"><g><path d="M 147.40803 14.4789C 142.49003 20.1896 136.99603 24.0555 136.99603 24.0555C 136.99603 24.0555 133.70803 21.742 129.94203 18.0507C 122.74803 20.0888 118.13803 22.4824 116.92203 25.1948C 112.27203 35.5648 148.80203 43.0948 219.75203 45.7848C 260.67203 47.3348 297.29203 51.0548 299.18203 59.3448C 301.18203 68.1448 259.26203 72.5051 213.52203 73.8051C 175.96803 74.8724 148.07803 77.6386 128.03703 81.537C 121.62003 94.5157 106.99603 104.8055 106.99603 104.8055C 106.99603 104.8055 100.22303 100.0399 93.87313 92.9044C 88.32713 96.382 85.46903 100.1438 84.80213 104.0348C 82.27723 118.765 98.75223 136.465 212.42203 141.805C 269.00203 144.463 319.17203 153.225 321.62203 165.015C 326.17203 178.225 286.75203 189.018 213.52203 191.865C 154.44203 194.162 109.10813 199.806 76.40253 208.325C 79.32693 213.573 80.99493 219.629 80.99493 226.079L 80.99603 226.079C 80.99603 252.618 44.99603 277.806 44.99603 277.806C 44.99603 277.806 23.75763 262.946 13.90663 244.028C 12.33453 246.98 11.26983 250.037 10.70213 253.195C 2.50293 298.805 65.99603 326.805 207.47203 339.905C 284.96103 347.08 359.15203 362.805 366.25203 393.975C 371.92103 418.867 345.23603 438.904 296.99603 451.755L 440.09603 451.755C 456.26703 433.863 462.99903 413.649 458.75303 391.945C 456.24103 379.109 450.79503 367.395 441.71203 356.861C 429.70303 371.582 414.99603 381.805 414.99603 381.805C 414.99603 381.805 372.99603 352.611 372.99603 321.849L 372.99703 321.849C 372.99703 320.352 373.07503 318.872 373.22803 317.415C 334.70603 305.278 281.34503 297.159 209.20203 293.395C 130.05203 289.265 77.02913 274.525 80.11213 255.165C 83.19513 235.805 125.19203 223.305 212.42203 217.785C 333.48203 210.124 377.89403 191.865 373.51203 164.995C 372.55403 159.116 368.91803 153.582 361.86603 148.566C 354.41003 156.572 346.99603 161.805 346.99603 161.805C 346.99603 161.805 329.11703 149.183 320.96403 133.158C 296.62803 127.851 262.62903 124.175 216.47203 122.715C 145.27303 120.463 122.18203 113.205 125.19203 104.0248C 128.18203 95.2148 168.59203 88.7448 218.00203 86.8248C 300.06203 83.6348 338.35203 72.7448 333.48203 59.3448C 332.50803 56.6646 330.06303 54.2077 326.07003 51.9754C 321.54503 56.8545 316.99603 60.0555 316.99603 60.0555C 316.99603 60.0555 307.31503 53.2438 302.15303 44.3476C 283.59003 40.6331 256.55603 38.0803 220.14203 36.7048C 178.50203 35.1348 149.36203 32.0148 151.49203 25.1948C 153.51703 18.7313 184.55403 10.0441 220.84503 10C 192.73903 10.0187 166.52103 11.5905 147.40803 14.4789Z"></path></g></g></g><g id="g-root-1.cu_sy_znt4kp1otd43s-fill" data-item-order="-217360" transform="translate(598.5, 414.5)"><g id="1.cu_sy_znt4kp1otd43s-fill" stroke="none" fill="#4f92ff"><g><path d="M 10.0012 52.0439C 10.0012 28.8235 28.7764 10 51.9373 10L 52.0627 10C 75.2236 10 93.9988 28.8235 93.9988 52.0439L 94 52.0439C 94 82.8058 52 112 52 112C 52 112 10 82.8058 10 52.0439L 10.0012 52.0439Z"></path></g></g></g><g id="g-root-2.cu_sy_v7zmg91otd4w1-fill" data-item-order="-217356" transform="translate(234.5, 324.5)"><g id="2.cu_sy_v7zmg91otd4w1-fill" stroke="none" fill="#4f92ff"><g><path d="M 10.0011 46.2732C 10.0011 26.2399 26.0941 10 45.9463 10L 46.0537 10C 65.9059 10 81.9989 26.2399 81.9989 46.2732L 82 46.2732C 82 72.8129 46 98 46 98C 46 98 10 72.8129 10 46.2732L 10.0011 46.2732Z"></path></g></g></g><g id="g-root-3.cu_sy_v7zmg91otd4w2-fill" data-item-order="-217352" transform="translate(542.5, 222.5)"><g id="3.cu_sy_v7zmg91otd4w2-fill" stroke="none" fill="#4f92ff"><g><path d="M 10.0009 40.5024C 10.0009 23.6562 23.4117 10 39.9552 10L 40.0448 10C 56.5883 10 69.9991 23.6562 69.9991 40.5024L 70 40.5024C 70 62.8199 40 84 40 84C 40 84 10 62.8199 10 40.5024L 10.0009 40.5024Z"></path></g></g></g><g id="g-root-4.cu_sy_mccm7d1otd5or-fill" data-item-order="-217348" transform="translate(308.5, 180.5)"><g id="4.cu_sy_mccm7d1otd5or-fill" stroke="none" fill="#4f92ff"><g><path d="M 10.0007 34.3195C 10.0007 20.8881 20.7294 10 33.9642 10L 34.0358 10C 47.2706 10 57.9993 20.8881 57.9993 34.3195L 58 34.3195C 58 52.1132 34 69 34 69C 34 69 10 52.1132 10 34.3195L 10.0007 34.3195Z"></path></g></g></g><g id="g-root-5.cu_sy_hwj42x1otd6h0-fill" data-item-order="-217344" transform="translate(524.5, 150.5)"><g id="5.cu_sy_hwj42x1otd6h0-fill" stroke="none" fill="#4f92ff"><g><path d="M 10.0005 28.2396C 10.0005 18.1661 18.047 10 27.9731 10L 28.0269 10C 37.953 10 45.9995 18.1661 45.9995 28.2396L 46 28.2396C 46 41.5849 28 54.25 28 54.25C 28 54.25 10 41.5849 10 28.2396L 10.0005 28.2396Z"></path></g></g></g><g id="g-root-6.cu_sy_91ikx51otd43x-fill" data-item-order="-217340" transform="translate(344.5, 114.5)"><g id="6.cu_sy_91ikx51otd43x-fill" stroke="none" fill="#4f92ff"><g><path d="M 10.0005 28.2396C 10.0005 18.1661 18.047 10 27.9731 10L 28.0269 10C 37.953 10 45.9995 18.1661 45.9995 28.2396L 46 28.2396C 46 41.5849 28 54.25 28 54.25C 28 54.25 10 41.5849 10 28.2396L 10.0005 28.2396Z"></path></g></g></g><g id="g-root-tx_transfer_18egfah1oss0zw-fill" data-item-order="0" transform="translate(146.5, 12.5)"><g id="tx_transfer_18egfah1oss0zw-fill" stroke="none" fill="#4f92ff"><g><text style="font: bold 20px Arial, Helvetica, sans-serif; white-space: pre;" font-weight="bold" font-size="20px" font-family="Arial, Helvetica, sans-serif"><tspan x="22.65" y="33" dominant-baseline="ideographic">Transfer to End-</tspan><tspan x="120.4" y="57" dominant-baseline="ideographic">Users</tspan></text></g></g></g><g id="g-root-tx_transfer_1uuwz1l1otd4ao-fill" data-item-order="0" transform="translate(590.5, 48.5)"><g id="tx_transfer_1uuwz1l1otd4ao-fill" stroke="none" fill="#4f92ff"><g><text style="font: bold 20px Arial, Helvetica, sans-serif; white-space: pre;" font-weight="bold" font-size="20px" font-family="Arial, Helvetica, sans-serif"><tspan x="12" y="33" dominant-baseline="ideographic">Transfer to </tspan><tspan x="12" y="57" dominant-baseline="ideographic">Industrial Users</tspan></text></g></g></g><g id="g-root-tx_providin_1hjggo91otd5vm-fill" data-item-order="0" transform="translate(158.5, 72.5)"><g id="tx_providin_1hjggo91otd5vm-fill" stroke="none" fill="#4f92ff"><g><text style="font: 20px Arial, Helvetica, sans-serif; white-space: pre;" font-size="20px" font-family="Arial, Helvetica, sans-serif"><tspan x="20.58" y="33" dominant-baseline="ideographic">Providing gas to </tspan><tspan x="23.92" y="57" dominant-baseline="ideographic">other end-users</tspan></text></g></g></g><g id="g-root-tx_supplyin_9mf6x1otd3pi-fill" data-item-order="0" transform="translate(590.5, 108.5)"><g id="tx_supplyin_9mf6x1otd3pi-fill" stroke="none" fill="#4f92ff"><g><text style="font: 20px Arial, Helvetica, sans-serif; white-space: pre;" font-size="20px" font-family="Arial, Helvetica, sans-serif"><tspan x="12" y="33" dominant-baseline="ideographic">Supplying gas to </tspan><tspan x="12" y="57" dominant-baseline="ideographic">industrial consumers</tspan></text></g></g></g><g id="g-root-tx_transfer_4otg891otd630-fill" data-item-order="0" transform="translate(86.5, 192.5)"><g id="tx_transfer_4otg891otd630-fill" stroke="none" fill="#4f92ff"><g><text style="font: bold 20px Arial, Helvetica, sans-serif; white-space: pre;" font-weight="bold" font-size="20px" font-family="Arial, Helvetica, sans-serif"><tspan x="18.84" y="33" dominant-baseline="ideographic">Transfer to Utilities</tspan></text></g></g></g><g id="g-root-tx_deliveri_i09yll1otd4i2-fill" data-item-order="0" transform="translate(122.5, 228.5)"><g id="tx_deliveri_i09yll1otd4i2-fill" stroke="none" fill="#4f92ff"><g><text style="font: 20px Arial, Helvetica, sans-serif; white-space: pre;" font-size="20px" font-family="Arial, Helvetica, sans-serif"><tspan x="15.03" y="33" dominant-baseline="ideographic">Delivering gas to </tspan><tspan x="16.16" y="57" dominant-baseline="ideographic">utility companies</tspan></text></g></g></g><g id="g-root-tx_sellgas_qvwyuh1otd3pc-fill" data-item-order="0" transform="translate(638.5, 240.5)"><g id="tx_sellgas_qvwyuh1otd3pc-fill" stroke="none" fill="#4f92ff"><g><text style="font: bold 20px Arial, Helvetica, sans-serif; white-space: pre;" font-weight="bold" font-size="20px" font-family="Arial, Helvetica, sans-serif"><tspan x="12" y="33" dominant-baseline="ideographic">Sell Gas</tspan></text></g></g></g><g id="g-root-tx_conducti_vb3zvt1otd62u-fill" data-item-order="0" transform="translate(638.5, 276.5)"><g id="tx_conducti_vb3zvt1otd62u-fill" stroke="none" fill="#4f92ff"><g><text style="font: 20px Arial, Helvetica, sans-serif; white-space: pre;" font-size="20px" font-family="Arial, Helvetica, sans-serif"><tspan x="12" y="33" dominant-baseline="ideographic">Conducting the sale </tspan><tspan x="12" y="57" dominant-baseline="ideographic">of natural gas</tspan></text></g></g></g><g id="g-root-tx_buygas_zqxi091otd5ak-fill" data-item-order="0" transform="translate(98.5, 348.5)"><g id="tx_buygas_zqxi091otd5ak-fill" stroke="none" fill="#4f92ff"><g><text style="font: bold 20px Arial, Helvetica, sans-serif; white-space: pre;" font-weight="bold" font-size="20px" font-family="Arial, Helvetica, sans-serif"><tspan x="22.85" y="33" dominant-baseline="ideographic">Buy Gas</tspan></text></g></g></g><g id="g-root-tx_engaging_1d2e0dl1otd3pm-fill" data-item-order="0" transform="translate(14.5, 384.5)"><g id="tx_engaging_1d2e0dl1otd3pm-fill" stroke="none" fill="#4f92ff"><g><text style="font: 20px Arial, Helvetica, sans-serif; white-space: pre;" font-size="20px" font-family="Arial, Helvetica, sans-serif"><tspan x="48.99" y="33" dominant-baseline="ideographic">Engaging in the </tspan><tspan x="16.77" y="57" dominant-baseline="ideographic">purchase of natural </tspan><tspan x="155.75" y="81" dominant-baseline="ideographic">gas</tspan></text></g></g></g><g id="g-root-tx_determin_1lxejjd1otd62o-fill" data-item-order="0" transform="translate(722.5, 444.5)"><g id="tx_determin_1lxejjd1otd62o-fill" stroke="none" fill="#4f92ff"><g><text style="font: bold 20px Arial, Helvetica, sans-serif; white-space: pre;" font-weight="bold" font-size="20px" font-family="Arial, Helvetica, sans-serif"><tspan x="12" y="33" dominant-baseline="ideographic">Determine Price</tspan></text></g></g></g><g id="g-root-tx_establis_1ut1js91otd4i6-fill" data-item-order="0" transform="translate(722.5, 480.5)"><g id="tx_establis_1ut1js91otd4i6-fill" stroke="none" fill="#4f92ff"><g><text style="font: 20px Arial, Helvetica, sans-serif; white-space: pre;" font-size="20px" font-family="Arial, Helvetica, sans-serif"><tspan x="12" y="33" dominant-baseline="ideographic">Establishing the </tspan><tspan x="12" y="57" dominant-baseline="ideographic">initial price point for </tspan><tspan x="12" y="81" dominant-baseline="ideographic">gas transactions</tspan></text></g></g></g><g id="g-root-0.cu_sy_14305m11otd6hb-stroke" data-item-order="-217364" transform="translate(235.50387573242188, 144.6943359375)"><g id="0.cu_sy_14305m11otd6hb-stroke" fill="none" stroke-linecap="butt" stroke-linejoin="miter" stroke-miterlimit="4" stroke="#ffffff" stroke-width="1"><g><path d="M 221.12223 10C 221.02963 10 220.93713 10.0001 220.84463 10.0002C 221.01373 10.0001 221.18303 10 221.35223 10L 221.12223 10ZM 296.99603 451.7548C 345.23553 438.9047 371.92143 418.867 366.25183 393.975C 359.15223 362.8052 284.96103 347.0797 207.47223 339.905C 65.99603 326.8057 2.50293 298.8052 10.70213 253.195C 11.27073 250.0322 12.33773 246.9707 13.91363 244.015M 440.09633 451.7548C 456.26723 433.8635 462.99943 413.6489 458.75253 391.945C 456.23653 379.0869 450.77553 367.3536 441.66393 356.8057M 93.75263 92.9805C 88.28573 96.4369 85.46423 100.1723 84.80213 104.035C 82.27723 118.7648 98.75223 136.4649 212.42223 141.8052C 269.00223 144.4634 319.17223 153.225 321.62223 165.015C 326.17223 178.225 286.75223 189.018 213.52223 191.865C 154.49853 194.1597 109.19453 199.7951 76.49603 208.3008M 127.99603 81.5452C 148.04003 77.6425 175.94203 74.8733 213.52223 73.8052C 259.26233 72.5052 301.18223 68.145 299.18223 59.345C 297.29223 51.055 260.67223 47.335 219.75223 45.785C 148.80223 43.095 112.27213 35.565 116.92213 25.195C 118.14133 22.4759 122.77073 20.0772 129.99603 18.0357M 147.49603 14.4657C 166.60113 11.5859 192.78233 10.0188 220.84463 10.0002C 184.55383 10.0443 153.51693 18.7315 151.49213 25.195C 149.36213 32.015 178.50233 35.135 220.14223 36.705C 256.61263 38.0826 283.67393 40.6412 302.23853 44.365M 325.99603 51.9345C 330.03313 54.1777 332.50203 56.6483 333.48223 59.345C 338.35223 72.745 300.06223 83.635 218.00223 86.825C 168.59233 88.745 128.18213 95.215 125.19213 104.025C 122.18213 113.205 145.27343 120.463 216.47223 122.715C 262.64963 124.1756 296.65843 127.8547 320.99603 133.1656M 361.84093 148.548C 368.90913 153.5688 372.55243 159.1092 373.51223 164.995C 377.89403 191.865 333.48223 210.1239 212.42223 217.785C 125.19223 223.3052 83.19513 235.8052 80.11213 255.165C 77.02913 274.5248 130.05223 289.265 209.20223 293.395C 281.34473 297.1593 334.70553 305.2783 373.22703 317.4146M 412.331358 418.46543C 410.691358 422.59543 408.351358 426.72543 405.361358 430.73543M 414.251358 394.08543C 415.201358 398.08543 415.531358 402.14543 415.231358 406.17543M 401.761358 371.32543C 404.931358 374.90543 407.601358 378.63543 409.681358 382.40543M 377.021358 352.49543C 382.031358 355.50543 386.661358 358.69543 390.761358 361.97543M 342.641358 337.46543C 349.041358 339.79543 355.171358 342.31543 360.871358 344.97543M 301.231358 325.74543C 308.581358 327.31543 315.791358 329.09543 322.661358 331.04543M 255.161358 318.80583C 263.091358 319.58583 270.981358 320.44543 278.641358 321.61543M 206.741358 314.80583C 206.741358 314.80583 222.999258 315.70683 231.121358 316.08583M 158.091358 310.84543C 165.861358 311.66543 173.931358 312.30543 182.071358 312.73543M 115.481358 303.68543C 122.101358 305.21543 129.131358 306.60543 136.381358 307.79543M 79.741358 293.80543C 84.641358 295.86543 90.041358 297.83543 95.811358 299.64543M 56.361358 280.38543C 59.221358 282.76543 62.641358 285.10543 66.531358 287.33543M 111.271358 215.73543C 105.841358 217.10543 100.611358 218.60543 95.711358 220.18543M 146.161358 208.92543C 140.021358 209.81543 133.971358 210.83543 128.171358 211.96543M 184.401358 205.11543C 177.871358 205.49543 171.341358 206.00543 164.991358 206.63543M 223.721358 203.18543L 204.111358 204.37543M 261.561358 200.83543C 255.531358 201.47543 249.271358 201.99543 242.971358 202.38543M 295.131358 195.69543C 290.051358 196.75543 284.651358 197.73543 279.081358 198.58543M 322.681358 188.31543C 318.951358 189.69543 313.831358 191.01543 309.421358 192.24543M 339.361358 180.42543C 337.221358 181.98543 334.651358 183.53543 331.711358 185.00543M 347.241358 170.81543C 346.751358 172.43543 345.851358 174.06543 344.551358 175.66543M 345.431358 161.24543C 346.271358 162.47543 346.891358 163.73543 347.261358 164.99543C 347.361358 165.32543 347.441358 165.65543 347.501358 165.97543M 316.401358 144.73543C 320.011358 145.88543 323.391358 147.10543 326.441358 148.37543M 291.981358 138.69543C 296.461358 139.54543 300.791358 140.48543 304.851358 141.49543M 263.161358 134.54543C 268.221358 135.06543 273.221358 135.68543 278.011358 136.37543M 231.661358 132.45543C 237.031358 132.62543 242.401358 132.88543 247.631358 133.23543M 199.011358 131.92543C 204.411358 132.11543 209.941358 132.20543 215.451358 132.21543M 167.681358 129.75543C 172.611358 130.28543 177.751358 130.73543 182.961358 131.09543M 140.681358 125.67543C 144.691358 126.49543 149.011358 127.25543 153.501358 127.93543M 120.061358 120.08543C 122.871358 121.11543 126.041358 122.10543 129.461358 123.03543M 107.231358 113.52543C 108.681358 114.67543 110.491358 115.80543 112.621358 116.89543M 102.811358 106.53543C 102.851358 107.70543 103.231358 108.89543 103.961358 110.04543M 135.321358 87.96543C 131.951358 88.76543 128.751358 89.61543 125.841358 90.50543M 157.811358 83.82543C 153.751358 84.39543 149.791358 85.04543 146.041358 85.72543M 183.751358 81.10543C 179.231358 81.43543 174.761358 81.82543 170.441358 82.27543M 211.601358 79.93543C 206.901358 79.99543 202.171358 80.12543 197.551358 80.32543M 239.351358 79.44543C 234.841358 79.64543 230.221358 79.77543 225.601358 79.84543M 265.261358 77.51543C 261.221358 77.95543 256.981358 78.33543 252.671358 78.65543M 287.291358 74.26543C 284.041358 74.90543 280.541358 75.49543 276.881358 76.03543M 303.791358 69.99543C 301.571358 70.76543 299.061358 71.52543 296.311358 72.23543M 313.671358 65.08543C 312.611358 65.93543 311.241358 66.78543 309.601358 67.59543M 316.461358 59.92543C 316.581358 60.78543 316.411358 61.65543 315.951358 62.50543M 302.041358 50.36543C 304.241358 51.06543 306.231358 51.80543 307.951358 52.56543M 286.351358 46.55543C 289.341358 47.11543 292.181358 47.71543 294.791358 48.35543M 266.541358 43.69543C 270.101358 44.08543 273.581358 44.52543 276.881358 44.99543M 243.891358 41.92543C 247.821358 42.12543 251.721358 42.37543 255.491358 42.66543M 219.791358 41.33543L 219.941358 41.33543C 223.951358 41.33543 227.981358 41.38543 231.931358 41.47543M 195.411358 40.72543C 199.341358 40.92543 203.391358 41.07543 207.461358 41.18543M 173.141358 38.95543C 176.571358 39.33543 180.181358 39.68543 183.891358 39.97543M 154.761358 36.18543C 157.421358 36.71543 160.311358 37.21543 163.371358 37.67543M 141.591358 32.68543C 143.291358 33.31543 145.271358 33.92543 147.461358 34.50543M 134.491358 28.74543C 135.141358 29.42543 136.071358 30.09543 137.251358 30.75543M 133.741358 24.66543C 133.641358 24.83543 133.561358 25.00543 133.491358 25.18543C 133.301358 25.68543 133.241358 26.19543 133.331358 26.70543M 149.801358 17.26543C 147.591358 17.80543 145.571358 18.36543 143.781358 18.94543M 165.121358 14.39543C 162.261358 14.81543 159.511358 15.26543 156.961358 15.73543M 183.861358 12.31543C 180.531358 12.58543 177.251358 12.90543 174.131358 13.25543M 394.261358 442.71543C 390.768358 445.82743 386.821458 448.88903 382.495858 451.84013"></path></g></g></g><g id="g-root-1.cu_sy_znt4kp1otd43s-stroke" data-item-order="-217360" transform="translate(598.5, 414.5)"><g id="1.cu_sy_znt4kp1otd43s-stroke" fill="none" stroke-linecap="butt" stroke-linejoin="miter" stroke-miterlimit="4" stroke="#ffffff" stroke-width="1"><g><path d="M 10.0012 52.0439C 10.0012 28.8235 28.7764 10 51.9373 10L 52.0627 10C 75.2236 10 93.9988 28.8235 93.9988 52.0439L 94 52.0439C 94 82.8058 52 112 52 112C 52 112 10 82.8058 10 52.0439L 10.0012 52.0439Z"></path></g></g></g><g id="g-root-2.cu_sy_v7zmg91otd4w1-stroke" data-item-order="-217356" transform="translate(234.5, 324.5)"><g id="2.cu_sy_v7zmg91otd4w1-stroke" fill="none" stroke-linecap="butt" stroke-linejoin="miter" stroke-miterlimit="4" stroke="#ffffff" stroke-width="1"><g><path d="M 10.0011 46.2732C 10.0011 26.2399 26.0941 10 45.9463 10L 46.0537 10C 65.9059 10 81.9989 26.2399 81.9989 46.2732L 82 46.2732C 82 72.8129 46 98 46 98C 46 98 10 72.8129 10 46.2732L 10.0011 46.2732Z"></path></g></g></g><g id="g-root-3.cu_sy_v7zmg91otd4w2-stroke" data-item-order="-217352" transform="translate(542.5, 222.5)"><g id="3.cu_sy_v7zmg91otd4w2-stroke" fill="none" stroke-linecap="butt" stroke-linejoin="miter" stroke-miterlimit="4" stroke="#ffffff" stroke-width="1"><g><path d="M 10 40.5024C 10 23.6562 23.4109 10 39.9544 10L 40.0439 10C 56.5874 10 69.9982 23.6562 69.9982 40.5024C 69.9982 62.8199 39.9991 84 39.9991 84C 39.9991 84 10 62.8199 10 40.5024Z"></path></g></g></g><g id="g-root-4.cu_sy_mccm7d1otd5or-stroke" data-item-order="-217348" transform="translate(308.5, 180.5)"><g id="4.cu_sy_mccm7d1otd5or-stroke" fill="none" stroke-linecap="butt" stroke-linejoin="miter" stroke-miterlimit="4" stroke="#ffffff" stroke-width="1"><g><path d="M 10 34.3195C 10 20.8881 20.7287 10 33.9635 10L 34.0351 10C 47.2699 10 57.9986 20.8881 57.9986 34.3195C 57.9986 52.1132 33.9993 69 33.9993 69C 33.9993 69 10 52.1132 10 34.3195Z"></path></g></g></g><g id="g-root-5.cu_sy_hwj42x1otd6h0-stroke" data-item-order="-217344" transform="translate(524.5, 150.5)"><g id="5.cu_sy_hwj42x1otd6h0-stroke" fill="none" stroke-linecap="butt" stroke-linejoin="miter" stroke-miterlimit="4" stroke="#ffffff" stroke-width="1"><g><path d="M 10 28.2396C 10 18.1661 18.0465 10 27.9726 10L 28.0263 10C 37.9524 10 45.9989 18.1661 45.9989 28.2396C 45.9989 41.5849 27.9995 54.25 27.9995 54.25C 27.9995 54.25 10 41.5849 10 28.2396Z"></path></g></g></g><g id="g-root-6.cu_sy_91ikx51otd43x-stroke" data-item-order="-217340" transform="translate(344.5, 114.5)"><g id="6.cu_sy_91ikx51otd43x-stroke" fill="none" stroke-linecap="butt" stroke-linejoin="miter" stroke-miterlimit="4" stroke="#ffffff" stroke-width="1"><g><path d="M 10 28.2396C 10 18.1661 18.0465 10 27.9726 10L 28.0263 10C 37.9524 10 45.9989 18.1661 45.9989 28.2396C 45.9989 41.5849 27.9995 54.25 27.9995 54.25C 27.9995 54.25 10 41.5849 10 28.2396Z"></path></g></g></g><g id="g-root-tx_transfer_18egfah1oss0zw-stroke" data-item-order="0" transform="translate(146.5, 12.5)"></g><g id="g-root-tx_transfer_1uuwz1l1otd4ao-stroke" data-item-order="0" transform="translate(590.5, 48.5)"></g><g id="g-root-tx_providin_1hjggo91otd5vm-stroke" data-item-order="0" transform="translate(158.5, 72.5)"></g><g id="g-root-tx_supplyin_9mf6x1otd3pi-stroke" data-item-order="0" transform="translate(590.5, 108.5)"></g><g id="g-root-tx_transfer_4otg891otd630-stroke" data-item-order="0" transform="translate(86.5, 192.5)"></g><g id="g-root-tx_deliveri_i09yll1otd4i2-stroke" data-item-order="0" transform="translate(122.5, 228.5)"></g><g id="g-root-tx_sellgas_qvwyuh1otd3pc-stroke" data-item-order="0" transform="translate(638.5, 240.5)"></g><g id="g-root-tx_conducti_vb3zvt1otd62u-stroke" data-item-order="0" transform="translate(638.5, 276.5)"></g><g id="g-root-tx_buygas_zqxi091otd5ak-stroke" data-item-order="0" transform="translate(98.5, 348.5)"></g><g id="g-root-tx_engaging_1d2e0dl1otd3pm-stroke" data-item-order="0" transform="translate(14.5, 384.5)"></g><g id="g-root-tx_determin_1lxejjd1otd62o-stroke" data-item-order="0" transform="translate(722.5, 444.5)"></g><g id="g-root-tx_establis_1ut1js91otd4i6-stroke" data-item-order="0" transform="translate(722.5, 480.5)"></g></g></g></svg>