<?xml version="1.0" encoding="utf-8" standalone="yes"?>
<!DOCTYPE svg PUBLIC "-//W3C//DTD SVG 1.1//EN" "http://www.w3.org/Graphics/SVG/1.1/DTD/svg11.dtd">
<svg width="720" height="666" viewBox="0 0 720 666" style="fill:none;stroke:none;fill-rule:evenodd;clip-rule:evenodd;stroke-linecap:round;stroke-linejoin:round;stroke-miterlimit:1.5;" version="1.1" xmlns="http://www.w3.org/2000/svg" xmlns:xlink="http://www.w3.org/1999/xlink"><style class="text-font-style fontImports" data-font-family="Roboto">@import url('https://fonts.googleapis.com/css2?family=Roboto:wght@400;700&amp;display=block');</style><g id="items" style="isolation: isolate"><g id="blend" style="mix-blend-mode: normal"><g id="g-root-cp_1_g-1_4jtrqoxctybv-fill" data-item-order="-383030" transform="translate(173.93902587890625, 459.136962890625)"><g id="cp_1_g-1_4jtrqoxctybv-fill" stroke="none" fill="#60436d"><g><path d="M 116.3182 10L 10 54.0385C 19.0696 74.824 31.7121 93.6928 47.1515 109.8688L 128.5242 28.4961C 123.6173 22.9829 119.4909 16.7598 116.3182 10Z"></path></g></g></g><g id="g-root-cp_2_g-2_1q9hbcgxctzpp-fill" data-item-order="-383026" transform="translate(158.031005859375, 429.958984375)"><g id="cp_2_g-2_1q9hbcgxctzpp-fill" stroke="none" fill="#714685"><g><path d="M 125.0469 10L 10 10C 10.4142 33.1733 14.934 55.3446 22.8627 75.8174L 129.2101 31.7669C 126.8261 24.9011 125.3866 17.5936 125.0469 10Z"></path></g></g></g><g id="g-root-cp_3_g-3_1cyna28xcty4v-fill" data-item-order="-383022" transform="translate(158.051025390625, 356.676025390625)"><g id="cp_3_g-3_1cyna28xcty4v-fill" stroke="none" fill="#8448a0"><g><path d="M 129.3555 54.0441L 23.0236 10C 15.0974 30.3079 10.5287 52.2965 10 75.2835L 125.0776 75.2835C 125.5046 67.8742 126.9792 60.7458 129.3555 54.0441Z"></path></g></g></g><g id="g-root-cp_4_g-4_18itrxsxctyx5-fill" data-item-order="-383018" transform="translate(174.1400146484375, 293.552978515625)"><g id="cp_4_g-4_18itrxsxctyx5-fill" stroke="none" fill="#974bbb"><g><path d="M 116.3318 109.7775C 119.5479 103.0401 123.7143 96.8435 128.6578 91.3611L 47.2967 10C 31.814 26.1375 19.123 44.974 10 65.7334L 116.3318 109.7775Z"></path></g></g></g><g id="g-root-cp_5_g-5_v7d9kgxcu0i3-fill" data-item-order="-383014" transform="translate(217.093017578125, 250.5999755859375)"><g id="cp_5_g-5_v7d9kgxcu0i3-fill" stroke="none" fill="#a655cb"><g><path d="M 65.7335 10C 44.9741 19.123 26.1375 31.814 10 47.2966L 91.3611 128.6577C 96.8435 123.7143 103.0401 119.5478 109.7775 116.3318L 65.7335 10Z"></path></g></g></g><g id="g-root-cp_6_g-6_qs68j4xcty4l-fill" data-item-order="-383010" transform="translate(280.2170104980469, 234.5)"><g id="cp_6_g-6_qs68j4xcty4l-fill" stroke="none" fill="#af58d7"><g><path d="M 54.0441 129.3663C 60.8964 126.9366 68.1948 125.4496 75.7834 125.0613L 75.7834 10C 52.6153 10.4735 30.4551 15.0507 10 23.0344L 54.0441 129.3663Z"></path></g></g></g><g id="g-root-cp_7_g-7_hwj8a8xctyxb-fill" data-item-order="-383006" transform="translate(354, 234.5)"><g id="cp_7_g-7_hwj8a8xctyxb-fill" stroke="none" fill="#b85ce3"><g><path d="M 31.2668 129.2005L 75.3173 22.8532C 54.9919 14.9815 32.9922 10.4699 10 10L 10 125.0613C 17.4144 125.4407 24.5519 126.8689 31.2668 129.2005Z"></path></g></g></g><g id="g-root-cp_8_g-8_dgpq5sxctzpl-fill" data-item-order="-383002" transform="translate(382.676025390625, 250.3980712890625)"><g id="cp_8_g-8_dgpq5sxctzpl-fill" stroke="none" fill="#c061ed"><g><path d="M 28.496 128.5242L 109.8687 47.1515C 93.6927 31.7121 74.8239 19.0696 54.0385 10L 10 116.3183C 16.7597 119.4909 22.9828 123.6173 28.496 128.5242Z"></path></g></g></g><g id="g-root-cp_9_g-9_90w81cxcu0hv-fill" data-item-order="-382998" transform="translate(406.864990234375, 293.1910400390625)"><g id="cp_9_g-9_90w81cxcu0hv-fill" stroke="none" fill="#c866f6"><g><path d="M 22.4451 109.6867L 128.7923 65.6362C 119.616 44.903 106.8766 26.0988 91.3508 10L 10 91.3508C 14.9796 96.8021 19.1859 102.972 22.4451 109.6867Z"></path></g></g></g><g id="g-root-cp_10_g-10_90w81cxcu0hx-fill" data-item-order="-382994" transform="translate(422.42401123046875, 356.208984375)"><g id="cp_10_g-10_90w81cxcu0hx-fill" stroke="none" fill="#d171fe"><g><path d="M 14.4468 75.7491L 129.5244 75.7491C 128.9916 52.5863 124.3569 30.4373 116.3183 10L 10 54.0385C 12.4754 60.8769 14.0098 68.1659 14.4468 75.7491Z"></path></g></g></g><g id="g-root-cp_11_g-11_5vovkxcty4v-fill" data-item-order="-382990" transform="translate(422.593017578125, 429.958984375)"><g id="cp_11_g-11_5vovkxcty4v-fill" stroke="none" fill="#da89ff"><g><path d="M 10 32.2394L 116.3319 76.2835C 124.373 55.6813 128.9585 33.3493 129.3759 10L 14.329 10C 13.9815 17.7681 12.483 25.2367 10 32.2394Z"></path></g></g></g><g id="g-root-cp_12_g-12_1ur68q8xctyq1-fill" data-item-order="-382986" transform="translate(407.2030029296875, 459.5880126953125)"><g id="cp_12_g-12_1ur68q8xctyq1-fill" stroke="none" fill="#e2a3ff"><g><path d="M 10 28.4166L 91.3611 109.7776C 106.8438 93.6401 119.5347 74.8035 128.6577 54.0441L 22.3259 10C 19.1099 16.7374 14.9434 22.9341 10 28.4166Z"></path></g></g></g><g id="g-root-ic_ball_18n73jkxcwt1l-fill" data-item-order="0" transform="translate(302, 248)"></g><g id="g-root-ic_high_145i65sxcy87e-fill" data-item-order="0" transform="translate(362, 248)"></g><g id="g-root-tx_definesc_qvap4gxciqkk-fill" data-item-order="0" transform="translate(500, 224)"><g id="tx_definesc_qvap4gxciqkk-fill" stroke="none" fill="#484848"><g><text style="font: 10px Roboto, sans-serif; white-space: pre;" font-size="10px" font-family="Roboto, sans-serif"><tspan x="12" y="22" dominant-baseline="ideographic">Defines complex </tspan><tspan x="12" y="34" dominant-baseline="ideographic">pricing models and </tspan><tspan x="12" y="46" dominant-baseline="ideographic">rider structures.</tspan></text></g></g></g><g id="g-root-tx_dailysto_8znd0wxcipl5-fill" data-item-order="0" transform="translate(62, 266)"><g id="tx_dailysto_8znd0wxcipl5-fill" stroke="none" fill="#484848"><g><text style="font: bold 11.7px Roboto, sans-serif; white-space: pre;" font-weight="bold" font-size="11.7px" font-family="Roboto, sans-serif"><tspan x="34.19" y="27.6" dominant-baseline="ideographic">Daily Storage </tspan><tspan x="13.51" y="41.6" dominant-baseline="ideographic">Definition Screen</tspan></text></g></g></g><g id="g-root-ic_doll_902b4xcvcp4-fill" data-item-order="0" transform="translate(243, 273)"></g><g id="g-root-ic_grap_1luwre8xczkzn-fill" data-item-order="0" transform="translate(421, 273)"></g><g id="g-root-tx_endusers_90wb74xcirr9-fill" data-item-order="0" transform="translate(552, 272)"><g id="tx_endusers_90wb74xcirr9-fill" stroke="none" fill="#484848"><g><text style="font: bold 11.7px Roboto, sans-serif; white-space: pre;" font-weight="bold" font-size="11.7px" font-family="Roboto, sans-serif"><tspan x="12" y="28.6" dominant-baseline="ideographic">End User Screen</tspan></text></g></g></g><g id="g-root-tx_enablesd_1usfa28xcis5e-fill" data-item-order="0" transform="translate(104, 224)"><g id="tx_enablesd_1usfa28xcis5e-fill" stroke="none" fill="#484848"><g><text style="font: 10px Roboto, sans-serif; white-space: pre;" font-size="10px" font-family="Roboto, sans-serif"><tspan x="42.78" y="22" dominant-baseline="ideographic">Enables defining </tspan><tspan x="13.03" y="34" dominant-baseline="ideographic">service charges or fees </tspan><tspan x="29.97" y="46" dominant-baseline="ideographic">specific to the LDC.</tspan></text></g></g></g><g id="g-root-tx_tariffan_1464qeoxcis5f-fill" data-item-order="0" transform="translate(500, 170)"><g id="tx_tariffan_1464qeoxcis5f-fill" stroke="none" fill="#484848"><g><text style="font: bold 11.7px Roboto, sans-serif; white-space: pre;" font-weight="bold" font-size="11.7px" font-family="Roboto, sans-serif"><tspan x="12" y="26.6" dominant-baseline="ideographic">Tariff and </tspan><tspan x="12" y="40.6" dominant-baseline="ideographic">Rate/Rider </tspan><tspan x="12" y="54.6" dominant-baseline="ideographic">Definition Screen</tspan></text></g></g></g><g id="g-root-tx_managess_1upawmoxciqyy-fill" data-item-order="0" transform="translate(74, 308)"><g id="tx_managess_1upawmoxciqyy-fill" stroke="none" fill="#484848"><g><text style="font: 10px Roboto, sans-serif; white-space: pre;" font-size="10px" font-family="Roboto, sans-serif"><tspan x="14.71" y="22" dominant-baseline="ideographic">Manages storage </tspan><tspan x="11.78" y="34" dominant-baseline="ideographic">options impacting </tspan><tspan x="19.71" y="46" dominant-baseline="ideographic">supply planning.</tspan></text></g></g></g><g id="g-root-tx_displays_1ur6bw0xcipza-fill" data-item-order="0" transform="translate(540, 302)"><g id="tx_displays_1ur6bw0xcipza-fill" stroke="none" fill="#484848"><g><text style="font: 10px Roboto, sans-serif; white-space: pre;" font-size="10px" font-family="Roboto, sans-serif"><tspan x="12" y="22" dominant-baseline="ideographic">Displays all end users </tspan><tspan x="12" y="34" dominant-baseline="ideographic">configured under the </tspan><tspan x="12" y="46" dominant-baseline="ideographic">selected LDC.</tspan></text></g></g></g><g id="g-root-ic_2_zp26y8xcvcw6-fill" data-item-order="0" transform="translate(194, 318)"></g><g id="g-root-ic_info_qqxacwxd105g-fill" data-item-order="0" transform="translate(470, 318)"></g><g id="g-root-tx_dailyfac_v48zaoxcird1-fill" data-item-order="0" transform="translate(38, 344)"><g id="tx_dailyfac_v48zaoxcird1-fill" stroke="none" fill="#484848"><g><text style="font: bold 11.7px Roboto, sans-serif; white-space: pre;" font-weight="bold" font-size="11.7px" font-family="Roboto, sans-serif"><tspan x="41.88" y="27.6" dominant-baseline="ideographic">Daily Factor </tspan><tspan x="13.51" y="41.6" dominant-baseline="ideographic">Definition Screen</tspan></text></g></g></g><g id="g-root-tx_pipeline_dbq0moxcirk1-fill" data-item-order="0" transform="translate(566, 344)"><g id="tx_pipeline_dbq0moxcirk1-fill" stroke="none" fill="#484848"><g><text style="font: bold 11.7px Roboto, sans-serif; white-space: pre;" font-weight="bold" font-size="11.7px" font-family="Roboto, sans-serif"><tspan x="12" y="27.6" dominant-baseline="ideographic">Pipeline Servicing </tspan><tspan x="12" y="41.6" dominant-baseline="ideographic">Screen</tspan></text></g></g></g><g id="g-root-tx_managess_18ntnsgxciqdk-fill" data-item-order="0" transform="translate(375, 164)"><g id="tx_managess_18ntnsgxciqdk-fill" stroke="none" fill="#484848"><g><text style="font: 10px Roboto, sans-serif; white-space: pre;" font-size="10px" font-family="Roboto, sans-serif"><tspan x="12" y="22" dominant-baseline="ideographic">Manages seasonal </tspan><tspan x="12" y="34" dominant-baseline="ideographic">storage expectations </tspan><tspan x="12" y="46" dominant-baseline="ideographic">and peak usage </tspan><tspan x="12" y="58" dominant-baseline="ideographic">planning.</tspan></text></g></g></g><g id="g-root-tx_allowsex_1qeh774xcir66-fill" data-item-order="0" transform="translate(218, 176)"><g id="tx_allowsex_1qeh774xcir66-fill" stroke="none" fill="#484848"><g><text style="font: 10px Roboto, sans-serif; white-space: pre;" font-size="10px" font-family="Roboto, sans-serif"><tspan x="17.29" y="22" dominant-baseline="ideographic">Allows examination of </tspan><tspan x="46.3" y="34" dominant-baseline="ideographic">gas supply pool </tspan><tspan x="68.25" y="46" dominant-baseline="ideographic">structures.</tspan></text></g></g></g><g id="g-root-tx_helpsset_htey0gxcips6-fill" data-item-order="0" transform="translate(26, 386)"><g id="tx_helpsset_htey0gxcips6-fill" stroke="none" fill="#484848"><g><text style="font: 10px Roboto, sans-serif; white-space: pre;" font-size="10px" font-family="Roboto, sans-serif"><tspan x="23" y="22" dominant-baseline="ideographic">Helps set calculation </tspan><tspan x="18.11" y="34" dominant-baseline="ideographic">factors for allocations </tspan><tspan x="24.63" y="46" dominant-baseline="ideographic">and supply planning.</tspan></text></g></g></g><g id="g-root-ic_1_dkgkogxctxqc-fill" data-item-order="0" transform="translate(170, 378)"></g><g id="g-root-ic_1_1hjgkvkxd3shs-fill" data-item-order="0" transform="translate(314, 386)"></g><g id="g-root-ic_tran_hx5pdcxd2dc6-fill" data-item-order="0" transform="translate(494, 378)"></g><g id="g-root-tx_showsall_vzcgxcipz6-fill" data-item-order="0" transform="translate(578, 386)"><g id="tx_showsall_vzcgxcipz6-fill" stroke="none" fill="#484848"><g><text style="font: 10px Roboto, sans-serif; white-space: pre;" font-size="10px" font-family="Roboto, sans-serif"><tspan x="12" y="22" dominant-baseline="ideographic">Shows all pipelines </tspan><tspan x="12" y="34" dominant-baseline="ideographic">supplying gas to the </tspan><tspan x="12" y="46" dominant-baseline="ideographic">LDC.</tspan></text></g></g></g><g id="g-root-tx_ldcmeter_1q88gc0xcipl3-fill" data-item-order="0" transform="translate(38, 422)"><g id="tx_ldcmeter_1q88gc0xcipl3-fill" stroke="none" fill="#484848"><g><text style="font: bold 11.7px Roboto, sans-serif; white-space: pre;" font-weight="bold" font-size="11.7px" font-family="Roboto, sans-serif"><tspan x="20.21" y="27.6" dominant-baseline="ideographic">LDC Meter Type </tspan><tspan x="67.34" y="41.6" dominant-baseline="ideographic">Screen</tspan></text></g></g></g><g id="g-root-tx_ldccharg_92rqggxciqrl-fill" data-item-order="0" transform="translate(116, 182)"><g id="tx_ldccharg_92rqggxciqrl-fill" stroke="none" fill="#484848"><g><text style="font: bold 11.7px Roboto, sans-serif; white-space: pre;" font-weight="bold" font-size="11.7px" font-family="Roboto, sans-serif"><tspan x="41.88" y="27.6" dominant-baseline="ideographic">LDC Charge </tspan><tspan x="13.51" y="41.6" dominant-baseline="ideographic">Definition Screen</tspan></text></g></g></g><g id="g-root-ic_fuel_1cyna28xcvcb1-fill" data-item-order="0" transform="translate(170, 439)"></g><g id="g-root-tx_storaget_1lynp2oxciryf-fill" data-item-order="0" transform="translate(399, 122)"><g id="tx_storaget_1lynp2oxciryf-fill" stroke="none" fill="#484848"><g><text style="font: bold 11.7px Roboto, sans-serif; white-space: pre;" font-weight="bold" font-size="11.7px" font-family="Roboto, sans-serif"><tspan x="12" y="27.6" dominant-baseline="ideographic">Storage Target </tspan><tspan x="12" y="41.6" dominant-baseline="ideographic">Default Screen</tspan></text></g></g></g><g id="g-root-ic_docu_zk2e9cxd3u9z-fill" data-item-order="0" transform="translate(494, 439)"></g><g id="g-root-tx_ldctaxco_1cuwipcxcis5n-fill" data-item-order="0" transform="translate(590, 428)"><g id="tx_ldctaxco_1cuwipcxcis5n-fill" stroke="none" fill="#484848"><g><text style="font: bold 11.7px Roboto, sans-serif; white-space: pre;" font-weight="bold" font-size="11.7px" font-family="Roboto, sans-serif"><tspan x="12" y="26.6" dominant-baseline="ideographic">LDC Tax </tspan><tspan x="12" y="40.6" dominant-baseline="ideographic">Configuration </tspan><tspan x="12" y="54.6" dominant-baseline="ideographic">Screen</tspan></text></g></g></g><g id="g-root-tx_allowsco_zlxwogxcipl4-fill" data-item-order="0" transform="translate(26, 464)"><g id="tx_allowsco_zlxwogxcipl4-fill" stroke="none" fill="#484848"><g><text style="font: 10px Roboto, sans-serif; white-space: pre;" font-size="10px" font-family="Roboto, sans-serif"><tspan x="25.06" y="22" dominant-baseline="ideographic">Allows configuration </tspan><tspan x="23.07" y="34" dominant-baseline="ideographic">and viewing of meter </tspan><tspan x="28.65" y="46" dominant-baseline="ideographic">types for gas usage </tspan><tspan x="77.58" y="58" dominant-baseline="ideographic">tracking.</tspan></text></g></g></g><g id="g-root-tx_pooldefi_4otnlcxcipsd-fill" data-item-order="0" transform="translate(242, 134)"><g id="tx_pooldefi_4otnlcxcipsd-fill" stroke="none" fill="#484848"><g><text style="font: bold 11.7px Roboto, sans-serif; white-space: pre;" font-weight="bold" font-size="11.7px" font-family="Roboto, sans-serif"><tspan x="14.41" y="27.6" dominant-baseline="ideographic">Pool Definition </tspan><tspan x="55.34" y="41.6" dominant-baseline="ideographic">Screen</tspan></text></g></g></g><g id="g-root-tx_ldcconfi_1d0ipbkxctxxf-fill" data-item-order="0" transform="translate(224, 38)"><g id="tx_ldcconfi_1d0ipbkxctxxf-fill" stroke="none" fill="#484848"><g><text style="font: 20px Roboto, sans-serif; white-space: pre;" font-size="20px" font-family="Roboto, sans-serif"><tspan x="11.89" y="34" dominant-baseline="ideographic">LDC Configuration Structure</tspan></text></g></g></g><g id="g-root-tx_definest_zk2hf4xciqks-fill" data-item-order="0" transform="translate(566, 482)"><g id="tx_definest_zk2hf4xciqks-fill" stroke="none" fill="#484848"><g><text style="font: 10px Roboto, sans-serif; white-space: pre;" font-size="10px" font-family="Roboto, sans-serif"><tspan x="12" y="22" dominant-baseline="ideographic">Defines tax rules </tspan><tspan x="12" y="34" dominant-baseline="ideographic">associated with tariffs.</tspan></text></g></g></g><g id="g-root-ic_lock_1lws6nkxcvf2n-fill" data-item-order="0" transform="translate(194, 499)"></g><g id="g-root-ic_sign_1um6g1cxd2g3x-fill" data-item-order="0" transform="translate(470, 499)"></g><g id="g-root-tx_ldcrepre_1hegvcgxcipe3-fill" data-item-order="0" transform="translate(50, 530)"><g id="tx_ldcrepre_1hegvcgxcipe3-fill" stroke="none" fill="#484848"><g><text style="font: bold 11.7px Roboto, sans-serif; white-space: pre;" font-weight="bold" font-size="11.7px" font-family="Roboto, sans-serif"><tspan x="12.31" y="27.6" dominant-baseline="ideographic">LDC Representative </tspan><tspan x="79.34" y="41.6" dominant-baseline="ideographic">Screen</tspan></text></g></g></g><g id="g-root-tx_counterp_18kpacwxcip73-fill" data-item-order="0" transform="translate(540, 530)"><g id="tx_counterp_18kpacwxcip73-fill" stroke="none" fill="#484848"><g><text style="font: bold 11.7px Roboto, sans-serif; white-space: pre;" font-weight="bold" font-size="11.7px" font-family="Roboto, sans-serif"><tspan x="12" y="28.6" dominant-baseline="ideographic">Counterparty Icon</tspan></text></g></g></g><g id="g-root-tx_provides_zn6uuoxcirr8-fill" data-item-order="0" transform="translate(50, 572)"><g id="tx_provides_zn6uuoxcirr8-fill" stroke="none" fill="#484848"><g><text style="font: 10px Roboto, sans-serif; white-space: pre;" font-size="10px" font-family="Roboto, sans-serif"><tspan x="32.01" y="22" dominant-baseline="ideographic">Provides access to </tspan><tspan x="14.13" y="34" dominant-baseline="ideographic">manage representative </tspan><tspan x="40.22" y="46" dominant-baseline="ideographic">details and roles.</tspan></text></g></g></g><g id="g-root-tx_allowsad_qtf9v4xcirk8-fill" data-item-order="0" transform="translate(540, 560)"><g id="tx_allowsad_qtf9v4xcirk8-fill" stroke="none" fill="#484848"><g><text style="font: 10px Roboto, sans-serif; white-space: pre;" font-size="10px" font-family="Roboto, sans-serif"><tspan x="12" y="22" dominant-baseline="ideographic">Allows adding new </tspan><tspan x="12" y="34" dominant-baseline="ideographic">entities involved in </tspan><tspan x="12" y="46" dominant-baseline="ideographic">transactions with the </tspan><tspan x="12" y="58" dominant-baseline="ideographic">LDC.</tspan></text></g></g></g><g id="g-root-cp_1_g-1_4jtrqoxctybv-stroke" data-item-order="-383030" transform="translate(173.93902587890625, 459.136962890625)"><g id="cp_1_g-1_4jtrqoxctybv-stroke" fill="none" stroke-linecap="round" stroke-linejoin="round" stroke-miterlimit="4" stroke="#ffffff" stroke-width="2"><g><path d="M 116.3182 10L 10 54.0385C 19.0696 74.824 31.7121 93.6928 47.1515 109.8688L 128.5242 28.4961C 123.6173 22.9829 119.4909 16.7598 116.3182 10Z"></path></g></g></g><g id="g-root-cp_2_g-2_1q9hbcgxctzpp-stroke" data-item-order="-383026" transform="translate(158.031005859375, 429.958984375)"><g id="cp_2_g-2_1q9hbcgxctzpp-stroke" fill="none" stroke-linecap="round" stroke-linejoin="round" stroke-miterlimit="4" stroke="#ffffff" stroke-width="2"><g><path d="M 125.0469 10L 10 10C 10.4142 33.1733 14.934 55.3446 22.8627 75.8174L 129.2101 31.7669C 126.8261 24.9011 125.3866 17.5936 125.0469 10Z"></path></g></g></g><g id="g-root-cp_3_g-3_1cyna28xcty4v-stroke" data-item-order="-383022" transform="translate(158.051025390625, 356.676025390625)"><g id="cp_3_g-3_1cyna28xcty4v-stroke" fill="none" stroke-linecap="round" stroke-linejoin="round" stroke-miterlimit="4" stroke="#ffffff" stroke-width="2"><g><path d="M 129.3555 54.0441L 23.0236 10C 15.0974 30.3079 10.5287 52.2965 10 75.2835L 125.0776 75.2835C 125.5046 67.8742 126.9792 60.7458 129.3555 54.0441Z"></path></g></g></g><g id="g-root-cp_4_g-4_18itrxsxctyx5-stroke" data-item-order="-383018" transform="translate(174.1400146484375, 293.552978515625)"><g id="cp_4_g-4_18itrxsxctyx5-stroke" fill="none" stroke-linecap="round" stroke-linejoin="round" stroke-miterlimit="4" stroke="#ffffff" stroke-width="2"><g><path d="M 116.3318 109.7775C 119.5479 103.0401 123.7143 96.8435 128.6578 91.3611L 47.2967 10C 31.814 26.1375 19.123 44.974 10 65.7334L 116.3318 109.7775Z"></path></g></g></g><g id="g-root-cp_5_g-5_v7d9kgxcu0i3-stroke" data-item-order="-383014" transform="translate(217.093017578125, 250.5999755859375)"><g id="cp_5_g-5_v7d9kgxcu0i3-stroke" fill="none" stroke-linecap="round" stroke-linejoin="round" stroke-miterlimit="4" stroke="#ffffff" stroke-width="2"><g><path d="M 65.7335 10C 44.9741 19.123 26.1375 31.814 10 47.2966L 91.3611 128.6577C 96.8435 123.7143 103.0401 119.5478 109.7775 116.3318L 65.7335 10Z"></path></g></g></g><g id="g-root-cp_6_g-6_qs68j4xcty4l-stroke" data-item-order="-383010" transform="translate(280.2170104980469, 234.5)"><g id="cp_6_g-6_qs68j4xcty4l-stroke" fill="none" stroke-linecap="round" stroke-linejoin="round" stroke-miterlimit="4" stroke="#ffffff" stroke-width="2"><g><path d="M 54.0441 129.3663C 60.8964 126.9366 68.1948 125.4496 75.7834 125.0613L 75.7834 10C 52.6153 10.4735 30.4551 15.0507 10 23.0344L 54.0441 129.3663Z"></path></g></g></g><g id="g-root-cp_7_g-7_hwj8a8xctyxb-stroke" data-item-order="-383006" transform="translate(354, 234.5)"><g id="cp_7_g-7_hwj8a8xctyxb-stroke" fill="none" stroke-linecap="round" stroke-linejoin="round" stroke-miterlimit="4" stroke="#ffffff" stroke-width="2"><g><path d="M 31.2668 129.2005L 75.3173 22.8532C 54.9919 14.9815 32.9922 10.4699 10 10L 10 125.0613C 17.4144 125.4407 24.5519 126.8689 31.2668 129.2005Z"></path></g></g></g><g id="g-root-cp_8_g-8_dgpq5sxctzpl-stroke" data-item-order="-383002" transform="translate(382.676025390625, 250.3980712890625)"><g id="cp_8_g-8_dgpq5sxctzpl-stroke" fill="none" stroke-linecap="round" stroke-linejoin="round" stroke-miterlimit="4" stroke="#ffffff" stroke-width="2"><g><path d="M 28.496 128.5242L 109.8687 47.1515C 93.6927 31.7121 74.8239 19.0696 54.0385 10L 10 116.3183C 16.7597 119.4909 22.9828 123.6173 28.496 128.5242Z"></path></g></g></g><g id="g-root-cp_9_g-9_90w81cxcu0hv-stroke" data-item-order="-382998" transform="translate(406.864990234375, 293.1910400390625)"><g id="cp_9_g-9_90w81cxcu0hv-stroke" fill="none" stroke-linecap="round" stroke-linejoin="round" stroke-miterlimit="4" stroke="#ffffff" stroke-width="2"><g><path d="M 22.4451 109.6867L 128.7923 65.6362C 119.616 44.903 106.8766 26.0988 91.3508 10L 10 91.3508C 14.9796 96.8021 19.1859 102.972 22.4451 109.6867Z"></path></g></g></g><g id="g-root-cp_10_g-10_90w81cxcu0hx-stroke" data-item-order="-382994" transform="translate(422.42401123046875, 356.208984375)"><g id="cp_10_g-10_90w81cxcu0hx-stroke" fill="none" stroke-linecap="round" stroke-linejoin="round" stroke-miterlimit="4" stroke="#ffffff" stroke-width="2"><g><path d="M 14.4468 75.7491L 129.5244 75.7491C 128.9916 52.5863 124.3569 30.4373 116.3183 10L 10 54.0385C 12.4754 60.8769 14.0098 68.1659 14.4468 75.7491Z"></path></g></g></g><g id="g-root-cp_11_g-11_5vovkxcty4v-stroke" data-item-order="-382990" transform="translate(422.593017578125, 429.958984375)"><g id="cp_11_g-11_5vovkxcty4v-stroke" fill="none" stroke-linecap="round" stroke-linejoin="round" stroke-miterlimit="4" stroke="#ffffff" stroke-width="2"><g><path d="M 10 32.2394L 116.3319 76.2835C 124.373 55.6813 128.9585 33.3493 129.3759 10L 14.329 10C 13.9815 17.7681 12.483 25.2367 10 32.2394Z"></path></g></g></g><g id="g-root-cp_12_g-12_1ur68q8xctyq1-stroke" data-item-order="-382986" transform="translate(407.2030029296875, 459.5880126953125)"><g id="cp_12_g-12_1ur68q8xctyq1-stroke" fill="none" stroke-linecap="round" stroke-linejoin="round" stroke-miterlimit="4" stroke="#ffffff" stroke-width="2"><g><path d="M 10 28.4166L 91.3611 109.7776C 106.8438 93.6401 119.5347 74.8035 128.6577 54.0441L 22.3259 10C 19.1099 16.7374 14.9434 22.9341 10 28.4166Z"></path></g></g></g><g id="g-root-ic_ball_18n73jkxcwt1l-stroke" data-item-order="0" transform="translate(302, 248)"><g id="ic_ball_18n73jkxcwt1l-stroke" fill="none" stroke-linecap="round" stroke-linejoin="round" stroke-miterlimit="4" stroke="#ffffff" stroke-width="2"><g><path d="M 10.75 28C 10.75 37.526913 18.473087 45.25 28 45.25C 37.526913 45.25 45.25 37.526913 45.25 28C 45.25 18.473087 37.526913 10.75 28 10.75C 18.473087 10.75 10.75 18.473087 10.75 28M 22.764999 28.375C 22.764999 31.274494 25.115505 33.625 28.014999 33.625C 30.914495 33.625 33.264999 31.274494 33.264999 28.375002C 33.264999 25.475506 30.914495 23.125002 28.014999 23.125002C 25.115505 23.125002 22.764999 25.475506 22.764999 28.375002M 14.245 17.605C 23.319901 19.472685 32.680099 19.472685 41.755005 17.605M 43.345001 35.889999C 33.412228 39.377483 22.587772 39.377483 12.655 35.889999"></path></g></g></g><g id="g-root-ic_high_145i65sxcy87e-stroke" data-item-order="0" transform="translate(362, 248)"><g id="ic_high_145i65sxcy87e-stroke" fill="none" stroke-linecap="round" stroke-linejoin="round" stroke-miterlimit="4" stroke="#ffffff" stroke-width="2"><g><path d="M 28.75 34.061501L 28.75 13.75C 28.75 12.093145 27.406855 10.75 25.75 10.75C 24.093145 10.75 22.75 12.093145 22.75 13.75L 22.75 34.061501C 20.398191 35.419315 19.251587 38.187466 19.954445 40.81057C 20.657303 43.43367 23.034367 45.257652 25.75 45.257652C 28.465633 45.257652 30.842697 43.43367 31.545555 40.81057C 32.248413 38.187466 31.101809 35.419315 28.75 34.061501ZM 24.25 39.25C 24.25 40.078426 24.921572 40.75 25.75 40.75C 26.578428 40.75 27.25 40.078426 27.25 39.25C 27.25 38.421574 26.578428 37.75 25.75 37.75C 24.921572 37.75 24.25 38.421574 24.25 39.25ZM 10 10M 25.75 37.75L 25.75 13.75M 10 10M 31.75 13.75L 36.25 13.75M 10 10M 31.75 21.25L 33.25 21.25M 10 10M 31.75 28.75L 33.25 28.75"></path></g></g></g><g id="g-root-tx_definesc_qvap4gxciqkk-stroke" data-item-order="0" transform="translate(500, 224)"></g><g id="g-root-tx_dailysto_8znd0wxcipl5-stroke" data-item-order="0" transform="translate(62, 266)"></g><g id="g-root-ic_doll_902b4xcvcp4-stroke" data-item-order="0" transform="translate(243, 273)"><g id="ic_doll_902b4xcvcp4-stroke" fill="none" stroke-linecap="round" stroke-linejoin="round" stroke-miterlimit="4" stroke="#ffffff" stroke-width="2"><g><path d="M 36.25 17.5C 36.25 18.742641 37.257362 19.75 38.5 19.75C 39.742641 19.75 40.75 18.742641 40.75 17.5C 40.75 16.25736 39.742641 15.25 38.5 15.25C 37.257362 15.25 36.25 16.25736 36.25 17.5ZM 31.3855 28.856501L 28.408001 25.879002C 28.092508 25.508322 27.63026 25.294744 27.143499 25.294744C 26.656738 25.294744 26.194492 25.508322 25.879 25.879C 24.491501 27.264999 27.679001 32.569 26.286999 33.955002C 25.955893 34.298843 25.4991 34.493126 25.021749 34.493126C 24.544399 34.493126 24.087608 34.298843 23.7565 33.954998L 20.778999 30.977499M 29.2645 26.7355L 30.856001 25.143999M 21.309999 34.689999L 22.901501 33.098499M 11.281 28.969C 10.940986 29.308598 10.749933 29.769442 10.749933 30.25C 10.749933 30.730556 10.940986 31.191401 11.281 31.531L 24.469 44.719002C 24.808598 45.059013 25.269442 45.250065 25.75 45.250065C 26.230556 45.250065 26.691401 45.059013 27.031 44.719002L 44.189499 27.560499C 44.868561 26.881403 45.250034 25.960361 45.25 25L 45.25 12.25C 45.25 11.421573 44.578426 10.75 43.75 10.75L 31 10.75C 30.039639 10.749965 29.118595 11.131439 28.439501 11.8105Z"></path></g></g></g><g id="g-root-ic_grap_1luwre8xczkzn-stroke" data-item-order="0" transform="translate(421, 273)"><g id="ic_grap_1luwre8xczkzn-stroke" fill="none" stroke-linecap="round" stroke-linejoin="round" stroke-miterlimit="4" stroke="#ffffff" stroke-width="2"><g><path d="M 44.875 20.574986L 29.724998 33.325001L 25.525002 28.375L 11.125 39.775002M 10 10M 14.875 44.275002L 14.875 36.8008M 14.875 32.125L 14.875 18.774969M 22.375 24.775002L 22.375 11.125M 29.875 25.375L 29.875 15.77497M 37.375 15.775L 37.375 11.125M 10 10M 22.375 38.574997L 22.375 30.90625M 10 10M 29.875 40.375L 29.875 33.226601M 10 10M 37.375 44.875L 37.375 26.875M 38.125 20.574986L 44.875 20.574986L 44.875 26.875"></path></g></g></g><g id="g-root-tx_endusers_90wb74xcirr9-stroke" data-item-order="0" transform="translate(552, 272)"></g><g id="g-root-tx_enablesd_1usfa28xcis5e-stroke" data-item-order="0" transform="translate(104, 224)"></g><g id="g-root-tx_tariffan_1464qeoxcis5f-stroke" data-item-order="0" transform="translate(500, 170)"></g><g id="g-root-tx_managess_1upawmoxciqyy-stroke" data-item-order="0" transform="translate(74, 308)"></g><g id="g-root-tx_displays_1ur6bw0xcipza-stroke" data-item-order="0" transform="translate(540, 302)"></g><g id="g-root-ic_2_zp26y8xcvcw6-stroke" data-item-order="0" transform="translate(194, 318)"><g id="ic_2_zp26y8xcvcw6-stroke" fill="none" stroke-linecap="round" stroke-linejoin="round" stroke-miterlimit="4" stroke="#ffffff" stroke-width="2"><g><path d="M 28 10.75C 21.715973 10.694875 15.644051 13.020748 11.005 17.26C 10.841185 17.4039 10.748103 17.611965 10.75 17.83L 10.75 20.5C 10.75 20.914213 11.085787 21.25 11.5 21.25L 44.5 21.25C 44.914215 21.25 45.25 20.914213 45.25 20.5L 45.25 17.83C 45.251896 17.611965 45.158817 17.4039 44.994999 17.26C 40.355949 13.020748 34.284027 10.694875 28 10.75ZM 12.25 21.25L 12.25 43M 43.75 21.25L 43.75 43M 18.25 36.25L 28 36.25L 28 36.25L 28 45.25L 28 45.25L 18.25 45.25C 17.835787 45.25 17.5 44.914215 17.5 44.5L 17.5 37C 17.5 36.585785 17.835787 36.25 18.25 36.25ZM 28 36.25L 37.75 36.25C 38.164215 36.25 38.5 36.585785 38.5 37L 38.5 44.5C 38.5 44.914215 38.164215 45.25 37.75 45.25L 28 45.25L 28 45.25L 28 36.25L 28 36.25ZM 23.5 27.25L 32.5 27.25C 32.914215 27.25 33.25 27.585787 33.25 28L 33.25 36.25L 33.25 36.25L 22.75 36.25L 22.75 36.25L 22.75 28C 22.75 27.585787 23.085787 27.25 23.5 27.25ZM 25.75 27.25L 30.25 27.25L 30.25 27.25L 30.25 31C 30.25 31.414213 29.914213 31.75 29.5 31.75L 26.5 31.75C 26.085787 31.75 25.75 31.414213 25.75 31L 25.75 27.25L 25.75 27.25ZM 20.5 36.25L 25 36.25L 25 36.25L 25 40C 25 40.414215 24.664213 40.75 24.25 40.75L 21.25 40.75C 20.835787 40.75 20.5 40.414215 20.5 40L 20.5 36.25L 20.5 36.25ZM 31 36.25L 35.5 36.25L 35.5 36.25L 35.5 40C 35.5 40.414215 35.164215 40.75 34.75 40.75L 31.75 40.75C 31.335787 40.75 31 40.414215 31 40L 31 36.25L 31 36.25ZM 25.375 16.75L 30.625 16.75"></path></g></g></g><g id="g-root-ic_info_qqxacwxd105g-stroke" data-item-order="0" transform="translate(470, 318)"><g id="ic_info_qqxacwxd105g-stroke" fill="none" stroke-linecap="round" stroke-linejoin="round" stroke-miterlimit="4" stroke="#ffffff" stroke-width="2"><g><path d="M 37.75 45.25C 41.892101 45.25 45.25 41.892101 45.25 37.75C 45.25 33.607899 41.892101 30.25 37.75 30.25C 33.607899 30.25 30.25 33.607899 30.25 37.75C 30.25 41.892101 33.607899 45.25 37.75 45.25ZM 37.75 40.75L 37.75 38.5C 37.75 38.301098 37.670952 38.110298 37.530399 37.969601C 37.389702 37.829048 37.198902 37.75 37 37.75L 36.25 37.75M 36.25 40.75L 39.25 40.75M 10.75 30.25C 10.764585 28.85755 11.052535 27.481449 11.5975 26.200001C 12.1975 25 14.692 24.174999 17.827 23.014C 18.6745 22.7005 18.535 20.488001 18.16 20.073999C 17.56246 19.42651 17.108561 18.659996 16.828075 17.824749C 16.547606 16.989519 16.446865 16.104416 16.532499 15.2275C 16.478785 14.66884 16.540674 14.105095 16.714359 13.571395C 16.888031 13.03771 17.169744 12.545485 17.541954 12.12544C 17.914165 11.705379 18.368904 11.366468 18.877825 11.129831C 19.38673 10.893196 19.938925 10.763901 20.5 10.75C 21.061075 10.763901 21.61327 10.893196 22.122175 11.129831C 22.631094 11.366468 23.085835 11.705379 23.458044 12.12544C 23.830256 12.545485 24.111969 13.03771 24.285641 13.571395C 24.459326 14.105095 24.521215 14.66884 24.467501 15.2275C 24.553345 16.104654 24.452724 16.990046 24.172241 17.82556C 23.891756 18.661076 23.437737 19.42783 22.84 20.0755C 22.465 20.4895 22.3255 22.702 23.173 23.015499C 26.307999 24.1765 28.804001 25.006001 29.4025 26.2015C 29.947449 27.48295 30.235451 28.859049 30.25 30.251501L 10.75 30.25ZM 26.368 11.105525C 26.879501 10.869322 27.4366 10.747981 28 10.750026C 28.560999 10.763925 29.1133 10.893222 29.622101 11.129857C 30.13105 11.366494 30.58585 11.705395 30.958 12.125455C 31.330299 12.545515 31.612 13.037725 31.7857 13.571424C 31.959249 14.105124 32.021202 14.668855 31.967501 15.22753C 32.053299 16.10467 31.95265 16.990059 31.67215 17.82559C 31.3918 18.661104 30.93775 19.42786 30.34 20.075531C 29.965 20.489531 29.8255 22.70203 30.673 23.01553C 33.807999 24.176531 36.304001 25.006001 36.9025 26.2015C 37.06525 26.53285 37.199348 26.877699 37.303001 27.232M 37 35.125C 36.79285 35.125 36.625 34.95715 36.625 34.75C 36.625 34.54285 36.79285 34.375 37 34.375M 37 35.125C 37.20715 35.125 37.375 34.95715 37.375 34.75C 37.375 34.54285 37.20715 34.375 37 34.375"></path></g></g></g><g id="g-root-tx_dailyfac_v48zaoxcird1-stroke" data-item-order="0" transform="translate(38, 344)"></g><g id="g-root-tx_pipeline_dbq0moxcirk1-stroke" data-item-order="0" transform="translate(566, 344)"></g><g id="g-root-tx_managess_18ntnsgxciqdk-stroke" data-item-order="0" transform="translate(375, 164)"></g><g id="g-root-tx_allowsex_1qeh774xcir66-stroke" data-item-order="0" transform="translate(218, 176)"></g><g id="g-root-tx_helpsset_htey0gxcips6-stroke" data-item-order="0" transform="translate(26, 386)"></g><g id="g-root-ic_1_dkgkogxctxqc-stroke" data-item-order="0" transform="translate(170, 378)"><g id="ic_1_dkgkogxctxqc-stroke" fill="none" stroke-linecap="round" stroke-linejoin="round" stroke-miterlimit="4" stroke="#ffffff" stroke-width="2"><g><path d="M 44.875 42.625C 44.875 43.824997 43.824997 44.875 42.625 44.875L 13.375 44.875C 12.175 44.875 11.125 43.824997 11.125 42.625L 11.125 17.875C 11.125 16.674999 12.175 15.625 13.375 15.625L 42.625 15.625C 43.824997 15.625 44.875 16.674999 44.875 17.875L 44.875 42.625ZM 11.125 24.625L 44.875 24.625M 10 10M 18.774414 34.484802L 24.342279 40.052799M 10 10M 24.340824 34.484802L 18.772945 40.052799M 20.125 18.924999L 20.125 11.125M 35.875 18.924999L 35.875 11.125M 10 10M 33.9604 28.74115L 28.216749 37.356701L 35.875 37.356701M 10 10M 33.9604 28.74115L 33.9604 40.228451"></path></g></g></g><g id="g-root-ic_1_1hjgkvkxd3shs-stroke" data-item-order="0" transform="translate(314, 386)"><g id="ic_1_1hjgkvkxd3shs-stroke" fill="none" stroke-linecap="round" stroke-linejoin="round" stroke-miterlimit="4" stroke="#484848" stroke-width="2"><g><path d="M 37.75 55C 42.720703 55 46.75 50.970703 46.75 46C 46.75 41.029297 42.720703 37 37.75 37C 32.779449 37 28.75 41.029297 28.75 46C 28.75 50.970703 32.779449 55 37.75 55ZM 28.75 46L 12.25 46M 44.078201 39.67189L 70.75 13M 60.25 13L 70.75 13L 70.75 22M 46.75 46L 79.75 46M 10 10M 72.25 38.5L 79.75 46L 72.25 53.5M 44.078201 52.328201L 70.75 79M 60.25 79L 70.75 79L 70.75 70"></path></g></g></g><g id="g-root-ic_tran_hx5pdcxd2dc6-stroke" data-item-order="0" transform="translate(494, 378)"><g id="ic_tran_hx5pdcxd2dc6-stroke" fill="none" stroke-linecap="round" stroke-linejoin="round" stroke-miterlimit="4" stroke="#ffffff" stroke-width="2"><g><path d="M 18.25 24.25L 12.1345 24.25C 11.338242 24.217514 10.718719 23.546307 10.75 22.75L 10.75 12.25C 10.719556 11.454002 11.338616 10.783298 12.134501 10.75L 27.365499 10.75C 28.161385 10.783298 28.780445 11.454002 28.750002 12.25L 28.75 21.25M 13.75 27.25L 18.25 27.25M 10.75 21.25L 28.75 21.25M 33.25 42.25L 33.25 45.203499M 27.25 45.25L 39.25 45.25M 45.25 39.550003C 45.328579 40.956844 44.256351 42.163097 42.849998 42.25L 23.650002 42.25C 22.244034 42.1623 21.172256 40.956551 21.25 39.549999L 21.25 26.950001C 21.173092 25.543739 22.244421 24.338493 23.65 24.25L 42.849998 24.25C 44.255962 24.3377 45.32774 25.543449 45.249996 26.949999ZM 21.248501 37.75L 45.25 37.75"></path></g></g></g><g id="g-root-tx_showsall_vzcgxcipz6-stroke" data-item-order="0" transform="translate(578, 386)"></g><g id="g-root-tx_ldcmeter_1q88gc0xcipl3-stroke" data-item-order="0" transform="translate(38, 422)"></g><g id="g-root-tx_ldccharg_92rqggxciqrl-stroke" data-item-order="0" transform="translate(116, 182)"></g><g id="g-root-ic_fuel_1cyna28xcvcb1-stroke" data-item-order="0" transform="translate(170, 439)"><g id="ic_fuel_1cyna28xcvcb1-stroke" fill="none" stroke-linecap="round" stroke-linejoin="round" stroke-miterlimit="4" stroke="#ffffff" stroke-width="2"><g><path d="M 41.41 26.305L 39.670002 23.875L 32.635002 30.895C 31.570858 31.859535 30.186218 32.394146 28.75 32.395L 16.75 32.395C 15.984928 32.395042 15.251621 32.089081 14.713458 31.545282C 14.175296 31.001484 13.876988 30.26503 13.885 29.5L 13.885 22.450001C 13.880988 22.137106 14.002482 21.835644 14.222336 21.612972C 14.44219 21.390299 14.74208 21.264975 15.055 21.264999L 27.565001 21.264999C 28.566616 21.254858 29.476799 21.845884 29.875 22.764999L 30.655001 24.744999C 30.859945 25.200817 31.347515 25.460033 31.84 25.375L 39.670002 23.875M 19.33 17.785L 26.289999 17.785M 22.809999 17.785L 22.809999 21.264999M 13.885 17.785L 10.84 20.83M 42.16 29.215C 42.16 29.215 39.16 32.514999 39.16 35.215C 39.116211 36.023281 39.418194 36.81205 39.990574 37.384426C 40.56295 37.956806 41.351723 38.258789 42.16 38.215004C 42.974915 38.284248 43.778877 37.990494 44.357185 37.412186C 44.935493 36.833878 45.229248 36.029915 45.159996 35.215C 45.16 32.395 42.16 29.215 42.16 29.215Z"></path></g></g></g><g id="g-root-tx_storaget_1lynp2oxciryf-stroke" data-item-order="0" transform="translate(399, 122)"></g><g id="g-root-ic_docu_zk2e9cxd3u9z-stroke" data-item-order="0" transform="translate(494, 439)"><g id="ic_docu_zk2e9cxd3u9z-stroke" fill="none" stroke-linecap="round" stroke-linejoin="round" stroke-miterlimit="4" stroke="#ffffff" stroke-width="2"><g><path d="M 22 37L 34.375 37M 22 31L 22 23.5M 20.5 23.5L 23.5 23.5M 26.5 31L 26.5 25C 26.5 24.171572 27.171572 23.5 28 23.5C 28.828428 23.5 29.5 24.171572 29.5 25L 29.5 31M 26.5 28L 29.5 28M 32.5 23.5L 35.5 31M 35.5 23.5L 32.5 31M 40.75 45.25C 41.578426 45.25 42.25 44.578426 42.25 43.75L 42.25 19.7125C 42.25 14.762648 38.23735 10.75 33.287498 10.75L 15.25 10.75C 14.421573 10.75 13.75 11.421573 13.75 12.25L 13.75 43.75C 13.75 44.578426 14.421573 45.25 15.25 45.25ZM 34.75 10.87L 34.75 16.75C 34.75 17.578426 35.421574 18.25 36.25 18.25L 42.130001 18.25"></path></g></g></g><g id="g-root-tx_ldctaxco_1cuwipcxcis5n-stroke" data-item-order="0" transform="translate(590, 428)"></g><g id="g-root-tx_allowsco_zlxwogxcipl4-stroke" data-item-order="0" transform="translate(26, 464)"></g><g id="g-root-tx_pooldefi_4otnlcxcipsd-stroke" data-item-order="0" transform="translate(242, 134)"></g><g id="g-root-tx_ldcconfi_1d0ipbkxctxxf-stroke" data-item-order="0" transform="translate(224, 38)"></g><g id="g-root-tx_definest_zk2hf4xciqks-stroke" data-item-order="0" transform="translate(566, 482)"></g><g id="g-root-ic_lock_1lws6nkxcvf2n-stroke" data-item-order="0" transform="translate(194, 499)"><g id="ic_lock_1lws6nkxcvf2n-stroke" fill="none" stroke-linecap="round" stroke-linejoin="round" stroke-miterlimit="4" stroke="#ffffff" stroke-width="2"><g><path d="M 17.210501 29.7505L 10.75 37.5625L 16.375 38.6875L 18.625 44.6875L 24.916 35.675499M 38.789501 29.7505L 45.25 37.5625L 39.625 38.6875L 37.375 44.6875L 31.084 35.675499M 15.625 23.6875C 15.625001 30.522024 21.165478 36.0625 28 36.0625C 34.834522 36.0625 40.375 30.522024 40.375 23.6875C 40.375 16.852978 34.834522 11.3125 28 11.3125C 21.165478 11.3125 15.625001 16.852978 15.625001 23.6875M 23.875 21.34L 32.125 21.34C 32.125 21.34 33.625 21.34 33.625 22.84L 33.625 28.09C 33.625 28.09 33.625 29.59 32.125 29.59L 23.875 29.59C 23.875 29.59 22.375 29.59 22.375 28.09L 22.375 22.84C 22.375 22.84 22.375 21.34 23.875 21.34M 24.625 21.3445L 24.625 19.4695C 24.625 17.605539 26.13604 16.0945 28 16.0945C 29.86396 16.0945 31.375 17.605539 31.375 19.4695L 31.375 21.3445"></path></g></g></g><g id="g-root-ic_sign_1um6g1cxd2g3x-stroke" data-item-order="0" transform="translate(470, 499)"><g id="ic_sign_1um6g1cxd2g3x-stroke" fill="none" stroke-linecap="round" stroke-linejoin="round" stroke-miterlimit="4" stroke="#ffffff" stroke-width="2"><g><path d="M 40.75 40.974998L 34.855 42.16M 35.5 35.5L 32.724998 36.639999C 32.282623 36.820087 31.787373 36.820087 31.344999 36.639999C 30.696657 36.367188 30.266626 35.741707 30.244053 35.038666C 30.221478 34.335625 30.610495 33.683846 31.24 33.369999L 34 32.02C 34.342667 31.84141 34.723591 31.748751 35.110001 31.75C 35.401665 31.748604 35.691227 31.799404 35.965004 31.900002L 41.035 33.834999M 24.25 42.25L 26.349998 42.25L 29.844999 44.904999C 30.206755 45.320595 30.83568 45.367428 31.255001 45.010002L 36.505001 40.810001C 36.928867 40.451988 36.995029 39.823425 36.654999 39.385002L 33.775002 36.204998M 31 33.52L 30.625 33.205002C 30.249029 32.921658 29.790781 32.768909 29.32 32.77C 29.041775 32.771187 28.76652 32.827259 28.51 32.935001L 24.25 34.75M 19.75 43.75L 22.75 43.75C 23.578428 43.75 24.25 43.078426 24.25 42.25L 24.25 34.75C 24.25 33.921574 23.578428 33.25 22.75 33.25L 19.75 33.25M 45.25 43.75L 42.25 43.75C 41.421574 43.75 40.75 43.078426 40.75 42.25L 40.75 34.75C 40.75 33.921574 41.421574 33.25 42.25 33.25L 45.25 33.25M 35.5 10.75L 15.25 10.75C 12.764719 10.75 10.75 12.764719 10.75 15.25L 10.75 44.5C 10.75 44.914215 11.085787 45.25 11.5 45.25L 16 45.25M 15.25 16.75L 27.25 16.75M 15.25 21.25L 27.25 21.25M 15.25 25.75L 20.5 25.75M 31.75 29.5L 31.75 14.5C 31.75 12.428932 33.428932 10.75 35.5 10.75C 37.57 10.75 39.25 12.43 39.25 15.25L 31.75 15.25"></path></g></g></g><g id="g-root-tx_ldcrepre_1hegvcgxcipe3-stroke" data-item-order="0" transform="translate(50, 530)"></g><g id="g-root-tx_counterp_18kpacwxcip73-stroke" data-item-order="0" transform="translate(540, 530)"></g><g id="g-root-tx_provides_zn6uuoxcirr8-stroke" data-item-order="0" transform="translate(50, 572)"></g><g id="g-root-tx_allowsad_qtf9v4xcirk8-stroke" data-item-order="0" transform="translate(540, 560)"></g></g></g></svg>