<?xml version="1.0" encoding="utf-8" standalone="yes"?>
<!DOCTYPE svg PUBLIC "-//W3C//DTD SVG 1.1//EN" "http://www.w3.org/Graphics/SVG/1.1/DTD/svg11.dtd">
<svg width="674" height="562" viewBox="0 0 674 562" style="fill:none;stroke:none;fill-rule:evenodd;clip-rule:evenodd;stroke-linecap:round;stroke-linejoin:round;stroke-miterlimit:1.5;" version="1.1" xmlns="http://www.w3.org/2000/svg" xmlns:xlink="http://www.w3.org/1999/xlink"><style class="text-font-style fontImports" data-font-family="Roboto">@import url('https://fonts.googleapis.com/css2?family=Roboto:wght@400;700&amp;display=block');</style><g id="items" style="isolation: isolate"><g id="blend" style="mix-blend-mode: normal"><g id="g-root-back.cu_sy_mdkyj111ii8zz-fill" data-item-order="3999934578" transform="translate(236.16741943359375, 15.1656494140625)"><g id="back.cu_sy_mdkyj111ii8zz-fill" stroke="none" fill="#a3a3a3"><g><path d="M 15.0326 333.574974C 15.9629 334.145974 17.0468 334.477974 18.1904 334.477974L 19.2095 334.477974C 24.2441 340.891374 30.6852 346.882374 37.1417 352.016474L 29.0881 352.294174C 25.7584 352.427274 23.1879 355.241874 23.1879 358.575574L 23.1879 359.986174C 23.3211 363.313174 26.1447 365.881674 29.4744 365.755274L 55.9034 364.842574C 61.4301 368.046874 67.2932 371.027874 73.3864 373.909574L 63.9578 397.962974C 46.3568 389.782074 28.2306 378.829674 14.9511 364.256774C 7.5094 354.626374 9.223 343.340674 15.0326 333.574974ZM 18.508993 207.484692C 17.421793 207.484692 16.388493 207.184592 15.489793 206.664292C 16.002293 205.803192 16.215993 204.953892 16.788793 204.118592L 16.829593 204.059192L 16.788893 203.999992C 9.719993 214.309792 6.973393 226.752992 15.073293 237.235192C 26.601893 249.886692 41.556193 259.725692 56.875693 267.475292C 62.251193 264.755992 67.643693 262.304292 72.901393 260.096092C 76.947393 258.447692 82.252393 256.256492 88.285993 253.590692C 76.796393 248.554392 66.002593 243.601692 56.067093 237.845092L 29.772693 238.761892C 26.442993 238.888392 23.619393 236.319892 23.486193 232.992892L 23.486193 231.582192C 23.486193 228.248592 26.056793 225.433892 29.386493 225.300892L 37.296993 225.021192C 30.838893 219.888792 24.393793 213.898292 19.353893 207.484692L 18.508993 207.484692ZM 15.235454 110.003595C 7.178554 99.577095 9.808554 87.063395 16.854354 76.799995C 16.306754 77.617195 15.551154 78.809795 15.061554 79.650695C 16.578254 80.525295 17.545354 80.525295 18.648854 80.525295L 19.833554 80.525295C 24.875754 86.939095 31.030054 92.932695 37.489054 98.064495L 29.387554 98.344695C 26.057754 98.477795 23.487254 101.292395 23.487254 104.626095L 23.487254 106.036695C 23.620454 109.363695 26.444054 111.932195 29.773754 111.805795L 56.264154 110.888195C 66.239854 116.666395 77.309154 121.322595 88.847954 126.378595L 89.179754 126.525195L 88.847954 126.670595C 82.749454 129.367795 77.387554 131.582795 73.306454 133.245495C 68.187754 135.395195 62.941254 137.775895 57.707054 140.409495C 42.243154 132.628695 26.871054 122.772395 15.235454 110.003595ZM 135.807454 179.499995L 148.189454 180.001995C 151.398454 180.127995 154.012454 177.729995 154.138454 174.522595L 154.138454 173.244995C 154.138454 170.037795 151.708454 167.349595 148.498454 167.216495L 113.768454 165.834295C 106.001954 161.787995 97.720954 158.040095 89.178954 154.294295C 95.140354 151.663195 100.379454 149.498795 104.386554 147.866195C 109.694154 145.637095 115.139454 143.159795 120.565454 140.409495C 135.832454 148.147695 150.702454 157.992395 162.193454 170.601695C 170.292454 181.083995 167.418454 193.588995 160.349454 203.898995C 160.344454 203.890995 160.338454 203.882995 160.332454 203.874995C 160.338454 203.865995 160.344454 203.857995 160.349454 203.849995C 161.885454 201.609995 163.217454 199.268995 164.278454 196.869995C 163.199454 195.026995 161.570454 193.748995 159.336454 193.748995L 152.319454 193.748995C 147.220454 188.480995 141.368454 183.607995 135.807454 179.499995ZM 113.794533 38.8982L 148.498333 40.2793C 151.708133 40.4124 154.138833 43.1006 154.138833 46.3078L 154.138833 47.5854C 154.012333 50.7926 151.448433 53.2214 148.238633 53.0949L 135.890133 52.6035C 141.449733 56.7126 147.235233 61.5442 152.331733 66.8122L 159.336433 66.8122C 161.576933 66.8122 163.761333 68.2291 164.837533 70.0804C 168.650933 61.6721 169.213533 51.826 162.442533 43.3864C 149.163033 28.8136 131.036833 18.181 113.435733 10L 104.007233 34.0534C 107.344533 35.6318 110.612733 37.2399 113.794533 38.8982Z"></path></g></g></g><g id="g-root-5.cu_sy_dhxya511iiakg-fill" data-item-order="3999934582" transform="translate(241.19390869140625, 296.1651611328125)"><g id="5.cu_sy_dhxya511iiakg-fill" stroke="none" fill="#e2a3ff"><g><path d="M 10 52.5716C 10.9317 53.1449 12.0179 53.4784 13.164 53.4784L 83.6541 53.4784L 83.6541 39.7645L 20.0605 39.7645C 16.9742 42.9646 14.1441 46.3246 11.7744 49.7808C 11.1474 50.6952 10.5544 51.6264 10 52.5716ZM 41.4468 22.0036L 83.6541 23.6834L 83.6541 10.8575L 62.1063 10C 57.6559 12.2322 53.3569 14.5455 49.2547 16.9926C 46.8717 18.4182 44.2262 20.1019 41.4468 22.0036ZM 18.1615 77.5759C 18.1615 74.2423 20.7321 71.4276 24.0618 71.2945L 83.6986 69.2384L 83.6986 82.7095L 24.448 84.7556C 21.1183 84.882 18.2947 82.3136 18.1615 78.9866L 18.1615 77.5759Z"></path></g></g></g><g id="g-root-4.cu_sy_4mxf4d11ii87d-fill" data-item-order="3999934586" transform="translate(315.013916015625, 169.9658203125)"><g id="4.cu_sy_4mxf4d11ii87d-fill" stroke="none" fill="#cd6afb"><g><path d="M 69.652 12.374C 72.8619 12.5071 75.2926 15.1953 75.2926 18.4026L 75.2926 19.6801C 75.1661 22.8874 72.6022 25.3161 69.3923 25.1897L 10.000004 22.8259L 10.000004 10L 69.652 12.374ZM 78.8627 52.6209C 79.8051 51.4275 80.6989 50.2193 81.5354 48.9991C 83.0713 46.7592 84.5356 44.1467 85.5964 41.7473C 84.6143 40.2268 82.6713 38.9458 80.4375 38.9458L 10.000004 38.9069L 10.000004 52.6209L 78.8627 52.6209ZM 65.3074 66.4553L 10.000004 68.3809L 10 81.852L 45.9823 80.5926C 51.7414 77.0178 58.6982 72.1444 65.3074 66.4553Z"></path></g></g></g><g id="g-root-3.cu_sy_73wzx11ii8zm-fill" data-item-order="3999934590" transform="translate(241.3424072265625, 169.16552734375)"><g id="3.cu_sy_73wzx11ii8zm-fill" stroke="none" fill="#ba5de5"><g><path d="M 10.000007 52.6336C 10.898631 53.1539 12.103431 53.454 13.190731 53.454L 83.680831 53.454L 83.680831 39.74L 20.284231 39.74C 17.073131 43.0393 14.074831 46.5121 11.623231 50.0879C 11.050431 50.9232 10.512531 51.7724 10.000007 52.6336ZM 41.933131 21.9974L 83.680831 23.659L 83.680831 10.8331L 62.747331 10C 58.077931 12.3271 53.572131 14.7402 49.281431 17.2997C 47.030131 18.6465 44.544531 20.2237 41.933131 21.9974ZM 18.321731 77.5515C 18.321731 74.2178 20.892231 71.4032 24.222031 71.2701L 83.680831 69.214L 83.680831 82.6851L 24.608231 84.7312C 21.278531 84.8576 18.454931 82.2892 18.321731 78.9621L 18.321731 77.5515Z"></path></g></g></g><g id="g-root-2.cu_sy_73wzx11ii8zn-fill" data-item-order="3999934594" transform="translate(315.01373291015625, 43.0706787109375)"><g id="2.cu_sy_73wzx11ii8zn-fill" stroke="none" fill="#a455c9"><g><path d="M 69.652 12.374C 72.8619 12.5071 75.2926 15.1953 75.2926 18.4026L 75.2926 19.6801C 75.1661 22.8874 72.6022 25.3161 69.3923 25.1897L 10.000005 22.8259L 10.000005 10L 69.652 12.374ZM 79.467 52.6209C 80.3141 51.5352 81.1207 50.4377 81.88 49.3302C 83.4557 47.0322 84.8166 44.6281 85.8905 42.1635C 84.8338 40.2434 82.7819 38.9069 80.4902 38.9069L 10.000005 38.9069L 10.000005 52.6209L 79.467 52.6209ZM 66.0837 66.4415L 10.000005 68.3809L 10 81.852L 46.9214 80.5732C 52.6853 76.9594 59.5694 72.0937 66.0837 66.4415Z"></path></g></g></g><g id="g-root-1.cu_sy_1qckyq511ii9l8-fill" data-item-order="3999934598" transform="translate(241.225830078125, 42.2147216796875)"><g id="1.cu_sy_1qckyq511ii9l8-fill" stroke="none" fill="#78478f"><g><path d="M 20.0608 39.7625C 16.9982 42.9437 14.1971 46.2553 11.843 49.6887C 11.1882 50.6438 10.5755 51.6202 9.999992 52.6087C 10.9079 53.1433 12.006 53.4765 13.1095 53.4765L 83.7879 53.4765L 83.7879 39.7625L 20.0608 39.7625ZM 41.4923 22.0049L 83.7879 23.6815L 83.7879 10.8556L 62.1184 10C 59.1294 11.5014 56.209 13.0397 53.3708 14.6308C 52.0273 15.3839 50.7022 16.1489 49.3971 16.9275C 46.9864 18.3697 44.3071 20.076 41.4923 22.0049ZM 18.4288 77.574C 18.4288 74.2403 20.9994 71.4257 24.3291 71.2926L 83.7879 69.2365L 83.7879 82.7076L 24.7154 84.7537C 21.3856 84.8801 18.562 82.3117 18.4288 78.9847L 18.4288 77.574Z"></path></g></g></g><g id="g-root-top.cu_sy_1d14gct11iib65-fill" data-item-order="3999934602" transform="translate(230.71395874023438, 14.9996337890625)"><g id="top.cu_sy_1d14gct11iib65-fill" stroke="none" fill="#a3a3a3"><g><path d="M 20.4045 297.921985C 35.9784 280.830985 58.2186 268.719685 78.4599 260.218685C 82.541 258.555885 87.9029 256.340985 94.0014 253.643785C 106.2456 248.278685 117.958 242.917885 128.4 236.689385C 139.533 230.029085 156.395 217.734985 165.88 203.901185C 172.949 193.591385 175.695 181.148185 167.595 170.665985C 176.381 180.307785 178 189.578885 178 203.901185C 178 218.223585 176.381 227.494685 167.595 237.136485C 152.021 254.227185 129.781 266.338385 109.54 274.838985C 105.4589 276.501985 100.0999 278.715985 94.0014 281.413985C 81.7572 286.778985 70.0416 292.139985 59.6004 298.368985C 48.4673 305.028985 31.6052 317.322985 22.1201 331.156985C 15.0512 341.466985 12.3046 353.909985 20.4045 364.391985C 11.6185 354.749985 10 345.478985 10 331.156985C 10 316.833985 11.6185 307.562985 20.4045 297.921985ZM 20.466001 171.12746C 36.090401 154.03646 58.402701 141.92516 78.709501 133.42416C 82.803801 131.76136 88.183101 129.54646 94.301401 126.84926C 106.585201 121.48416 118.335801 116.12336 128.810801 109.89486C 139.979801 103.23456 156.896801 90.94046 166.412801 77.10666C 173.504801 66.79686 176.259801 54.35366 168.133801 43.87146C 176.948801 53.51326 178.571801 62.78436 178.571801 77.10666C 178.571801 91.42906 176.948801 100.70016 168.133801 110.34196C 152.509801 127.43266 130.196801 139.54386 109.890301 148.04446C 105.796001 149.70746 100.419601 151.92146 94.301401 154.61946C 82.017501 159.98446 70.264001 165.34546 59.788901 171.57446C 48.619801 178.23446 31.703001 190.52846 22.187201 204.36246C 15.095401 214.67246 12.392001 227.14346 20.697701 237.59746C 11.883201 227.95546 10.027801 218.68446 10.027801 204.36246C 10.027801 190.03946 11.651501 180.76846 20.466001 171.12746ZM 22.335693 76.930801C 31.820801 63.097 48.767395 50.802902 59.90039 44.142601C 61.205597 43.364097 62.5307 42.598999 63.874176 41.845901C 68.737884 39.119301 73.843292 36.5476 79.121582 34.050903L 69.687591 10C 52.093994 18.180099 33.978088 29.129196 20.704498 43.695595C 11.918487 53.337295 10.299988 62.608398 10.299988 76.930801C 10.299988 91.253097 11.918487 100.5242 20.704498 110.166C 12.604583 99.683792 15.266784 87.2406 22.335693 76.930801Z"></path></g></g></g><g id="g-root-tx_ldcconfi_4o6dal11iiadm-fill" data-item-order="4000000000" transform="translate(15, 39)"><g id="tx_ldcconfi_4o6dal11iiadm-fill" stroke="none" fill="#484848"><g><text style="font: 20px Roboto, sans-serif; white-space: pre;" font-size="20px" font-family="Roboto, sans-serif"><tspan x="103.08" y="33.47" dominant-baseline="ideographic">LDC </tspan><tspan x="20.07" y="57.47" dominant-baseline="ideographic">Configuration </tspan><tspan x="22.17" y="81.47" dominant-baseline="ideographic">Management</tspan></text></g></g></g><g id="g-root-1_dfg1xp11inx1d-fill" data-item-order="4000000000" transform="translate(159, 51)"></g><g id="g-root-spar_141qll911inx1c-fill" data-item-order="4000000000" transform="translate(423, 51)"></g><g id="g-root-tx_pipeline_djtdjh11ii9kx-fill" data-item-order="4000000000" transform="translate(483, 51)"><g id="tx_pipeline_djtdjh11ii9kx-fill" stroke="none" fill="#484848"><g><text style="font: 20px Roboto, sans-serif; white-space: pre;" font-size="20px" font-family="Roboto, sans-serif"><tspan x="12" y="33.47" dominant-baseline="ideographic">Pipeline Path </tspan><tspan x="12" y="57.47" dominant-baseline="ideographic">Management</tspan></text></g></g></g><g id="g-root-tx_storagem_hzmvnx11ii8so-fill" data-item-order="4000000000" transform="translate(15, 183)"><g id="tx_storagem_hzmvnx11ii8so-fill" stroke="none" fill="#484848"><g><text style="font: 20px Roboto, sans-serif; white-space: pre;" font-size="20px" font-family="Roboto, sans-serif"><tspan x="71.27" y="33.47" dominant-baseline="ideographic">Storage </tspan><tspan x="22.17" y="57.47" dominant-baseline="ideographic">Management</tspan></text></g></g></g><g id="g-root-remo_hu0lvx11imgpb-fill" data-item-order="4000000000" transform="translate(159, 183)"></g><g id="g-root-cale_dcy5l911il1xq-fill" data-item-order="4000000000" transform="translate(423, 183)"></g><g id="g-root-tx_nominati_metwp911iib67-fill" data-item-order="4000000000" transform="translate(483, 183)"><g id="tx_nominati_metwp911iib67-fill" stroke="none" fill="#484848"><g><text style="font: 20px Roboto, sans-serif; white-space: pre;" font-size="20px" font-family="Roboto, sans-serif"><tspan x="12" y="33.47" dominant-baseline="ideographic">Nomination and </tspan><tspan x="12" y="57.47" dominant-baseline="ideographic">Scheduling</tspan></text></g></g></g><g id="g-root-tx_billinga_zqaf2l11ii9la-fill" data-item-order="4000000000" transform="translate(51, 315)"><g id="tx_billinga_zqaf2l11ii9la-fill" stroke="none" fill="#484848"><g><text style="font: 20px Roboto, sans-serif; white-space: pre;" font-size="20px" font-family="Roboto, sans-serif"><tspan x="11.63" y="33.47" dominant-baseline="ideographic">Billing and </tspan><tspan x="24.08" y="57.47" dominant-baseline="ideographic">Invoicing</tspan></text></g></g></g><g id="g-root-hand_1lymvv111ii9dw-fill" data-item-order="4000000000" transform="translate(159, 315)"></g><g id="g-root-tx_enhancin_1qegdzh11ii8ln-fill" data-item-order="4000000000" transform="translate(51, 447)"><g id="tx_enhancin_1qegdzh11ii8ln-fill" stroke="none" fill="#484848"><g><text style="font: 20px Roboto, sans-serif; white-space: pre;" font-size="20px" font-family="Roboto, sans-serif"><tspan x="17.3" y="33.47" dominant-baseline="ideographic">Enhancing LDC Operations with nGenue's Comprehensive </tspan><tspan x="229.83" y="57.47" dominant-baseline="ideographic">Solutions</tspan></text></g></g></g><g id="g-root-back.cu_sy_mdkyj111ii8zz-stroke" data-item-order="3999934578" transform="translate(236.16741943359375, 15.1656494140625)"><g id="back.cu_sy_mdkyj111ii8zz-stroke" fill="none" stroke-linecap="round" stroke-linejoin="round" stroke-miterlimit="4" stroke="#ffffff" stroke-width="2"><g><path d="M 15.0326 333.574974C 15.9629 334.145974 17.0468 334.477974 18.1904 334.477974L 19.2095 334.477974C 24.2441 340.891374 30.6852 346.882374 37.1417 352.016474L 29.0881 352.294174C 25.7584 352.427274 23.1879 355.241874 23.1879 358.575574L 23.1879 359.986174C 23.3211 363.313174 26.1447 365.881674 29.4744 365.755274L 55.9034 364.842574C 61.4301 368.046874 67.2932 371.027874 73.3864 373.909574L 63.9578 397.962974C 46.3568 389.782074 28.2306 378.829674 14.9511 364.256774C 7.5094 354.626374 9.223 343.340674 15.0326 333.574974ZM 18.508993 207.484692C 17.421793 207.484692 16.388493 207.184592 15.489793 206.664292C 16.002293 205.803192 16.215993 204.953892 16.788793 204.118592L 16.829493 204.059192L 16.788893 203.999992C 9.719993 214.309792 6.973393 226.752992 15.073293 237.235192C 26.601893 249.886692 41.556193 259.725692 56.875693 267.475292C 62.251193 264.755992 67.643693 262.304292 72.901393 260.096092C 76.947393 258.447692 82.252393 256.256492 88.285993 253.590692C 76.796393 248.554392 66.002593 243.601692 56.067093 237.845092L 29.772693 238.761892C 26.442993 238.888392 23.619393 236.319892 23.486193 232.992892L 23.486193 231.582192C 23.486193 228.248592 26.056793 225.433892 29.386493 225.300892L 37.296993 225.021192C 30.838893 219.888792 24.393793 213.898292 19.353893 207.484692L 18.508993 207.484692ZM 15.235454 110.003595C 7.178654 99.577095 9.808554 87.063395 16.854354 76.799995C 16.306754 77.617195 15.551154 78.809795 15.061554 79.650695C 16.578254 80.525295 17.545354 80.525295 18.648754 80.525295L 19.833554 80.525295C 24.875754 86.939095 31.030054 92.932695 37.489054 98.064495L 29.387554 98.344695C 26.057754 98.477795 23.487254 101.292395 23.487254 104.626095L 23.487254 106.036695C 23.620454 109.363695 26.444054 111.932195 29.773754 111.805795L 56.264154 110.888195C 66.239854 116.666395 77.309154 121.322595 88.847954 126.378595L 89.179754 126.525195L 88.847954 126.670595C 82.749454 129.367795 77.387554 131.582795 73.306454 133.245495C 68.187754 135.395195 62.941254 137.775895 57.707054 140.409495C 42.243154 132.628695 26.871054 122.772395 15.235454 110.003595ZM 135.807554 179.499495L 148.189054 180.001495C 151.398954 180.127895 154.012354 177.729795 154.138954 174.522595L 154.138954 173.244995C 154.138954 170.037795 151.708254 167.349595 148.498354 167.216495L 113.768154 165.834295C 106.001954 161.787995 97.720954 158.040095 89.178954 154.294295C 95.140354 151.663195 100.379454 149.498795 104.386554 147.866195C 109.694154 145.637095 115.139154 143.159795 120.565354 140.409495C 135.832954 148.147695 150.702854 157.992395 162.193054 170.601695C 170.292954 181.083895 167.418554 193.589395 160.349654 203.899295C 160.344054 203.890995 160.338454 203.882795 160.332754 203.874595C 160.338454 203.866295 160.344054 203.858095 160.349754 203.849895C 161.885554 201.609895 163.217354 199.269195 164.278254 196.869795C 163.199754 195.027395 161.570354 193.749395 159.336454 193.749395L 152.319154 193.749395C 147.220154 188.480595 141.368254 183.608295 135.807554 179.499495ZM 113.794533 38.8982L 148.498333 40.2793C 151.708133 40.4124 154.138833 43.1006 154.138833 46.3078L 154.138833 47.5854C 154.012333 50.7926 151.448433 53.2214 148.238633 53.0949L 135.890133 52.6035C 141.449733 56.7126 147.235233 61.5442 152.331733 66.8122L 159.336433 66.8122C 161.576933 66.8122 163.761333 68.2291 164.837533 70.0804C 168.650933 61.6721 169.213533 51.826 162.442533 43.3864C 149.163033 28.8136 131.036833 18.181 113.435733 10L 104.007233 34.0534C 107.344533 35.6318 110.612733 37.2399 113.794533 38.8982Z"></path></g></g></g><g id="g-root-5.cu_sy_dhxya511iiakg-stroke" data-item-order="3999934582" transform="translate(241.19390869140625, 296.1651611328125)"><g id="5.cu_sy_dhxya511iiakg-stroke" fill="none" stroke-linecap="round" stroke-linejoin="round" stroke-miterlimit="4" stroke="#ffffff" stroke-width="2"><g><path d="M 10 52.5716C 10.9317 53.1449 12.0179 53.4784 13.164 53.4784L 83.6541 53.4784L 83.6541 39.7645L 20.0605 39.7645C 16.9742 42.9646 14.1441 46.3246 11.7744 49.7808C 11.1474 50.6952 10.5544 51.6264 10 52.5716ZM 41.4468 22.0036L 83.6541 23.6834L 83.6541 10.8575L 62.1063 10C 57.6559 12.2322 53.3569 14.5455 49.2547 16.9926C 46.8717 18.4182 44.2262 20.1019 41.4468 22.0036ZM 18.1615 77.5759C 18.1615 74.2423 20.7321 71.4276 24.0618 71.2945L 83.6986 69.2384L 83.6986 82.7095L 24.448 84.7556C 21.1183 84.882 18.2947 82.3136 18.1615 78.9866L 18.1615 77.5759Z"></path></g></g></g><g id="g-root-4.cu_sy_4mxf4d11ii87d-stroke" data-item-order="3999934586" transform="translate(315.013916015625, 169.9658203125)"><g id="4.cu_sy_4mxf4d11ii87d-stroke" fill="none" stroke-linecap="round" stroke-linejoin="round" stroke-miterlimit="4" stroke="#ffffff" stroke-width="2"><g><path d="M 69.652 12.374C 72.8619 12.5071 75.2926 15.1953 75.2926 18.4025L 75.2926 19.6801C 75.1661 22.8874 72.6022 25.3161 69.3923 25.1897L 10 22.8259L 10 10L 69.652 12.374ZM 78.8627 52.6209C 79.8051 51.4275 80.6989 50.2193 81.5354 48.9991C 83.0713 46.7592 84.5356 44.1467 85.5964 41.7473C 84.6142 40.2268 82.6713 38.9458 80.4375 38.9458L 10 38.9069L 10 52.6209L 78.8627 52.6209ZM 65.3074 66.4553L 10 68.3809L 10 81.852L 45.9823 80.5926C 51.7414 77.0178 58.6982 72.1444 65.3074 66.4553Z"></path></g></g></g><g id="g-root-3.cu_sy_73wzx11ii8zm-stroke" data-item-order="3999934590" transform="translate(241.3424072265625, 169.16552734375)"><g id="3.cu_sy_73wzx11ii8zm-stroke" fill="none" stroke-linecap="round" stroke-linejoin="round" stroke-miterlimit="4" stroke="#ffffff" stroke-width="2"><g><path d="M 10.000031 52.6336C 10.898631 53.1539 12.103431 53.454 13.190731 53.454L 83.680831 53.454L 83.680831 39.74L 20.284231 39.74C 17.073131 43.0393 14.074831 46.5121 11.623131 50.0879C 11.050431 50.9232 10.512531 51.7724 10.000031 52.6336ZM 41.933131 21.9974L 83.680831 23.659L 83.680831 10.8331L 62.747331 10C 58.077931 12.3271 53.572131 14.7402 49.281431 17.2997C 47.030131 18.6465 44.544531 20.2237 41.933131 21.9974ZM 18.321731 77.5515C 18.321731 74.2178 20.892231 71.4032 24.222031 71.2701L 83.680831 69.214L 83.680831 82.6851L 24.608231 84.7312C 21.278531 84.8576 18.454931 82.2892 18.321731 78.9621L 18.321731 77.5515Z"></path></g></g></g><g id="g-root-2.cu_sy_73wzx11ii8zn-stroke" data-item-order="3999934594" transform="translate(315.01373291015625, 43.0706787109375)"><g id="2.cu_sy_73wzx11ii8zn-stroke" fill="none" stroke-linecap="round" stroke-linejoin="round" stroke-miterlimit="4" stroke="#ffffff" stroke-width="2"><g><path d="M 69.652 12.374C 72.8619 12.5071 75.2926 15.1953 75.2926 18.4025L 75.2926 19.6801C 75.1661 22.8874 72.6022 25.3161 69.3923 25.1897L 10 22.8259L 10 10L 69.652 12.374ZM 79.467 52.6209C 80.3141 51.5352 81.1207 50.4377 81.88 49.3302C 83.4557 47.0322 84.8166 44.6281 85.8905 42.1635C 84.8338 40.2434 82.7819 38.9069 80.4902 38.9069L 10 38.9069L 10 52.6209L 79.467 52.6209ZM 66.0837 66.4415L 10 68.3809L 10 81.852L 46.9214 80.5732C 52.6853 76.9594 59.5694 72.0937 66.0837 66.4415Z"></path></g></g></g><g id="g-root-1.cu_sy_1qckyq511ii9l8-stroke" data-item-order="3999934598" transform="translate(241.225830078125, 42.2147216796875)"><g id="1.cu_sy_1qckyq511ii9l8-stroke" fill="none" stroke-linecap="round" stroke-linejoin="round" stroke-miterlimit="4" stroke="#ffffff" stroke-width="2"><g><path d="M 20.0608 39.7625C 16.9982 42.9437 14.1971 46.2553 11.843 49.6887C 11.1882 50.6438 10.5755 51.6202 10 52.6087C 10.9079 53.1433 12.006 53.4765 13.1095 53.4765L 83.7879 53.4765L 83.7879 39.7625L 20.0608 39.7625ZM 41.4923 22.0049L 83.7879 23.6815L 83.7879 10.8556L 62.1184 10C 59.1294 11.5014 56.209 13.0397 53.3708 14.6308C 52.0273 15.3839 50.7022 16.1489 49.3971 16.9275C 46.9864 18.3697 44.3071 20.076 41.4923 22.0049ZM 18.4288 77.574C 18.4288 74.2403 20.9994 71.4257 24.3291 71.2926L 83.7879 69.2365L 83.7879 82.7076L 24.7154 84.7537C 21.3856 84.8801 18.562 82.3117 18.4288 78.9847L 18.4288 77.574Z"></path></g></g></g><g id="g-root-top.cu_sy_1d14gct11iib65-stroke" data-item-order="3999934602" transform="translate(230.71395874023438, 14.9996337890625)"><g id="top.cu_sy_1d14gct11iib65-stroke" fill="none" stroke-linecap="round" stroke-linejoin="round" stroke-miterlimit="4" stroke="#ffffff" stroke-width="2"><g><path d="M 78.4599 260.218685C 58.2186 268.719685 35.9784 280.830785 20.4045 297.921585C 11.6185 307.563285 10 316.834485 10 331.156785C 10 345.479085 11.6185 354.750285 20.4045 364.391985C 12.3046 353.909785 15.0512 341.466585 22.1201 331.156785C 31.6052 317.322985 48.4673 305.028885 59.6004 298.368585C 70.0416 292.140085 81.7572 286.778785 94.0014 281.413685C 100.0999 278.716485 105.4589 276.502085 109.54 274.839385C 129.7813 266.338385 152.0215 254.227185 167.5954 237.136485C 176.3814 227.494685 177.9999 218.223585 177.9999 203.901185C 177.9999 189.578885 176.3814 180.307785 167.5954 170.665985C 175.6953 181.148185 172.9487 193.591385 165.8798 203.901185C 156.3947 217.734985 139.5326 230.029085 128.3995 236.689385C 117.9583 242.917885 106.2456 248.278685 94.0014 253.643785C 87.9029 256.340985 82.541 258.555885 78.4599 260.218685ZM 78.709501 133.42416C 58.402701 141.92516 36.090401 154.03626 20.466001 171.12706C 11.651501 180.76876 10.027801 190.03996 10.027801 204.36226C 10.027801 218.68456 11.883201 227.95576 20.697701 237.59746C 12.392001 227.14336 15.095401 214.67206 22.187201 204.36226C 31.703001 190.52846 48.619801 178.23436 59.788901 171.57406C 70.264001 165.34556 82.017501 159.98426 94.301401 154.61916C 100.419601 151.92196 105.796001 149.70756 109.890301 148.04486C 130.197201 139.54386 152.509501 127.43266 168.133801 110.34196C 176.948401 100.70016 178.572101 91.42906 178.572101 77.10666C 178.572101 62.78436 176.948401 53.51326 168.133801 43.87146C 176.260001 54.35366 173.504501 66.79686 166.412701 77.10666C 156.896901 90.94046 139.980101 103.23456 128.811001 109.89486C 118.335901 116.12336 106.585201 121.48416 94.301401 126.84926C 88.183101 129.54646 82.803801 131.76136 78.709501 133.42416ZM 22.335693 76.930801C 31.820801 63.097 48.767395 50.802902 59.90039 44.142601C 61.205597 43.364097 62.5307 42.598999 63.874176 41.845901C 68.737884 39.119301 73.843292 36.5476 79.121582 34.050903L 69.687591 10.000397C 52.093994 18.180099 33.978088 29.129196 20.704498 43.695595C 11.918487 53.337295 10.299988 62.608398 10.299988 76.930801C 10.299988 91.253097 11.918487 100.5242 20.704498 110.166C 12.604583 99.683792 15.266784 87.2406 22.335693 76.930801Z"></path></g></g></g><g id="g-root-tx_ldcconfi_4o6dal11iiadm-stroke" data-item-order="4000000000" transform="translate(15, 39)"></g><g id="g-root-1_dfg1xp11inx1d-stroke" data-item-order="4000000000" transform="translate(159, 51)"><g id="1_dfg1xp11inx1d-stroke" fill="none" stroke-linecap="round" stroke-linejoin="round" stroke-miterlimit="4" stroke="#484848" stroke-width="2"><g><path d="M 13 11L 55 11C 55 11 57 11 57 13L 57 55C 57 55 57 57 55 57L 13 57C 13 57 11 57 11 55L 11 13C 11 13 11 11 13 11M 34 39L 34 25M 47.062 39L 47.062 35M 21 27L 21 17M 21 39L 21 31M 47.062 31L 47.062 17M 34 21L 34 17M 43.062 33C 43.062 31.89543 43.957432 31 45.062 31L 49.062 31C 50.166569 31 51.062 31.89543 51.062 33C 51.062 34.104568 50.166569 35 49.062 35L 45.062 35C 43.957432 35 43.062 34.104568 43.062 33ZM 30 23C 30 21.895432 30.89543 21 32 21L 36 21C 37.104568 21 38 21.895432 38 23C 38 24.104568 37.104568 25 36 25L 32 25C 30.89543 25 30 24.104568 30 23ZM 17 29C 17 27.89543 17.895432 27 19 27L 23 27C 24.104568 27 25 27.89543 25 29C 25 30.10457 24.104568 31 23 31L 19 31C 17.895432 31 17 30.10457 17 29ZM 44.084 48C 44.084 49.656857 45.427147 51 47.084 51C 48.740856 51 50.084 49.656857 50.084 48C 50.084 46.343147 48.740856 45 47.084 45C 45.427147 45 44.084 46.343147 44.084 48M 31 48C 31 49.656857 32.343147 51 34 51C 35.656853 51 37 49.656857 37 48C 37 46.343147 35.656853 45 34 45C 32.343147 45 31 46.343147 31 48M 18 48C 18 49.656857 19.343147 51 21 51C 22.656855 51 24 49.656857 24 48C 24 46.343147 22.656855 45 21 45C 19.343147 45 18 46.343147 18 48"></path></g></g></g><g id="g-root-spar_141qll911inx1c-stroke" data-item-order="4000000000" transform="translate(423, 51)"><g id="spar_141qll911inx1c-stroke" fill="none" stroke-linecap="round" stroke-linejoin="round" stroke-miterlimit="4" stroke="#484848" stroke-width="2"><g><path d="M 38.284798 14.72394C 35.595398 12.69982 32.250401 11.5 28.625401 11.5C 19.745399 11.5 12.5454 18.700001 12.5254 27.58C 12.5254 38.82 28.6054 56.5 28.6054 56.5C 28.6054 56.5 39.375198 44.6586 43.286999 34.196602M 22.498039 27.29944C 22.498039 30.6742 25.23048 33.416801 28.615419 33.416801C 31.9902 33.416801 34.7328 30.684401 34.7328 27.29944C 34.7328 23.914501 32.000401 21.171879 28.615419 21.171879C 25.240681 21.171879 22.498039 23.904301 22.498039 27.289261L 22.498039 27.29944ZM 38.613197 21.169319C 42.947201 20.29808 46.4366 16.766319 47.3092 12.32032C 48.181801 16.766319 51.6702 20.29808 56.0042 21.169319M 56.0042 21.1744C 51.6702 22.045639 48.180801 25.5774 47.308201 30.023399C 46.4356 25.5774 42.947201 22.045639 38.613197 21.1744"></path></g></g></g><g id="g-root-tx_pipeline_djtdjh11ii9kx-stroke" data-item-order="4000000000" transform="translate(483, 51)"></g><g id="g-root-tx_storagem_hzmvnx11ii8so-stroke" data-item-order="4000000000" transform="translate(15, 183)"></g><g id="g-root-remo_hu0lvx11imgpb-stroke" data-item-order="4000000000" transform="translate(159, 183)"><g id="remo_hu0lvx11imgpb-stroke" fill="none" stroke-linecap="round" stroke-linejoin="round" stroke-miterlimit="4" stroke="#484848" stroke-width="2"><g><path d="M 56.285713 40.857143L 40.857143 56.285713M 40.857143 40.857143L 56.285713 56.285713M 11.714286 18.982857C 11.714287 22.997177 20.156918 26.251429 30.571428 26.251429C 40.985943 26.251429 49.428574 22.997177 49.428574 18.982857C 49.428574 14.968535 40.985943 11.714286 30.571428 11.714286C 20.156918 11.714286 11.714287 14.968535 11.714287 18.982857M 49.428574 35.714287L 49.428574 18.982857M 11.714286 18.982857L 11.714286 42.16C 11.714286 46.171429 20.08 49.394287 30.571428 49.428574M 30.571428 37.84C 20.285715 37.84 11.714286 34.582859 11.714286 30.571428"></path></g></g></g><g id="g-root-cale_dcy5l911il1xq-stroke" data-item-order="4000000000" transform="translate(423, 183)"><g id="cale_dcy5l911il1xq-stroke" fill="none" stroke-linecap="round" stroke-linejoin="round" stroke-miterlimit="4" stroke="#484848" stroke-width="2"><g><path d="M 13 15.002L 55 15.002C 55 15.002 57 15.002 57 17.001999L 57 55.001999C 57 55.001999 57 57.001999 55 57.001999L 13 57.001999C 13 57.001999 11 57.001999 11 55.001999L 11 17.001999C 11 17.001999 11 15.002 13 15.002M 21 11.002L 21 21.001999M 47 11.002L 47 21.001999M 11 25.001999L 57 25.001999"></path></g></g></g><g id="g-root-tx_nominati_metwp911iib67-stroke" data-item-order="4000000000" transform="translate(483, 183)"></g><g id="g-root-tx_billinga_zqaf2l11ii9la-stroke" data-item-order="4000000000" transform="translate(51, 315)"></g><g id="g-root-hand_1lymvv111ii9dw-stroke" data-item-order="4000000000" transform="translate(159, 315)"><g id="hand_1lymvv111ii9dw-stroke" fill="none" stroke-linecap="round" stroke-linejoin="round" stroke-miterlimit="4" stroke="#484848" stroke-width="2"><g><path d="M 57 57L 52 50.139999L 52 41C 52.099998 37.440002 46.84 33.279999 43 30M 47.040001 45L 41.66 39.459999C 40.831573 38.631569 39.488426 38.631569 38.659996 39.459999C 37.831573 40.288425 37.831573 41.631569 38.659996 42.459999L 44 49L 44 52C 44 54 47.119999 57 47.119999 57M 37 51L 13 51C 11.895431 51 11 50.104568 11 49L 11 13C 11 11.895431 11.895431 11 13 11L 41 11C 42.104568 11 43 11.895431 43 13L 43 40.84M 37 47L 18 47C 17.447716 47 17 46.552284 17 46L 17 34C 17 33.447716 17.447716 33 18 33L 36 33C 36.552284 33 37 33.447716 37 34L 37 37M 17 37L 37 37M 23 33L 23 47M 29 33L 29 47M 29 19L 37 19M 29 23L 34 23M 21 27L 21 29M 21 17L 21 19M 17 27L 23 27C 24.104568 27 25 26.10457 25 25C 25 23.895432 24.104568 23 23 23L 19 23C 17.895432 23 17 22.104568 17 21C 17 19.895432 17.895432 19 19 19L 25 19"></path></g></g></g><g id="g-root-tx_enhancin_1qegdzh11ii8ln-stroke" data-item-order="4000000000" transform="translate(51, 447)"></g></g></g></svg>