<?xml version="1.0" encoding="utf-8" standalone="yes"?>
<!DOCTYPE svg PUBLIC "-//W3C//DTD SVG 1.1//EN" "http://www.w3.org/Graphics/SVG/1.1/DTD/svg11.dtd">
<svg width="926" height="447" viewBox="0 0 926 447" style="fill:none;stroke:none;fill-rule:evenodd;clip-rule:evenodd;stroke-linecap:round;stroke-linejoin:round;stroke-miterlimit:1.5;" version="1.1" xmlns="http://www.w3.org/2000/svg" xmlns:xlink="http://www.w3.org/1999/xlink"><style class="text-font-style fontImports" data-font-family="Roboto">@import url('https://fonts.googleapis.com/css2?family=Roboto:wght@400;700&amp;display=block');</style><g id="items" style="isolation: isolate"><g id="blend" style="mix-blend-mode: normal"><g id="g-root-3.cu_sy_de85i11m1a5tv-fill" data-item-order="-136102" transform="translate(243, 285.37890625)"><g id="3.cu_sy_de85i11m1a5tv-fill" stroke="none" fill="#e2a3ff"><g><path d="M 196.38 10.0065C 91.5195 12.857 10 34.4603 10 60.6875C 10 88.8541 104.0202 111.688 220 111.688C 335.98 111.688 430 88.8541 430 60.6875C 430 34.4401 348.355 12.8238 243.378 10C 244.316 12.7324 245.303 15.4819 246.362 18.2079C 323.294 21.2777 382 37.561 382 57.1875C 382 79.0028 309.47 96.6875 220 96.6875C 130.53 96.6875 58 79.0028 58 57.1875C 58 37.5784 116.602 21.3066 193.434 18.2161C 194.478 15.49 195.453 12.7399 196.38 10.0065Z"></path></g></g></g><g id="g-root-2.cu_sy_de85i11m1a5tw-fill" data-item-order="-136098" transform="translate(291, 293.5859375)"><g id="2.cu_sy_de85i11m1a5tw-fill" stroke="none" fill="#c061ed"><g><path d="M 145.434 10.0082C 68.6021 13.098701 10 29.3705 10 48.979601C 10 70.7949 82.5299 88.479601 172 88.479601C 261.47 88.479601 334 70.7949 334 48.979601C 334 29.3531 275.294 13.0698 198.362 10C 199.596 13.1774 200.927 16.323 202.391 19.3728C 257.297 22.664301 298 34.671401 298 48.979601C 298 65.8243 241.588 79.479601 172 79.479601C 102.4121 79.479601 46 65.8243 46 48.979601C 46 34.684301 86.6291 22.686 141.46 19.381701C 142.903 16.332601 144.216 13.1866 145.434 10.0082Z"></path></g></g></g><g id="g-root-1.cu_sy_4il5951m1a6ml-fill" data-item-order="-136094" transform="translate(327, 302.958984375)"><g id="1.cu_sy_4il5951m1a6ml-fill" stroke="none" fill="#974bbb"><g><path d="M 105.4603 10.0089C 50.6291 13.3132 10 25.3115 10 39.6069C 10 56.4516 66.4121 70.1069 136 70.1069C 205.588 70.1069 262 56.4516 262 39.6069C 262 25.2986 221.297 13.2916 166.391 10C 167.542 12.3981 168.775 14.737 170.107 16.9854C 209.668 20.2872 238 29.1705 238 39.6108C 238 52.8656 192.333 63.6108 135.999 63.6108C 79.6662 63.6108 33.999 52.8656 33.999 39.6108C 33.999 29.1787 62.2868 20.3012 101.7986 16.9932C 103.1108 14.7459 104.3257 12.4074 105.4603 10.0089Z"></path></g></g></g><g id="g-root-0.cu_sy_2rn4p1m1a7eu-fill" data-item-order="-136090" transform="translate(351, 182.9976806640625)"><g id="0.cu_sy_2rn4p1m1a7eu-fill" stroke="none" fill="#4f3d58"><g><path d="M 91.5808 102.596741C 97.1439 85.233841 101.7895 70.734741 111.822 70.734741C 121.844 70.734741 126.491 85.103441 132.074 102.371141C 135.748 113.730341 139.826 126.344041 146.108 136.947241C 185.669 140.249041 214.001 149.132341 214.001 159.572641C 214.001 172.827741 168.334 183.572741 112 183.572741C 55.6672 183.572741 10 172.827741 10 159.572641C 10 149.140541 38.2878 140.263041 77.7996 136.955041C 83.9442 126.430941 87.9571 113.906341 91.5808 102.596741Z"></path></g></g><g id="0.cu_sy_2rn4p1m1a7eu-fill" stroke="none" fill="#4f3d58"><g><path d="M 94 28.003315C 93.998234 37.94575 102.057675 46.006622 112.00011 46.006622C 121.942545 46.006622 130.001986 37.94575 130.000221 28.003315C 130.001986 18.06088 121.942545 10.000008 112.00011 10.000008C 102.057675 10.000008 93.998234 18.06088 94 28.003315"></path></g></g></g><g id="g-root--1.vector_sy_2rn4p1m1a7ev-fill" data-item-order="-136085" transform="translate(255.00021362304688, 207)"></g><g id="g-root--1.vector_1_sy_1uooo2h1m1a4u8-fill" data-item-order="-136081" transform="translate(567, 63)"></g><g id="g-root--1.vector_2_sy_1uooo2h1m1a4u9-fill" data-item-order="-136077" transform="translate(256.0002136230469, 63)"></g><g id="g-root-user_hs68d51m1bkzv-fill" data-item-order="0" transform="translate(195, 39)"></g><g id="g-root-pers_1qd8hjt1m1bmdn-fill" data-item-order="0" transform="translate(663, 39)"></g><g id="g-root-tx_supplier_142e4ex1m1a4ue-fill" data-item-order="0" transform="translate(27, 63)"><g id="tx_supplier_142e4ex1m1a4ue-fill" stroke="none" fill="#484848"><g><text style="font: bold 20px Roboto, sans-serif; white-space: pre;" font-weight="bold" font-size="20px" font-family="Roboto, sans-serif"><tspan x="20.55" y="33.5" dominant-baseline="ideographic">Supplier Losses</tspan></text></g></g></g><g id="g-root-tx_increase_v6r4611m1a5n3-fill" data-item-order="0" transform="translate(723, 63)"><g id="tx_increase_v6r4611m1a5n3-fill" stroke="none" fill="#484848"><g><text style="font: bold 20px Roboto, sans-serif; white-space: pre;" font-weight="bold" font-size="20px" font-family="Roboto, sans-serif"><tspan x="12" y="33.5" dominant-baseline="ideographic">Increased Costs</tspan></text></g></g></g><g id="g-root-tx_financia_1hd85p51m1a6f7-fill" data-item-order="0" transform="translate(39, 99)"><g id="tx_financia_1hd85p51m1a6f7-fill" stroke="none" fill="#484848"><g><text style="font: 15px Roboto, sans-serif; white-space: pre;" font-size="15px" font-family="Roboto, sans-serif"><tspan x="38.05" y="30.5" dominant-baseline="ideographic">Financial loss for </tspan><tspan x="12.64" y="48.5" dominant-baseline="ideographic">suppliers due to non-</tspan><tspan x="90.17" y="66.5" dominant-baseline="ideographic">payment.</tspan></text></g></g></g><g id="g-root-tx_higherex_18hl5g91m1a77w-fill" data-item-order="0" transform="translate(723, 99)"><g id="tx_higherex_18hl5g91m1a77w-fill" stroke="none" fill="#484848"><g><text style="font: 15px Roboto, sans-serif; white-space: pre;" font-size="15px" font-family="Roboto, sans-serif"><tspan x="12" y="30.5" dominant-baseline="ideographic">Higher expenses for </tspan><tspan x="12" y="48.5" dominant-baseline="ideographic">buyers finding </tspan><tspan x="12" y="66.5" dominant-baseline="ideographic">alternative gas sources.</tspan></text></g></g></g><g id="g-root-pipe_qqxm1l1m1a6fd-fill" data-item-order="0" transform="translate(195, 183)"></g><g id="g-root-tx_delivery_qqxm1l1m1a6fc-fill" data-item-order="0" transform="translate(27, 207)"><g id="tx_delivery_qqxm1l1m1a6fc-fill" stroke="none" fill="#484848"><g><text style="font: bold 20px Roboto, sans-serif; white-space: pre;" font-weight="bold" font-size="20px" font-family="Roboto, sans-serif"><tspan x="14.91" y="33.5" dominant-baseline="ideographic">Delivery Failures</tspan></text></g></g></g><g id="g-root-tx_disrupti_142e4ex1m1a4ud-fill" data-item-order="0" transform="translate(15, 243)"><g id="tx_disrupti_142e4ex1m1a4ud-fill" stroke="none" fill="#484848"><g><text style="font: 15px Roboto, sans-serif; white-space: pre;" font-size="15px" font-family="Roboto, sans-serif"><tspan x="16.58" y="30.5" dominant-baseline="ideographic">Disruption in gas supply </tspan><tspan x="31.74" y="48.5" dominant-baseline="ideographic">chains due to delivery </tspan><tspan x="128.95" y="66.5" dominant-baseline="ideographic">issues.</tspan></text></g></g></g><g id="g-root-tx_counterp_1lt1ntl1m1a5my-fill" data-item-order="0" transform="translate(321, 411.06689453125)"><g id="tx_counterp_1lt1ntl1m1a5my-fill" stroke="none" fill="#484848"><g><text style="font: bold 20px Roboto, sans-serif; white-space: pre;" font-weight="bold" font-size="20px" font-family="Roboto, sans-serif"><tspan x="14.03" y="33.5" dominant-baseline="ideographic">Counterparty Credit Risks</tspan></text></g></g></g><g id="g-root-3.cu_sy_de85i11m1a5tv-stroke" data-item-order="-136102" transform="translate(243, 285.37890625)"><g id="3.cu_sy_de85i11m1a5tv-stroke" fill="none" stroke-linecap="round" stroke-linejoin="round" stroke-miterlimit="4" stroke="#ffffff" stroke-width="2"><g><path d="M 196.3805 10.0065C 91.5195 12.857 10 34.4603 10 60.6875C 10 88.8541 104.0202 111.6875 220 111.6875C 335.9798 111.6875 430 88.8541 430 60.6875C 430 34.4401 348.3552 12.8238 243.3777 10C 244.3157 12.7324 245.3029 15.4819 246.3617 18.2079C 323.2938 21.2777 382 37.561 382 57.1875C 382 79.0028 309.4701 96.6875 220 96.6875C 130.5299 96.6875 58 79.0028 58 57.1875C 58 37.5784 116.6021 21.3066 193.4337 18.2161C 194.4783 15.49 195.4533 12.7399 196.3805 10.0065Z"></path></g></g></g><g id="g-root-2.cu_sy_de85i11m1a5tw-stroke" data-item-order="-136098" transform="translate(291, 293.5859375)"><g id="2.cu_sy_de85i11m1a5tw-stroke" fill="none" stroke-linecap="round" stroke-linejoin="round" stroke-miterlimit="4" stroke="#ffffff" stroke-width="2"><g><path d="M 145.4337 10.0082C 68.6021 13.098701 10 29.3705 10 48.979601C 10 70.7949 82.5299 88.479601 172 88.479601C 261.4701 88.479601 334 70.7949 334 48.979601C 334 29.3531 275.2938 13.0698 198.3617 10C 199.5958 13.1774 200.9272 16.323 202.391 19.372701C 257.2975 22.664301 298 34.671401 298 48.979601C 298 65.8243 241.5879 79.479601 172 79.479601C 102.4121 79.479601 46 65.8243 46 48.979601C 46 34.684301 86.6291 22.686 141.4603 19.381701C 142.9028 16.332601 144.2157 13.1866 145.4337 10.0082Z"></path></g></g></g><g id="g-root-1.cu_sy_4il5951m1a6ml-stroke" data-item-order="-136094" transform="translate(327, 302.958984375)"><g id="1.cu_sy_4il5951m1a6ml-stroke" fill="none" stroke-linecap="round" stroke-linejoin="round" stroke-miterlimit="4" stroke="#ffffff" stroke-width="2"><g><path d="M 105.4603 10.0089C 50.6291 13.3132 10 25.3115 10 39.6069C 10 56.4516 66.4121 70.1069 136 70.1069C 205.5879 70.1069 262 56.4516 262 39.6069C 262 25.2986 221.2975 13.2915 166.391 10C 167.5421 12.3981 168.7751 14.737 170.1072 16.9854C 209.6677 20.2872 237.9999 29.1705 237.9999 39.6108C 237.9999 52.8656 192.3327 63.6108 135.9995 63.6108C 79.6662 63.6108 33.999 52.8656 33.999 39.6108C 33.999 29.1787 62.2868 20.3012 101.7986 16.9932C 103.1108 14.7459 104.3257 12.4074 105.4603 10.0089Z"></path></g></g></g><g id="g-root-0.cu_sy_2rn4p1m1a7eu-stroke" data-item-order="-136090" transform="translate(351, 182.9976806640625)"><g id="0.cu_sy_2rn4p1m1a7eu-stroke" fill="none" stroke-linecap="round" stroke-linejoin="round" stroke-miterlimit="4" stroke="#ffffff" stroke-width="2"><g><path d="M 91.5808 102.596741C 97.1439 85.233841 101.7895 70.734741 111.8222 70.734741C 121.8442 70.734741 126.4906 85.103441 132.0744 102.371141C 135.7476 113.730341 139.8265 126.344041 146.1082 136.947241C 185.6687 140.249041 214.0009 149.132341 214.0009 159.572641C 214.0009 172.827441 168.3337 183.572641 112.0004 183.572641C 55.6672 183.572641 10 172.827441 10 159.572641C 10 149.140541 38.2878 140.263041 77.7996 136.955041C 83.9442 126.430941 87.9571 113.906341 91.5808 102.596741ZM 50.209961 159.573202C 62.828761 156.495602 71.497761 147.664502 77.799661 136.955402M 146.108161 136.947602C 152.445561 147.540602 161.184161 156.370402 173.792561 159.573202"></path></g></g><g id="0.cu_sy_2rn4p1m1a7eu-stroke" fill="none" stroke-linecap="round" stroke-linejoin="round" stroke-miterlimit="4" stroke="#ffffff" stroke-width="2"><g><path d="M 94 28.003315C 93.998234 37.94575 102.057675 46.006622 112.00011 46.006622C 121.942545 46.006622 130.001986 37.94575 130.000221 28.003315C 130.001986 18.06088 121.942545 10.000008 112.00011 10.000008C 102.057675 10.000008 93.998234 18.06088 94 28.003315"></path></g></g></g><g id="g-root--1.vector_sy_2rn4p1m1a7ev-stroke" data-item-order="-136085" transform="translate(255.00021362304688, 207)"><g id="-1.vector_sy_2rn4p1m1a7ev-stroke" fill="none" stroke-linecap="round" stroke-linejoin="round" stroke-miterlimit="4" stroke="#484848" stroke-width="2"><style>.fillAsStrokeColor-qrk6ah1px5vk8 { fill:#484848; }</style><g><path d="M 10 10L 22 10C 35.2548 10 46 20.8093 46 34.1433L 46 107"></path><path d="M 43 107C 43.000001 108.656857 44.343147 110.000003 46.000001 110.000003C 47.656855 110.000003 49.000001 108.656857 49.000001 107.000003C 49.000001 105.343149 47.656855 104.000003 46.000001 104.000003C 44.343147 104.000003 43.000001 105.343149 43.000001 107.000003Z" stroke-dasharray="none" class="fillAsStrokeColor-qrk6ah1px5vk8"></path></g></g></g><g id="g-root--1.vector_1_sy_1uooo2h1m1a4u8-stroke" data-item-order="-136081" transform="translate(567, 63)"><g id="-1.vector_1_sy_1uooo2h1m1a4u8-stroke" fill="none" stroke-linecap="round" stroke-linejoin="round" stroke-miterlimit="4" stroke="#484848" stroke-width="2"><style>.fillAsStrokeColor-mbqo611px5wch { fill:#484848; }</style><g><path d="M 94 10L 46.3025 10C 26.2532 10 10 26.1178 10 46L 10 251"></path><path d="M 7 251C 7 252.656861 8.343146 254.000007 10 254.000007C 11.656854 254.000007 13 252.656861 13 251.000007C 13 249.343153 11.656854 248.000007 10 248.000007C 8.343146 248.000007 7 249.343153 7 251.000007Z" stroke-dasharray="none" class="fillAsStrokeColor-mbqo611px5wch"></path></g></g></g><g id="g-root--1.vector_2_sy_1uooo2h1m1a4u9-stroke" data-item-order="-136077" transform="translate(256.0002136230469, 63)"><g id="-1.vector_2_sy_1uooo2h1m1a4u9-stroke" fill="none" stroke-linecap="round" stroke-linejoin="round" stroke-miterlimit="4" stroke="#484848" stroke-width="2"><style>.fillAsStrokeColor-mbqo611px5wci { fill:#484848; }</style><g><path d="M 10 10L 57 10C 76.8822 10 93 26.1177 93 46L 93 266"></path><path d="M 90 266C 90.000002 267.656862 91.343148 269.000008 93.000002 269.000008C 94.656857 269.000008 96.000002 267.656862 96.000002 266.000008C 96.000002 264.343153 94.656857 263.000008 93.000002 263.000008C 91.343148 263.000008 90.000002 264.343153 90.000002 266.000008Z" stroke-dasharray="none" class="fillAsStrokeColor-mbqo611px5wci"></path></g></g></g><g id="g-root-user_hs68d51m1bkzv-stroke" data-item-order="0" transform="translate(195, 39)"><g id="user_hs68d51m1bkzv-stroke" fill="none" stroke-linecap="round" stroke-linejoin="round" stroke-miterlimit="4" stroke="#484848" stroke-width="2"><g><path d="M 12 19L 30 19C 30 19 31 19 31 20L 31 32C 31 32 31 33 30 33L 12 33C 12 33 11 33 11 32L 11 20C 11 20 11 19 12 19M 14.38 19L 16 12C 16.057281 11.739481 16.21627 11.512645 16.441618 11.369924C 16.666967 11.227203 16.939995 11.180429 17.200001 11.24L 34.559998 15C 35.104095 15.119848 35.451363 15.654105 35.34 16.200001L 33.120003 26.379999C 33.061481 26.642147 32.903809 26.871489 32.68 27.019999C 32.458786 27.155674 32.195488 27.205488 31.939999 27.159998L 31 26.940001M 18 26C 18 27.656855 19.343147 29 21 29C 22.656855 29 24 27.656855 24 26C 24 24.343147 22.656855 23 21 23C 19.343147 23 18 24.343147 18 26M 47 32L 47 38M 51 57L 52 45L 57 45L 57 38C 57 32.477154 52.522846 28 47 28C 41.477154 28 37 32.477154 37 38L 37 45L 42 45L 43 57ZM 40.959999 14.440001C 43.150082 16.721088 46.177757 18.007309 49.34 18C 50.940964 18.005489 52.526356 17.68569 54 17.059999M 40 18C 40 21.865993 43.134007 25 47 25C 50.865993 25 54 21.865993 54 18C 54 14.134007 50.865993 11 47 11C 43.134007 11 40 14.134007 40 18"></path></g></g></g><g id="g-root-pers_1qd8hjt1m1bmdn-stroke" data-item-order="0" transform="translate(663, 39)"><g id="pers_1qd8hjt1m1bmdn-stroke" fill="none" stroke-linecap="round" stroke-linejoin="round" stroke-miterlimit="4" stroke="#484848" stroke-width="2"><g><path d="M 25.68 36L 25.68 41M 18.34 15.18C 21.000025 17.939194 24.667393 19.498547 28.5 19.5C 30.423756 19.494724 32.327286 19.107222 34.099998 18.360001M 17.18 19.5C 17.18 24.19442 20.98558 28 25.68 28C 30.37442 28 34.18 24.19442 34.18 19.5C 34.18 14.80558 30.37442 11 25.68 11C 20.98558 11 17.18 14.80558 17.18 19.5M 28.68 45L 11.68 45C 11.675998 38.707375 15.870861 33.185249 21.934053 31.501549C 27.997246 29.817848 34.438805 32.386322 37.68 37.779999M 31.68 56L 31.68 48C 31.68 48 31.68 47 32.68 47L 46.68 47C 46.68 47 47.68 47 47.68 48L 47.68 56C 47.68 56 47.68 57 46.68 57L 32.68 57C 32.68 57 31.68 57 31.68 56M 34.48 47L 35.580002 42C 35.632607 41.741024 35.787567 41.514267 36.009743 41.371178C 36.231911 41.228081 36.502457 41.180779 36.760002 41.239998L 50.459999 44.200001C 50.995983 44.328903 51.332565 44.860348 51.219997 45.399998L 49.52 53.200001C 49.461479 53.462147 49.303806 53.691486 49.079998 53.839996C 48.854836 53.984543 48.58189 54.034821 48.32 53.98L 47.68 53.84M 39.459999 41.799999L 41.700001 36.900002C 41.808601 36.658813 42.010094 36.471764 42.258682 36.381371C 42.507267 36.290977 42.781841 36.304909 43.02 36.419998L 55.759998 42.220001C 56.261753 42.447212 56.485306 43.037388 56.259998 43.540001L 52.939999 50.82C 52.82777 51.059353 52.626999 51.245785 52.380001 51.34C 52.138504 51.449528 51.861496 51.449528 51.619999 51.34L 50 50.619999M 39.68 51.5C 39.956142 51.5 40.18 51.723858 40.18 52C 40.18 52.276142 39.956142 52.5 39.68 52.5C 39.403858 52.5 39.18 52.276142 39.18 52C 39.18 51.723858 39.403858 51.5 39.68 51.5"></path></g></g></g><g id="g-root-tx_supplier_142e4ex1m1a4ue-stroke" data-item-order="0" transform="translate(27, 63)"></g><g id="g-root-tx_increase_v6r4611m1a5n3-stroke" data-item-order="0" transform="translate(723, 63)"></g><g id="g-root-tx_financia_1hd85p51m1a6f7-stroke" data-item-order="0" transform="translate(39, 99)"></g><g id="g-root-tx_higherex_18hl5g91m1a77w-stroke" data-item-order="0" transform="translate(723, 99)"></g><g id="g-root-pipe_qqxm1l1m1a6fd-stroke" data-item-order="0" transform="translate(195, 183)"><g id="pipe_qqxm1l1m1a6fd-stroke" fill="none" stroke-linecap="round" stroke-linejoin="round" stroke-miterlimit="4" stroke="#484848" stroke-width="2"><g><path d="M 13.302 25C 14.737495 18.021696 20.875587 13.010328 28 13L 37 13M 37 43L 28 43C 20.111231 42.991188 13.573991 36.880272 13.034 29.01M 45 53L 45 48.125999C 44.995899 45.730438 43.336235 43.655861 41 43.126003M 41 33.042C 48.890995 33.639801 54.991257 40.212399 55 48.125999L 55 53M 23.098 29C 23.576935 31.326941 25.624287 32.997566 28.000002 33L 37 33M 37 23L 28 23C 26.429733 23.003143 24.95216 23.743782 24.01 25M 41 23C 41 24.104568 40.104568 25 39 25C 37.895432 25 37 24.104568 37 23L 37 13C 37 11.895431 37.895432 11 39 11C 40.104568 11 41 11.895431 41 13ZM 41 43C 41 44.104568 40.104568 45 39 45C 37.895432 45 37 44.104568 37 43L 37 33C 37 31.89543 37.895432 31 39 31C 40.104568 31 41 31.89543 41 33ZM 45 57C 43.895432 57 43 56.104568 43 55C 43 53.895432 43.895432 53 45 53L 55 53C 56.104568 53 57 53.895432 57 55C 57 56.104568 56.104568 57 55 57ZM 26 27C 26 28.10457 25.104568 29 24 29L 13 29C 11.895431 29 11 28.10457 11 27C 11 25.895432 11.895431 25 13 25L 24 25C 25.104568 25 26 25.895432 26 27Z"></path></g></g></g><g id="g-root-tx_delivery_qqxm1l1m1a6fc-stroke" data-item-order="0" transform="translate(27, 207)"></g><g id="g-root-tx_disrupti_142e4ex1m1a4ud-stroke" data-item-order="0" transform="translate(15, 243)"></g><g id="g-root-tx_counterp_1lt1ntl1m1a5my-stroke" data-item-order="0" transform="translate(321, 411.06689453125)"></g></g></g></svg>