<?xml version="1.0" encoding="utf-8" standalone="yes"?>
<!DOCTYPE svg PUBLIC "-//W3C//DTD SVG 1.1//EN" "http://www.w3.org/Graphics/SVG/1.1/DTD/svg11.dtd">
<svg width="902" height="854" viewBox="0 0 902 854" style="fill:none;stroke:none;fill-rule:evenodd;clip-rule:evenodd;stroke-linecap:round;stroke-linejoin:round;stroke-miterlimit:1.5;" version="1.1" xmlns="http://www.w3.org/2000/svg" xmlns:xlink="http://www.w3.org/1999/xlink"><style class="text-font-style fontImports" data-font-family="Roboto">@import url('https://fonts.googleapis.com/css2?family=Roboto:wght@400;700&amp;display=block');</style><g id="items" style="isolation: isolate"><g id="blend" style="mix-blend-mode: normal"><g id="g-root-0.g-0_fr_1cu9xdm1grj9j8-fill" data-item-order="-618542" transform="translate(357, 297)"><g id="0.g-0_fr_1cu9xdm1grj9j8-fill" stroke="none" fill="#666666"><g><path d="M 54.3525 19.9268C 66.1619 13.5926 79.6614 10 94 10C 111.195 10 127.183 15.1663 140.496 24.0313L 141.5 32.5L 149.859 31.2632C 167.126 46.648 178 69.0541 178 94C 178 100.7292 177.209 107.2735 175.714 113.545L 168 117.5L 172.063 125.08C 160.387 154.379 132.695 175.559 99.8026 177.803L 93.9999 172L 88.1972 177.803C 54.9051 175.531 26.9404 153.861 15.5189 124.009L 19.5 116.5L 12.0549 112.549C 10.7099 106.5818 10 100.3738 10 94C 10 65.5024 24.191 40.3193 45.8918 25.1319L 52.9999 26.5L 54.3525 19.9268Z"></path></g></g></g><g id="g-root-5.g-5_fr_13ymx4q1grjaby-fill" data-item-order="-618538" transform="translate(211.24099731445312, 141)"><g id="5.g-5_fr_13ymx4q1grjaby-fill" stroke="none" fill="#7f64ea"><g><path d="M 96.662 57.3257C 138.041 26.5938 188.215 10 239.758 10L 239.758 93.8849C 218.089 93.8849 196.791 98.3939 177.169 106.9806L 199.031 139.483L 208.988 132.786L 198.758 182.5L 149.246 172.97L 159.203 166.273L 136.665 132.766C 114.849 151.95 98.7504 176.907 90.3052 204.882L 10 180.638C 24.8964 131.295 55.2826 88.0575 96.662 57.3257Z"></path></g></g></g><g id="g-root-4.g-4_fr_zitf0a1grjb48-fill" data-item-order="-618530" transform="translate(200.99996948242188, 310.89892578125)"><g id="4.g-4_fr_zitf0a1grjb48-fill" stroke="none" fill="#de8431"><g><path d="M 22.075031 155.269C 37.606131 202.363 67.343731 243.489 107.199431 272.995L 157.111031 205.575C 136.671031 190.443 120.322031 170.612 109.367931 147.885L 147.840031 137.106L 151.077031 148.662L 175.500031 102.601L 131.654031 79.3309L 134.891031 90.886L 95.420431 101.9439C 92.243131 79.4581 93.994631 56.4338 100.692831 34.5017L 20.466031 10C 5.981731 57.4263 6.543831 108.1749 22.075031 155.269Z"></path></g></g></g><g id="g-root-3.g-3_fr_v2zwvu1grjbwi-fill" data-item-order="-618522" transform="translate(297.87200927734375, 459)"><g id="3.g-3_fr_v2zwvu1grjbwi-fill" stroke="none" fill="#1eabda"><g><path d="M 177.128 86.2594C 198.336 82.9597 218.745 75.3046 237.024 63.6562L 282.104 134.399C 241.1 160.528 193.127 173.587 144.536 171.846C 95.9453 170.106 49.0293 153.647 10 124.651L 60.0261 57.3156C 80.4428 72.4839 104.1772 82.3776 129.128 86.2595L 129.128 46L 117.128 46L 153.128 10L 189.128 46L 177.128 46L 177.128 86.2594Z"></path></g></g></g><g id="g-root-2.g-2_fr_m7zdq21grj9jg-fill" data-item-order="-618514" transform="translate(515, 314.0048828125)"><g id="2.g-2_fr_m7zdq21grj9jg-fill" stroke="none" fill="#92bd39"><g><path d="M 160.614 161.543C 178.891 112.988 180.942 59.8184 166.46 10L 85.9094 33.416C 92.2752 55.314 93.7302 78.2075 90.336 100.4974L 52.632 88.1246L 56.3735 76.7228L 10 100.4947L 33.9241 145.133L 37.6657 133.732L 75.8992 146.278C 63.323 171.673 44.0199 193.261 19.9645 208.607L 65.081 279.326C 108.8189 251.423 142.337 210.098 160.614 161.543Z"></path></g></g></g><g id="g-root-1.g-1_fr_hs5vlm1grjabq-fill" data-item-order="-618506" transform="translate(441, 141)"><g id="1.g-1_fr_hs5vlm1grjabq-fill" stroke="none" fill="#3cc583"><g><path d="M 153.887 57.9156C 112.365 26.8115 61.8807 10 10 10L 10 93.8849C 36.273 93.8849 61.9952 100.5128 84.8451 112.996L 61.3533 145.743L 51.6028 138.748L 57.5 188.5L 110.106 180.716L 100.3556 173.722L 122.948 142.228C 140.079 160.182 152.773 182.059 159.819 206.112L 240.321 182.53C 225.736 132.741 195.41 89.0197 153.887 57.9156Z"></path></g></g></g><g id="g-root-dest_1ic6y1grj9j5-fill" data-item-order="0" transform="translate(315, 195)"></g><g id="g-root-1_13z9kje1grjaq4-fill" data-item-order="0" transform="translate(537, 201)"></g><g id="g-root-tx_location_mgq7961grnhu0-fill" data-item-order="0" transform="translate(123, 159)"><g id="tx_location_mgq7961grnhu0-fill" stroke="none" fill="#443e5c"><g><text style="font: 15px Roboto, sans-serif; white-space: pre;" font-size="15px" font-family="Roboto, sans-serif"><tspan x="14.08" y="27.07" dominant-baseline="ideographic">Locations where gas </tspan><tspan x="15.78" y="45.07" dominant-baseline="ideographic">is received and sent.</tspan></text></g></g></g><g id="g-root-tx_theproce_m8m14q1groveu-fill" data-item-order="0" transform="translate(615, 123)"><g id="tx_theproce_m8m14q1groveu-fill" stroke="none" fill="#374840"><g><text style="font: 15px Roboto, sans-serif; white-space: pre;" font-size="15px" font-family="Roboto, sans-serif"><tspan x="12" y="27.07" dominant-baseline="ideographic">The process of </tspan><tspan x="12" y="45.07" dominant-baseline="ideographic">scheduling and </tspan><tspan x="12" y="63.07" dominant-baseline="ideographic">allocating gas </tspan><tspan x="12" y="81.07" dominant-baseline="ideographic">quantities.</tspan></text></g></g></g><g id="g-root-tx_receipta_qwjpdm1grnh1r-fill" data-item-order="0" transform="translate(123, 99)"><g id="tx_receipta_qwjpdm1grnh1r-fill" stroke="none" fill="#7f64ea"><g><text style="font: bold 20px Roboto, sans-serif; white-space: pre;" font-weight="bold" font-size="20px" font-family="Roboto, sans-serif"><tspan x="45.7" y="33.47" dominant-baseline="ideographic">Receipt and </tspan><tspan x="16.67" y="57.47" dominant-baseline="ideographic">Delivery Points</tspan></text></g></g></g><g id="g-root-tx_componen_dccdh61grjb40-fill" data-item-order="0" transform="translate(243, 807)"><g id="tx_componen_dccdh61grjb40-fill" stroke="none" fill="#484848"><g><text style="font: 20px Roboto, sans-serif; white-space: pre;" font-size="20px" font-family="Roboto, sans-serif"><tspan x="14.57" y="33.47" dominant-baseline="ideographic">Components of Effective Pipeline Scheduling</tspan></text></g></g></g><g id="g-root-tx_transpor_4g32gq1grovlt-fill" data-item-order="0" transform="translate(39, 387)"><g id="tx_transpor_4g32gq1grovlt-fill" stroke="none" fill="#de8431"><g><text style="font: bold 20px Roboto, sans-serif; white-space: pre;" font-weight="bold" font-size="20px" font-family="Roboto, sans-serif"><tspan x="63.97" y="33.47" dominant-baseline="ideographic">Transport </tspan><tspan x="42.02" y="57.47" dominant-baseline="ideographic">Agreements</tspan></text></g></g></g><g id="g-root-tx_delivery_dcz0vu1grow7j-fill" data-item-order="0" transform="translate(699, 387)"><g id="tx_delivery_dcz0vu1grow7j-fill" stroke="none" fill="#92bd39"><g><text style="font: bold 20px Roboto, sans-serif; white-space: pre;" font-weight="bold" font-size="20px" font-family="Roboto, sans-serif"><tspan x="12" y="33.47" dominant-baseline="ideographic">Delivery </tspan><tspan x="12" y="57.47" dominant-baseline="ideographic">Schedules</tspan></text></g></g></g><g id="g-root-sign_8x5flm1gr57uq-fill" data-item-order="0" transform="translate(231, 418)"></g><g id="g-root-cloc_94n7sq1gr9hxq-fill" data-item-order="0" transform="translate(603, 422.999755859375)"></g><g id="g-root-tx_contract_1ulk46y1grow7e-fill" data-item-order="0" transform="translate(39, 447)"><g id="tx_contract_1ulk46y1grow7e-fill" stroke="none" fill="#4c4034"><g><text style="font: 15px Roboto, sans-serif; white-space: pre;" font-size="15px" font-family="Roboto, sans-serif"><tspan x="26.2" y="30.07" dominant-baseline="ideographic">Contracts detailing </tspan><tspan x="19.62" y="48.07" dominant-baseline="ideographic">transport terms and </tspan><tspan x="78.12" y="66.07" dominant-baseline="ideographic">conditions.</tspan></text></g></g></g><g id="g-root-tx_gasnomin_zjg2ey1growzp-fill" data-item-order="0" transform="translate(615, 63)"><g id="tx_gasnomin_zjg2ey1growzp-fill" stroke="none" fill="#3cc583"><g><text style="font: bold 20px Roboto, sans-serif; white-space: pre;" font-weight="bold" font-size="20px" font-family="Roboto, sans-serif"><tspan x="12" y="33.47" dominant-baseline="ideographic">Gas </tspan><tspan x="12" y="57.47" dominant-baseline="ideographic">Nominations</tspan></text></g></g></g><g id="g-root-tx_timeline_1umt2d61groydl-fill" data-item-order="0" transform="translate(699, 447)"><g id="tx_timeline_1umt2d61groydl-fill" stroke="none" fill="#424736"><g><text style="font: 15px Roboto, sans-serif; white-space: pre;" font-size="15px" font-family="Roboto, sans-serif"><tspan x="12" y="30.07" dominant-baseline="ideographic">Timelines ensuring </tspan><tspan x="12" y="48.07" dominant-baseline="ideographic">gas is delivered at </tspan><tspan x="12" y="66.07" dominant-baseline="ideographic">the right time.</tspan></text></g></g></g><g id="g-root-bala_1lws8qi1growea-fill" data-item-order="0" transform="translate(417, 549)"></g><g id="g-root-tx_balanced_140iipm1groydn-fill" data-item-order="0" transform="translate(369, 645)"><g id="tx_balanced_140iipm1groydn-fill" stroke="none" fill="#1eabda"><g><text style="font: bold 20px Roboto, sans-serif; white-space: pre;" font-weight="bold" font-size="20px" font-family="Roboto, sans-serif"><tspan x="40.42" y="33.47" dominant-baseline="ideographic">Balanced </tspan><tspan x="31.36" y="57.47" dominant-baseline="ideographic">Allocations</tspan></text></g></g></g><g id="g-root-tx_distribu_zlbhoa1grow04-fill" data-item-order="0" transform="translate(369, 705)"><g id="tx_distribu_zlbhoa1grow04-fill" stroke="none" fill="#32444a"><g><text style="font: 15px Roboto, sans-serif; white-space: pre;" font-size="15px" font-family="Roboto, sans-serif"><tspan x="29.57" y="30.07" dominant-baseline="ideographic">Distributing gas </tspan><tspan x="29.61" y="48.07" dominant-baseline="ideographic">amounts evenly </tspan><tspan x="16.42" y="66.07" dominant-baseline="ideographic">across the network.</tspan></text></g></g></g><g id="g-root-tx_effectiv_zrk8je1grnjeu-fill" data-item-order="0" transform="translate(387, 345)"><g id="tx_effectiv_zrk8je1grnjeu-fill" stroke="none" fill="#ffffff"><g><text style="font: bold 20px Roboto, sans-serif; white-space: pre;" font-weight="bold" font-size="20px" font-family="Roboto, sans-serif"><tspan x="24.37" y="33.47" dominant-baseline="ideographic">Effective </tspan><tspan x="27.58" y="57.47" dominant-baseline="ideographic">Pipeline </tspan><tspan x="13.78" y="81.47" dominant-baseline="ideographic">Scheduling</tspan></text></g></g></g><g id="g-root-0.g-0_fr_1cu9xdm1grj9j8-stroke" data-item-order="-618542" transform="translate(357, 297)"><g id="0.g-0_fr_1cu9xdm1grj9j8-stroke" fill="none" stroke-linecap="round" stroke-linejoin="round" stroke-miterlimit="4" stroke="#ffffff" stroke-width="2"><g><path d="M 54.3525 19.9268C 66.1619 13.5926 79.6614 10 94 10C 111.1946 10 127.1825 15.1663 140.4962 24.0313L 141.5 32.5L 149.8591 31.2632C 167.1259 46.648 178 69.0541 178 94C 178 100.7292 177.2088 107.2735 175.7142 113.5451L 168 117.4995L 172.0628 125.08C 160.3875 154.3788 132.6953 175.5585 99.8026 177.8027L 93.9999 172L 88.1972 177.8027C 54.9051 175.5312 26.9404 153.8613 15.5189 124.0087L 19.5 116.5005L 12.0549 112.5492C 10.7099 106.5818 10 100.3738 10 94C 10 65.5024 24.191 40.3193 45.8918 25.1319L 52.9999 26.5L 54.3525 19.9268Z"></path></g></g></g><g id="g-root-5.g-5_fr_13ymx4q1grjaby-stroke" data-item-order="-618538" transform="translate(211.24099731445312, 141)"><g id="5.g-5_fr_13ymx4q1grjaby-stroke" fill="none" stroke-linecap="round" stroke-linejoin="round" stroke-miterlimit="4" stroke="#ffffff" stroke-width="2"><g><path d="M 96.662 57.3257C 138.0414 26.5938 188.2153 10 239.7585 10L 239.7585 93.8849C 218.0886 93.8849 196.7909 98.3939 177.1693 106.9806L 199.0313 139.483L 208.9884 132.7856L 198.7585 182.5L 149.2457 172.9702L 159.2028 166.2728L 136.6653 132.7661C 114.8493 151.9503 98.7504 176.9073 90.3052 204.8816L 10 180.6383C 24.8964 131.2946 55.2826 88.0575 96.662 57.3257Z"></path></g></g></g><g id="g-root-4.g-4_fr_zitf0a1grjb48-stroke" data-item-order="-618530" transform="translate(200.99996948242188, 310.89892578125)"><g id="4.g-4_fr_zitf0a1grjb48-stroke" fill="none" stroke-linecap="round" stroke-linejoin="round" stroke-miterlimit="4" stroke="#ffffff" stroke-width="2"><g><path d="M 22.075031 155.2687C 37.606131 202.3626 67.343731 243.4893 107.199431 272.9948L 157.111131 205.5745C 136.671131 190.4427 120.322331 170.6118 109.367931 147.8846L 147.839831 137.1064L 151.077031 148.6616L 175.500031 102.601L 131.653731 79.3309L 134.890931 90.886L 95.420431 101.9439C 92.243131 79.4581 93.994631 56.4338 100.692831 34.5017L 20.466031 10C 5.981831 57.4263 6.543831 108.1749 22.075031 155.2687Z"></path></g></g></g><g id="g-root-3.g-3_fr_v2zwvu1grjbwi-stroke" data-item-order="-618522" transform="translate(297.87200927734375, 459)"><g id="3.g-3_fr_v2zwvu1grjbwi-stroke" fill="none" stroke-linecap="round" stroke-linejoin="round" stroke-miterlimit="4" stroke="#ffffff" stroke-width="2"><g><path d="M 177.1278 86.2594C 198.3358 82.9597 218.7447 75.3046 237.0242 63.6562L 282.1039 134.3986C 241.0999 160.5279 193.1266 173.5868 144.5359 171.8461C 95.9453 170.1055 49.0293 153.6474 10 124.6511L 60.0261 57.3156C 80.4428 72.4839 104.1772 82.3776 129.1278 86.2595L 129.1278 46L 117.1278 46L 153.1278 10L 189.1278 46L 177.1278 46L 177.1278 86.2594Z"></path></g></g></g><g id="g-root-2.g-2_fr_m7zdq21grj9jg-stroke" data-item-order="-618514" transform="translate(515, 314.0048828125)"><g id="2.g-2_fr_m7zdq21grj9jg-stroke" fill="none" stroke-linecap="round" stroke-linejoin="round" stroke-miterlimit="4" stroke="#ffffff" stroke-width="2"><g><path d="M 160.6143 161.5431C 178.8911 112.9883 180.942 59.8184 166.4598 10L 85.9094 33.416C 92.2752 55.314 93.7302 78.2075 90.336 100.4974L 52.632 88.1246L 56.3735 76.7228L 10 100.4947L 33.9241 145.1335L 37.6657 133.7317L 75.8992 146.2783C 63.323 171.6729 44.0199 193.2608 19.9645 208.6073L 65.081 279.3263C 108.8189 251.4229 142.3375 210.0979 160.6143 161.5431Z"></path></g></g></g><g id="g-root-1.g-1_fr_hs5vlm1grjabq-stroke" data-item-order="-618506" transform="translate(441, 141)"><g id="1.g-1_fr_hs5vlm1grjabq-stroke" fill="none" stroke-linecap="round" stroke-linejoin="round" stroke-miterlimit="4" stroke="#ffffff" stroke-width="2"><g><path d="M 153.8874 57.9156C 112.3646 26.8115 61.8807 10 10 10L 10 93.8849C 36.273 93.8849 61.9952 100.5128 84.8451 112.9956L 61.3533 145.7427L 51.6028 138.7479L 57.5 188.5L 110.1062 180.7164L 100.3556 173.7217L 122.948 142.2283C 140.079 160.1823 152.773 182.0588 159.8192 206.112L 240.321 182.5299C 225.736 132.7415 195.4102 89.0197 153.8874 57.9156Z"></path></g></g></g><g id="g-root-dest_1ic6y1grj9j5-stroke" data-item-order="0" transform="translate(315, 195)"><g id="dest_1ic6y1grj9j5-stroke" fill="none" stroke-linecap="round" stroke-linejoin="round" stroke-miterlimit="4" stroke="#ffffff" stroke-width="2"><g><path d="M 31.898001 11C 35.914997 10.998895 39.172001 14.255004 39.172001 18.271999C 39.172001 21.472 34.571999 27.638 32.683998 30.024C 32.494362 30.264299 32.205112 30.404505 31.899 30.404505C 31.592886 30.404505 31.303637 30.264299 31.114 30.024C 29.232 27.638 24.628 21.468 24.628 18.271999C 24.626896 14.256109 27.882109 11 31.897999 11ZM 34.627998 18.271999C 34.629105 19.778633 33.40863 21.000893 31.902 21.001999C 30.395369 21.003101 29.173107 19.782631 29.172001 18.275999C 29.170897 16.769367 30.391367 15.547105 31.898001 15.546C 33.404175 15.545999 34.625793 16.765825 34.627998 18.271999ZM 49.897999 25C 53.514038 24.998896 56.446003 27.929964 56.445999 31.546C 56.445999 34.379997 52.425999 39.806 50.686001 42.021999C 50.496441 42.263805 50.206249 42.405048 49.898998 42.405048C 49.591751 42.405048 49.301559 42.263805 49.112 42.021999C 47.372002 39.806 43.354 34.379997 43.354 31.546C 43.352898 27.931068 46.28307 25 49.898003 25ZM 52.354 31.546C 52.354 32.901047 51.255714 33.999634 49.900665 34C 48.54562 34.000366 47.446739 32.902378 47.446003 31.547333C 47.445267 30.192287 48.542953 29.093105 49.898003 29.092001C 51.254089 29.090895 52.354 30.189913 52.354 31.546001ZM 28.076 40.638C 27.34 45.037998 19.894001 52.537998 19.894001 57C 19.894001 52.537998 12.65 45.757999 11.716 40.638C 11.136455 38.209801 11.748259 35.650764 13.363407 33.747269C 14.978556 31.843771 17.403847 30.823505 19.893999 30.999998C 22.385612 30.819479 24.813868 31.838408 26.430605 33.742844C 28.047342 35.647285 28.658583 38.208733 28.075998 40.637997ZM 23.639999 38.813999C 23.641106 40.883118 21.964453 42.561264 19.895334 42.562C 17.826216 42.562737 16.148369 40.885788 16.148001 38.816666C 16.147633 36.747551 17.824881 35.07 19.894001 35.07C 21.962536 35.068893 23.639999 36.745464 23.639999 38.813999ZM 33.734001 34L 43.548 40.540001M 25.004 54.619999L 44.897999 45.334"></path></g></g></g><g id="g-root-1_13z9kje1grjaq4-stroke" data-item-order="0" transform="translate(537, 201)"><g id="1_13z9kje1grjaq4-stroke" fill="none" stroke-linecap="round" stroke-linejoin="round" stroke-miterlimit="4" stroke="#ffffff" stroke-width="2"><g><path d="M 49 35L 49 22.956001C 49.003315 16.353855 43.652145 10.999999 37.049999 11L 13 11C 11.895431 11 11 11.895431 11 13L 11 55C 11 56.104568 11.895431 57 13 57L 19 57M 39 11.168L 39 19C 39 20.104568 39.895432 21 41 21L 48.84 21M 41 45.007999L 41 53.007999M 45 49.007999L 37 49.007999M 53 45.007999L 53 53.007999M 57 49.007999L 49 49.007999M 33 57C 28.581722 57 25 53.418278 25 49C 25 44.581722 28.581722 41 33 41"></path></g></g></g><g id="g-root-tx_location_mgq7961grnhu0-stroke" data-item-order="0" transform="translate(123, 159)"></g><g id="g-root-tx_theproce_m8m14q1groveu-stroke" data-item-order="0" transform="translate(615, 123)"></g><g id="g-root-tx_receipta_qwjpdm1grnh1r-stroke" data-item-order="0" transform="translate(123, 99)"></g><g id="g-root-tx_componen_dccdh61grjb40-stroke" data-item-order="0" transform="translate(243, 807)"></g><g id="g-root-tx_transpor_4g32gq1grovlt-stroke" data-item-order="0" transform="translate(39, 387)"></g><g id="g-root-tx_delivery_dcz0vu1grow7j-stroke" data-item-order="0" transform="translate(699, 387)"></g><g id="g-root-sign_8x5flm1gr57uq-stroke" data-item-order="0" transform="translate(231, 418)"><g id="sign_8x5flm1gr57uq-stroke" fill="none" stroke-linecap="round" stroke-linejoin="round" stroke-miterlimit="4" stroke="#ffffff" stroke-width="2"><g><path d="M 51 51.299999L 43.139999 52.880001M 44 44L 40.299999 45.52C 39.710167 45.760117 39.049831 45.760117 38.459999 45.52C 37.595543 45.15625 37.022171 44.322277 36.992069 43.384888C 36.961971 42.447498 37.480659 41.578461 38.32 41.16L 42 39.360001C 42.456886 39.12188 42.964787 38.998337 43.48 39C 43.868889 38.998138 44.254971 39.065872 44.620003 39.200001L 51.380001 41.779999M 29 53L 31.799999 53L 36.459999 56.540001C 36.942337 57.094124 37.780907 57.15657 38.34 56.68L 45.34 51.080002C 45.905155 50.60265 45.993374 49.764565 45.540001 49.18L 41.700001 44.939999M 38 41.360001L 37.5 40.940002C 36.998703 40.56221 36.387711 40.358547 35.760002 40.360001C 35.389034 40.36158 35.022026 40.436344 34.68 40.580002L 29 43M 23 55L 27 55C 28.10457 55 29 54.104568 29 53L 29 43C 29 41.895432 28.10457 41 27 41L 23 41M 57 55L 53 55C 51.895432 55 51 54.104568 51 53L 51 43C 51 41.895432 51.895432 41 53 41L 57 41M 44 11L 17 11C 13.686292 11 11 13.686292 11 17L 11 56C 11 56.552284 11.447716 57 12 57L 18 57M 17 19L 33 19M 17 25L 33 25M 17 31L 24 31M 39 36L 39 16C 39 13.238576 41.238579 11 44 11C 46.759998 11 49 13.24 49 17L 39 17"></path></g></g></g><g id="g-root-cloc_94n7sq1gr9hxq-stroke" data-item-order="0" transform="translate(603, 422.999755859375)"><g id="cloc_94n7sq1gr9hxq-stroke" fill="none" stroke-linecap="round" stroke-linejoin="round" stroke-miterlimit="4" stroke="#ffffff" stroke-width="2"><g><path d="M 11.418 23C 11.418 28.522848 15.895153 33 21.417999 33C 26.940847 33 31.417999 28.522848 31.417999 23C 31.417999 17.477154 26.940847 13 21.417999 13C 15.895153 13 11.418 17.477154 11.418 23ZM 25.417999 25L 21.417999 25L 21.417999 18M 43.417999 37L 51.018002 37C 51.86359 36.999886 52.617882 37.53157 52.902 38.327999L 56.472 48.327999C 56.690987 48.941841 56.597149 49.623886 56.220524 50.155781C 55.843899 50.687675 55.231728 51.002697 54.580002 51L 52.245998 51M 32.246002 51L 43.445999 51L 43.428001 33C 43.428001 31.89543 42.53257 31 41.428001 31L 33.428001 31M 21.417999 37L 21.417999 49C 21.417999 50.104568 22.313431 51 23.417999 51L 26.6 51M 46.417999 52C 46.417999 53.656857 47.761147 55 49.417999 55C 51.074856 55 52.417999 53.656857 52.417999 52C 52.417999 50.343147 51.074856 49 49.417999 49C 47.761147 49 46.417999 50.343147 46.417999 52ZM 26.417999 52C 26.418001 53.656857 27.761147 55 29.418001 55C 31.074854 55 32.417999 53.656857 32.417999 52C 32.417999 50.343147 31.074854 49 29.418001 49C 27.761147 49 26.418001 50.343147 26.418001 52ZM 11.418 41L 17.417999 41.010002M 14.418 45L 17.417999 45.009998M 16.417999 49L 17.417999 49.009998M 54.417999 43L 43.417999 43M 43.439999 51L 46.604 51"></path></g></g></g><g id="g-root-tx_contract_1ulk46y1grow7e-stroke" data-item-order="0" transform="translate(39, 447)"></g><g id="g-root-tx_gasnomin_zjg2ey1growzp-stroke" data-item-order="0" transform="translate(615, 63)"></g><g id="g-root-tx_timeline_1umt2d61groydl-stroke" data-item-order="0" transform="translate(699, 447)"></g><g id="g-root-bala_1lws8qi1growea-stroke" data-item-order="0" transform="translate(417, 549)"><g id="bala_1lws8qi1growea-stroke" fill="none" stroke-linecap="round" stroke-linejoin="round" stroke-miterlimit="4" stroke="#ffffff" stroke-width="2"><g><path d="M 25.5 39.099998C 25.5 40.299999 24.700001 41.099998 23.5 41.099998L 13.5 41.099998C 12.3 41.099998 11.5 40.299999 11.5 39.099998L 11.5 29.1001C 11.5 27.900101 12.3 27.1001 13.5 27.1001L 23.5 27.1001C 24.700001 27.1001 25.5 27.900101 25.5 29.1001L 25.5 39.099998ZM 56.5 37.5C 56.5 38.700001 55.700001 39.5 54.5 39.5L 47.5 39.5C 46.299999 39.5 45.5 38.700001 45.5 37.5L 45.5 30.5C 45.5 29.299999 46.299999 28.5 47.5 28.5L 54.5 28.5C 55.700001 28.5 56.5 29.299999 56.5 30.5L 56.5 37.5ZM 56.5 20.5C 56.5 21.700001 55.700001 22.5 54.5 22.5L 47.5 22.5C 46.299999 22.5 45.5 21.700001 45.5 20.5L 45.5 13.5C 45.5 12.3 46.299999 11.5 47.5 11.5L 54.5 11.5C 55.700001 11.5 56.5 12.3 56.5 13.5L 56.5 20.5ZM 56.5 54.5C 56.5 55.700001 55.700001 56.5 54.5 56.5L 47.5 56.5C 46.299999 56.5 45.5 55.700001 45.5 54.5L 45.5 47.5C 45.5 46.299999 46.299999 45.5 47.5 45.5L 54.5 45.5C 55.700001 45.5 56.5 46.299999 56.5 47.5L 56.5 54.5ZM 24.476799 27.3125L 39.299999 17.5M 10 10M 25.5 34.099998L 39.5 34.099998M 10 10M 35.099998 29.5L 39.5 34.099998L 35.099998 38.5M 10 10M 33.299999 16.1001L 39.5 17.500099L 38.099998 23.700081M 10 10M 24.476799 40.887199L 39.299999 50.699799M 10 10M 33.299999 52.099998L 39.5 50.700001L 38.099998 44.5"></path></g></g></g><g id="g-root-tx_balanced_140iipm1groydn-stroke" data-item-order="0" transform="translate(369, 645)"></g><g id="g-root-tx_distribu_zlbhoa1grow04-stroke" data-item-order="0" transform="translate(369, 705)"></g><g id="g-root-tx_effectiv_zrk8je1grnjeu-stroke" data-item-order="0" transform="translate(387, 345)"></g></g></g></svg>