<?xml version="1.0" encoding="utf-8" standalone="yes"?>
<!DOCTYPE svg PUBLIC "-//W3C//DTD SVG 1.1//EN" "http://www.w3.org/Graphics/SVG/1.1/DTD/svg11.dtd">
<svg width="938" height="398" viewBox="0 0 938 398" style="fill:none;stroke:none;fill-rule:evenodd;clip-rule:evenodd;stroke-linecap:round;stroke-linejoin:round;stroke-miterlimit:1.5;" version="1.1" xmlns="http://www.w3.org/2000/svg" xmlns:xlink="http://www.w3.org/1999/xlink"><style class="text-font-style fontImports" data-font-family="Roboto">@import url('https://fonts.googleapis.com/css2?family=Roboto:wght@400;700&amp;display=block');</style><g id="items" style="isolation: isolate"><g id="blend" style="mix-blend-mode: normal"><g id="g-root-1.bubble-1_fr_8vvlvj1adptl5-fill" data-item-order="-309014" transform="translate(39, 63)"><g id="1.bubble-1_fr_8vvlvj1adptl5-fill" stroke="none" fill="#fffbda"><g><path d="M 34 22C 27.3726 22 22 27.3726 22 34L 10 34C 10 20.7452 20.7452 10 34 10L 34 22ZM 178 22L 178 10L 34 10.000001L 34.000003 22L 178 22ZM 178.000003 10C 191.2548 10 202 20.7452 202 34L 190 34C 190 27.3726 184.6274 22 178 22L 178.000003 10ZM 202 34L 202 118L 190 118L 190 34L 202 34ZM 10.000004 118L 10 34.00001L 22 34.00001L 22 118L 10.000004 118ZM 22 118C 22 124.6274 27.3726 130 34 130L 34 142L 10 142L 10 118L 22 118ZM 190 118C 190 124.6274 184.6274 130 178 130L 178 142L 202 142L 202 118L 190 118ZM 94 130L 34 130L 34 142L 178 142L 178 130L 118 130L 108.8284 139.1716C 107.2663 140.7337 104.7337 140.7337 103.1716 139.1716L 94 130Z"></path></g></g></g><g id="g-root-1.bubble-1_1_fr_1ulj5hb1adpuyz-fill" data-item-order="-308962" transform="translate(39, 195)"><g id="1.bubble-1_1_fr_1ulj5hb1adpuyz-fill" stroke="none" fill="#fffbda"><g><path d="M 202 10.000005L 202 58L 10 58L 10.000004 10L 202 10.000005ZM 34 82C 20.7452 82 9.999999 71.2548 10 58L 34 58.000002L 34 82ZM 202 58L 178 58L 178 82C 191.2548 82 202 71.2548 202 58ZM 34 82L 34 58L 178 58L 178 82L 34 82Z"></path></g></g></g><g id="g-root-2.bubble-2_fr_1hap4731adpte5-fill" data-item-order="-308936" transform="translate(255, 63)"><g id="2.bubble-2_fr_1hap4731adpte5-fill" stroke="none" fill="#f4ffdc"><g><path d="M 34 22C 27.3726 22 22 27.3726 22 34L 10 34C 10 20.7452 20.7452 10 34 10L 34 22ZM 178 22L 178 10L 34 10.000001L 34.000003 22L 178 22ZM 178.000003 10C 191.2548 10 202 20.7452 202 34L 190 34C 190 27.3726 184.6274 22 178 22L 178.000003 10ZM 202 34L 202 142L 190 142L 190 34L 202 34ZM 10.000004 142L 10 34.000011L 22 34.000011L 22 142L 10.000004 142ZM 22 142C 22 148.6274 27.3726 154 34 154L 34 166L 10 166L 10 142L 22 142ZM 190 142C 190 148.6274 184.6274 154 178 154L 178 166L 202 166L 202 142L 190 142ZM 94 154L 34 154L 34 166L 178 166L 178 154L 118 154L 108.8284 163.1716C 107.2663 164.7337 104.7337 164.7337 103.1716 163.1716L 94 154Z"></path></g></g></g><g id="g-root-2.bubble-2_1_fr_1cuvm2n1adpu6f-fill" data-item-order="-308884" transform="translate(255, 219)"><g id="2.bubble-2_1_fr_1cuvm2n1adpu6f-fill" stroke="none" fill="#f4ffdc"><g><path d="M 202 10.000008L 202 82L 10 82L 10.000004 10L 202 10.000008ZM 34 106C 20.7452 106 9.999999 95.2548 10 82L 34 82.000002L 34 106ZM 202 82L 178 82L 178 106C 191.2548 106 202 95.2548 202 82ZM 34 106L 34 82L 178 82L 178 106L 34 106Z"></path></g></g></g><g id="g-root-3.bubble-3_fr_zk1ksf1adpsll-fill" data-item-order="-308858" transform="translate(471, 63)"><g id="3.bubble-3_fr_zk1ksf1adpsll-fill" stroke="none" fill="#e3fff2"><g><path d="M 34 22C 27.3726 22 22 27.3726 22 34L 10 34C 10 20.7452 20.7452 10 34 10L 34 22ZM 178 22L 178 10L 34 10.000001L 34.000003 22L 178 22ZM 178.000003 10C 191.2548 10 202 20.7452 202 34L 190 34C 190 27.3726 184.6274 22 178 22L 178.000003 10ZM 202 34L 202 142L 190 142L 190 34L 202 34ZM 10.000004 142L 10 34.000011L 22 34.000011L 22 142L 10.000004 142ZM 22 142C 22 148.6274 27.3726 154 34 154L 34 166L 10 166L 10 142L 22 142ZM 190 142C 190 148.6274 184.6274 154 178 154L 178 166L 202 166L 202 142L 190 142ZM 94 154L 34 154L 34 166L 178 166L 178 154L 118 154L 108.8284 163.1716C 107.2663 164.7337 104.7337 164.7337 103.1716 163.1716L 94 154Z"></path></g></g></g><g id="g-root-3.bubble-3_1_fr_v482nz1adptdv-fill" data-item-order="-308806" transform="translate(471, 219)"><g id="3.bubble-3_1_fr_v482nz1adptdv-fill" stroke="none" fill="#e3fff2"><g><path d="M 202 10.000008L 202 82L 10 82L 10.000004 10L 202 10.000008ZM 34 106C 20.7452 106 9.999999 95.2548 10 82L 34 82.000002L 34 106ZM 202 82L 178 82L 178 106C 191.2548 106 202 95.2548 202 82ZM 34 106L 34 82L 178 82L 178 106L 34 106Z"></path></g></g></g><g id="g-root-4.bubble-4_fr_8xr14v1adpslp-fill" data-item-order="-308780" transform="translate(687, 63)"><g id="4.bubble-4_fr_8xr14v1adpslp-fill" stroke="none" fill="#e8f9ff"><g><path d="M 34 22C 27.3726 22 22 27.3726 22 34L 10 34C 10 20.7452 20.7452 10 34 10L 34 22ZM 178 22L 178 10L 34 10.000001L 34.000003 22L 178 22ZM 178.000003 10C 191.2548 10 202 20.7452 202 34L 190 34C 190 27.3726 184.6274 22 178 22L 178.000003 10ZM 202 34L 202 118L 190 118L 190 34L 202 34ZM 10.000004 118L 10 34.00001L 22 34.00001L 22 118L 10.000004 118ZM 22 118C 22 124.6274 27.3726 130 34 130L 34 142L 10 142L 10 118L 22 118ZM 190 118C 190 124.6274 184.6274 130 178 130L 178 142L 202 142L 202 118L 190 118ZM 94 130L 34 130L 34 142L 178 142L 178 130L 118 130L 108.8284 139.1716C 107.2663 140.7337 104.7337 140.7337 103.1716 139.1716L 94 130Z"></path></g></g></g><g id="g-root-4.bubble-4_1_fr_1unekqn1adptzj-fill" data-item-order="-308726" transform="translate(687, 195)"><g id="4.bubble-4_1_fr_1unekqn1adptzj-fill" stroke="none" fill="#e8f9ff"><g><path d="M 202 10.000005L 202 58L 10 58L 10.000004 10L 202 10.000005ZM 34 82C 20.7452 82 9.999999 71.2548 10 58L 34 58.000002L 34 82ZM 202 58L 178 58L 178 82C 191.2548 82 202 71.2548 202 58ZM 34 82L 34 58L 178 58L 178 82L 34 82Z"></path></g></g></g><g id="g-root-line_18gxj7j1adptz6-fill" data-item-order="0" transform="translate(111, 87)"></g><g id="g-root-1_1cxdlkv1add72g-fill" data-item-order="0" transform="translate(327, 87)"></g><g id="g-root-sign_1heg1vj1adg0so-fill" data-item-order="0" transform="translate(543, 87)"></g><g id="g-root-malf_1q6c7lr1adk7pd-fill" data-item-order="0" transform="translate(759, 87)"></g><g id="g-root-tx_trading_1qf2rnj1ady9zd-fill" data-item-order="0" transform="translate(93, 147)"><g id="tx_trading_1qf2rnj1ady9zd-fill" stroke="none" fill="#e0cb15"><g><text style="font: bold 20px Roboto, sans-serif; white-space: pre;" font-weight="bold" font-size="20px" font-family="Roboto, sans-serif"><tspan x="17.68" y="33.47" dominant-baseline="ideographic">Trading</tspan></text></g></g></g><g id="g-root-tx_riskmana_v2z7nj1adg0lf-fill" data-item-order="0" transform="translate(285, 147)"><g id="tx_riskmana_v2z7nj1adg0lf-fill" stroke="none" fill="#92bd39"><g><text style="font: bold 20px Roboto, sans-serif; white-space: pre;" font-weight="bold" font-size="20px" font-family="Roboto, sans-serif"><tspan x="56.47" y="33.47" dominant-baseline="ideographic">Risk </tspan><tspan x="16.86" y="57.47" dominant-baseline="ideographic">management</tspan></text></g></g></g><g id="g-root-tx_counterp_1qd7fjz1adirye-fill" data-item-order="0" transform="translate(501, 147)"><g id="tx_counterp_1qd7fjz1adirye-fill" stroke="none" fill="#3cc583"><g><text style="font: bold 20px Roboto, sans-serif; white-space: pre;" font-weight="bold" font-size="20px" font-family="Roboto, sans-serif"><tspan x="14.37" y="33.47" dominant-baseline="ideographic">Counterparty </tspan><tspan x="42.53" y="57.47" dominant-baseline="ideographic">credits</tspan></text></g></g></g><g id="g-root-tx_risklimi_8xr4an1adll3e-fill" data-item-order="0" transform="translate(729, 147)"><g id="tx_risklimi_8xr4an1adll3e-fill" stroke="none" fill="#1eabda"><g><text style="font: bold 20px Roboto, sans-serif; white-space: pre;" font-weight="bold" font-size="20px" font-family="Roboto, sans-serif"><tspan x="16.86" y="33.47" dominant-baseline="ideographic">Risk limits</tspan></text></g></g></g><g id="g-root-tx_overview_1uo14zj1add7v2-fill" data-item-order="0" transform="translate(63, 207)"><g id="tx_overview_1uo14zj1add7v2-fill" stroke="none" fill="#e0cb15"><g><text style="font: 15px Roboto, sans-serif; white-space: pre;" font-size="15px" font-family="Roboto, sans-serif"><tspan x="17.07" y="27.07" dominant-baseline="ideographic">Overview of buying </tspan><tspan x="18.18" y="45.07" dominant-baseline="ideographic">and selling assets.</tspan></text></g></g></g><g id="g-root-tx_strategi_qqwk1r1adfymm-fill" data-item-order="0" transform="translate(285, 231)"><g id="tx_strategi_qqwk1r1adfymm-fill" stroke="none" fill="#92bd39"><g><text style="font: 15px Roboto, sans-serif; white-space: pre;" font-size="15px" font-family="Roboto, sans-serif"><tspan x="31.92" y="30.07" dominant-baseline="ideographic">Strategies to </tspan><tspan x="13.7" y="48.07" dominant-baseline="ideographic">minimize financial </tspan><tspan x="50.47" y="66.07" dominant-baseline="ideographic">losses.</tspan></text></g></g></g><g id="g-root-tx_guidelin_magku71admzut-fill" data-item-order="0" transform="translate(711, 207)"><g id="tx_guidelin_magku71admzut-fill" stroke="none" fill="#1eabda"><g><text style="font: 15px Roboto, sans-serif; white-space: pre;" font-size="15px" font-family="Roboto, sans-serif"><tspan x="12.18" y="27.07" dominant-baseline="ideographic">Guidelines to control </tspan><tspan x="25.79" y="45.07" dominant-baseline="ideographic">exposure to risk.</tspan></text></g></g></g><g id="g-root-tx_assessme_m7c7en1adk748-fill" data-item-order="0" transform="translate(495, 231)"><g id="tx_assessme_m7c7en1adk748-fill" stroke="none" fill="#3cc583"><g><text style="font: 15px Roboto, sans-serif; white-space: pre;" font-size="15px" font-family="Roboto, sans-serif"><tspan x="29.89" y="30.07" dominant-baseline="ideographic">Assessment of </tspan><tspan x="15.61" y="48.07" dominant-baseline="ideographic">creditworthiness of </tspan><tspan x="24.98" y="66.07" dominant-baseline="ideographic">trading partners.</tspan></text></g></g></g><g id="g-root-1.bubble-1_fr_8vvlvj1adptl5-stroke" data-item-order="-309014" transform="translate(39, 63)"><g id="1.bubble-1_fr_8vvlvj1adptl5-stroke" fill="none" stroke-linecap="round" stroke-linejoin="round" stroke-miterlimit="4" stroke="#e0cb15" stroke-width="2"><g><path d="M 10 34C 10 20.7452 20.7452 10 34 10M 178 10L 34 10M 202 34C 202 20.7452 191.2548 10 178 10M 202 142L 202 34M 10 142L 10 34M 22 34C 22 27.3726 27.3726 22 34 22M 178 22L 34 22M 190 34C 190 27.3726 184.6274 22 178 22M 190 117.9998L 190 34M 178 130C 184.6274 130 190 124.6274 190 118M 34 130L 94 130L 103.1716 139.1716C 104.7337 140.7337 107.2663 140.7337 108.8284 139.1716L 118 130L 178 130M 34 130C 27.3726 130 22 124.6274 22 118M 22 117.9998L 22 34"></path></g></g></g><g id="g-root-1.bubble-1_1_fr_1ulj5hb1adpuyz-stroke" data-item-order="-308962" transform="translate(39, 195)"><g id="1.bubble-1_1_fr_1ulj5hb1adpuyz-stroke" fill="none" stroke-linecap="round" stroke-linejoin="round" stroke-miterlimit="4" stroke="#e0cb15" stroke-width="2"><g><path d="M 202 58L 202 10M 178 82C 191.2548 82 202 71.2548 202 58M 34 82L 178 82M 34 82C 20.7452 82 10 71.2548 10 58M 10 58L 10 10"></path></g></g></g><g id="g-root-2.bubble-2_fr_1hap4731adpte5-stroke" data-item-order="-308936" transform="translate(255, 63)"><g id="2.bubble-2_fr_1hap4731adpte5-stroke" fill="none" stroke-linecap="round" stroke-linejoin="round" stroke-miterlimit="4" stroke="#92bd39" stroke-width="2"><g><path d="M 10 34C 10 20.7452 20.7452 10 34 10M 178 10L 34 10M 202 34C 202 20.7452 191.2548 10 178 10M 202 166L 202 34M 10 166L 10 34M 22 34C 22 27.3726 27.3726 22 34 22M 178 22L 34 22M 190 34C 190 27.3726 184.6274 22 178 22M 190 141.999741L 190 34M 178 154C 184.6274 154 190 148.6274 190 142M 34 154L 94 154L 103.1716 163.1716C 104.7337 164.7337 107.2663 164.7337 108.8284 163.1716L 118 154L 178 154M 34 154C 27.3726 154 22 148.6274 22 142M 22 141.999741L 22 34"></path></g></g></g><g id="g-root-2.bubble-2_1_fr_1cuvm2n1adpu6f-stroke" data-item-order="-308884" transform="translate(255, 219)"><g id="2.bubble-2_1_fr_1cuvm2n1adpu6f-stroke" fill="none" stroke-linecap="round" stroke-linejoin="round" stroke-miterlimit="4" stroke="#92bd39" stroke-width="2"><g><path d="M 202 82L 202 10M 178 106C 191.2548 106 202 95.2548 202 82M 34 106L 178 106M 34 106C 20.7452 106 10 95.2548 10 82M 10 82L 10 10"></path></g></g></g><g id="g-root-3.bubble-3_fr_zk1ksf1adpsll-stroke" data-item-order="-308858" transform="translate(471, 63)"><g id="3.bubble-3_fr_zk1ksf1adpsll-stroke" fill="none" stroke-linecap="round" stroke-linejoin="round" stroke-miterlimit="4" stroke="#3cc583" stroke-width="2"><g><path d="M 10 34C 10 20.7452 20.7452 10 34 10M 178 10L 34 10M 202 34C 202 20.7452 191.2548 10 178 10M 202 166L 202 34M 10 166L 10 34M 22 34C 22 27.3726 27.3726 22 34 22M 178 22L 34 22M 190 34C 190 27.3726 184.6274 22 178 22M 190 141.999741L 190 34M 178 154C 184.6274 154 190 148.6274 190 142M 34 154L 94 154L 103.1716 163.1716C 104.7337 164.7337 107.2663 164.7337 108.8284 163.1716L 118 154L 178 154M 34 154C 27.3726 154 22 148.6274 22 142M 22 141.999741L 22 34"></path></g></g></g><g id="g-root-3.bubble-3_1_fr_v482nz1adptdv-stroke" data-item-order="-308806" transform="translate(471, 219)"><g id="3.bubble-3_1_fr_v482nz1adptdv-stroke" fill="none" stroke-linecap="round" stroke-linejoin="round" stroke-miterlimit="4" stroke="#3cc583" stroke-width="2"><g><path d="M 202 82L 202 10M 178 106C 191.2548 106 202 95.2548 202 82M 34 106L 178 106M 34 106C 20.7452 106 10 95.2548 10 82M 10 82L 10 10"></path></g></g></g><g id="g-root-4.bubble-4_fr_8xr14v1adpslp-stroke" data-item-order="-308780" transform="translate(687, 63)"><g id="4.bubble-4_fr_8xr14v1adpslp-stroke" fill="none" stroke-linecap="round" stroke-linejoin="round" stroke-miterlimit="4" stroke="#1eabda" stroke-width="2"><g><path d="M 10 34C 10 20.7452 20.7452 10 34 10M 178 10L 34 10M 202 34C 202 20.7452 191.2548 10 178 10M 202 142L 202 34M 10 142L 10 34M 22 34C 22 27.3726 27.3726 22 34 22M 178 22L 34 22M 190 34C 190 27.3726 184.6274 22 178 22M 190 117.9998L 190 34M 178 130C 184.6274 130 190 124.6274 190 118M 34 130L 94 130L 103.1716 139.1716C 104.7337 140.7337 107.2663 140.7337 108.8284 139.1716L 118 130L 178 130M 34 130C 27.3726 130 22 124.6274 22 118M 22 117.9998L 22 34"></path></g></g></g><g id="g-root-4.bubble-4_1_fr_1unekqn1adptzj-stroke" data-item-order="-308726" transform="translate(687, 195)"><g id="4.bubble-4_1_fr_1unekqn1adptzj-stroke" fill="none" stroke-linecap="round" stroke-linejoin="round" stroke-miterlimit="4" stroke="#1eabda" stroke-width="2"><g><path d="M 202 58L 202 10M 178 82C 191.2548 82 202 71.2548 202 58M 34 82L 178 82M 34 82C 20.7452 82 10 71.2548 10 58M 10 58L 10 10"></path></g></g></g><g id="g-root-line_18gxj7j1adptz6-stroke" data-item-order="0" transform="translate(111, 87)"><g id="line_18gxj7j1adptz6-stroke" fill="none" stroke-linecap="round" stroke-linejoin="round" stroke-miterlimit="4" stroke="#e0cb15" stroke-width="2"><g><path d="M 11.008 34C 11.008 46.702549 21.30545 57 34.008003 57C 46.710548 57 57.007999 46.702549 57.007999 34C 57.007999 21.297451 46.710548 11 34.008003 11C 21.30545 11 11.008 21.297451 11.008 34ZM 47.007999 45L 21.007999 45L 21.007999 25M 21 35L 26.378 31.926001C 27.291264 31.403624 28.453098 31.678127 29.035999 32.554001L 32.860001 38.290001C 33.044575 38.730682 33.483971 39.00988 33.961323 38.989807C 34.438675 38.96973 34.853073 38.654621 35 38.199997L 39.528 29.879999C 39.830055 29.326275 40.375626 28.947491 41 28.858L 47 28"></path></g></g></g><g id="g-root-1_1cxdlkv1add72g-stroke" data-item-order="0" transform="translate(327, 87)"><g id="1_1cxdlkv1add72g-stroke" fill="none" stroke-linecap="round" stroke-linejoin="round" stroke-miterlimit="4" stroke="#92bd39" stroke-width="2"><g><path d="M 44 31C 44 36.52285 39.52285 41 34 41C 28.477154 41 24 36.52285 24 31C 24 25.477154 28.477154 21 34 21M 30 30L 33.239998 32.43C 33.665909 32.749241 34.26725 32.678909 34.608002 32.27L 44 21M 13 17.549999L 13 32.823997C 13.120375 43.162281 19.686607 52.324169 29.438 55.759998L 31.68 56.588001C 33.177765 57.138031 34.822235 57.138031 36.32 56.587997L 38.562 55.759998C 48.313393 52.324169 54.879623 43.162281 54.999996 32.823997L 55 17.549999C 54.995892 16.323391 54.261108 15.217278 53.132 14.738C 47.073589 12.209308 40.564659 10.937597 34 11C 27.435341 10.937597 20.926413 12.209308 14.868 14.738C 13.738894 15.217278 13.004107 16.323391 13 17.549999Z"></path></g></g></g><g id="g-root-sign_1heg1vj1adg0so-stroke" data-item-order="0" transform="translate(543, 87)"><g id="sign_1heg1vj1adg0so-stroke" fill="none" stroke-linecap="round" stroke-linejoin="round" stroke-miterlimit="4" stroke="#3cc583" stroke-width="2"><g><path d="M 51 51.299999L 43.139999 52.880001M 44 44L 40.299999 45.52C 39.710167 45.760117 39.049831 45.760117 38.459999 45.52C 37.595543 45.15625 37.022171 44.322277 36.992069 43.384888C 36.961971 42.447498 37.480659 41.578461 38.32 41.16L 42 39.360001C 42.456886 39.12188 42.964787 38.998337 43.48 39C 43.868889 38.998138 44.254971 39.065872 44.620003 39.200001L 51.380001 41.779999M 29 53L 31.799999 53L 36.459999 56.540001C 36.942337 57.094124 37.780907 57.15657 38.34 56.68L 45.34 51.080002C 45.905155 50.60265 45.993374 49.764565 45.540001 49.18L 41.700001 44.939999M 38 41.360001L 37.5 40.940002C 36.998703 40.56221 36.387711 40.358547 35.760002 40.360001C 35.389034 40.36158 35.022026 40.436344 34.68 40.580002L 29 43M 23 55L 27 55C 28.10457 55 29 54.104568 29 53L 29 43C 29 41.895432 28.10457 41 27 41L 23 41M 57 55L 53 55C 51.895432 55 51 54.104568 51 53L 51 43C 51 41.895432 51.895432 41 53 41L 57 41M 44 11L 17 11C 13.686292 11 11 13.686292 11 17L 11 56C 11 56.552284 11.447716 57 12 57L 18 57M 17 19L 33 19M 17 25L 33 25M 17 31L 24 31M 39 36L 39 16C 39 13.238576 41.238579 11 44 11C 46.759998 11 49 13.24 49 17L 39 17"></path></g></g></g><g id="g-root-malf_1q6c7lr1adk7pd-stroke" data-item-order="0" transform="translate(759, 87)"><g id="malf_1q6c7lr1adk7pd-stroke" fill="none" stroke-linecap="round" stroke-linejoin="round" stroke-miterlimit="4" stroke="#1eabda" stroke-width="2"><g><path d="M 34 56.400002C 31.6 53 27.6 50.799999 23 50.799999C 18.4 50.799999 14.4 53 12 56.400002M 23.0002 32.799999L 23.0002 26.79998M 12 38.599998L 27.48078 38.599998M 26.98456 29.79932C 25.81148 29.160561 24.45582 28.79998 23 28.79998C 18.6 28.79998 15 32.400002 14.8 36.799999L 14.8 40.799999C 15 45.200001 18.6 48.799999 23 48.799999C 26.981819 48.799999 30.214399 46.1026 31.0112 42.394001M 44.549999 29.89996C 44.1082 29.89996 43.75 29.5418 43.75 29.099979C 43.75 28.65814 44.1082 28.29998 44.549999 28.29998M 44.549801 29.89996C 44.9916 29.89996 45.3498 29.5418 45.3498 29.099979C 45.3498 28.65814 44.9916 28.29998 44.549801 28.29998M 44.549999 23.099979L 44.549999 20.099979M 46.150002 12.5C 45.75 11.9 45.150002 11.5 44.549999 11.5C 43.75 11.5 43.150002 11.9 42.950001 12.5L 32.75 31.700001C 32.349998 32.299999 32.549999 32.900002 32.75 33.5C 33.150002 34.099998 33.75 34.299999 34.349998 34.299999L 54.549999 34.299999C 55.150002 34.299999 55.75 33.900002 56.150002 33.5C 56.549999 32.900002 56.549999 32.299999 56.150002 31.700001L 46.150002 12.5Z"></path></g></g></g><g id="g-root-tx_trading_1qf2rnj1ady9zd-stroke" data-item-order="0" transform="translate(93, 147)"></g><g id="g-root-tx_riskmana_v2z7nj1adg0lf-stroke" data-item-order="0" transform="translate(285, 147)"></g><g id="g-root-tx_counterp_1qd7fjz1adirye-stroke" data-item-order="0" transform="translate(501, 147)"></g><g id="g-root-tx_risklimi_8xr4an1adll3e-stroke" data-item-order="0" transform="translate(729, 147)"></g><g id="g-root-tx_overview_1uo14zj1add7v2-stroke" data-item-order="0" transform="translate(63, 207)"></g><g id="g-root-tx_strategi_qqwk1r1adfymm-stroke" data-item-order="0" transform="translate(285, 231)"></g><g id="g-root-tx_guidelin_magku71admzut-stroke" data-item-order="0" transform="translate(711, 207)"></g><g id="g-root-tx_assessme_m7c7en1adk748-stroke" data-item-order="0" transform="translate(495, 231)"></g></g></g></svg>