<?xml version="1.0" encoding="utf-8" standalone="yes"?>
<!DOCTYPE svg PUBLIC "-//W3C//DTD SVG 1.1//EN" "http://www.w3.org/Graphics/SVG/1.1/DTD/svg11.dtd">
<svg width="842" height="408" viewBox="0 0 842 408" style="fill:none;stroke:none;fill-rule:evenodd;clip-rule:evenodd;stroke-linecap:round;stroke-linejoin:round;stroke-miterlimit:1.5;" version="1.1" xmlns="http://www.w3.org/2000/svg" xmlns:xlink="http://www.w3.org/1999/xlink"><style class="text-font-style fontImports" data-font-family="Roboto">@import url('https://fonts.googleapis.com/css2?family=Roboto:wght@400;700&amp;display=block');</style><rect id="" x="0" y="0" width="842" height="407.333" style="fill: #ffffff;"></rect><g id="items" style="isolation: isolate"><g id="blend" style="mix-blend-mode: normal"><g id="g-root-tf_mcz9pn1fnkwzm-fill" data-item-order="-340480" transform="translate(-9, -9)"><g id="tf_mcz9pn1fnkwzm-fill" stroke="none" fill="#ffffff"><g><path d="M 10 10.003374L 850 10.003374L 850 415.333374L 10 415.333374Z"></path></g></g></g><g id="g-root-ro_hva9631fn6vwv-fill" data-item-order="-25200" transform="translate(327, 36.3333740234375)"><g id="ro_hva9631fn6vwv-fill" stroke="none" fill="#f5f5f5"><g><path d="M 34 10L 154 10C 154 10 178 10 178 34L 178 136C 178 136 178 160 154 160L 34 160C 34 160 10 160 10 136L 10 34C 10 34 10 10 34 10"></path></g></g></g><g id="g-root-ro_1lqji0b1fndurk-fill" data-item-order="-14904" transform="translate(273, 222.3333740234375)"><g id="ro_1lqji0b1fndurk-fill" stroke="none" fill="#fffbda"><g><path d="M 22 10L 274 10C 274 10 286 10 286 22L 286 52C 286 52 286 64 274 64L 22 64C 22 64 10 64 10 52L 10 22C 10 22 10 10 22 10"></path></g></g></g><g id="g-root-ro_1ur6ay31fn5hxo-fill" data-item-order="-12960" transform="translate(543, 24.3333740234375)"><g id="ro_1ur6ay31fn5hxo-fill" stroke="none" fill="#faf0ff"><g><path d="M 22 10L 238 10C 238 10 250 10 250 22L 250 52C 250 52 250 64 238 64L 22 64C 22 64 10 64 10 52L 10 22C 10 22 10 10 22 10"></path></g></g></g><g id="g-root-ro_mb3ugb1fnkx6w-fill" data-item-order="-11664" transform="translate(63, 24.3333740234375)"><g id="ro_mb3ugb1fnkx6w-fill" stroke="none" fill="#edf4ff"><g><path d="M 22 10L 214 10C 214 10 226 10 226 22L 226 52C 226 52 226 64 214 64L 22 64C 22 64 10 64 10 52L 10 22C 10 22 10 10 22 10"></path></g></g></g><g id="g-root-cu_909t631fnkvm1-fill" data-item-order="0" transform="translate(279, 51.3333740234375)"></g><g id="g-root-cu_18jgb8r1fnkwzw-fill" data-item-order="0" transform="translate(297, 276.3333740234375)"></g><g id="g-root-cu_909t631fnkvm4-fill" data-item-order="0" transform="translate(495, 51.3333740234375)"></g><g id="g-root-cu_18jgb8r1fnkwzz-fill" data-item-order="0" transform="translate(297, 276.3333740234375)"></g><g id="g-root-tx_pricings_1cuwhrf1fndvk9-fill" data-item-order="0" transform="translate(63, 90.3333740234375)"><g id="tx_pricings_1cuwhrf1fndvk9-fill" stroke="none" fill="#484848"><g><text style="font: 20px Roboto, sans-serif; white-space: pre;" font-size="20px" font-family="Roboto, sans-serif"><tspan x="14.69" y="33.47" dominant-baseline="ideographic">Pricing Structures</tspan></text></g></g></g><g id="g-root-cu_4kgb1n1fnkwei-fill" data-item-order="0" transform="translate(237, 78.3333740234375)"></g><g id="g-root-cu_1qa3unf1fnkxsd-fill" data-item-order="0" transform="translate(237, 78.3333740234375)"></g><g id="g-root-tx_basispri_zlbenf1fndw5i-fill" data-item-order="0" transform="translate(321, 324.3333740234375)"><g id="tx_basispri_zlbenf1fndw5i-fill" stroke="none" fill="#484848"><g><text style="font: 20px Roboto, sans-serif; white-space: pre;" font-size="20px" font-family="Roboto, sans-serif"><tspan x="12.16" y="33.47" dominant-baseline="ideographic">Basis Pricing</tspan></text></g></g></g><g id="g-root-cu_1luaciz1fnkykn-fill" data-item-order="0" transform="translate(567, 78.3333740234375)"></g><g id="g-root-cu_1hf3bhn1fnkw76-fill" data-item-order="0" transform="translate(567, 78.3333740234375)"></g><g id="g-root-tx_exchange_v48ycr1fndurm-fill" data-item-order="0" transform="translate(15, 126.3333740234375)"><g id="tx_exchange_v48ycr1fndurm-fill" stroke="none" fill="#484848"><g><text style="font: 20px Roboto, sans-serif; white-space: pre;" font-size="20px" font-family="Roboto, sans-serif"><tspan x="12.21" y="33.47" dominant-baseline="ideographic">Exchange Relationships</tspan></text></g></g></g><g id="g-root-tx_invoicea_1unfgff1fndvd7-fill" data-item-order="0" transform="translate(591, 90.3333740234375)"><g id="tx_invoicea_1unfgff1fndvd7-fill" stroke="none" fill="#484848"><g><text style="font: 20px Roboto, sans-serif; white-space: pre;" font-size="20px" font-family="Roboto, sans-serif"><tspan x="12.72" y="33.47" dominant-baseline="ideographic">Invoice Accuracy</tspan></text></g></g></g><g id="g-root-tx_reportin_1hbyy231fndwy4-fill" data-item-order="0" transform="translate(591, 126.3333740234375)"><g id="tx_reportin_1hbyy231fndwy4-fill" stroke="none" fill="#484848"><g><text style="font: 20px Roboto, sans-serif; white-space: pre;" font-size="20px" font-family="Roboto, sans-serif"><tspan x="15" y="33.47" dominant-baseline="ideographic">Reporting Mechanisms</tspan></text></g></g></g><g id="g-root-cu_4kgb1n1fnkwef-fill" data-item-order="0" transform="translate(411, 186.3333740234375)"></g><g id="g-root-tx_financia_1414wrv1fndvd9-fill" data-item-order="0" transform="translate(321, 288.3333740234375)"><g id="tx_financia_1414wrv1fndvd9-fill" stroke="none" fill="#484848"><g><text style="font: 20px Roboto, sans-serif; white-space: pre;" font-size="20px" font-family="Roboto, sans-serif"><tspan x="14.13" y="33.47" dominant-baseline="ideographic">Financial Analysis</tspan></text></g></g></g><g id="g-root-1_91ircb1fn5gjv-fill" data-item-order="4000000000" transform="translate(555, 36.3333740234375)"></g><g id="g-root-curr_qqx9ez1fn6v46-fill" data-item-order="4000000000" transform="translate(387, 60.3333740234375)"></g><g id="g-root-tx_generati_mccsmj1fn5i4q-fill" data-item-order="4000000000" transform="translate(591, 39.3333740234375)"><g id="tx_generati_mccsmj1fn5i4q-fill" stroke="none" fill="#ba5de5"><g><text style="font: 20px Roboto, sans-serif; white-space: pre;" font-size="20px" font-family="Roboto, sans-serif"><tspan x="12.26" y="33.47" dominant-baseline="ideographic">Generating Invoices</tspan></text></g></g></g><g id="g-root-tx_indicesa_18hkstn1fn6vwt-fill" data-item-order="4000000000" transform="translate(351, 114.3333740234375)"><g id="tx_indicesa_18hkstn1fn6vwt-fill" stroke="none" fill="#969696"><g><text style="font: 20px Roboto, sans-serif; white-space: pre;" font-size="20px" font-family="Roboto, sans-serif"><tspan x="16.42" y="33.47" dominant-baseline="ideographic">Indices and </tspan><tspan x="36.77" y="57.47" dominant-baseline="ideographic">Curves</tspan></text></g></g></g><g id="g-root-smar_qqxckr1fnkwen-fill" data-item-order="4000000000" transform="translate(237, 36.3333740234375)"></g><g id="g-root-sett_1q5qj1n1fndx53-fill" data-item-order="4000000000" transform="translate(285, 234.3333740234375)"></g><g id="g-root-tx_managing_i0wm3v1fncirq-fill" data-item-order="4000000000" transform="translate(321, 237.3333740234375)"><g id="tx_managing_i0wm3v1fncirq-fill" stroke="none" fill="#e0cb15"><g><text style="font: 20px Roboto, sans-serif; white-space: pre;" font-size="20px" font-family="Roboto, sans-serif"><tspan x="17.65" y="33.47" dominant-baseline="ideographic">Managing Settlements</tspan></text></g></g></g><g id="g-root-tx_settingu_1cviyuj1fnky6m-fill" data-item-order="4000000000" transform="translate(75, 39.3333740234375)"><g id="tx_settingu_1cviyuj1fnky6m-fill" stroke="none" fill="#4e88e7"><g><text style="font: 20px Roboto, sans-serif; white-space: pre;" font-size="20px" font-family="Roboto, sans-serif"><tspan x="15.66" y="33.47" dominant-baseline="ideographic">Setting up Deals</tspan></text></g></g></g><g id="g-root-tf_mcz9pn1fnkwzm-stroke" data-item-order="-340480" transform="translate(-9, -9)"></g><g id="g-root-ro_hva9631fn6vwv-stroke" data-item-order="-25200" transform="translate(327, 36.3333740234375)"><g id="ro_hva9631fn6vwv-stroke" fill="none" stroke-linecap="round" stroke-linejoin="round" stroke-miterlimit="4" stroke="#484848" stroke-width="2"><g><path d="M 34 10L 154 10C 154 10 178 10 178 34L 178 136C 178 136 178 160 154 160L 34 160C 34 160 10 160 10 136L 10 34C 10 34 10 10 34 10"></path></g></g></g><g id="g-root-ro_1lqji0b1fndurk-stroke" data-item-order="-14904" transform="translate(273, 222.3333740234375)"><g id="ro_1lqji0b1fndurk-stroke" fill="none" stroke-linecap="round" stroke-linejoin="round" stroke-miterlimit="4" stroke="#e0cb15" stroke-width="2"><g><path d="M 22 10L 274 10C 274 10 286 10 286 22L 286 52C 286 52 286 64 274 64L 22 64C 22 64 10 64 10 52L 10 22C 10 22 10 10 22 10"></path></g></g></g><g id="g-root-ro_1ur6ay31fn5hxo-stroke" data-item-order="-12960" transform="translate(543, 24.3333740234375)"><g id="ro_1ur6ay31fn5hxo-stroke" fill="none" stroke-linecap="round" stroke-linejoin="round" stroke-miterlimit="4" stroke="#ba5de5" stroke-width="2"><g><path d="M 22 10L 238 10C 238 10 250 10 250 22L 250 52C 250 52 250 64 238 64L 22 64C 22 64 10 64 10 52L 10 22C 10 22 10 10 22 10"></path></g></g></g><g id="g-root-ro_mb3ugb1fnkx6w-stroke" data-item-order="-11664" transform="translate(63, 24.3333740234375)"><g id="ro_mb3ugb1fnkx6w-stroke" fill="none" stroke-linecap="round" stroke-linejoin="round" stroke-miterlimit="4" stroke="#4e88e7" stroke-width="2"><g><path d="M 22 10L 214 10C 214 10 226 10 226 22L 226 52C 226 52 226 64 214 64L 22 64C 22 64 10 64 10 52L 10 22C 10 22 10 10 22 10"></path></g></g></g><g id="g-root-cu_909t631fnkvm1-stroke" data-item-order="0" transform="translate(279, 51.3333740234375)"><g id="cu_909t631fnkvm1-stroke" fill="none" stroke-linecap="round" stroke-linejoin="round" stroke-miterlimit="4" stroke="#969696" stroke-width="2" stroke-dasharray="5.0, 7.0"><g><path d="M 58 45L 55 45L 54.9 45C 50.422131 44.972593 45.63978 43.214375 41.299999 40C 38.67988 38.118536 36.018569 33.561496 33.999999 27.499999C 31.98143 21.438501 29.320119 16.881461 26.699999 15C 22.360218 11.785625 17.577867 10.027408 13.1 10L 13 10L 10 10"></path></g></g></g><g id="g-root-cu_18jgb8r1fnkwzw-stroke" data-item-order="0" transform="translate(297, 276.3333740234375)"><g id="cu_18jgb8r1fnkwzw-stroke" fill="none" stroke-linecap="round" stroke-linejoin="round" stroke-miterlimit="4" stroke="#969696" stroke-width="2" stroke-dasharray="5.0, 7.0"><g><path d="M 10 10L 10 22L 10 34L 19 34L 28 34"></path></g></g></g><g id="g-root-cu_909t631fnkvm4-stroke" data-item-order="0" transform="translate(495, 51.3333740234375)"><g id="cu_909t631fnkvm4-stroke" fill="none" stroke-linecap="round" stroke-linejoin="round" stroke-miterlimit="4" stroke="#969696" stroke-width="2" stroke-dasharray="5.0, 7.0"><g><path d="M 10 45L 13 45L 13.1 45C 17.577866 44.972592 22.360217 43.214375 26.699999 40C 29.320119 38.118536 31.98143 33.561497 33.999999 27.499999C 36.018569 21.438502 38.67988 16.881462 41.299999 15C 45.63978 11.785625 50.422131 10.027407 54.899998 9.999999L 55 10L 58 10"></path></g></g></g><g id="g-root-cu_18jgb8r1fnkwzz-stroke" data-item-order="0" transform="translate(297, 276.3333740234375)"><g id="cu_18jgb8r1fnkwzz-stroke" fill="none" stroke-linecap="round" stroke-linejoin="round" stroke-miterlimit="4" stroke="#969696" stroke-width="2" stroke-dasharray="5.0, 7.0"><g><path d="M 10 10L 10 17.5L 10 58C 10.000002 64.627417 15.372585 70 22.000002 69.999999L 22.1 70L 28 70"></path></g></g></g><g id="g-root-tx_pricings_1cuwhrf1fndvk9-stroke" data-item-order="0" transform="translate(63, 90.3333740234375)"></g><g id="g-root-cu_4kgb1n1fnkwei-stroke" data-item-order="0" transform="translate(237, 78.3333740234375)"><g id="cu_4kgb1n1fnkwei-stroke" fill="none" stroke-linecap="round" stroke-linejoin="round" stroke-miterlimit="4" stroke="#969696" stroke-width="2" stroke-dasharray="5.0, 7.0"><g><path d="M 28 10L 28 22L 28 34L 19 34L 10 34"></path></g></g></g><g id="g-root-cu_1qa3unf1fnkxsd-stroke" data-item-order="0" transform="translate(237, 78.3333740234375)"><g id="cu_1qa3unf1fnkxsd-stroke" fill="none" stroke-linecap="round" stroke-linejoin="round" stroke-miterlimit="4" stroke="#969696" stroke-width="2" stroke-dasharray="5.0, 7.0"><g><path d="M 28 10L 28 17.5L 28 58C 27.999999 64.627415 22.627416 69.999998 16 69.999998L 15.9 70L 10 70"></path></g></g></g><g id="g-root-tx_basispri_zlbenf1fndw5i-stroke" data-item-order="0" transform="translate(321, 324.3333740234375)"></g><g id="g-root-cu_1luaciz1fnkykn-stroke" data-item-order="0" transform="translate(567, 78.3333740234375)"><g id="cu_1luaciz1fnkykn-stroke" fill="none" stroke-linecap="round" stroke-linejoin="round" stroke-miterlimit="4" stroke="#969696" stroke-width="2" stroke-dasharray="5.0, 7.0"><g><path d="M 10 10L 10 22L 10 34L 19 34L 28 34"></path></g></g></g><g id="g-root-cu_1hf3bhn1fnkw76-stroke" data-item-order="0" transform="translate(567, 78.3333740234375)"><g id="cu_1hf3bhn1fnkw76-stroke" fill="none" stroke-linecap="round" stroke-linejoin="round" stroke-miterlimit="4" stroke="#969696" stroke-width="2" stroke-dasharray="5.0, 7.0"><g><path d="M 10 10L 10 17.5L 10 58C 10.000002 64.627417 15.372585 70 22.000002 69.999999L 22.1 70L 28 70"></path></g></g></g><g id="g-root-tx_exchange_v48ycr1fndurm-stroke" data-item-order="0" transform="translate(15, 126.3333740234375)"></g><g id="g-root-tx_invoicea_1unfgff1fndvd7-stroke" data-item-order="0" transform="translate(591, 90.3333740234375)"></g><g id="g-root-tx_reportin_1hbyy231fndwy4-stroke" data-item-order="0" transform="translate(591, 126.3333740234375)"></g><g id="g-root-cu_4kgb1n1fnkwef-stroke" data-item-order="0" transform="translate(411, 186.3333740234375)"><g id="cu_4kgb1n1fnkwef-stroke" fill="none" stroke-linecap="round" stroke-linejoin="round" stroke-miterlimit="4" stroke="#969696" stroke-width="2" stroke-dasharray="5.0, 7.0"><g><path d="M 10 10L 10 28L 10 46"></path></g></g></g><g id="g-root-tx_financia_1414wrv1fndvd9-stroke" data-item-order="0" transform="translate(321, 288.3333740234375)"></g><g id="g-root-1_91ircb1fn5gjv-stroke" data-item-order="4000000000" transform="translate(555, 36.3333740234375)"><g id="1_91ircb1fn5gjv-stroke" fill="none" stroke-linecap="round" stroke-linejoin="round" stroke-miterlimit="4" stroke="#ba5de5" stroke-width="2"><g><path d="M 20.9375 20.625L 11.875 20.625C 11.184644 20.625 10.625 20.065357 10.625 19.375L 10.625 11.875C 10.625 11.184644 11.184644 10.625 11.875 10.625L 38.125 10.625C 38.815353 10.625 39.375 11.184644 39.375 11.875L 39.375 38.125C 39.375 38.815353 38.815353 39.375 38.125 39.375L 19.375 39.375C 18.684645 39.375 18.125 38.815353 18.125 38.125L 18.125 20.625M 28.75 10.9375L 28.75 20.625L 18.125 20.625M 32.1875 14.6875L 34.0625 17.1875L 35.9375 14.6875M 22.8125 25.625L 34.375 25.625M 22.8125 30L 34.375 30M 22.8125 34.375L 34.375 34.375"></path></g></g></g><g id="g-root-curr_qqx9ez1fn6v46-stroke" data-item-order="4000000000" transform="translate(387, 60.3333740234375)"><g id="curr_qqx9ez1fn6v46-stroke" fill="none" stroke-linecap="round" stroke-linejoin="round" stroke-miterlimit="4" stroke="#969696" stroke-width="2"><g><path d="M 11 34C 11 46.702549 21.297451 57 34 57C 46.702549 57 57 46.702549 57 34C 57 21.297451 46.702549 11 34 11C 21.297451 11 11 21.297451 11 34M 34 34L 21 28L 34 22L 47 28L 34 34ZM 47 34L 34 40L 21 34M 47 40L 34 46L 21 40"></path></g></g></g><g id="g-root-tx_generati_mccsmj1fn5i4q-stroke" data-item-order="4000000000" transform="translate(591, 39.3333740234375)"></g><g id="g-root-tx_indicesa_18hkstn1fn6vwt-stroke" data-item-order="4000000000" transform="translate(351, 114.3333740234375)"></g><g id="g-root-smar_qqxckr1fnkwen-stroke" data-item-order="4000000000" transform="translate(237, 36.3333740234375)"><g id="smar_qqxckr1fnkwen-stroke" fill="none" stroke-linecap="round" stroke-linejoin="round" stroke-miterlimit="4" stroke="#4e88e7" stroke-width="2"><g><path d="M 24.682501 33.71875L 22.182501 33.71875C 20.111431 33.71875 18.432501 32.039818 18.432501 29.96875L 18.432499 26.84375M 15.9325 28.71875L 18.432499 26.21875L 20.932501 28.71875M 31.723749 24.34375L 37.973751 24.34375C 37.973751 24.34375 39.223751 24.34375 39.223751 25.59375L 39.223751 38.09375C 39.223751 38.09375 39.223751 39.34375 37.973751 39.34375L 31.723749 39.34375C 31.723749 39.34375 30.473749 39.34375 30.473749 38.09375L 30.473749 25.59375C 30.473749 25.59375 30.473749 24.34375 31.723749 24.34375M 39.223751 35.59375L 30.473749 35.59375M 25.776251 11.90625L 25.776251 20.65625C 25.776251 20.65625 25.776251 21.90625 24.526251 21.90625L 12.02625 21.90625C 12.02625 21.90625 10.77625 21.90625 10.77625 20.65625L 10.77625 11.90625C 10.77625 11.90625 10.77625 10.65625 12.02625 10.65625L 24.526251 10.65625C 24.526251 10.65625 25.776251 10.65625 25.776251 11.90625M 25.776251 14.40625L 10.77625 14.40625M 21.401251 18.78125L 23.276251 18.78125"></path></g></g></g><g id="g-root-sett_1q5qj1n1fndx53-stroke" data-item-order="4000000000" transform="translate(285, 234.3333740234375)"><g id="sett_1q5qj1n1fndx53-stroke" fill="none" stroke-linecap="round" stroke-linejoin="round" stroke-miterlimit="4" stroke="#e0cb15" stroke-width="2"><g><path d="M 35.7085 14.764237C 37.595501 14.764237 39.125248 13.9076 39.125248 12.850887C 39.125248 11.794163 37.595501 10.937529 35.7085 10.937529C 33.821499 10.937529 32.291752 11.794163 32.291752 12.850887C 32.291752 13.9076 33.821499 14.764237 35.7085 14.764237ZM 32.291752 12.85075L 32.291752 18.044149C 32.291752 19.137487 33.795124 19.9575 35.7085 19.9575C 37.621876 19.9575 39.125248 19.137487 39.125248 18.044149L 39.125248 12.85075M 25.068375 14.764237C 26.955374 14.764237 28.485125 13.9076 28.485125 12.850887C 28.485125 11.794163 26.955374 10.937529 25.068375 10.937529C 23.181376 10.937529 21.651688 11.794163 21.651688 12.850887C 21.651688 13.9076 23.181376 14.764237 25.068375 14.764237ZM 21.651688 12.85075L 21.651688 18.044149C 21.651688 19.137487 23.155001 19.9575 25.068375 19.9575C 26.98175 19.9575 28.485125 19.137487 28.485125 18.044149L 28.485125 12.85075M 14.291488 14.764237C 16.178488 14.764237 17.7082 13.9076 17.7082 12.850887C 17.7082 11.794163 16.178488 10.937529 14.291488 10.937529C 12.4045 10.937529 10.874786 11.794163 10.874786 12.850887C 10.874786 13.9076 12.4045 14.764237 14.291488 14.764237ZM 17.7082 15.4779C 17.7082 16.534626 16.178488 17.391262 14.291488 17.391262C 12.4045 17.391262 10.874786 16.534626 10.874786 15.4779M 28.485125 15.4779C 28.485125 16.534626 26.955374 17.391262 25.068375 17.391262C 23.181376 17.391262 21.651688 16.534626 21.651688 15.4779M 39.125248 15.4779C 39.125248 16.534626 37.595501 17.391262 35.7085 17.391262C 33.821499 17.391262 32.291752 16.534626 32.291752 15.4779M 10.874786 12.85075L 10.874786 18.044149C 10.874786 19.137487 12.378138 19.9575 14.291488 19.9575C 16.204849 19.9575 17.7082 19.137487 17.7082 18.044149L 17.7082 12.85075M 10.9375 39.0625C 12.8042 39.0625 14.670913 39.0625 16.537613 37.1875C 18.404312 39.0625 20.271013 39.0625 20.768799 39.0625C 21.266588 39.0625 23.133251 39.0625 25 37.1875C 26.866749 39.0625 28.733376 39.0625 29.231251 39.0625C 29.729 39.0625 31.595627 39.0625 33.462376 37.1875C 35.329124 39.0625 37.195747 39.0625 39.0625 39.0625M 19.43755 35.7225C 19.43755 35.3475 19.31255 35.0975 19.06255 34.8475L 18.43755 34.2225C 18.06255 33.8475 17.93755 33.3475 18.18755 32.8475C 18.43755 32.3475 18.81255 32.0975 19.43755 32.0975L 20.31255 32.0975C 20.68755 32.0975 20.937536 31.9725 21.187538 31.7225C 21.437538 31.4725 21.56255 31.0975 21.56255 30.8475L 21.56255 29.9725C 21.56255 29.4725 21.812538 28.9725 22.312538 28.7225C 22.8125 28.4725 23.3125 28.5975 23.6875 28.9725L 24.3125 29.5975C 24.5625 29.8475 24.8125 29.9725 25.1875 29.9725C 25.5625 29.9725 25.8125 29.8475 26.0625 29.5975L 26.6875 28.9725C 27.0625 28.5975 27.5625 28.4725 28.0625 28.7225C 28.5625 28.9725 28.8125 29.3475 28.8125 29.9725L 28.8125 30.8475C 28.8125 31.2225 28.9375 31.4725 29.1875 31.7225C 29.4375 31.9725 29.8125 32.0975 30.0625 32.0975L 30.9375 32.0975C 31.4375 32.0975 31.9375 32.3475 32.1875 32.8475C 32.4375 33.3475 32.3125 33.8475 31.9375 34.2225L 31.0625 34.8475C 30.8125 35.0975 30.6875 35.3475 30.6875 35.7225M 22.6875 35.722626C 22.6875 34.472626 23.6875 33.347626 25.0625 33.347626C 26.3125 33.347626 27.4375 34.347626 27.4375 35.722626M 10 10M 32.5625 28.592375L 35.6875 26.092375L 35.6875 22.967375M 10 10M 17.562563 28.592375L 14.437563 26.092375L 14.437563 22.967375M 25 26.515749L 25 22.342438"></path></g></g></g><g id="g-root-tx_managing_i0wm3v1fncirq-stroke" data-item-order="4000000000" transform="translate(321, 237.3333740234375)"></g><g id="g-root-tx_settingu_1cviyuj1fnky6m-stroke" data-item-order="4000000000" transform="translate(75, 39.3333740234375)"></g></g></g></svg>