<?xml version="1.0" encoding="utf-8" standalone="yes"?>
<!DOCTYPE svg PUBLIC "-//W3C//DTD SVG 1.1//EN" "http://www.w3.org/Graphics/SVG/1.1/DTD/svg11.dtd">
<svg width="1057" height="573" viewBox="0 0 1057 573" style="fill:none;stroke:none;fill-rule:evenodd;clip-rule:evenodd;stroke-linecap:round;stroke-linejoin:round;stroke-miterlimit:1.5;" version="1.1" xmlns="http://www.w3.org/2000/svg" xmlns:xlink="http://www.w3.org/1999/xlink"><style class="text-font-style fontImports" data-font-family="Arial"></style><g id="items" style="isolation: isolate"><g id="blend" style="mix-blend-mode: normal"><g id="g-root-0r.g-0r_fr_qtflgw1soyznm-fill" data-item-order="-459638" transform="translate(14.53499984741211, 127.06201171875)"><g id="0r.g-0r_fr_qtflgw1soyznm-fill" stroke="none" fill="#4f92ff"><g><path d="M 825.945 87.0219C 825.341 86.1953 824.748 85.3894 824.164 84.6036C 821.777 88.6463 819.328 91.2986 816.847 93.4349C 817.627 94.2305 818.409 95.041 819.194 95.8666C 822.757 97.7036 829.63 98.1678 840.434 98.8973C 855.461 99.9121 878.093 101.4405 910 107.8915C 889.248 93.0584 825.932 87.0219 825.932 87.0219L 825.945 87.0219ZM 802.436 61.3193C 797.753 57.9926 792.75 55.5692 786.67 53.4913C 796.585 50.4911 805.467 43.6866 808.045 39.0182C 812.891 30.2456 814.846 24.1131 818.982 10C 807.933 27.4973 797.158 34.3979 797.158 34.3979C 777.684 46.6387 750.087 49.5109 740.508 50.508C 740.198 50.5402 739.906 50.5705 739.635 50.5991C 653.409 57.2274 610.029 46.2717 572.863 36.8853C 537.826 28.0364 508.31 20.5822 453.625 30.5696C 370.968 45.672 319.263 39.765 258.015 32.7678L 257.787 32.7417C 210.733 27.3639 178.243 47.5987 144.811 68.4194C 137.137 73.1987 129.414 78.0089 121.453 82.5472C 121.231 82.9706 120.909 83.3308 120.459 83.5955C 119.957 83.8902 119.425 84.0072 118.887 83.9956C 114.871 86.2393 110.79 88.4065 106.6207 90.4592C 106.7446 92.2101 106.4471 94.004 104.9457 94.718C 103.3429 95.4781 101.6255 94.5843 100.2779 93.4566C 97.6724 94.635 95.0296 95.7634 92.3441 96.8332C 91.6258 97.5344 90.8133 98.2925 90.1702 98.8612C 90.2117 98.9503 90.2117 99.0623 90.2117 99.0623C 90.5849 101.1802 91.0981 106.1372 88.6115 107.0712C 86.2322 107.9598 83.5632 105.2957 82.7047 103.4366C 81.7097 103.793 80.6492 104.0791 79.5182 104.2704C 78.9843 105.3087 77.4522 106.5523 75.3694 107.7197C 74.1611 108.3997 72.7254 109.0766 71.2231 109.6378C 70.9961 111.804 70.2456 115.443 67.6914 115.686C 65.3165 115.914 63.7786 113.278 62.9873 111.389C 61.9869 111.431 60.9725 111.387 60.0154 111.269C 58.9086 112.019 56.8883 112.611 54.5644 112.991C 54.1068 113.066 53.6373 113.133 53.1607 113.192C 52.7147 115.358 51.6258 118.596 49.1772 118.616C 46.5346 118.64 45.2219 115.244 44.6924 113.329C 43.7043 113.207 42.8509 113.022 42.2071 112.77C 41.1394 113.319 39.1186 113.618 36.8062 113.7C 32.9653 113.841 28.2817 113.397 25.7442 112.507C 23.1228 111.582 21.4483 109.3892 20.8146 107.2928C 13.16 106.9522 10 106.2594 10 106.2594L 10 160C 10 160 22 153.999 58 153.999C 95.763 154.168 125.432 131.03 154.953 108.0067C 182.725 86.3475 210.366 64.7902 244.493 62.8354C 246.737 60.4376 249.38 58.7407 252.425 58.3354C 254.364 58.0773 255.646 60.0282 256.512 62.9666C 256.774 62.9873 257.038 63.0091 257.301 63.0321C 267.926 63.9588 277.55 64.8562 286.401 65.6816C 336.454 70.3489 361.794 72.7118 403.557 65.031C 404.35 63.408 405.27 61.7432 406.299 60.1397C 409.619 54.9797 416.229 46.3125 421.709 46.3125C 427.209 46.3125 433.619 51.2397 436.089 53.9297C 437.896 54.5268 439.832 55.2635 441.911 56.4291C 447.551 54.9908 453.495 53.4185 459.791 51.7032C 507.653 38.6666 530.501 44.0243 562.457 51.5178L 562.462 51.519C 567.038 52.5921 571.801 53.709 576.851 54.8218C 580.29 50.4079 584.743 46 588.626 46C 594.108 46 600.497 50.9574 602.959 53.6641C 606.368 54.801 610.236 56.4472 614.661 60.5625C 615.131 60.8933 615.6 61.2621 616.059 61.6825C 640.407 64.7393 671.243 66.3919 713.108 64.4773C 715.536 62.2025 718.12 60.5547 720.489 60.5547C 723.363 60.5547 726.49 61.9231 729.152 63.5994C 737.515 63.0695 746.286 62.4051 755.492 61.592C 764.319 61.2311 773.264 63.1814 782.416 67.4638C 789.496 64.9011 796.335 62.8254 802.436 61.3193ZM 825.945 87.0219C 825.341 86.1953 824.748 85.3894 824.164 84.6036C 821.777 88.6463 819.328 91.2986 816.847 93.4349C 817.627 94.2305 818.409 95.041 819.194 95.8666C 822.757 97.7036 829.63 98.1678 840.434 98.8973C 855.461 99.9121 878.093 101.4405 910 107.8915C 889.248 93.0584 825.932 87.0219 825.932 87.0219L 825.945 87.0219Z"></path></g></g></g><g id="g-root-0q.g-0q_fr_hxsl801soz0gc-fill" data-item-order="-459632" transform="translate(49.224266052246094, 184.36676025390625)"><g id="0q.g-0q_fr_hxsl801soz0gc-fill" stroke="none" fill="#4f92ff"><g><path d="M 93.3715 13.9173C 94.5734 15.5553 96.9054 18.0983 99.2915 17.2119C 101.8655 16.2491 101.4251 12.0572 101.0431 10C 98.5891 11.6509 95.7183 13.1594 93.3715 13.9173ZM 79.0254 23.7349C 80.3699 25.1043 83.3941 27.6845 85.7696 26.2908C 88.0547 24.9461 87.0492 21.1377 86.3089 19.1117C 84.2018 20.8845 81.5337 22.6492 79.0254 23.7349ZM 63.9825 34.5532C 65.2951 36.0728 67.8995 38.531 70.2563 37.4133C 72.6582 36.2711 71.979 32.3649 71.4222 30.293C 69.2219 32.0628 66.5304 33.7003 63.9927 34.5547L 63.9825 34.5532ZM 47.9015 45.8628C 48.6093 47.7191 51.4253 50.699 53.9221 49.7665C 56.4087 48.8326 55.8954 43.8755 55.5222 41.7577C 53.3784 43.133 50.9696 45.0121 47.9015 45.8628ZM 28.2979 54.0845C 29.0891 55.9733 30.627 58.609 33.002 58.3816C 35.5561 58.1385 36.3066 54.4992 36.5337 52.3331C 33.9611 53.2857 31.094 53.9691 28.2979 54.0845ZM 10 56.0134C 10.5275 57.9263 11.8402 61.3349 14.4878 61.3117C 16.9372 61.291 18.0261 58.0511 18.4717 55.8854C 15.5563 56.2521 12.3929 56.315 10 56.0134Z"></path></g></g></g><g id="g-root-0p.g-0p_fr_dhz33k1soz18m-fill" data-item-order="-459628" transform="translate(25.06259536743164, 152.25738525390625)"><g id="0p.g-0p_fr_dhz33k1soz18m-fill" stroke="none" fill="#4f92ff"><g><path d="M 10.002127 80.402262C 9.872627 74.985262 15.674827 69.293062 22.702227 66.965962C 24.275527 66.448162 25.898427 66.092062 27.533227 65.944362C 29.168127 63.980061 33.493127 62.494062 37.829227 62.093462C 39.286327 61.951262 40.755527 61.938662 42.120927 62.072362C 43.171527 60.189462 48.159127 57.861662 52.488927 56.851162C 54.072527 56.479362 55.579127 56.283062 56.753627 56.368762C 57.415027 54.368162 61.688027 49.683662 66.301127 47.640262C 67.623827 47.055562 68.969927 46.670362 70.275427 46.640662C 69.939727 43.970762 75.667327 38.146562 80.475227 35.470462C 81.933227 34.667862 83.300027 34.140362 84.391327 34.079961C 84.495327 30.956962 90.779327 25.242362 95.720127 22.946562C 97.281527 22.220661 98.710727 21.837062 99.761427 21.987662C 100.165727 19.165661 107.851527 15.366462 113.054027 14.295161C 114.866027 13.925262 116.371027 13.889862 117.171027 14.334761C 117.698027 10.291862 130.870027 8.388062 140.331027 11.673862C 150.397027 15.170161 151.641027 20.509462 151.475027 22.756562C 150.691027 33.782062 134.407027 35.995661 130.627027 36.509662L 130.545027 36.520762C 130.599027 37.385062 129.546027 38.695662 127.923027 40.073262C 124.141027 43.288662 117.329027 46.947262 114.363027 46.501662C 114.279027 47.305062 113.303027 48.597562 111.854027 49.989862C 108.872327 52.855362 103.866827 56.183762 100.142927 56.816562C 100.031527 57.771362 99.054027 59.153961 97.590027 60.610562C 94.421827 63.758962 88.969227 67.227862 84.950427 67.302362C 84.820027 68.212662 83.952627 69.543762 82.511127 70.957861C 82.423427 71.043662 82.334427 71.130962 82.243927 71.219662C 79.449527 73.959862 75.326127 78.003262 68.990927 79.075162C 68.457027 80.113462 66.924827 81.357062 64.842027 82.524362C 60.822127 84.786962 54.694927 86.716662 49.488127 86.073862C 48.381227 86.823562 46.360927 87.416062 44.037127 87.795362C 39.634227 88.516662 34.134327 88.535462 31.679727 87.574862C 30.612127 88.123762 28.591327 88.422862 26.278927 88.504362C 22.438027 88.645662 17.754427 88.201662 15.216827 87.311662C 11.867427 86.129862 10.063827 82.878062 10.002127 80.402262ZM 100.144327 56.806462L 100.143627 56.811562L 100.144327 56.806462ZM 139.533027 18.985861C 139.373027 20.103062 138.330027 20.877862 137.203027 20.716362C 136.077027 20.554962 135.293027 19.518362 135.453027 18.401162C 135.613027 17.283962 136.656027 16.509162 137.783027 16.670662C 138.910027 16.832062 139.693027 17.868662 139.533027 18.985861Z"></path></g></g></g><g id="g-root-0o.g-0o_fr_dhz33k1soz18o-fill" data-item-order="-459622" transform="translate(136.84494018554688, 127.80792236328125)"><g id="0o.g-0o_fr_dhz33k1soz18o-fill" stroke="none" fill="#4f92ff"><g><path d="M 25.421972 45.162936C 26.548772 45.324436 27.591972 44.549636 27.752072 43.432436C 27.912172 42.315236 27.128472 41.278636 26.001672 41.117236C 24.874872 40.955736 23.831672 41.730536 23.671572 42.847736C 23.511572 43.964936 24.295172 45.001536 25.421972 45.162936Z"></path></g></g></g><g id="g-root-0n.g-0n_fr_925kz41soz20y-fill" data-item-order="-459616" transform="translate(252.17599487304688, 200.866943359375)"><g id="0n.g-0n_fr_925kz41soz20y-fill" stroke="none" fill="#4f92ff"><g><path d="M 24.1307 51.789561C 23.526 77.894861 12.1429 74.663961 10 101.263061C 16.7683 105.105861 34.8772 106.973561 42.9291 98.504361C 65.1436 87.458961 59.988 51.790761 55.2035 48.001661C 55.3414 40.294561 50.6834 29.686061 46.3021 27.710961C 45.167 24.222361 39.9161 20.188861 37.317 19.351661C 34.8664 14.370961 27.1112 9.421661 21.1279 10.054961C 21.5311 12.437961 21.6477 14.563361 21.3189 15.765561C 21.6159 16.216361 21.8918 16.806761 22.157 17.483061C 24.2256 17.611861 27.9174 18.223661 28.4373 20.917961C 28.4903 21.196961 28.5012 21.455461 28.4694 21.713161C 28.2678 23.731161 25.8279 25.212461 23.982 26.060461C 24.0562 26.822561 24.1199 27.573961 24.1517 28.303861C 24.2472 30.761961 24.077 32.949261 23.5466 34.248061C 23.8861 35.246361 24.1089 36.308961 24.2786 37.382461C 26.3579 37.790361 29.3071 38.788561 29.5723 41.235961C 29.8587 43.887261 26.3579 45.432961 24.1831 46.141461C 24.0028 47.268561 23.7906 48.352661 23.5254 49.372461C 23.9391 50.145261 24.1519 50.952261 24.1307 51.789561Z"></path></g></g></g><g id="g-root-0m.g-0m_fr_925kz41soz210-fill" data-item-order="-459610" transform="translate(264.3330078125, 208.35198974609375)"><g id="0m.g-0m_fr_925kz41soz210-fill" stroke="none" fill="#4f92ff"><g><path d="M 16.2803 13.4349C 15.7499 10.7407 12.0581 10.1395 10 10C 10.8593 12.2112 11.517 15.4529 11.8247 18.5766C 13.9146 17.6212 16.7577 15.8501 16.2803 13.4349ZM 17.4157 33.752C 17.1505 31.3046 14.2013 30.3063 12.122 29.8984C 12.5675 32.7752 12.4721 35.8344 12.0371 38.6575C 14.2013 37.9598 17.7021 36.4033 17.4263 33.752L 17.4157 33.752Z"></path></g></g></g><g id="g-root-0l.g-0l_fr_751tc1soyzny-fill" data-item-order="-459606" transform="translate(229.54696655273438, 175.37506103515625)"><g id="0l.g-0l_fr_751tc1soyzny-fill" stroke="none" fill="#4f92ff"><g><path d="M 20.057931 36.568239C 20.949031 28.904139 26.688231 11.450439 37.413531 10.022839C 43.704431 9.185539 43.078531 31.598339 43.746931 35.548539C 44.150031 37.931539 44.277531 40.058839 43.948731 41.261039C 45.433931 43.547439 46.578831 49.152039 46.769831 53.799839C 46.865331 56.258039 46.706031 58.441639 46.175631 59.740439C 47.766931 64.452739 47.353131 70.367239 46.165031 74.864839C 46.578731 75.637639 46.780731 76.452739 46.759531 77.290039C 46.154831 103.395339 34.771731 100.164339 32.628831 126.763939C 2.701931 113.184939 8.546831 79.158439 16.047131 69.143539C 16.163831 64.520039 17.498831 58.920939 19.184131 57.435439C 18.762031 56.075739 18.466331 54.577839 18.297131 53.069239C 17.798531 48.560939 18.392531 43.815739 20.047531 41.722639C 19.845931 40.015839 19.856331 38.274939 20.057931 36.568239Z"></path></g></g></g><g id="g-root-0k.g-0k_fr_1usflo01soz094-fill" data-item-order="-459600" transform="translate(403.5469665527344, 163.375)"><g id="0k.g-0k_fr_1usflo01soz094-fill" stroke="none" fill="#4f92ff"><g><path d="M 20.346931 153.911C 33.506931 153.571 45.896931 150.651 55.196931 143.761C 64.326931 136.991 68.486931 126.991 68.486931 112.361C 68.486931 108.9206 67.666531 102.8978 67.666531 102.8978C 70.416531 96.1178 69.246831 91.6 69.556831 84.77C 69.736831 80.9 69.876831 76.89 69.946831 72.95C 70.026831 68.52 70.026831 64.19 69.916831 60.25C 69.806831 56.1 69.566631 52.3632 69.186631 49.4232C 68.716631 45.8632 68.016931 43.4462 67.056931 42.7862C 67.106931 39.4762 66.637031 36.7988 65.757031 34.4088C 64.907031 32.0788 63.687031 30.0187 62.227031 27.8987C 61.177031 26.3687 60.007431 25.2972 58.817431 24.4672C 54.377431 20.3772 50.497331 18.7472 47.077331 17.6172C 44.607331 14.9272 38.197131 10 32.697131 10C 27.217131 10 20.607431 18.6672 17.287431 23.8272C 15.207431 27.0672 13.577331 30.5572 12.527331 33.4472C 9.177331 43.2072 11.716831 50.6731 11.716831 50.6731C 9.776831 57.9531 8.556831 85.8231 13.296831 121.583C 13.786831 125.263 14.247031 128.513 14.677031 131.413C 15.197031 134.853 15.677031 137.783 16.127031 140.263C 17.347031 147.013 18.297031 150.482 18.987031 152.242C 19.897031 154.572 20.346931 153.911 20.346931 153.911Z"></path></g></g></g><g id="g-root-0j.g-0j_fr_1usflo01soz096-fill" data-item-order="-459594" transform="translate(573.0570068359375, 163.06201171875)"><g id="0j.g-0j_fr_1usflo01soz096-fill" stroke="none" fill="#4f92ff"><g><path d="M 60.4854 88.7124C 62.1499 93.4818 63.5852 98.4523 64.7813 103.4228C 64.7912 103.453 64.8012 103.4631 64.8012 103.4631C 67.5423 96.6412 66.5256 92.0832 66.8346 85.2109C 67.014 81.317 67.1629 77.3054 67.2327 73.341C 67.3124 68.8836 67.3132 64.5012 67.2036 60.5368C 67.094 56.3612 66.8547 52.6182 66.476 49.66C 66.0075 46.078 65.3198 43.633 64.3629 42.9689C 64.4127 39.6384 63.9241 36.9673 63.047 34.5625C 62.1998 32.2181 61.004 30.1468 59.5488 28.0137C 58.5022 26.4742 57.3261 25.3976 56.14 24.5625C 51.7145 20.4472 47.8461 18.8011 44.4372 17.6641C 41.9753 14.9574 35.5869 10 30.1048 10C 24.6427 10 18.0536 18.7206 14.7445 23.9125C 12.6713 27.1725 11.0466 30.6841 10 33.5919C 10.4685 34.3667 11.0377 35.1073 11.6955 35.8217C 15.0745 39.5244 20.8755 42.553 27.9822 45.7728C 28.8693 46.1753 29.766 46.5864 30.693 46.9888C 34.4407 48.649 37.0123 49.947 38.8462 51.1444C 41.677 52.9958 42.7537 54.5903 43.6507 56.8643C 44.0395 57.8503 44.4083 58.9873 44.8668 60.3054C 44.8668 60.3054 47.7772 62.9215 48.3553 67.0971C 48.3852 67.3185 48.4043 67.5756 48.4243 67.807C 48.4243 67.807 52.6205 69.8194 57.355 80.6861C 58.4813 83.272 59.5185 85.9454 60.4854 88.7124Z"></path></g></g></g><g id="g-root-0i.g-0i_fr_1qcm3jk1soz11g-fill" data-item-order="-459588" transform="translate(588.7849731445312, 220.86700439453125)"><g id="0i.g-0i_fr_1qcm3jk1soz11g-fill" stroke="none" fill="#4f92ff"><g><path d="M 53.7272 83.0969C 53.9564 75.8624 53.0394 65.4988 50.9563 54.4609C 48.9528 43.8357 45.8532 32.5888 41.627 22.8892C 36.8925 12.0124 32.6963 10 32.6963 10C 32.6963 10 34.5695 22.2654 27.5127 32.7095C 20.3661 43.2845 14.4654 52.6923 10 61.0537C 13.2494 64.1729 17.2272 66.638 18.4033 67.946C 19.2506 68.8818 19.9682 69.7874 20.5962 70.6929C 25.4901 77.6859 24.9315 83.7811 37.1913 91.6193C 51.026 100.4535 53.3285 95.8855 53.7272 83.0969Z"></path></g></g></g><g id="g-root-0h.g-0h_fr_1qcm3jk1soz11i-fill" data-item-order="-459582" transform="translate(570.5469970703125, 186.656005859375)"><g id="0h.g-0h_fr_1qcm3jk1soz11i-fill" stroke="none" fill="#4f92ff"><g><path d="M 10.6564 71.5281C 11.7229 75.1 13.1979 78.4733 15.6299 82.0352C 18.351 86.0197 22.2781 90.2356 28.2386 95.2665C 32.704 86.9052 38.6046 77.4974 45.7512 66.9224C 52.8081 56.4782 50.9343 44.2128 50.9343 44.2128C 50.6053 39.6347 47.3759 36.7268 47.3759 36.7268C 45.1532 30.3879 45.2828 28.7579 33.2123 23.405C 32.2853 22.9925 31.3783 22.59 30.4812 22.1875C 21.999 18.3439 15.3809 14.7592 12.5203 10C 9.1812 19.8203 11.7129 27.3265 11.7129 27.3265C 10.2975 32.6693 9.2709 49.0701 10.6564 71.5281Z"></path></g></g></g><g id="g-root-0g.g-0g_fr_1lwslf41soz1ts-fill" data-item-order="-459576" transform="translate(703.5469970703125, 177.61700439453125)"><g id="0g.g-0g_fr_1lwslf41soz1ts-fill" stroke="none" fill="#4f92ff"><g><path d="M 45.9113 97.6699C 44.1952 93.946 42.7932 90.0775 41.6753 86.1484C 40.2241 81.0367 39.2925 75.8858 38.7826 71.0282C 36.8998 86.3048 33.8698 91.6706 33.8698 91.6706C 33.8698 91.6706 33.9679 78.7105 31.4086 67.2555C 29.2219 57.4817 27.0641 49.6582 29.3685 44.7517C 30.7903 41.7414 35.8011 40.1385 38.4683 43.8232C 39.3999 45.1134 40.0377 47.0471 40.1455 49.8033C 40.4005 49.1191 41.6262 46.3433 46.1173 42.2188C 48.0393 40.4595 50.5492 38.4476 53.8439 36.2583C 56.619 34.411 59.5412 32.6322 62.5418 30.9315C 61.9142 29.7782 61.218 28.6346 60.4335 27.5009C 59.4039 26.0055 58.2575 24.9595 57.0906 24.1482C 52.7368 20.1507 48.9315 18.5521 45.5779 17.4477C 43.1559 14.8185 36.8703 10 31.4771 10C 26.1035 10 19.6224 18.4794 16.3668 23.5227C 14.3272 26.6894 12.7284 30.105 11.6987 32.9297C 8.4138 42.469 10.9045 49.7603 10.9045 49.7603C 9.2277 74.5566 25.4856 104.6778 29.4668 106.7889C 34.556 106.1145 40.7436 101.9411 45.9015 97.6699L 45.9113 97.6699Z"></path></g></g></g><g id="g-root-0f.g-0f_fr_1d1s29c1soyzgq-fill" data-item-order="-459570" transform="translate(710.02099609375, 185.73406982421875)"><g id="0f.g-0f_fr_1d1s29c1soyzgq-fill" stroke="none" fill="#4f92ff"><g><path d="M 32.317839 62.919152C 31.425439 54.327952 31.935439 46.675052 33.622039 41.856452C 33.622039 41.856452 33.641639 41.895552 33.690639 41.964052C 33.435639 31.027052 24.826139 32.541952 22.904139 36.637252C 20.599739 41.543752 22.757139 49.362852 24.943839 59.136652C 27.503139 70.591652 27.405039 83.551852 27.405039 83.551852C 27.405039 83.551852 30.444939 78.195752 32.317839 62.919152Z"></path></g></g></g><g id="g-root-0d.g-0d_fr_1d1s29c1soyzgs-fill" data-item-order="-459564" transform="translate(731.89697265625, 175.375)"><g id="0d.g-0d_fr_1d1s29c1soyzgs-fill" stroke="none" fill="#4f92ff"><g><path d="M 67.3358 89.8362C 52.9408 110.019 37.8495 128.335 24.3174 111.212L 23.6599 110.393C 10.4808 92.5262 7.6371 63.9669 11.736 52.2188C 11.736 52.2188 13.266 46.6407 25.494 38.4991C 36.4079 31.2371 49.4593 25.0287 61.9814 20.2884C 74.9742 15.3721 87.4081 12.0295 96.2824 10.7589C 111.952 8.5011 118.051 10.3581 110.275 29.2119C 103.3819 45.9252 95.8117 46.5508 88.3495 54.0571C 87.3983 55.0247 86.4179 56.0873 85.4667 57.3286C 83.28 60.1728 78.9262 72.8984 71.7581 75.9478C 67.7293 77.6618 62.8378 76.5519 55.8825 74.1686C 62.4328 78.6939 70.4148 85.5161 67.3358 89.8362Z"></path></g></g></g><g id="g-root-0c.g-0c_fr_18lyk4w1soz092-fill" data-item-order="-459558" transform="translate(920.10400390625, 89.00006103515625)"><g id="0c.g-0c_fr_18lyk4w1soz092-fill" stroke="none" fill="#4f92ff"><g><path d="M 27.441834 58.046827C 27.479234 56.896927 28.012534 52.171327 33.144334 44.374427C 32.863934 41.382827 30.611134 38.054627 27.442334 38.054627C 24.273434 38.054627 22.030034 41.382827 21.740234 44.374427C 26.872134 52.162027 27.404534 56.887526 27.441834 58.046827ZM 27.441834 58.046827C 27.385834 61.935926 26.058434 67.218026 23.674834 72.967527C 25.376034 83.634527 27.441834 92.628127 27.441834 92.628127C 27.441834 92.628127 29.507734 83.634527 31.209034 72.967527C 28.834734 67.218026 27.497934 61.935926 27.441834 58.046827Z"></path></g></g></g><g id="g-root-0b.g-0b_fr_18lyk4w1soz094-fill" data-item-order="-459552" transform="translate(857.5469360351562, 68.5)"><g id="0b.g-0b_fr_18lyk4w1soz094-fill" stroke="none" fill="#4f92ff"><g><path d="M 120.268061 127.072C 137.823061 137.945 145.264061 116.76 151.499061 94.1447C 152.835061 89.3021 143.534061 85.8243 136.262061 83.9078C 143.311061 83.7909 147.865061 83.2177 150.909061 80.3646C 156.284061 75.335 156.022061 62.6019 157.041061 59.3672C 157.490061 57.9555 157.995061 56.6937 158.537061 55.5251C 162.725061 46.438 169.240061 43.4371 169.932061 26.3381C 170.717061 7.0421 164.734061 7.36 151.564061 14.4277C 144.104061 18.429 134.158061 25.4108 124.222061 33.9837C 114.650061 42.2387 105.086961 51.9802 97.758361 61.9647C 90.910561 71.3017 90.082161 76.6491 89.995661 78.1644C 90.012361 78.4649 90.000061 78.6146 90.000061 78.6146L 89.990461 78.615C 89.990461 78.615 89.978461 78.4652 89.995661 78.1644C 89.911361 76.6496 89.089761 71.3024 82.241461 61.9647C 74.912861 51.9802 65.350261 42.2387 55.778261 33.9837C 45.841661 25.4108 35.895861 18.429 28.436361 14.4277C 15.265561 7.36 9.283061 7.0421 10.068261 26.3381C 10.760061 43.4371 17.256661 46.436 21.444461 55.523C 21.986561 56.6916 22.500161 57.9555 22.948861 59.3672C 23.967761 62.6019 23.706061 75.335 29.080961 80.3646C 32.098261 83.1931 36.782561 83.7839 43.729361 83.9078C 36.456861 85.8243 27.155961 89.3021 28.492661 94.1447C 34.727561 116.76 42.177661 137.935 59.732561 127.062C 60.022361 126.894 60.293361 126.736 60.583161 126.539C 78.053961 114.9 89.831761 90.3967 90.000061 78.6172C 90.168361 90.3967 101.946361 114.9 119.417061 126.539C 119.520061 126.609 120.268061 126.984 120.268061 127.072Z"></path></g></g></g><g id="g-root-tx_ineffici_hzo0hc1soz097-fill" data-item-order="0" transform="translate(44.5, 344.5)"><g id="tx_ineffici_hzo0hc1soz097-fill" stroke="none" fill="#4f92ff"><g><text style="font: bold 20px Arial, Helvetica, sans-serif; white-space: pre;" font-weight="bold" font-size="20px" font-family="Arial, Helvetica, sans-serif"><tspan x="13.99" y="33" dominant-baseline="ideographic">Inefficient </tspan><tspan x="20.09" y="57" dominant-baseline="ideographic">Tracking</tspan></text></g></g></g><g id="g-root-tx_accurate_1480h9s1soz01x-fill" data-item-order="0" transform="translate(884.5, 344.5)"><g id="tx_accurate_1480h9s1soz01x-fill" stroke="none" fill="#4f92ff"><g><text style="font: bold 20px Arial, Helvetica, sans-serif; white-space: pre;" font-weight="bold" font-size="20px" font-family="Arial, Helvetica, sans-serif"><tspan x="19.24" y="33" dominant-baseline="ideographic">Accurate </tspan><tspan x="17.59" y="57" dominant-baseline="ideographic">Valuation</tspan></text></g></g></g><g id="g-root-tx_implemen_4o7i401soz1u5-fill" data-item-order="0" transform="translate(206.5, 368.5)"><g id="tx_implemen_4o7i401soz1u5-fill" stroke="none" fill="#4f92ff"><g><text style="font: bold 20px Arial, Helvetica, sans-serif; white-space: pre;" font-weight="bold" font-size="20px" font-family="Arial, Helvetica, sans-serif"><tspan x="17.21" y="33" dominant-baseline="ideographic">Implement </tspan><tspan x="31.64" y="57" dominant-baseline="ideographic">System</tspan></text></g></g></g><g id="g-root-tx_monitorl_90h2o1soyzgn-fill" data-item-order="0" transform="translate(392.5, 380.5)"><g id="tx_monitorl_90h2o1soyzgn-fill" stroke="none" fill="#4f92ff"><g><text style="font: bold 20px Arial, Helvetica, sans-serif; white-space: pre;" font-weight="bold" font-size="20px" font-family="Arial, Helvetica, sans-serif"><tspan x="12.56" y="33" dominant-baseline="ideographic">Monitor </tspan><tspan x="18.09" y="57" dominant-baseline="ideographic">Levels</tspan></text></g></g></g><g id="g-root-tx_assessco_1lyo0og1soz0uh-fill" data-item-order="0" transform="translate(530.5, 380.5)"><g id="tx_assessco_1lyo0og1soz0uh-fill" stroke="none" fill="#4f92ff"><g><text style="font: bold 20px Arial, Helvetica, sans-serif; white-space: pre;" font-weight="bold" font-size="20px" font-family="Arial, Helvetica, sans-serif"><tspan x="16.41" y="33" dominant-baseline="ideographic">Assess Costs</tspan></text></g></g></g><g id="g-root-tx_optimize_1hiuik01soz1mr-fill" data-item-order="0" transform="translate(716.5, 368.5)"><g id="tx_optimize_1hiuik01soz1mr-fill" stroke="none" fill="#4f92ff"><g><text style="font: bold 20px Arial, Helvetica, sans-serif; white-space: pre;" font-weight="bold" font-size="20px" font-family="Arial, Helvetica, sans-serif"><tspan x="21.78" y="33" dominant-baseline="ideographic">Optimize </tspan><tspan x="15.64" y="57" dominant-baseline="ideographic">Strategies</tspan></text></g></g></g><g id="g-root-tx_poorinve_djuicw1soz11g-fill" data-item-order="0" transform="translate(26.5, 404.5)"><g id="tx_poorinve_djuicw1soz11g-fill" stroke="none" fill="#4f92ff"><g><text style="font: 15px Arial, Helvetica, sans-serif; white-space: pre;" font-size="15px" font-family="Arial, Helvetica, sans-serif"><tspan x="31.55" y="27" dominant-baseline="ideographic">Poor inventory </tspan><tspan x="36.13" y="45" dominant-baseline="ideographic">management</tspan></text></g></g></g><g id="g-root-tx_usengenu_90h2o1soyzgm-fill" data-item-order="0" transform="translate(194.5, 428.5)"><g id="tx_usengenu_90h2o1soyzgm-fill" stroke="none" fill="#4f92ff"><g><text style="font: 15px Arial, Helvetica, sans-serif; white-space: pre;" font-size="15px" font-family="Arial, Helvetica, sans-serif"><tspan x="37.8" y="27" dominant-baseline="ideographic">Use nGenue </tspan><tspan x="44.06" y="45" dominant-baseline="ideographic">application</tspan></text></g></g></g><g id="g-root-tx_inventor_vai1rk1soz1u2-fill" data-item-order="0" transform="translate(302.5, 508.5)"><g id="tx_inventor_vai1rk1soz1u2-fill" stroke="none" fill="#4f92ff"><g><text style="font: bold 25px Arial, Helvetica, sans-serif; white-space: pre;" font-weight="bold" font-size="25px" font-family="Arial, Helvetica, sans-serif"><tspan x="16.24" y="42" dominant-baseline="ideographic">Inventory Valuation Transformation</tspan></text></g></g></g><g id="g-root-tx_realtime_1480h9s1soz01y-fill" data-item-order="0" transform="translate(866.5, 404.5)"><g id="tx_realtime_1480h9s1soz01y-fill" stroke="none" fill="#4f92ff"><g><text style="font: 15px Arial, Helvetica, sans-serif; white-space: pre;" font-size="15px" font-family="Arial, Helvetica, sans-serif"><tspan x="15.3" y="27" dominant-baseline="ideographic">Real-time inventory </tspan><tspan x="54.48" y="45" dominant-baseline="ideographic">insights</tspan></text></g></g></g><g id="g-root-tx_trackgas_1uub0xc1soz01s-fill" data-item-order="0" transform="translate(362.5, 440.5)"><g id="tx_trackgas_1uub0xc1soz01s-fill" stroke="none" fill="#4f92ff"><g><text style="font: 15px Arial, Helvetica, sans-serif; white-space: pre;" font-size="15px" font-family="Arial, Helvetica, sans-serif"><tspan x="20.16" y="27" dominant-baseline="ideographic">Track gas storage </tspan><tspan x="30.3" y="45" dominant-baseline="ideographic">and movement</tspan></text></g></g></g><g id="g-root-tx_improvep_18n7ib41soz2fg-fill" data-item-order="0" transform="translate(698.5, 428.5)"><g id="tx_improvep_18n7ib41soz2fg-fill" stroke="none" fill="#4f92ff"><g><text style="font: 15px Arial, Helvetica, sans-serif; white-space: pre;" font-size="15px" font-family="Arial, Helvetica, sans-serif"><tspan x="14.07" y="27" dominant-baseline="ideographic">Improve purchasing </tspan><tspan x="47.82" y="45" dominant-baseline="ideographic">and sales</tspan></text></g></g></g><g id="g-root-tx_calculat_1hiuik01soz1mq-fill" data-item-order="0" transform="translate(524.5, 416.5)"><g id="tx_calculat_1hiuik01soz1mq-fill" stroke="none" fill="#4f92ff"><g><text style="font: 15px Arial, Helvetica, sans-serif; white-space: pre;" font-size="15px" font-family="Arial, Helvetica, sans-serif"><tspan x="17.19" y="27" dominant-baseline="ideographic">Calculate cost of gas </tspan><tspan x="64.73" y="45" dominant-baseline="ideographic">(COG)</tspan></text></g></g></g><g id="g-root-0r.g-0r_fr_qtflgw1soyznm-stroke" data-item-order="-459638" transform="translate(14.53499984741211, 127.06201171875)"><g id="0r.g-0r_fr_qtflgw1soyznm-stroke" fill="none" stroke-linecap="butt" stroke-linejoin="miter" stroke-miterlimit="4" stroke="#ffffff" stroke-width="1"><g><path d="M 825.9448 87.0219C 825.341 86.1953 824.7476 85.3894 824.1637 84.6036C 821.7767 88.6463 819.3279 91.2986 816.8471 93.4349C 817.6273 94.2305 818.4094 95.041 819.1935 95.8666C 822.757 97.7036 829.6302 98.1678 840.4337 98.8973C 855.4612 99.9121 878.0933 101.4405 910.0001 107.8915C 889.2478 93.0584 825.9324 87.0219 825.9324 87.0219L 825.9448 87.0219ZM 729.1517 63.5994C 737.5154 63.0695 746.2855 62.4051 755.4919 61.592C 764.3187 61.2311 773.2637 63.1814 782.4157 67.4638C 789.4955 64.9011 796.335 62.8254 802.4363 61.3193C 797.7531 57.9926 792.7505 55.5692 786.67 53.4913C 796.5853 50.4911 805.4667 43.6866 808.0451 39.0182C 812.8906 30.2456 814.8462 24.1131 818.9817 10C 807.9329 27.4973 797.1583 34.3979 797.1583 34.3979C 777.684 46.6387 750.087 49.5109 740.5076 50.508C 740.1975 50.5402 739.9064 50.5705 739.6349 50.5991C 653.4092 57.2274 610.0295 46.2717 572.8632 36.8853C 537.8256 28.0364 508.3102 20.5822 453.6252 30.5696C 370.968 45.672 319.2626 39.765 258.015 32.7678L 257.787 32.7417C 210.733 27.3639 178.2425 47.5987 144.8114 68.4194C 137.1374 73.1987 129.4138 78.0089 121.4532 82.5472M 713.1078 64.4773C 671.243 66.3919 640.4066 64.7393 616.059 61.6825M 576.851 54.8218C 571.8011 53.709 567.0383 52.5921 562.4623 51.519L 562.4568 51.5178C 530.5009 44.0243 507.6532 38.6666 459.7911 51.7032C 453.4948 53.4185 447.5506 54.9908 441.9107 56.4291M 403.5572 65.031C 361.7941 72.7118 336.4542 70.3489 286.4012 65.6816C 277.5499 64.8562 267.9257 63.9588 257.3012 63.0321C 257.0376 63.0091 256.7744 62.9873 256.5115 62.9666M 244.4931 62.8354C 210.3659 64.7902 182.7245 86.3475 154.9527 108.0067C 125.4316 131.03 95.763 154.1684 58 153.9991C 22 153.9991 10 160 10 160M 10 106.2594C 10 106.2594 13.16 106.9522 20.8146 107.2928M 92.3441 96.8332C 95.0296 95.7634 97.6724 94.635 100.2779 93.4566M 106.6207 90.4592C 110.7899 88.4065 114.8708 86.2393 118.8872 83.9956"></path></g></g></g><g id="g-root-0q.g-0q_fr_hxsl801soz0gc-stroke" data-item-order="-459632" transform="translate(49.224266052246094, 184.36676025390625)"><g id="0q.g-0q_fr_hxsl801soz0gc-stroke" fill="none" stroke-linecap="butt" stroke-linejoin="miter" stroke-miterlimit="4" stroke="#ffffff" stroke-width="1"><g><path d="M 93.3715 13.9173C 94.5734 15.5553 96.9054 18.0983 99.2915 17.2119C 101.8655 16.2491 101.4251 12.0572 101.0431 10C 98.5892 11.6509 95.7183 13.1594 93.3715 13.9173ZM 79.0254 23.7349C 80.37 25.1043 83.3941 27.6845 85.7696 26.2908C 88.0548 24.9461 87.0492 21.1377 86.3089 19.1117C 84.2018 20.8845 81.5337 22.6492 79.0254 23.7349ZM 63.9825 34.5532C 65.2951 36.0728 67.8995 38.531 70.2563 37.4133C 72.6582 36.2711 71.979 32.3649 71.4222 30.293C 69.2219 32.0628 66.5304 33.7003 63.9927 34.5547L 63.9825 34.5532ZM 47.9015 45.8628C 48.6093 47.7191 51.4253 50.699 53.9221 49.7665C 56.4087 48.8326 55.8954 43.8755 55.5222 41.7577C 53.3784 43.133 50.9696 45.0121 47.9015 45.8628ZM 28.2979 54.0845C 29.0891 55.9733 30.627 58.609 33.002 58.3816C 35.5561 58.1385 36.3066 54.4992 36.5337 52.3331C 33.9611 53.2857 31.094 53.9691 28.2979 54.0845ZM 10 56.0134C 10.5275 57.9263 11.8402 61.3349 14.4878 61.3117C 16.9372 61.291 18.026 58.0511 18.4717 55.8854C 15.5562 56.2521 12.3929 56.315 10 56.0134Z"></path></g></g></g><g id="g-root-0p.g-0p_fr_dhz33k1soz18m-stroke" data-item-order="-459628" transform="translate(25.06259536743164, 152.25738525390625)"><g id="0p.g-0p_fr_dhz33k1soz18m-stroke" fill="none" stroke-linecap="butt" stroke-linejoin="miter" stroke-miterlimit="4" stroke="#ffffff" stroke-width="1"><g><path d="M 22.702227 66.965962C 15.674827 69.293062 9.872627 74.985262 10.002127 80.402262C 10.063827 82.878062 11.867427 86.129862 15.216827 87.311662C 17.754427 88.201662 22.438027 88.645662 26.278927 88.504362C 28.591327 88.422862 30.612127 88.123762 31.679727 87.574862C 34.134327 88.535462 39.634227 88.516662 44.037127 87.795362C 46.360927 87.416062 48.381227 86.823562 49.488127 86.073862C 54.694927 86.716662 60.822127 84.786962 64.842027 82.524362C 66.924827 81.357062 68.457027 80.113462 68.990927 79.075162C 75.531127 77.968562 79.714127 73.694961 82.511127 70.957861C 83.952627 69.543762 84.820027 68.212662 84.950427 67.302362C 88.969227 67.227862 94.421827 63.758962 97.590027 60.610562C 99.054027 59.153961 100.031527 57.771362 100.142927 56.816562L 100.144327 56.806462C 100.144027 56.809762 100.143327 56.813162 100.142927 56.816562C 103.866827 56.183762 108.872327 52.855362 111.854327 49.989862C 113.303027 48.597562 114.279227 47.305062 114.363127 46.501662C 117.328727 46.947262 124.140927 43.288662 127.922527 40.073262C 129.546127 38.695662 130.598627 37.385062 130.545527 36.520762L 130.627227 36.509662C 134.407427 35.995661 150.691227 33.782062 151.475227 22.756562C 151.641027 20.509462 150.396827 15.170161 140.331127 11.673862C 130.870227 8.388162 117.698127 10.291862 117.170927 14.334761C 116.370527 13.889862 114.866527 13.925262 113.054127 14.295161C 107.851527 15.366462 100.165727 19.165661 99.761427 21.987662C 98.710727 21.837062 97.270427 22.228262 95.708927 22.954162C 90.768127 25.249961 84.495327 30.956962 84.391327 34.079961C 83.300027 34.140362 81.933227 34.667862 80.475227 35.470462C 75.667327 38.146562 69.939627 43.970762 70.275427 46.640662C 68.969927 46.670362 67.623827 47.055562 66.301127 47.640262C 61.688027 49.683662 57.415027 54.368162 56.753627 56.368762C 55.579127 56.283062 54.072527 56.479362 52.488927 56.851162C 48.159127 57.861662 43.171527 60.189462 42.120927 62.072362C 40.755527 61.938662 39.286327 61.951262 37.829227 62.093462C 33.493127 62.494062 29.168127 63.981162 27.533327 65.945562C 25.898527 66.093162 24.275527 66.448162 22.702227 66.965962ZM 26.278927 88.504362C 25.015827 87.002162 23.845527 84.852962 23.040127 81.754562C 23.846927 84.842862 25.026027 87.003662 26.278927 88.504362ZM 22.702227 66.965962C 21.573527 71.428462 22.011227 77.818962 23.040127 81.754562M 27.533327 65.945562C 25.230327 68.722462 25.231427 85.061262 31.679727 87.574862M 37.829227 62.093462C 36.731727 67.210762 37.826827 77.586762 40.944027 83.658962C 41.888227 85.497362 42.956627 86.835362 44.037127 87.795362M 42.120927 62.072362C 40.553827 64.872162 41.866727 85.141562 49.498527 86.080262M 52.488927 56.851162C 51.856827 62.788662 55.408827 73.596762 60.010227 78.900962L 60.011627 78.890862C 61.664127 80.799762 63.307227 81.901962 64.842027 82.524362M 56.753627 56.368762C 55.272327 60.822062 61.107427 80.402262 68.990927 79.075162M 66.301127 47.640262C 67.310927 51.345962 73.857827 67.994162 82.511127 70.957861M 84.950427 67.302362C 78.603227 67.425162 70.539427 48.794562 70.275427 46.640662M 80.475227 35.470462C 81.182927 38.596261 83.646427 43.563462 84.821227 45.827162C 87.106527 50.221462 89.736027 54.974762 93.496527 58.228262C 94.867127 59.415562 96.233127 60.199361 97.590027 60.610562C 99.059127 59.148861 100.038727 57.761562 100.144327 56.806462M 84.391327 34.079961C 84.310127 36.390761 93.805627 57.889862 100.131627 56.824762M 111.854327 49.989862C 109.666327 48.984762 106.932727 47.138062 101.691127 37.510062L 101.702827 37.501362C 100.332627 35.003262 96.284927 27.289362 95.708927 22.954162C 96.284927 27.289362 100.333127 35.001962 101.691627 37.508762M 114.363127 46.501662C 108.952127 45.685062 99.357127 24.809562 99.761427 21.987662M 113.054127 14.295161C 112.468427 21.870262 119.542627 32.803562 124.123027 37.309962C 125.108827 38.276962 126.403727 39.411862 127.922527 40.073262M 117.170927 14.334761C 116.262727 21.254662 126.935127 37.014962 130.545527 36.520762C 130.572027 36.517162 130.599327 36.513362 130.627227 36.509662"></path></g></g></g><g id="g-root-0o.g-0o_fr_dhz33k1soz18o-stroke" data-item-order="-459622" transform="translate(136.84494018554688, 127.80792236328125)"><g id="0o.g-0o_fr_dhz33k1soz18o-stroke" fill="none" stroke-linecap="butt" stroke-linejoin="miter" stroke-miterlimit="4" stroke="#ffffff" stroke-width="1"><g><path d="M 25.421972 45.162936C 26.548772 45.324436 27.591972 44.549636 27.752072 43.432436C 27.912172 42.315236 27.128472 41.278636 26.001672 41.117236C 24.874872 40.955736 23.831672 41.730536 23.671572 42.847736C 23.511572 43.964936 24.295172 45.001536 25.421972 45.162936ZM 30.787607 12.723935C 23.552307 10.035735 16.573907 15.435535 13.816107 34.683135M 19.850907 10.000535C 12.302907 9.930635 7.652907 17.026535 11.225507 35.106535"></path></g></g></g><g id="g-root-0n.g-0n_fr_925kz41soz20y-stroke" data-item-order="-459616" transform="translate(252.17599487304688, 200.866943359375)"><g id="0n.g-0n_fr_925kz41soz20y-stroke" fill="none" stroke-linecap="butt" stroke-linejoin="miter" stroke-miterlimit="4" stroke="#ffffff" stroke-width="1"><g><path d="M 24.1307 51.789561C 23.526 77.894861 12.1429 74.663961 10 101.263061C 16.7683 105.105861 34.8772 106.973561 42.9291 98.504361C 65.1436 87.458961 59.988 51.790761 55.2035 48.001661C 55.3414 40.294561 50.6834 29.686061 46.3021 27.710961C 45.167 24.222361 39.9161 20.188861 37.317 19.351661C 34.8664 14.370961 27.1112 9.421661 21.1279 10.054961C 21.5311 12.437961 21.6477 14.563361 21.3189 15.765561C 21.6159 16.216361 21.8918 16.806761 22.157 17.482961C 24.2256 17.611861 27.9174 18.223661 28.4373 20.917961C 28.4903 21.196961 28.5012 21.455461 28.4694 21.713161C 28.2678 23.731161 25.8279 25.212461 23.982 26.060461C 24.0562 26.822561 24.1199 27.573961 24.1517 28.303861C 24.2472 30.761961 24.077 32.949261 23.5466 34.248061C 23.8861 35.246361 24.1089 36.308961 24.2786 37.382461C 26.3579 37.790361 29.3071 38.788561 29.5723 41.235961C 29.8587 43.887261 26.3579 45.432961 24.1831 46.141461C 24.0028 47.268561 23.7906 48.352661 23.5254 49.372461C 23.9391 50.145261 24.1519 50.952261 24.1307 51.789561ZM 37.317 19.351661C 35.3862 19.941961 32.0976 21.069061 28.4694 21.713161C 32.0869 21.069061 35.3756 19.941961 37.317 19.351661ZM 24.1307 51.789561C 35.2181 47.605061 49.3739 62.586361 49.6189 79.424661M 24.1307 51.789561C 24.4893 50.750761 25.8329 49.742461 27.7792 48.854461M 24.1307 51.789561C 35.2162 47.599761 49.3673 62.588761 49.6189 79.424661M 24.1307 51.789561C 24.4853 50.750761 25.8283 49.742861 27.7792 48.854461M 42.9291 98.504361C 47.7972 92.511561 49.7147 85.833461 49.6189 79.424661M 55.2035 48.001661C 49.9507 43.964961 34.8523 45.627461 27.7792 48.854461M 46.3021 27.710961C 38.3244 33.131761 34.7811 32.949261 23.5466 34.248061"></path></g></g></g><g id="g-root-0m.g-0m_fr_925kz41soz210-stroke" data-item-order="-459610" transform="translate(264.3330078125, 208.35198974609375)"><g id="0m.g-0m_fr_925kz41soz210-stroke" fill="none" stroke-linecap="butt" stroke-linejoin="miter" stroke-miterlimit="4" stroke="#ffffff" stroke-width="1"><g><path d="M 16.2803 13.4349C 15.7499 10.7407 12.0581 10.1395 10 10C 10.8593 12.2112 11.517 15.4529 11.8247 18.5766C 13.9146 17.6212 16.7577 15.8501 16.2803 13.4349ZM 17.4157 33.752C 17.1505 31.3046 14.2013 30.3063 12.122 29.8984C 12.5675 32.7752 12.4721 35.8344 12.0371 38.6575C 14.2013 37.9598 17.7021 36.4033 17.4263 33.752L 17.4157 33.752Z"></path></g></g></g><g id="g-root-0l.g-0l_fr_751tc1soyzny-stroke" data-item-order="-459606" transform="translate(229.54696655273438, 175.37506103515625)"><g id="0l.g-0l_fr_751tc1soyzny-stroke" fill="none" stroke-linecap="butt" stroke-linejoin="miter" stroke-miterlimit="4" stroke="#ffffff" stroke-width="1"><g><path d="M 20.057931 36.568239C 20.949031 28.904139 26.688231 11.450439 37.413531 10.022839C 43.704431 9.185539 43.078531 31.598339 43.746931 35.548539C 44.150031 37.931539 44.277531 40.058839 43.948731 41.261039C 45.433931 43.547339 46.578831 49.152039 46.769831 53.799839C 46.865331 56.258039 46.706031 58.441639 46.175631 59.740439C 47.766931 64.452739 47.353131 70.367239 46.165031 74.864839C 46.578731 75.637639 46.780731 76.452739 46.759531 77.290039C 46.154831 103.395339 34.771731 100.164339 32.628831 126.763539C 2.701931 113.184839 8.546831 79.158439 16.047131 69.143539C 16.163731 64.520039 17.498831 58.920939 19.184131 57.435439C 18.762031 56.075739 18.465531 54.567839 18.296331 53.059239C 17.797731 48.550939 18.392531 43.815739 20.047531 41.722639C 19.845931 40.015839 19.856331 38.274939 20.057931 36.568239ZM 20.057931 36.568239C 24.354431 34.453639 32.003231 33.509039 36.214831 33.702239C 39.524731 33.852539 41.954031 34.582439 43.746931 35.548539M 20.047531 41.722639C 22.381431 38.770739 40.034131 35.228439 43.948731 41.261039M 18.296331 53.059239C 23.261131 50.826539 35.100331 49.699439 41.921631 51.556439C 43.990331 52.125339 45.560431 52.908939 46.769831 53.799839M 19.184131 57.435439C 21.698331 55.234939 43.608331 52.162139 46.175631 59.740439M 46.165031 74.864839C 42.876331 68.628339 25.605931 64.881339 17.097831 68.627539L 16.047131 69.143539"></path></g></g></g><g id="g-root-0k.g-0k_fr_1usflo01soz094-stroke" data-item-order="-459600" transform="translate(403.5469665527344, 163.375)"><g id="0k.g-0k_fr_1usflo01soz094-stroke" fill="none" stroke-linecap="butt" stroke-linejoin="miter" stroke-miterlimit="4" stroke="#ffffff" stroke-width="1"><g><path d="M 20.346931 153.9106C 33.506931 153.5706 45.896931 150.6506 55.196931 143.7606C 64.326931 136.9906 68.486931 126.9906 68.486931 112.3606C 68.486931 108.9206 67.666531 102.8978 67.666531 102.8978C 70.416531 96.1178 69.246831 91.6 69.556831 84.77C 69.736831 80.9 69.876831 76.89 69.946831 72.95C 70.026831 68.52 70.026831 64.19 69.916831 60.25C 69.806831 56.1 69.566631 52.3632 69.186631 49.4232C 68.716631 45.8632 68.016931 43.4462 67.056931 42.7862C 67.106931 39.4762 66.637031 36.7988 65.757031 34.4088C 64.907031 32.0788 63.687031 30.0187 62.227031 27.8987C 61.177031 26.3687 60.007431 25.2972 58.817431 24.4672C 54.377431 20.3772 50.497331 18.7472 47.077331 17.6172C 44.607331 14.9272 38.197131 10 32.697131 10C 27.217131 10 20.607431 18.6672 17.287431 23.8272C 15.207431 27.0672 13.577331 30.5572 12.527331 33.4472C 9.177331 43.2072 11.716831 50.6731 11.716831 50.6731C 9.776831 57.9531 8.556831 85.8231 13.296831 121.5831C 13.786831 125.2631 14.247031 128.5125 14.677031 131.4125C 15.197031 134.8525 15.677031 137.7825 16.127031 140.2625C 17.347031 147.0125 18.297031 150.4825 18.987031 152.2425C 19.897031 154.5725 20.346931 153.9106 20.346931 153.9106ZM 20.346931 153.9106C 33.506931 153.5706 45.896931 150.6506 55.196931 143.7606C 64.326931 136.9906 68.486931 126.9906 68.486931 112.3606C 68.486931 108.9206 67.656931 102.8906 67.656931 102.8906C 59.066931 126.9506 28.916931 135.9106 20.336931 153.9106L 20.346931 153.9106ZM 20.346331 153.9131C 28.926331 135.9131 59.066331 126.9531 67.666331 102.8931C 67.666331 102.8931 68.396331 100.6031 62.806331 91.3331C 61.666331 89.4431 58.076331 83.0731 58.076331 83.0731C 56.686331 72.8131 51.076331 67.4531 51.076331 67.4531C 51.076331 67.4531 52.956331 79.6431 45.876331 90.0331C 26.536331 118.3831 16.236331 138.2731 18.986331 152.2531C 19.896331 154.5831 20.356331 153.9131 20.356331 153.9131L 20.346331 153.9131ZM 45.877031 90.0225C 52.957031 79.6425 51.076331 67.4531 51.076331 67.4531C 50.746331 62.9031 47.507031 60.0125 47.507031 60.0125C 45.277031 53.7125 45.407031 52.0925 33.297031 46.7725C 32.367031 46.3625 31.457031 45.9625 30.557031 45.5625C 18.897031 65.0425 13.797031 108.6525 14.677031 131.4125C 15.197031 134.8525 15.677031 137.7825 16.127031 140.2625C 17.347031 147.0125 18.297031 150.4825 18.987031 152.2425C 16.237031 138.2625 26.537031 118.3725 45.877031 90.0225ZM 14.677031 131.4125C 13.797031 108.6525 18.896831 65.0431 30.556831 45.5531C 22.046831 41.7331 15.396831 38.1831 12.526831 33.4531C 9.176831 43.2131 11.716831 50.6731 11.716831 50.6731C 9.776831 57.9531 8.556831 85.8231 13.296831 121.5831C 13.786831 125.2631 14.247031 128.5125 14.677031 131.4125ZM 41.466931 50.9063C 45.656931 48.3263 66.026931 42.0862 67.056931 42.7862C 67.106931 39.4762 66.626931 36.7963 65.746931 34.4063C 63.806931 36.4662 60.556931 38.6762 55.476931 40.5262C 49.056931 42.8662 40.036931 45.1862 30.546931 45.5462C 31.436931 45.9462 32.356931 46.3562 33.286931 46.7562C 37.046931 48.4062 39.626931 49.6962 41.466931 50.8862L 41.466931 50.9063ZM 14.217031 35.6588C 17.607031 39.3388 23.427031 42.3488 30.557031 45.5488C 40.057031 45.1788 49.067031 42.8687 55.487031 40.5287C 60.557031 38.6787 63.817031 36.4688 65.757031 34.4088C 64.907031 32.0788 63.687031 30.0187 62.227031 27.8987C 61.177031 26.3687 59.997031 25.2987 58.807031 24.4688C 53.597031 27.5988 45.027031 32.0687 35.577031 34.2487C 26.227031 36.3987 19.527031 36.2788 14.207031 35.6588M 47.077331 17.6172C 43.607331 19.4772 38.817331 21.5472 32.917331 22.8872C 25.787331 24.5072 21.047431 24.5372 17.287431 23.8272C 15.207431 27.0672 13.577331 30.5572 12.527331 33.4472C 12.997331 34.2172 13.557331 34.9472 14.217331 35.6572C 19.537331 36.2772 26.237331 36.3972 35.587331 34.2472C 45.037331 32.0672 53.607431 27.5972 58.817431 24.4672C 54.377431 20.3772 50.507331 18.7472 47.087331 17.6172L 47.077331 17.6172ZM 32.697131 10C 27.217131 10 20.607131 18.67 17.287131 23.83C 21.047131 24.53 25.787131 24.51 32.917131 22.89C 38.817131 21.55 43.607131 19.48 47.077131 17.62C 44.607131 14.93 38.197131 10 32.697131 10ZM 69.546531 84.7578C 68.616531 85.6878 66.106531 87.1878 61.396531 88.9178C 61.966531 89.9178 62.486531 90.7978 62.806531 91.3378C 68.396531 100.6078 67.666531 102.8978 67.666531 102.8978C 70.416531 96.1178 69.236531 91.5878 69.546531 84.7578ZM 58.076831 83.07C 56.686831 72.81 51.076831 67.45 51.076831 67.45C 51.056831 67.22 51.036831 66.99 51.006831 66.77C 57.326831 65.82 66.126831 62.63 69.916831 60.25C 70.026831 64.19 70.026831 68.52 69.946831 72.95C 69.876831 76.89 69.736831 80.9 69.556831 84.77C 68.636831 85.69 66.116831 87.2 61.406831 88.93C 59.936831 86.38 58.086831 83.08 58.086831 83.08L 58.076831 83.07ZM 46.286631 56.5932C 46.676631 57.5732 47.046631 58.6932 47.506631 60.0032C 47.506631 60.0032 50.426631 62.6032 51.006631 66.7532C 57.326631 65.8032 66.126631 62.6132 69.916631 60.2332C 69.806631 56.0832 69.566631 52.3632 69.186631 49.4232C 68.716631 45.8632 68.026631 43.4332 67.066631 42.7732C 66.036631 42.0732 45.666631 48.3032 41.476631 50.8932C 44.316631 52.7332 45.386631 54.3232 46.286631 56.5832"></path></g></g></g><g id="g-root-0j.g-0j_fr_1usflo01soz096-stroke" data-item-order="-459594" transform="translate(573.0570068359375, 163.06201171875)"><g id="0j.g-0j_fr_1usflo01soz096-stroke" fill="none" stroke-linecap="butt" stroke-linejoin="miter" stroke-miterlimit="4" stroke="#ffffff" stroke-width="1"><g><path d="M 60.4854 88.7024C 62.1499 93.4717 63.5852 98.4523 64.7813 103.4228C 64.7912 103.453 64.8012 103.4631 64.8012 103.4631C 67.5423 96.6412 66.5256 92.0832 66.8346 85.2109C 67.014 81.317 67.1629 77.3054 67.2327 73.341C 67.3124 68.8836 67.3132 64.5012 67.2036 60.5368C 67.094 56.3612 66.8547 52.6182 66.476 49.66C 66.0075 46.078 65.3198 43.633 64.3629 42.9689C 64.4127 39.6384 63.9241 36.9673 63.047 34.5625C 62.1998 32.2181 61.004 30.1468 59.5488 28.0137C 58.5022 26.4742 57.3261 25.3976 56.14 24.5625C 51.7145 20.4472 47.8461 18.801 44.4372 17.6641C 41.9753 14.9574 35.5869 10 30.1048 10C 24.6427 10 18.0536 18.7206 14.7445 23.9125C 12.6713 27.1725 11.0466 30.6841 10 33.5919C 10.4685 34.3667 11.0377 35.1073 11.6955 35.8217C 15.0745 39.5244 20.8755 42.553 27.9822 45.7728C 28.8693 46.1753 29.766 46.5864 30.693 46.9888C 34.4407 48.649 37.0225 49.9417 38.8564 51.1391C 41.6872 52.9904 42.7537 54.5903 43.6507 56.8643C 44.0395 57.8503 44.4083 58.9873 44.8668 60.3054C 44.8668 60.3054 47.7764 62.9472 48.3545 67.1228C 48.3844 67.3442 48.4043 67.5756 48.4243 67.807C 48.4243 67.807 52.6205 69.8194 57.355 80.6861C 58.4813 83.272 59.5185 85.9354 60.4854 88.7024ZM 60.4854 88.7024C 64.0437 87.2635 66.0372 86.0159 66.8346 85.2109M 67.2036 60.5368C 63.426 62.9315 54.6539 66.1669 48.3545 67.1228M 64.3629 42.9689C 63.3363 42.2645 43.0328 48.5331 38.8564 51.1391M 63.047 34.5625C 61.1133 36.6352 57.8739 38.8589 52.8105 40.7203C 46.4115 43.0748 37.4412 45.4106 27.9822 45.7728M 11.6955 35.8217C 16.9982 36.4455 23.6652 36.5602 32.9847 34.3969C 42.4039 32.2034 50.947 27.7119 56.14 24.5625M 44.4372 17.6641C 40.9786 19.5356 36.2042 21.6184 30.3235 22.9666C 23.2167 24.5967 18.4922 24.6268 14.7445 23.9125"></path></g></g></g><g id="g-root-0i.g-0i_fr_1qcm3jk1soz11g-stroke" data-item-order="-459588" transform="translate(588.7849731445312, 220.86700439453125)"><g id="0i.g-0i_fr_1qcm3jk1soz11g-stroke" fill="none" stroke-linecap="butt" stroke-linejoin="miter" stroke-miterlimit="4" stroke="#ffffff" stroke-width="1"><g><path d="M 53.7272 83.0969C 53.9564 75.8624 53.0394 65.4988 50.9563 54.4609C 53.4481 73.1659 48.0059 83.8515 44.8363 85.5822C 41.9458 87.1518 28.4599 79.6356 20.5957 70.6806C 25.4897 77.6736 24.9315 83.7811 37.1913 91.6193C 51.026 100.4535 53.3285 95.8855 53.7272 83.0969ZM 32.6963 10C 49.4614 46.9873 32.4172 71.8299 36.5238 83.1897C 40.3911 85.2624 43.5906 86.2686 44.8365 85.5945C 48.0161 83.8638 53.4483 73.1782 50.9565 54.4733C 48.953 43.848 45.8532 32.5888 41.627 22.8892C 36.8925 12.0124 32.6963 10.0101 32.6963 10.0101L 32.6963 10ZM 36.5238 83.1897C 32.4172 71.8299 49.4614 46.9873 32.6963 10C 39.6336 37.4889 20.7157 62.3819 18.4033 67.946C 19.2505 68.8818 19.9682 69.7874 20.5962 70.6929C 25.0815 75.8043 31.3906 80.4428 36.5238 83.1897ZM 32.6963 10C 32.6963 10 34.5695 22.2654 27.5127 32.7095C 20.3661 43.2845 14.4654 52.6923 10 61.0537C 13.2494 64.1729 17.2272 66.638 18.4033 67.946C 20.7058 62.3819 39.6336 37.4889 32.6963 10Z"></path></g></g></g><g id="g-root-0h.g-0h_fr_1qcm3jk1soz11i-stroke" data-item-order="-459582" transform="translate(570.5469970703125, 186.656005859375)"><g id="0h.g-0h_fr_1qcm3jk1soz11i-stroke" fill="none" stroke-linecap="butt" stroke-linejoin="miter" stroke-miterlimit="4" stroke="#ffffff" stroke-width="1"><g><path d="M 10.6564 71.5281C 11.7229 75.1 13.198 78.4707 15.6301 82.0326C 17.6435 60.3796 22.5375 35.5973 30.4914 22.1748C 22.0092 18.3312 15.3809 14.7592 12.5203 10C 9.1812 19.8203 11.7129 27.3265 11.7129 27.3265C 10.2975 32.6693 9.2709 49.0701 10.6564 71.5281ZM 28.2386 95.2665C 32.704 86.9052 38.6046 77.4974 45.7512 66.9224C 52.8081 56.4782 50.9343 44.2128 50.9343 44.2128C 50.6053 39.6347 47.3759 36.7268 47.3759 36.7268C 45.1532 30.3879 45.2828 28.7579 33.2123 23.405C 32.2853 22.9925 31.3783 22.59 30.4812 22.1875C 22.5273 35.5999 17.6433 60.3822 15.6299 82.0352C 18.351 86.0197 22.2781 90.2356 28.2386 95.2665Z"></path></g></g></g><g id="g-root-0g.g-0g_fr_1lwslf41soz1ts-stroke" data-item-order="-459576" transform="translate(703.5469970703125, 177.61700439453125)"><g id="0g.g-0g_fr_1lwslf41soz1ts-stroke" fill="none" stroke-linecap="butt" stroke-linejoin="miter" stroke-miterlimit="4" stroke="#ffffff" stroke-width="1"><g><path d="M 45.9113 97.6699C 44.1952 93.946 42.7932 90.0775 41.6753 86.1484C 40.224 81.0367 39.2925 75.8858 38.7826 71.0282C 36.8998 86.3048 33.8698 91.6706 33.8698 91.6706C 33.8698 91.6706 33.9679 78.7105 31.4086 67.2555C 29.2219 57.4817 27.0641 49.6582 29.3685 44.7517C 30.7903 41.7414 35.8011 40.1385 38.4683 43.8232C 39.3999 45.1134 40.0377 47.047 40.1455 49.8033C 40.4005 49.1191 41.6262 46.3433 46.1173 42.2188C 48.0393 40.4595 50.5492 38.4476 53.8439 36.2583C 56.619 34.411 59.5412 32.6322 62.5418 30.9315C 61.9142 29.7782 61.218 28.6346 60.4335 27.5009C 59.4039 26.0055 58.2575 24.9595 57.0906 24.1482C 52.7368 20.1507 48.9315 18.5521 45.5779 17.4477C 43.1559 14.8185 36.8703 10 31.4771 10C 26.1035 10 19.6224 18.4794 16.3668 23.5227C 14.3272 26.6894 12.7284 30.105 11.6987 32.9297C 8.4138 42.469 10.9045 49.7603 10.9045 49.7603C 9.2277 74.5566 25.4856 104.6778 29.4668 106.7889C 34.556 106.1145 40.7436 101.9411 45.9015 97.6699L 45.9113 97.6699ZM 45.9113 97.6699C 44.1952 93.946 42.8028 90.0463 41.6849 86.1172C 41.6849 86.1563 41.6947 86.1856 41.7045 86.2247C 38.3411 95.4317 34.6639 96.9564 29.4668 106.7889C 34.556 106.1145 40.7436 101.9411 45.9015 97.6699L 45.9113 97.6699ZM 38.7826 71.0282C 36.8998 86.3048 33.8698 91.6706 33.8698 91.6706C 33.8698 91.6706 33.9679 78.7105 31.4086 67.2555C 29.2219 57.4817 27.0646 49.6626 29.369 44.7561C 21.0241 41.0225 14.513 37.5527 11.6987 32.9297C 8.4138 42.469 10.9045 49.7603 10.9045 49.7603C 9.2277 74.5566 25.476 104.6894 29.4572 106.8006C 34.6543 96.9583 38.3315 95.4433 41.6949 86.2266C 41.6949 86.207 41.6949 86.1777 41.6753 86.1484C 40.224 81.0367 39.2729 75.8761 38.763 71.0184L 38.7826 71.0282ZM 38.4688 43.8217C 39.4003 45.1118 40.0377 47.047 40.1455 49.8033C 40.4005 49.1191 41.6262 46.3433 46.1173 42.2188C 43.7149 42.8345 41.1458 43.3916 38.4688 43.8217ZM 60.4335 27.5009C 59.4039 26.0055 58.2468 24.9597 57.0799 24.1484C 51.971 27.2077 43.5674 31.5766 34.3008 33.7073C 25.1421 35.8087 18.5722 35.6914 13.3555 35.0854C 16.6797 38.6822 22.3769 41.6241 29.3685 44.7517C 30.7903 41.7414 35.8011 40.1385 38.4683 43.8232C 41.1453 43.3932 43.7145 42.8361 46.1169 42.2203C 48.0389 40.461 50.5492 38.4476 53.8439 36.2583C 56.619 34.411 59.5412 32.6322 62.5418 30.9315C 61.9142 29.7782 61.2082 28.6444 60.4237 27.5106L 60.4335 27.5009ZM 45.5785 17.4531C 42.1759 19.2711 37.4789 21.2943 31.6934 22.604C 24.7018 24.1873 20.0538 24.2166 16.3668 23.5227C 14.3272 26.6894 12.7288 30.1005 11.6992 32.9252C 12.1601 33.6777 12.7083 34.3915 13.3555 35.0854C 18.5722 35.6914 25.1431 35.8085 34.3116 33.7071C 43.5781 31.5764 51.9818 27.2074 57.0906 24.1482C 52.7368 20.1507 48.9419 18.5576 45.5883 17.4531L 45.5785 17.4531ZM 31.4771 10C 26.1035 10 19.6218 18.4739 16.3662 23.5173C 20.0532 24.2014 24.7012 24.1819 31.6928 22.5985C 37.4783 21.2888 42.1753 19.2656 45.5779 17.4477C 43.1559 14.8185 36.8703 10 31.4771 10Z"></path></g></g></g><g id="g-root-0f.g-0f_fr_1d1s29c1soyzgq-stroke" data-item-order="-459570" transform="translate(710.02099609375, 185.73406982421875)"><g id="0f.g-0f_fr_1d1s29c1soyzgq-stroke" fill="none" stroke-linecap="butt" stroke-linejoin="miter" stroke-miterlimit="4" stroke="#ffffff" stroke-width="1"><g><path d="M 32.317839 62.919152C 31.425439 54.327952 31.935439 46.675052 33.622039 41.856452C 33.622039 41.856452 33.641639 41.895552 33.690639 41.964052C 33.435639 31.027052 24.826139 32.542052 22.904139 36.637252C 20.599739 41.543752 22.757139 49.362852 24.943839 59.136652C 27.503139 70.591652 27.405039 83.551852 27.405039 83.551852C 27.405039 83.551852 30.444939 78.195752 32.317839 62.919152ZM 24.7277 58.562439C 24.7277 58.562439 19.4423 59.139139 17.5498 59.383439C 16.0103 60.673639 14.461 61.973539 12.3135 63.058439M 24.051 55.269739C 24.051 55.269739 19.2264 53.090139 17.3535 52.679639C 15.461 53.363839 13.6959 54.380239 11.166 54.341139M 22.9038 50.713339C 22.9038 50.713339 19.3443 46.686539 17.5008 45.992639C 15.4906 45.992639 13.4804 46.344439 11.1172 45.445239M 10 12.929339C 16.8053 10.153539 23.6106 15.099139 26.8465 33.415339M 20.3154 10.008639C 27.4933 9.725139 32.1413 16.371439 29.327 33.759139"></path></g></g></g><g id="g-root-0d.g-0d_fr_1d1s29c1soyzgs-stroke" data-item-order="-459564" transform="translate(731.89697265625, 175.375)"><g id="0d.g-0d_fr_1d1s29c1soyzgs-stroke" fill="none" stroke-linecap="butt" stroke-linejoin="miter" stroke-miterlimit="4" stroke="#ffffff" stroke-width="1"><g><path d="M 55.8825 74.1686C 51.6856 72.7221 46.665 70.8064 40.5657 68.7344C 55.6374 80.5119 59.1675 85.2327 52.3622 93.7457C 44.7626 103.2557 35.0842 119.2555 24.3174 111.2116C 37.8495 128.3354 52.9408 110.0192 67.3358 89.8361C 70.4148 85.5161 62.423 78.6939 55.8727 74.1686L 55.8825 74.1686ZM 24.3169 111.2138C 35.0837 119.2479 44.7719 103.2579 52.3617 93.7479C 59.1572 85.2349 55.6369 80.5141 40.5652 68.7366C 40.5652 68.7366 37.0057 67.5344 35.0739 66.9284C 17.3547 61.3182 11.736 52.2188 11.736 52.2188C 7.6371 63.9669 10.4808 92.5262 23.6599 110.3928C 23.8756 110.686 24.0913 110.9401 24.3169 111.2236L 24.3169 111.2138ZM 85.4667 57.3286C 78.181 55.6964 43.7329 37.82 11.7363 52.2169C 11.7363 52.2169 17.3551 61.3163 35.0743 66.9265C 55.0881 73.26 64.59 78.9973 71.7581 75.9478C 78.9262 72.8984 83.28 60.1728 85.4667 57.3286ZM 100.1167 31.8438C 87.1631 39.311 53.1858 23.7314 11.7363 52.2223C 43.7427 37.8253 78.181 55.7018 85.4667 57.334C 86.4179 56.0927 87.3788 55.0274 88.33 54.0597C 93.586 47.4624 97.8711 38.7246 100.1069 31.8438L 100.1167 31.8438ZM 11.7363 52.2118C 53.1858 23.7308 87.1631 39.311 100.1167 31.8438C 101.8033 26.6538 102.3426 22.509 101.2443 21.1309C 98.4399 17.6025 84.241 13.2239 61.9718 20.2904C 49.4497 25.0307 36.4079 31.2371 25.494 38.4991C 13.266 46.6407 11.7363 52.2118 11.7363 52.2118ZM 96.2824 10.7589C 87.4081 12.0295 74.9742 15.3721 61.9814 20.2884C 84.2408 13.2219 98.4495 17.6103 101.254 21.1289C 103.8035 24.3348 97.567 42.4848 88.3495 54.0571C 95.8117 46.5508 103.3819 45.9252 110.2754 29.2119C 118.0515 10.3581 111.9718 8.5011 96.302 10.7589L 96.2824 10.7589Z"></path></g></g></g><g id="g-root-0c.g-0c_fr_18lyk4w1soz092-stroke" data-item-order="-459558" transform="translate(920.10400390625, 89.00006103515625)"><g id="0c.g-0c_fr_18lyk4w1soz092-stroke" fill="none" stroke-linecap="butt" stroke-linejoin="miter" stroke-miterlimit="4" stroke="#ffffff" stroke-width="1"><g><path d="M 27.441834 58.046827C 27.479234 56.896927 28.012534 52.171327 33.144334 44.374427C 32.863934 41.382827 30.611134 38.054627 27.442234 38.054627C 24.273434 38.054627 22.030034 41.382827 21.740234 44.374427C 26.872134 52.162027 27.404534 56.887526 27.441834 58.046827ZM 27.441834 58.046827C 27.385834 61.935926 26.058434 67.218026 23.674834 72.967527C 25.376034 83.634527 27.441834 92.628127 27.441834 92.628127C 27.441834 92.628127 29.507734 83.634527 31.209034 72.967527C 28.834734 67.218026 27.497934 61.935926 27.441834 58.046827ZM 44.885 10.282939C 36.2758 8.403839 29.2744 15.686539 29.2744 38.058239M 10 10.282939C 18.6092 8.403839 25.6106 15.686539 25.6106 38.058239"></path></g></g></g><g id="g-root-0b.g-0b_fr_18lyk4w1soz094-stroke" data-item-order="-459552" transform="translate(857.5469360351562, 68.5)"><g id="0b.g-0b_fr_18lyk4w1soz094-stroke" fill="none" stroke-linecap="butt" stroke-linejoin="miter" stroke-miterlimit="4" stroke="#ffffff" stroke-width="1"><g><path d="M 136.262061 83.9078C 132.074261 83.9826 126.998461 83.8891 120.913161 84.0106C 138.094161 89.6293 142.749261 92.6863 139.477661 102.4558C 135.822661 113.3753 132.410761 130.736 120.258861 127.0619C 137.813761 137.9346 145.263761 116.7595 151.498661 94.1447C 152.835361 89.3021 143.534461 85.8149 136.262061 83.8984L 136.262061 83.9078ZM 120.267761 127.0721C 132.419761 130.7462 135.831561 113.3854 139.486561 102.466C 142.758261 92.6965 138.103061 89.6301 120.922161 84.0208C 120.922161 84.0208 117.379361 84.1049 115.463161 84.1797C 97.936261 84.9089 90.000061 78.6172 90.000061 78.6172C 90.168361 90.3967 101.946361 114.9 119.417161 126.5392C 119.706961 126.7356 119.977961 126.8945 120.267761 127.0628L 120.267761 127.0721ZM 157.050361 59.3672C 150.058261 60.2647 113.714661 55.4781 89.990261 78.6164C 89.990261 78.6164 97.926461 84.9082 115.453261 84.1789C 135.260961 83.3563 145.543361 85.3943 150.908961 80.3646C 156.283861 75.335 156.022061 62.6019 157.040961 59.3672L 157.050361 59.3672ZM 161.790061 31.9453C 152.722861 42.7712 117.538261 39.8825 90.000061 78.6146C 113.724361 55.4669 150.068161 60.2535 157.060161 59.3654C 157.508861 57.9537 158.004261 56.6916 158.546461 55.523C 161.070261 47.9598 162.042461 38.798 161.799361 31.9453L 161.790061 31.9453ZM 90.000061 78.6146C 117.538261 39.8825 152.722861 42.7712 161.790061 31.9453C 161.612461 26.7848 160.733561 22.9241 159.322061 22.0546C 155.695161 19.8202 141.683061 20.5121 124.221561 33.9837C 114.649561 42.2387 105.086961 51.9802 97.758361 61.9647C 89.551161 73.1553 89.990461 78.615 89.990461 78.615L 90.000061 78.6146ZM 151.563661 14.4277C 144.104161 18.429 134.158261 25.4126 124.221761 33.9854C 141.683161 20.5138 155.695261 19.822 159.322161 22.0563C 162.621861 24.085 162.967761 42.2591 158.536961 55.5251C 162.724661 46.438 169.239961 43.4371 169.931761 26.3381C 170.716961 7.0421 164.734461 7.36 151.563661 14.4277ZM 43.729361 83.9078C 43.912261 83.9111 43.542961 83.9051 43.729361 83.9078C 47.808561 83.966 53.258761 83.8944 59.078161 84.0106C 41.897261 89.6293 37.242061 92.6863 40.513761 102.4558C 44.168661 113.3753 47.580561 130.736 59.732561 127.0619C 42.177661 137.9346 34.727561 116.7595 28.492661 94.1447C 27.155961 89.3021 36.456861 85.8243 43.729361 83.9078ZM 59.732561 127.0721C 47.580561 130.7462 44.168661 113.3854 40.513761 102.466C 37.242061 92.6965 41.897261 89.6301 59.078161 84.0208C 59.078161 84.0208 62.620961 84.1049 64.537161 84.1797C 82.064061 84.9089 90.000061 78.6172 90.000061 78.6172C 89.831761 90.3967 78.053961 114.9 60.583161 126.5392C 60.293361 126.7356 60.022361 126.8936 59.732561 127.0619L 59.732561 127.0721ZM 18.200761 31.9453C 27.267961 42.7712 62.452361 39.8828 89.990461 78.615C 66.266161 55.4673 29.922761 60.2535 22.930661 59.3654C 22.481961 57.9537 21.986561 56.6916 21.444461 55.523C 18.920561 47.9598 17.948461 38.798 18.191461 31.9453L 18.200761 31.9453ZM 90.000061 78.6146C 62.461861 39.8825 27.277261 42.7716 18.210061 31.9457C 18.387661 26.7851 19.266361 22.9241 20.677861 22.0546C 24.304661 19.8202 38.316861 20.5121 55.778261 33.9837C 65.350261 42.2387 74.912861 51.9802 82.241461 61.9647C 90.448661 73.1553 90.009361 78.615 90.009361 78.615L 90.000061 78.6146ZM 28.436361 14.4277C 35.895861 18.429 45.841761 25.4126 55.778261 33.9854C 38.316861 20.5138 24.304761 19.822 20.677861 22.0563C 17.378161 24.085 17.032261 42.2591 21.463061 55.5251C 17.275361 46.438 10.760061 43.4371 10.068261 26.3381C 9.283061 7.0421 15.265561 7.36 28.436361 14.4277ZM 43.729361 83.9078C 36.782561 83.7839 32.098261 83.1931 29.080961 80.3646C 23.706061 75.335 23.967761 62.6019 22.948861 59.3672L 22.939561 59.3672C 29.931561 60.2647 66.275761 55.4789 90.000061 78.6172C 90.000061 78.6172 82.063461 84.9082 64.536561 84.1789"></path></g></g></g><g id="g-root-tx_ineffici_hzo0hc1soz097-stroke" data-item-order="0" transform="translate(44.5, 344.5)"></g><g id="g-root-tx_accurate_1480h9s1soz01x-stroke" data-item-order="0" transform="translate(884.5, 344.5)"></g><g id="g-root-tx_implemen_4o7i401soz1u5-stroke" data-item-order="0" transform="translate(206.5, 368.5)"></g><g id="g-root-tx_monitorl_90h2o1soyzgn-stroke" data-item-order="0" transform="translate(392.5, 380.5)"></g><g id="g-root-tx_assessco_1lyo0og1soz0uh-stroke" data-item-order="0" transform="translate(530.5, 380.5)"></g><g id="g-root-tx_optimize_1hiuik01soz1mr-stroke" data-item-order="0" transform="translate(716.5, 368.5)"></g><g id="g-root-tx_poorinve_djuicw1soz11g-stroke" data-item-order="0" transform="translate(26.5, 404.5)"></g><g id="g-root-tx_usengenu_90h2o1soyzgm-stroke" data-item-order="0" transform="translate(194.5, 428.5)"></g><g id="g-root-tx_inventor_vai1rk1soz1u2-stroke" data-item-order="0" transform="translate(302.5, 508.5)"></g><g id="g-root-tx_realtime_1480h9s1soz01y-stroke" data-item-order="0" transform="translate(866.5, 404.5)"></g><g id="g-root-tx_trackgas_1uub0xc1soz01s-stroke" data-item-order="0" transform="translate(362.5, 440.5)"></g><g id="g-root-tx_improvep_18n7ib41soz2fg-stroke" data-item-order="0" transform="translate(698.5, 428.5)"></g><g id="g-root-tx_calculat_1hiuik01soz1mq-stroke" data-item-order="0" transform="translate(524.5, 416.5)"></g></g></g></svg>