<?xml version="1.0" encoding="utf-8" standalone="yes"?>
<!DOCTYPE svg PUBLIC "-//W3C//DTD SVG 1.1//EN" "http://www.w3.org/Graphics/SVG/1.1/DTD/svg11.dtd">
<svg width="626" height="383" viewBox="0 0 626 383" style="fill:none;stroke:none;fill-rule:evenodd;clip-rule:evenodd;stroke-linecap:round;stroke-linejoin:round;stroke-miterlimit:1.5;" version="1.1" xmlns="http://www.w3.org/2000/svg" xmlns:xlink="http://www.w3.org/1999/xlink"><style class="text-font-style fontImports" data-font-family="Roboto">@import url('https://fonts.googleapis.com/css2?family=Roboto:wght@400;700&amp;display=block');</style><g id="items" style="isolation: isolate"><g id="blend" style="mix-blend-mode: normal"><g id="g-root-1.g-1_fr_v802ao1ucjytp-fill" data-item-order="5999799562" transform="translate(50.779693603515625, 72)"><g id="1.g-1_fr_v802ao1ucjytp-fill" stroke="none" fill="#3cc583"><g><path d="M 10.0076 94L 52.1342 94C 52.0584 93.2724 52.0205 92.5258 52.0205 91.76C 52.0205 84.8533 54.5279 79.72 59.5427 76.36C 64.5575 73 71.3015 71.32 79.7748 71.32C 87.7292 71.32 94.3004 73.1867 99.4881 76.92C 104.6758 80.4667 107.702 84.6667 108.5666 89.52C 108.8498 91.1099 110.221 92.8758 111.604 93.6225C 111.875 93.7687 112.172 93.8937 112.487 94L 112.485 94C 113.775 94.4366 115.355 94.56 116.606 94.56L 145.917 94.56C 146.815 94.56 147.628 94.3733 148.353 94L 148.354 94C 148.885 93.7267 149.37 93.3534 149.809 92.88C 150.846 91.5733 151.365 90.1733 151.365 88.68C 151.192 81.96 148.944 75.0533 144.621 67.96C 140.471 60.68 134.332 54.24 126.205 48.64C 118.25 42.8533 108.3072 38.9333 96.3755 36.88L 96.3755 17C 96.3755 14.9467 95.7702 13.2667 94.5598 11.96C 93.3493 10.6533 91.8794 10 90.1502 10L 71.7338 10C 69.8316 10 68.2753 10.6533 67.0648 11.96C 65.8544 13.2667 65.2491 14.9467 65.2491 17L 65.2491 36.32C 47.9568 38.7467 34.3823 45.0933 24.5256 55.36C 14.8419 65.6267 10 78.1333 10 92.88C 10 93.2553 10.0025 93.6287 10.0076 94Z"></path></g></g></g><g id="g-root-2.g-2_fr_qs6k681ucjzlz-fill" data-item-order="5999799566" transform="translate(50.786712646484375, 156)"><g id="2.g-2_fr_qs6k681ucjzlz-fill" stroke="none" fill="#92bd39"><g><path d="M 157.055 94C 157.061 93.6281 157.064 93.2548 157.064 92.88C 157.064 81.68 154.816 72.44 150.32 65.16C 145.997 57.6933 139.08 51.6267 129.569 46.96C 120.058 42.2933 107.6944 38.28 92.4771 34.92C 82.4475 32.12 74.493 29.6 68.6136 27.36C 62.7342 24.9333 58.4976 22.2267 55.9037 19.24C 53.7532 16.6091 52.4942 13.5291 52.1266 10L 10 10C 10.1456 20.7098 12.3911 29.7631 16.7365 37.16C 21.4054 44.6267 28.2359 50.7867 37.2279 55.64C 46.22 60.3067 57.2007 64.1333 70.1699 67.12C 81.0641 69.92 89.7103 72.5333 96.1085 74.96C 102.6796 77.3867 107.435 80.0933 110.375 83.08C 113.306 85.8924 114.857 89.5324 115.028 94L 157.055 94Z"></path></g></g></g><g id="g-root-3.g-3_fr_qs6k681ucjzm1-fill" data-item-order="5999799570" transform="translate(45.8507080078125, 237.761962890625)"><g id="3.g-3_fr_qs6k681ucjzm1-fill" stroke="none" fill="#1eabda"><g><path d="M 49.9241 12.2383C 49.7073 12.044 49.479 11.8571 49.2388 11.6719C 48.0283 10.5519 45.7084 10 43.4604 10L 15.7061 10C 14.1498 10 12.7664 10.6533 11.5559 11.96C 11.4711 12.0515 11.3898 12.1443 11.312 12.2383L 11.3109 12.2383C 10.437 13.2944 10 14.5077 10 15.8783C 10.3459 24.2783 12.7668 32.3049 17.2628 39.9583C 21.7588 47.6116 28.4164 54.1449 37.2355 59.5583C 46.0546 64.7849 57.0353 68.2383 70.1775 69.9183L 70.1775 89.2383C 70.1775 91.2916 70.7827 92.9716 71.9932 94.2783C 73.2036 95.585 74.7599 96.2383 76.6621 96.2383L 95.0785 96.2383C 96.8077 96.2383 98.2776 95.585 99.4881 94.2783C 100.6985 92.9716 101.3038 91.2916 101.3038 89.2383L 101.3038 69.9183C 113.581 68.2383 124.216 64.8783 133.208 59.8383C 142.373 54.7983 149.463 48.1716 154.478 39.9583C 159.319 31.8491 161.823 22.6091 161.991 12.2383L 119.964 12.2383C 119.974 12.5151 119.98 12.7951 119.98 13.0783C 119.98 19.7983 117.126 25.1183 111.42 29.0383C 105.8862 32.9583 97.4994 34.9183 86.2594 34.9183C 79.3424 34.9183 73.5495 33.985 68.8806 32.1183C 64.2116 30.065 60.4937 27.545 57.727 24.5583C 55.1331 21.5716 53.231 18.4916 52.0205 15.3183C 51.4896 13.9265 50.8014 13.0226 49.9264 12.2383L 49.9241 12.2383Z"></path></g></g></g><g id="g-root-1.text-1_fr_mczj4w1ucjx8j-fill" data-item-order="5999799579" transform="translate(297.8507080078125, 84)"></g><g id="g-root-2.text-2_fr_dhciw01ucjy19-fill" data-item-order="5999799595" transform="translate(297.8507080078125, 168)"></g><g id="g-root-3.text-3_fr_91j0rk1ucjytj-fill" data-item-order="5999799609" transform="translate(297.8507080078125, 252)"></g><g id="g-root-moni_me8hb41ucjzes-fill" data-item-order="6000000000" transform="translate(237.8507080078125, 90)"></g><g id="g-root-tx_trading_zpozog1ucjxtu-fill" data-item-order="6000000000" transform="translate(309.8507080078125, 84)"><g id="tx_trading_zpozog1ucjxtu-fill" stroke="none" fill="#3cc583"><g><text style="font: bold 20px Roboto, sans-serif; white-space: pre;" font-weight="bold" font-size="20px" font-family="Roboto, sans-serif"><tspan x="12" y="33.5" dominant-baseline="ideographic">Trading</tspan></text></g></g></g><g id="g-root-tx_evaluati_qu1zfk1ucjymj-fill" data-item-order="6000000000" transform="translate(309.8507080078125, 120)"><g id="tx_evaluati_qu1zfk1ucjymj-fill" stroke="none" fill="#374840"><g><text style="font: 15px Roboto, sans-serif; white-space: pre;" font-size="15px" font-family="Roboto, sans-serif"><tspan x="12" y="30.5" dominant-baseline="ideographic">Evaluating trading profitability</tspan></text></g></g></g><g id="g-root-2_dcz7a81uctqmf-fill" data-item-order="6000000000" transform="translate(237.8507080078125, 174)"></g><g id="g-root-tx_investme_qnt8kg1ucts78-fill" data-item-order="6000000000" transform="translate(309.8507080078125, 168)"><g id="tx_investme_qnt8kg1ucts78-fill" stroke="none" fill="#92bd39"><g><text style="font: bold 20px Roboto, sans-serif; white-space: pre;" font-weight="bold" font-size="20px" font-family="Roboto, sans-serif"><tspan x="12" y="33.5" dominant-baseline="ideographic">Investment Portfolios</tspan></text></g></g></g><g id="g-root-tx_analyzin_hs68bk1uctszy-fill" data-item-order="6000000000" transform="translate(309.8507080078125, 204)"><g id="tx_analyzin_hs68bk1uctszy-fill" stroke="none" fill="#424736"><g><text style="font: 15px Roboto, sans-serif; white-space: pre;" font-size="15px" font-family="Roboto, sans-serif"><tspan x="12" y="30.5" dominant-baseline="ideographic">Analyzing portfolio performance</tspan></text></g></g></g><g id="g-root-1_3e4681ucxyiv-fill" data-item-order="6000000000" transform="translate(237.8507080078125, 258)"></g><g id="g-root-tx_contract_1lwsiao1ucwjr9-fill" data-item-order="6000000000" transform="translate(309.8507080078125, 252)"><g id="tx_contract_1lwsiao1ucwjr9-fill" stroke="none" fill="#1eabda"><g><text style="font: bold 20px Roboto, sans-serif; white-space: pre;" font-weight="bold" font-size="20px" font-family="Roboto, sans-serif"><tspan x="12" y="33.5" dominant-baseline="ideographic">Contracts</tspan></text></g></g></g><g id="g-root-tx_assessin_1cuaa3k1ucy0aq-fill" data-item-order="6000000000" transform="translate(309.8507080078125, 288)"><g id="tx_assessin_1cuaa3k1ucy0aq-fill" stroke="none" fill="#32444a"><g><text style="font: 15px Roboto, sans-serif; white-space: pre;" font-size="15px" font-family="Roboto, sans-serif"><tspan x="12" y="30.5" dominant-baseline="ideographic">Assessing financial outcomes</tspan></text></g></g></g><g id="g-root-1.g-1_fr_v802ao1ucjytp-stroke" data-item-order="5999799562" transform="translate(50.779693603515625, 72)"><g id="1.g-1_fr_v802ao1ucjytp-stroke" fill="none" stroke-linecap="round" stroke-linejoin="round" stroke-miterlimit="4" stroke="#ffffff" stroke-width="2"><g><path d="M 10.0076 94L 52.1342 94C 52.0584 93.2724 52.0205 92.5258 52.0205 91.76C 52.0205 84.8533 54.5279 79.72 59.5427 76.36C 64.5575 73 71.3015 71.32 79.7748 71.32C 87.7292 71.32 94.3004 73.1867 99.4881 76.92C 104.6758 80.4667 107.702 84.6667 108.5666 89.52C 108.8498 91.1099 110.221 92.8758 111.6044 93.6225C 111.8753 93.7687 112.1724 93.8937 112.4865 94L 112.4854 94C 113.7754 94.4366 115.3548 94.56 116.6064 94.56L 145.9169 94.56C 146.8155 94.56 147.6275 94.3733 148.3531 94L 148.3543 94C 148.8855 93.7267 149.3704 93.3534 149.8089 92.88C 150.8464 91.5733 151.3652 90.1733 151.3652 88.68C 151.1923 81.96 148.9443 75.0533 144.6212 67.96C 140.471 60.68 134.3322 54.24 126.2048 48.64C 118.2503 42.8533 108.3072 38.9333 96.3755 36.88L 96.3755 17C 96.3755 14.9467 95.7702 13.2667 94.5598 11.96C 93.3493 10.6533 91.8794 10 90.1502 10L 71.7338 10C 69.8316 10 68.2753 10.6533 67.0648 11.96C 65.8544 13.2667 65.2491 14.9467 65.2491 17L 65.2491 36.32C 47.9568 38.7467 34.3823 45.0933 24.5256 55.36C 14.8419 65.6267 10 78.1333 10 92.88C 10 93.2553 10.0025 93.6287 10.0076 94Z"></path></g></g></g><g id="g-root-2.g-2_fr_qs6k681ucjzlz-stroke" data-item-order="5999799566" transform="translate(50.786712646484375, 156)"><g id="2.g-2_fr_qs6k681ucjzlz-stroke" fill="none" stroke-linecap="round" stroke-linejoin="round" stroke-miterlimit="4" stroke="#ffffff" stroke-width="2"><g><path d="M 157.0551 94C 157.0611 93.6281 157.0641 93.2548 157.0641 92.88C 157.0641 81.68 154.8161 72.44 150.3201 65.16C 145.997 57.6933 139.08 51.6267 129.5692 46.96C 120.0584 42.2933 107.6944 38.28 92.4771 34.92C 82.4475 32.12 74.493 29.6 68.6136 27.36C 62.7342 24.9333 58.4976 22.2267 55.9037 19.24C 53.7532 16.6091 52.4942 13.5291 52.1266 10L 10 10C 10.1456 20.7098 12.3911 29.7631 16.7365 37.16C 21.4054 44.6267 28.2359 50.7867 37.2279 55.64C 46.22 60.3067 57.2007 64.1333 70.1699 67.12C 81.0641 69.92 89.7103 72.5333 96.1085 74.96C 102.6796 77.3867 107.435 80.0933 110.3747 83.08C 113.3057 85.8924 114.8567 89.5324 115.0277 94L 157.0551 94Z"></path></g></g></g><g id="g-root-3.g-3_fr_qs6k681ucjzm1-stroke" data-item-order="5999799570" transform="translate(45.8507080078125, 237.761962890625)"><g id="3.g-3_fr_qs6k681ucjzm1-stroke" fill="none" stroke-linecap="round" stroke-linejoin="round" stroke-miterlimit="4" stroke="#ffffff" stroke-width="2"><g><path d="M 49.9241 12.2383C 49.7073 12.044 49.479 11.8571 49.2388 11.6719C 48.0283 10.5519 45.7084 10 43.4604 10L 15.7061 10C 14.1498 10 12.7664 10.6533 11.5559 11.96C 11.4711 12.0515 11.3898 12.1443 11.312 12.2383L 11.3109 12.2383C 10.437 13.2944 10 14.5077 10 15.8783C 10.3459 24.2783 12.7668 32.3049 17.2628 39.9583C 21.7588 47.6116 28.4164 54.1449 37.2355 59.5583C 46.0546 64.7849 57.0353 68.2383 70.1775 69.9183L 70.1775 89.2383C 70.1775 91.2916 70.7827 92.9716 71.9932 94.2783C 73.2036 95.585 74.7599 96.2383 76.6621 96.2383L 95.0785 96.2383C 96.8077 96.2383 98.2776 95.585 99.4881 94.2783C 100.6985 92.9716 101.3038 91.2916 101.3038 89.2383L 101.3038 69.9183C 113.5814 68.2383 124.2162 64.8783 133.2082 59.8383C 142.3732 54.7983 149.463 48.1716 154.4778 39.9583C 159.319 31.8491 161.8234 22.6091 161.991 12.2383L 119.9636 12.2383C 119.9742 12.5151 119.9795 12.7951 119.9795 13.0783C 119.9795 19.7983 117.1263 25.1183 111.4198 29.0383C 105.8862 32.9583 97.4994 34.9183 86.2594 34.9183C 79.3424 34.9183 73.5495 33.985 68.8806 32.1183C 64.2116 30.065 60.4937 27.545 57.727 24.5583C 55.1331 21.5716 53.231 18.4916 52.0205 15.3183C 51.4896 13.9265 50.8014 13.0226 49.9264 12.2383L 49.9241 12.2383Z"></path></g></g></g><g id="g-root-1.text-1_fr_mczj4w1ucjx8j-stroke" data-item-order="5999799579" transform="translate(297.8507080078125, 84)"><g id="1.text-1_fr_mczj4w1ucjx8j-stroke" fill="none" stroke-linecap="round" stroke-linejoin="round" stroke-miterlimit="4" stroke="#3cc583" stroke-width="2"><g><path d="M 10 10L 10 70"></path></g></g></g><g id="g-root-2.text-2_fr_dhciw01ucjy19-stroke" data-item-order="5999799595" transform="translate(297.8507080078125, 168)"><g id="2.text-2_fr_dhciw01ucjy19-stroke" fill="none" stroke-linecap="round" stroke-linejoin="round" stroke-miterlimit="4" stroke="#92bd39" stroke-width="2"><g><path d="M 10 10L 10 70"></path></g></g></g><g id="g-root-3.text-3_fr_91j0rk1ucjytj-stroke" data-item-order="5999799609" transform="translate(297.8507080078125, 252)"><g id="3.text-3_fr_91j0rk1ucjytj-stroke" fill="none" stroke-linecap="round" stroke-linejoin="round" stroke-miterlimit="4" stroke="#1eabda" stroke-width="2"><g><path d="M 10 10L 10 70"></path></g></g></g><g id="g-root-moni_me8hb41ucjzes-stroke" data-item-order="6000000000" transform="translate(237.8507080078125, 90)"><g id="moni_me8hb41ucjzes-stroke" fill="none" stroke-linecap="round" stroke-linejoin="round" stroke-miterlimit="4" stroke="#3cc583" stroke-width="2"><g><path d="M 10 10M 46.099998 54.400002L 41.5 50L 46.099998 45.599998M 53.5 44C 53.5 47.400002 50.900002 50 47.5 50L 41.5 50M 10 10M 22.5 13.59998L 27.1 17.999981L 22.5 22.399979M 15.1 24C 15.1 20.6 17.700001 18 21.1 18L 27.1 18M 23.5 56.5C 30.127399 56.5 35.5 51.127399 35.5 44.5C 35.5 37.872601 30.127399 32.5 23.5 32.5C 16.87258 32.5 11.5 37.872601 11.5 44.5C 11.5 51.127399 16.87258 56.5 23.5 56.5ZM 21.30002 48.5C 21.70002 49.099998 22.700001 49.5 23.5 49.5C 25.1 49.5 26.30002 48.299999 26.30002 47.099998C 26.30002 45.700001 25.1 44.700001 23.5 44.700001C 21.9 44.700001 20.70002 43.5 20.70002 42.099998C 20.70002 40.700001 21.9 39.700001 23.5 39.700001C 24.299999 39.700001 24.9 39.900002 25.5 40.5M 23.5 37.5L 23.5 39.700001M 23.5 49.5L 23.5 51.700001M 56.5 27.5C 56.5 28.700001 55.700001 29.5 54.5 29.5L 36.5 29.5C 35.299999 29.5 34.5 28.700001 34.5 27.5L 34.5 13.5C 34.5 12.3 35.299999 11.5 36.5 11.5L 54.5 11.5C 55.700001 11.5 56.5 12.3 56.5 13.5L 56.5 27.5ZM 45.5 29.5L 45.5 35.5M 41.5 35.5L 49.5 35.5M 10 10M 40.200001 23.5L 42.799999 18.9L 47.799999 22.9L 50.799999 17.5"></path></g></g></g><g id="g-root-tx_trading_zpozog1ucjxtu-stroke" data-item-order="6000000000" transform="translate(309.8507080078125, 84)"></g><g id="g-root-tx_evaluati_qu1zfk1ucjymj-stroke" data-item-order="6000000000" transform="translate(309.8507080078125, 120)"></g><g id="g-root-2_dcz7a81uctqmf-stroke" data-item-order="6000000000" transform="translate(237.8507080078125, 174)"><g id="2_dcz7a81uctqmf-stroke" fill="none" stroke-linecap="round" stroke-linejoin="round" stroke-miterlimit="4" stroke="#92bd39" stroke-width="2"><g><path d="M 15.5 47.900002C 15.5 48.900002 16.30434 49.900002 17.51086 50.299999L 34 56.299999L 34 33.900002L 19.1196 28.500019C 17.30982 27.900021 15.5 29.1 15.5 30.9L 15.5 47.900002ZM 52.400002 47.900002C 52.400002 48.900002 51.599998 49.900002 50.400002 50.299999L 34 56.299999L 34 33.900002L 48.799999 28.500019C 50.599998 27.900021 52.400002 29.1 52.400002 30.9L 52.400002 47.900002ZM 10 10M 41.5 40.400002L 46.099998 38.400002M 10 10M 48.5 11.5L 36.099998 22.29998L 30.5 16.29998L 21.10004 23.9M 41.099998 11.5L 48.5 11.5L 48.5 18.9"></path></g></g></g><g id="g-root-tx_investme_qnt8kg1ucts78-stroke" data-item-order="6000000000" transform="translate(309.8507080078125, 168)"></g><g id="g-root-tx_analyzin_hs68bk1uctszy-stroke" data-item-order="6000000000" transform="translate(309.8507080078125, 204)"></g><g id="g-root-1_3e4681ucxyiv-stroke" data-item-order="6000000000" transform="translate(237.8507080078125, 258)"><g id="1_3e4681ucxyiv-stroke" fill="none" stroke-linecap="round" stroke-linejoin="round" stroke-miterlimit="4" stroke="#1eabda" stroke-width="2"><g><path d="M 21.007999 11L 47.007999 11C 47.007999 11 52.007999 11 52.007999 16L 52.007999 52C 52.007999 52 52.007999 57 47.007999 57L 21.007999 57C 21.007999 57 16.007999 57 16.007999 52L 16.007999 16C 16.007999 16 16.007999 11 21.007999 11M 16.007999 41L 52.007999 41M 16.007999 27L 52.007999 27M 34.007999 27L 34.007999 57M 21.007999 35L 27.007999 35M 40.007999 35L 46.007999 35M 40.007999 51L 46.007999 51M 40.007999 47L 46.007999 47M 24.007999 32L 24.007999 38M 21.007999 46L 27.007999 52M 27.007999 46L 21.007999 52M 44.009998 21L 44.009998 17"></path></g></g></g><g id="g-root-tx_contract_1lwsiao1ucwjr9-stroke" data-item-order="6000000000" transform="translate(309.8507080078125, 252)"></g><g id="g-root-tx_assessin_1cuaa3k1ucy0aq-stroke" data-item-order="6000000000" transform="translate(309.8507080078125, 288)"></g></g></g></svg>